<svg xmlns="http://www.w3.org/2000/svg" xmlns:xlink="http://www.w3.org/1999/xlink" viewBox="0 0 223.75 223.75"><defs><style>.cls-1{fill:url(#linear-gradient);}</style><linearGradient id="linear-gradient" x1="51.47" y1="54.94" x2="192.8" y2="188.15" gradientUnits="userSpaceOnUse"><stop offset="0" stop-color="#8cc63f"/><stop offset="0.37" stop-color="#4fa176"/><stop offset="0.81" stop-color="#0071bc"/></linearGradient></defs><title>martoms studios secondary</title><g id="Layer_2" data-name="Layer 2"><g id="Layer_1-2" data-name="Layer 1"><path class="cls-1" d="M217.28,127.5,127.5,217.28a22.1,22.1,0,0,1-31.25,0L6.47,127.5a22.1,22.1,0,0,1,0-31.25L96.25,6.47a22.1,22.1,0,0,1,31.25,0l89.78,89.78A22.1,22.1,0,0,1,217.28,127.5ZM99.74,79.19l8,8a7.25,7.25,0,0,0,10.25,0l13.15-13.14L144.3,60.92a7.25,7.25,0,0,0,0-10.25l-8-8a7.25,7.25,0,0,0-10.25,0l-8,8a7.25,7.25,0,0,1-10.25,0l-8-8a7.25,7.25,0,0,0-10.25,0L76.35,55.8,58.08,74.07,39.81,92.34,24.19,107.76a7.25,7.25,0,0,0,0,10.25l8,8a7.25,7.25,0,0,0,10.25,0l15.62-15.42L76.35,92.34,89.49,79.19A7.25,7.25,0,0,1,99.74,79.19Zm95.36,22.28L176.83,83.2,158.56,64.93,140.29,83.2l-27.68,27.68L94.34,92.61,76.07,110.88l18.27,18.27,18.27,18.27,18.27-18.27,27.68-27.68,18.27,18.27,8.85,8.85,18.26-18.27Z"/></g></g></svg>