<svg xmlns="http://www.w3.org/2000/svg" xmlns:xlink="http://www.w3.org/1999/xlink" viewBox="0 0 313.65 184.34"><defs><style>.cls-1{fill:url(#linear-gradient);}.cls-2{fill:url(#linear-gradient-2);}</style><linearGradient id="linear-gradient" x1="99.35" y1="67.36" x2="205.91" y2="178.24" gradientUnits="userSpaceOnUse"><stop offset="0" stop-color="#8cc63f"/><stop offset="0.37" stop-color="#4fa176"/><stop offset="0.81" stop-color="#0071bc"/></linearGradient><linearGradient id="linear-gradient-2" x1="126.72" y1="41.06" x2="233.34" y2="152" xlink:href="#linear-gradient"/></defs><title>martoms studios logo</title><g id="Layer_2" data-name="Layer 2"><g id="Layer_1-2" data-name="Layer 1"><path class="cls-1" d="M134,66.67l13.84,13.84a12.49,12.49,0,0,0,17.67,0l22.67-22.67L210.8,35.17a12.49,12.49,0,0,0,0-17.67L197,3.66a12.49,12.49,0,0,0-17.67,0L165.46,17.5a12.49,12.49,0,0,1-17.67,0L134,3.66a12.49,12.49,0,0,0-17.67,0L93.61,26.33,62.1,57.84,30.6,89.34,3.66,116a12.49,12.49,0,0,0,0,17.67L17.5,147.45a12.49,12.49,0,0,0,17.67,0l26.93-26.6L93.61,89.34l22.67-22.67A12.49,12.49,0,0,1,134,66.67Z"/><polygon class="cls-2" points="298.4 105.1 266.89 73.59 235.39 42.08 203.88 73.59 156.14 121.33 124.64 89.82 93.13 121.33 124.64 152.83 156.14 184.34 187.65 152.83 235.39 105.1 266.89 136.6 282.14 151.85 313.65 120.35 298.4 105.1"/></g></g></svg>