<?xml version="1.0" encoding="UTF-8"?>
<svg id="Layer_2" data-name="Layer 2" xmlns="http://www.w3.org/2000/svg" viewBox="0 0 67.13 67.13">
  <defs>
    <style>
      .cls-1 {
        fill: #f8991d;
      }

      .cls-2 {
        fill: #f7991e;
      }

      .cls-3 {
        fill: #301211;
      }

      .cls-4 {
        fill: #331311;
      }

      .cls-5 {
        fill: none;
      }

      .cls-6 {
        fill: #f8991e;
      }
    </style>
  </defs>
  <g id="Layer_3" data-name="Layer 3">
    <g>
      <g id="Layer_1-2" data-name="Layer 1-2">
        <g>
          <path class="cls-3" d="m10.83.91h45.22c.29.1.59.08.89.13,2.08.34,3.96,1.14,5.61,2.47,2.24,1.82,3.67,4.15,4.23,6.99.09.43.15.87.22,1.3v43.6c-.06.02-.05.07-.05.11-.04.5-.13,1-.23,1.48-1.18,5.32-5.97,9.22-11.41,9.23-14.53.01-29.06,0-43.59,0-1.15,0-2.27-.19-3.37-.53C3.36,64.13,0,59.57,0,54.35V12.77c0-.6.03-1.21.13-1.8.41-2.53,1.49-4.73,3.3-6.55,1.72-1.73,3.79-2.83,6.19-3.31.41-.08.82-.08,1.21-.21h0Zm16.36,16.73h-3.46c-.36,0-.43.05-.42.42,0,.95-.18,1.86-.49,2.76-2.88,8.27-5.75,16.54-8.62,24.81-.11.3-.22.61-.31.92-.1.34,0,.47.34.5h5.11c.43,0,.53-.09.66-.49.67-2.07,1.34-4.14,2.01-6.22.05-.17.12-.25.32-.25,3.3,0,6.61,0,9.91,0,.2,0,.27.07.32.24.68,1.98,1.37,3.96,2.05,5.95.28.81.25.77,1.07.77h5.22c.45,0,.53-.12.39-.54,0-.03-.02-.07-.03-.11-3.35-9.45-6.7-18.9-10.04-28.36-.11-.3-.26-.42-.58-.42-1.15.02-2.29,0-3.43,0h0Zm17.08,18.24v10.61c0,.48.11.59.59.59h5.11c.47,0,.55-.08.55-.55v-21.27c0-.43-.09-.51-.53-.51h-5.17c-.5,0-.56.06-.56.56v10.58h0Zm-.31-17.01c0,2.18,1.56,3.6,3.65,3.54,1.96-.05,3.36-1.67,3.31-3.63-.04-2.01-1.41-3.38-3.46-3.38-2.03,0-3.5,1.47-3.5,3.47h0Z"/>
          <path class="cls-6" d="m27.19,17.64c1.15,0,2.29,0,3.43,0,.32,0,.47.12.58.42,3.34,9.46,6.69,18.9,10.04,28.36.01.03.02.07.03.11.14.43.06.54-.39.54h-5.22c-.82,0-.79.04-1.07-.77-.68-1.98-1.37-3.96-2.05-5.95-.06-.17-.13-.25-.32-.24-3.3,0-6.61,0-9.91,0-.2,0-.27.07-.32.25-.67,2.07-1.34,4.15-2.01,6.22-.13.41-.24.49-.66.49h-5.11c-.34-.03-.44-.16-.34-.5.1-.31.2-.61.31-.92,2.87-8.27,5.75-16.54,8.62-24.81.31-.89.49-1.8.49-2.76,0-.37.06-.42.42-.42h3.46Zm.03,5.17s-.04,0-.06,0c-.07.32-.14.65-.23.97-.93,3.48-2.04,6.9-3.13,10.33-.1.32-.11.31.22.31h5.58c.31,0,.63,0,.95,0,.2,0,.24-.05.17-.24-.11-.29-.18-.59-.28-.88-.98-3.05-1.97-6.09-2.84-9.17-.13-.45-.26-.9-.38-1.35h0Z"/>
          <path class="cls-1" d="m44.27,35.88v-10.58c0-.5.06-.56.56-.56h5.17c.44,0,.53.08.53.51v21.27c0,.47-.08.55-.55.55h-5.11c-.48,0-.59-.11-.59-.59v-10.61h0Z"/>
          <path class="cls-2" d="m43.96,18.87c0-2,1.48-3.47,3.5-3.47s3.42,1.36,3.46,3.38c.04,1.96-1.35,3.57-3.31,3.63-2.08.06-3.65-1.35-3.65-3.54h0Z"/>
          <path class="cls-4" d="m27.22,22.81c.13.45.26.9.38,1.35.88,3.08,1.87,6.12,2.84,9.17.09.29.17.59.28.88.07.19.03.25-.17.24-.31,0-.63,0-.95,0h-5.58c-.33,0-.32,0-.22-.31,1.09-3.43,2.2-6.85,3.13-10.33.09-.32.15-.65.23-.97.02,0,.04,0,.06,0h0Z"/>
        </g>
      </g>
      <rect class="cls-5" width="67.13" height="67.13"/>
    </g>
  </g>
</svg>