<?xml version="1.0" encoding="UTF-8"?>
<svg id="Layer_2" data-name="Layer 2" xmlns="http://www.w3.org/2000/svg" viewBox="0 0 67.13 67.15">
  <defs>
    <style>
      .cls-1 {
        fill: #5a479d;
      }

      .cls-2 {
        fill: #4e3795;
      }

      .cls-3 {
        fill: none;
      }

      .cls-4 {
        fill: #dcc9e2;
      }

      .cls-5 {
        fill: #fefefe;
      }
    </style>
  </defs>
  <g id="Layer_3" data-name="Layer 3">
    <g>
      <g id="Layer_1-2" data-name="Layer 1-2">
        <g>
          <path class="cls-2" d="m33.17,67.15c-.7-.23-1.41-.49-2.12-.69-5.46-1.53-10.92-3.06-16.38-4.58.17-.21.33-.45.53-.63.15-.14.38-.19.54-.32.66-.5,1.31-1.02,1.96-1.54.72-.58,1.74-.79,2.21-1.7.05-.1.2-.16.31-.23.22-.16.43-.32.66-.45.13-.08.29-.13.44-.17.13-.04.29-.03.39-.1.62-.45,1.26-.89,1.85-1.38.31-.26.55-.6.83-.91,3.52,0,7.03,0,10.55-.04,2.3-.03,4.56-.36,6.74-1.17,2.62-.97,4.83-2.49,6.07-5.07,1.71-3.56,1.85-7.21.23-10.87.15-.31.24-.66.47-.89.32-.33.73-.57,1.1-.84,1.56-1.16,3.1-2.34,4.75-3.36.7-.43,1.35-.94,2.03-1.41.38-.26.79-.46,1.15-.75.73-.59,1.42-1.24,2.16-1.81.16-.12.48-.03.72-.04-.31,3.82-.6,7.64-.92,11.46-.26,3.03-.52,6.05-.8,9.08-.1,1.09-.29,2.17-.38,3.26-.12,1.42-.17,2.85-.28,4.27-.09,1.24-.23,2.48-.32,3.72-.03.37-.18.52-.52.61-4.27,1.18-8.53,2.37-12.8,3.56-3.46.97-6.92,1.92-10.38,2.89-.05.01-.09.08-.13.12h-.65,0Z"/>
          <path class="cls-1" d="m24.37,54.45c-.28.31-.52.65-.83.91-.6.49-1.22.93-1.85,1.38-.1.07-.26.06-.39.1-.15.05-.31.09-.44.17-.23.13-.44.3-.66.45-.11.07-.26.13-.31.23-.47.92-1.48,1.12-2.21,1.7-.65.53-1.3,1.04-1.96,1.54-.16.13-.39.18-.54.32-.2.18-.35.42-.53.63-1.53-.43-3.06-.88-4.59-1.28-.43-.11-.6-.31-.63-.75-.26-3.18-.54-6.36-.82-9.53-.33-3.7-.67-7.4-.99-11.1-.32-3.63-.64-7.27-.96-10.9-.33-3.8-.67-7.6-1.01-11.4-.33-3.68-.64-7.35-.97-11.04-.16-1.74-.32-3.48-.48-5.22-.02-.21-.02-.43-.04-.67h58.76c-.15,1.7-.29,3.38-.44,5.05-.33,3.74-.66,7.49-1,11.23-.09,1.04-.27,2.07-.38,3.1-.07.68-.05,1.37-.11,2.06-.07.79-.18,1.58-.27,2.36-.06.57-.11,1.15-.15,1.73-.06.84-.09,1.68-.14,2.51,0,.05-.07.09-.11.14-.24,0-.56-.09-.72.04-.75.57-1.43,1.22-2.16,1.81-.35.28-.77.48-1.15.75-.68.46-1.33.97-2.03,1.41-1.65,1.03-3.19,2.21-4.75,3.36-.38.28-.79.51-1.1.84-.23.23-.31.59-.47.89-1.31-2.19-3.18-3.65-5.86-4.32,2.01-.75,3.5-1.95,4.55-3.56,1.04-1.58,1.49-3.41,1.47-5.33s-.33-3.78-1.32-5.47c-1.16-2.16-3.02-3.52-5.23-4.44-2.82-1.16-5.81-1.45-8.83-1.46-4.68-.03-9.35,0-14.03,0h-.64v37.34c0,.24.02.48.04.72-.06,1.21-.13,2.41-.19,3.68h6.46,0Z"/>
          <path class="cls-5" d="m24.37,54.45h-6.46c.06-1.28.13-2.48.19-3.68.26-.21.56-.4.79-.65.87-.97,1.72-1.96,2.57-2.94,1.09-1.26,2.17-2.53,3.29-3.78.6-.67,1.26-1.31,1.89-1.97v6c.16.04.22.06.28.06,2.51,0,5.03,0,7.54-.01.45,0,.92-.05,1.36-.13,1.77-.33,3.25-1.11,4.09-2.81.64-1.29.6-2.65.38-4.03-.21-1.3-.77-2.4-1.87-3.17-.92-.65-1.97-.95-3.07-1-1.4-.06-2.8-.05-4.19-.07.09-.17.16-.36.29-.5,1.42-1.61,2.86-3.21,4.27-4.83.4-.45.75-.94,1.11-1.42,1.19-.66,2.07-1.58,2.51-2.89.18-.13.41-.24.56-.41.77-.88,1.53-1.77,2.3-2.66,1.21-1.39,2.43-2.78,3.66-4.16.27-.3.62-.52.93-.77.99,1.69,1.29,3.55,1.32,5.47.02,1.92-.43,3.75-1.47,5.33-1.05,1.6-2.54,2.8-4.55,3.56,2.68.67,4.55,2.14,5.86,4.32,1.62,3.66,1.48,7.3-.23,10.87-1.24,2.58-3.45,4.1-6.07,5.07-2.16.81-4.44,1.14-6.74,1.17-3.52.04-7.03.03-10.55.04h0Z"/>
          <path class="cls-4" d="m26.64,41.42c-.63.65-1.28,1.28-1.89,1.97-1.11,1.25-2.19,2.52-3.29,3.78-.85.98-1.7,1.97-2.57,2.94-.23.25-.52.44-.79.65-.01-.24-.04-.48-.04-.72V12.71h.64c4.68,0,9.35-.01,14.03,0,3.02.01,6,.3,8.83,1.46,2.21.92,4.06,2.28,5.23,4.44-.31.26-.67.48-.93.77-1.24,1.38-2.44,2.77-3.66,4.16-.77.89-1.53,1.78-2.3,2.66-.15.17-.37.28-.56.41.04-.7.13-1.39.11-2.08-.07-2.67-1.51-4.37-4.17-4.59-2.82-.23-5.67-.18-8.5-.26-.04,0-.06.05-.11.08v10.43c3.42-.24,6.84.45,10.16-.7-.37.48-.72.97-1.11,1.42-1.42,1.62-2.85,3.22-4.27,4.83-.13.14-.2.33-.29.5h-4.44c-.05.13-.08.18-.08.22,0,1.65-.01,3.3-.01,4.95h0Z"/>
          <path class="cls-1" d="m26.64,41.42c0-1.65,0-3.3.01-4.95,0-.04.03-.08.08-.22h4.44c1.4.02,2.8,0,4.19.07,1.1.05,2.14.35,3.07,1,1.1.77,1.67,1.87,1.87,3.17.22,1.37.26,2.74-.38,4.03-.84,1.69-2.32,2.48-4.09,2.81-.45.09-.91.13-1.36.13-2.51.01-5.03.01-7.54.01-.06,0-.13-.03-.28-.06v-6h0Z"/>
          <path class="cls-1" d="m36.84,29.51c-3.32,1.15-6.75.45-10.16.7v-10.43s.08-.08.11-.08c2.84.07,5.68.04,8.5.26,2.65.21,4.1,1.92,4.17,4.59.02.7-.07,1.39-.11,2.08-.43,1.31-1.32,2.23-2.51,2.89Z"/>
        </g>
      </g>
      <rect class="cls-3" width="67.13" height="67.13"/>
    </g>
  </g>
</svg>