<?xml version="1.0" encoding="UTF-8"?>
<svg id="Layer_2" data-name="Layer 2" xmlns="http://www.w3.org/2000/svg" viewBox="0 0 67.13 67.13">
  <defs>
    <style>
      .cls-1 {
        fill: #1d7ec0;
      }

      .cls-2 {
        fill: #1390c5;
      }

      .cls-3 {
        fill: #1f8fce;
      }

      .cls-4 {
        fill: #ebebeb;
      }

      .cls-5 {
        fill: none;
      }

      .cls-6 {
        fill: #fefefe;
      }
    </style>
  </defs>
  <g id="Layer_3" data-name="Layer 3">
    <g>
      <g id="Layer_1-2" data-name="Layer 1-2">
        <g>
          <path class="cls-1" d="m33.63.02c9.44,0,18.86.01,28.3-.02.98,0,1.18.26,1.09,1.19-.54,5.67-1.02,11.34-1.52,17-.41,4.7-.82,9.41-1.23,14.11-.49,5.67-1,11.34-1.5,17-.29,3.35-.59,6.7-.84,10.05-.05.68-.26,1.01-.94,1.21-7.5,2.12-14.99,4.28-22.48,6.44-.52.15-.99.16-1.51.01-7.73-2.17-15.45-4.33-23.18-6.47-.62-.17-.87-.44-.92-1.12-.61-7.73-1.26-15.47-1.9-23.21-.49-5.96-.94-11.92-1.44-17.89-.46-5.82-.94-11.65-1.47-17.48C4.02-.02,4.44.01,5.04.01,14.57.02,24.1.01,33.63.01h0Zm-.24,45.81c-2.5-.51-5-1.05-7.51-1.52-.63-.11-.77-.41-.82-.97-.11-1.32-.29-2.63-.41-3.96-.06-.58-.26-.84-.91-.82-1.91.04-3.83.04-5.74,0-.64-.01-.76.23-.7.79.31,3.31.63,6.63.89,9.95.05.65.31.87.89,1.01,1.04.24,2.05.57,3.08.85,3.68,1,7.36,2,11.05,2.99.16.19.39.16.59.22,0,2,.04,4.01,0,6.02-.01.74.11.94.91.71,2.43-.74,4.9-1.4,7.35-2.1,3.6-1.03,7.19-2.07,10.79-3.11.49-.14.79-.3.87-.94.16-1.54.27-3.08.39-4.61.21-2.73.49-5.44.74-8.16.15-1.7.27-3.4.42-5.09.24-2.69.51-5.37.74-8.06.16-1.76.26-3.53.41-5.29.24-2.78.5-5.57.75-8.35.1-1.09.22-2.17.31-3.26.16-1.86.3-3.72.46-5.57.06-.61-.21-.77-.79-.77-7.52.01-15.04.01-22.56,0-.59,0-.8.19-.79.78.03,1.68-.04,3.37.03,5.05.04.94-.24,1.19-1.18,1.18-5.74-.04-11.47-.01-17.21-.03-.75,0-1.17.16-.72.99.26,1.82.59,3.63.75,5.46.08.85.41.95,1.14.95,5.11-.03,10.23-.02,15.34-.02h.92c-.27.31-.57.46-.88.59-5.09,2.21-10.19,4.42-15.29,6.61-.55.24-.77.46-.65,1.13.34,2,.57,4.02.84,6.03.29.39.72.21,1.08.21,4.95.01,9.91.01,14.86,0,.54,0,1-.05.99.77-.04,3.2-.01,6.4-.01,9.6,0,.33.02.67-.43.73h.01Z"/>
          <path class="cls-3" d="m14.72,13.77c-.44-.83-.02-.99.72-.99,5.74.01,11.47-.01,17.21.03.94,0,1.22-.24,1.18-1.18-.08-1.68,0-3.36-.03-5.05,0-.59.2-.78.79-.78,7.52.01,15.04.01,22.56,0,.57,0,.84.16.79.77-.16,1.86-.31,3.72-.46,5.57-.09,1.09-.21,2.17-.31,3.26-.26,2.78-.52,5.57-.75,8.35-.15,1.76-.26,3.53-.41,5.29-.24,2.69-.5,5.37-.74,8.06-.15,1.7-.27,3.4-.42,5.09-.24,2.72-.53,5.44-.74,8.16-.11,1.54-.23,3.08-.39,4.61-.06.64-.37.81-.87.94-3.6,1.04-7.19,2.07-10.79,3.11-2.45.7-4.91,1.36-7.35,2.1-.79.24-.92.04-.91-.71.04-2,0-4.01,0-6.02.14-.07.28-.14.41-.21,4.63-1.42,9.26-2.85,13.9-4.26.4-.12.47-.35.5-.7.17-1.96.37-3.92.54-5.89.45-5.09.88-10.17,1.35-15.25.07-.79-.15-.98-.92-.97-4.51.04-9.01.01-13.51.01h-.92c.54-.44,1.12-.68,1.7-.92,4.76-1.95,9.52-3.88,14.28-5.83.37-.15.79-.21.78-.81-.04-2-.02-4.01,0-6.02,0-.46-.16-.62-.62-.62-5.83.02-11.66.04-17.5.05-.06-.02-.13-.02-.19,0-6.07,0-12.15,0-18.22-.05-.72,0-.69.37-.68.84h0Z"/>
          <path class="cls-4" d="m14.72,13.77c0-.47-.03-.84.68-.84,6.07.04,12.15.04,18.22.05v21.57c-1.49,0-2.98.04-4.47.03-4.08,0-8.17-.03-12.25-.05-.27-2.01-.5-4.03-.84-6.03-.11-.67.1-.89.65-1.13,5.11-2.19,10.2-4.41,15.29-6.61.31-.14.62-.29.88-.59h-.92c-5.11,0-10.23,0-15.34.02-.73,0-1.07-.09-1.14-.95-.16-1.83-.49-3.64-.75-5.46h0Z"/>
          <path class="cls-4" d="m33.22,54.17c-3.68-.99-7.36-1.99-11.05-2.99-1.03-.28-2.05-.62-3.08-.85-.59-.14-.84-.36-.89-1.01-.26-3.32-.57-6.63-.89-9.95-.06-.57.06-.81.7-.79,1.91.04,3.83.04,5.74,0,.64-.01.85.24.91.82.13,1.32.3,2.63.41,3.96.04.55.19.85.82.97,2.51.46,5.01,1,7.51,1.52.08.06.16.12.24.19,0,2.41,0,4.81,0,7.23,0,.34.19.82-.4.93h0Z"/>
          <path class="cls-2" d="m33.62,46.02c-.08-.06-.16-.12-.24-.19.45-.06.43-.39.43-.73,0-3.2-.02-6.4.01-9.6,0-.82-.45-.77-.99-.77-4.95,0-9.91,0-14.86,0-.36,0-.79.17-1.08-.21,4.08.01,8.17.04,12.25.05,1.49,0,2.98-.02,4.47-.03h.2c2.59.01,5.18.06,7.77.02.8-.01,1.09.18.99,1.02-.31,2.76-.57,5.52-.82,8.29-.06.59-.41.7-.9.79-2.35.44-4.69.91-7.04,1.37h-.21Z"/>
          <path class="cls-6" d="m34.23,54.18c-.59-.11-.4-.58-.4-.93-.01-2.41,0-4.82,0-7.23,2.35-.46,4.69-.93,7.04-1.37.49-.09.85-.2.9-.79.26-2.76.52-5.53.82-8.29.09-.84-.19-1.02-.99-1.02-2.59.04-5.18,0-7.77-.02V12.95c5.83-.01,11.66-.02,17.5-.05.46,0,.62.16.62.62-.01,2-.03,4.01,0,6.02,0,.6-.41.66-.78.81-4.76,1.95-9.52,3.88-14.28,5.83-.58.24-1.16.49-1.7.92h.92c4.51,0,9.01.01,13.51-.01.77,0,.99.19.92.97-.48,5.08-.9,10.17-1.35,15.25-.17,1.96-.37,3.92-.54,5.89-.03.35-.1.58-.5.7-4.64,1.41-9.26,2.84-13.9,4.26v.02Z"/>
        </g>
      </g>
      <rect class="cls-5" width="67.13" height="67.13"/>
    </g>
  </g>
</svg>