<?xml version="1.0" encoding="UTF-8"?>
<svg id="Layer_2" data-name="Layer 2" xmlns="http://www.w3.org/2000/svg" viewBox="0 0 67.32 67.13">
  <defs>
    <style>
      .cls-1 {
        fill: #90a93b;
      }

      .cls-2 {
        fill: #b6c67d;
      }

      .cls-3 {
        fill: none;
      }
    </style>
  </defs>
  <g id="Layer_3" data-name="Layer 3">
    <g>
      <rect class="cls-3" x=".1" width="67.13" height="67.13"/>
      <g>
        <path class="cls-1" d="m7.46,33.4c2.15,1.19,4.23,2.33,6.31,3.47,2.73,1.51,5.46,3.03,8.19,4.54,2.01,1.12,4.02,2.24,6.05,3.33.4.22.58.43.57.9-.03,2.03-.01,4.06-.01,6.09,0,.19-.02.38-.04.71-1-.5-1.93-.96-2.84-1.43-2.05-1.06-4.09-2.13-6.13-3.2-4.46-2.33-8.92-4.67-13.39-7-1.87-.98-3.73-1.97-5.61-2.92-.42-.21-.55-.47-.55-.93.02-2.3.02-4.61,0-6.91,0-.44.16-.67.53-.86,2.56-1.31,5.13-2.63,7.68-3.96,4.02-2.1,8.03-4.22,12.05-6.32,2.55-1.33,5.11-2.65,7.66-3.97.17-.09.35-.15.64-.27,0,1.36,0,2.63,0,3.89,0,.98.03,1.96-.02,2.93-.01.23-.21.55-.41.66-3.1,1.71-6.22,3.38-9.34,5.07-3.68,1.99-7.36,3.99-11.03,5.99-.08.04-.15.09-.3.18Z"/>
        <path class="cls-1" d="m33.69,50.68c1.24-1.76,2.47-3.52,3.72-5.27,2.23-3.11,4.49-6.2,6.72-9.31,3.83-5.33,7.66-10.66,11.49-15.99.81-1.12,1.59-2.27,2.43-3.37.18-.24.54-.49.81-.49,2.53-.04,5.06-.02,7.59-.02.09,0,.19.03.39.06-.73,1.04-1.42,2.02-2.12,2.99-4.25,5.92-8.52,11.82-12.76,17.74-3.22,4.49-6.42,9.01-9.65,13.5-.16.22-.51.42-.78.42-2.6.03-5.21,0-7.81,0,0-.09-.02-.17-.03-.26Z"/>
        <path class="cls-1" d="m40.12,30.99c-3.01.09-6.33-2.43-6.9-6.04-.42-2.64,1.26-5.59,3.27-6.8,2.72-1.64,6.89-1.3,9.25.95,1.14,1.09,1.78,2.43,1.98,4.04.29,2.35-.38,4.34-2.09,5.89-1.45,1.32-3.23,1.99-5.5,1.95Zm.53-4.53c.54-.05,1.22-.3,1.58-1.11.44-.99.43-1.93-.13-2.89-.66-1.14-2.45-1.32-3.25,0-.2.33-.37.71-.46,1.08-.25,1.11.52,2.97,2.25,2.92Z"/>
        <path class="cls-1" d="m60,51.28c-3.32.12-6.67-2.39-7.24-6.04-.47-3.02,1.6-6.34,4.42-7.34,3.25-1.15,6.55-.35,8.75,2.24,1.22,1.44,1.55,3.18,1.33,5.08-.43,3.75-3.22,5.34-6.06,6.04-.38.09-.8.01-1.2.01Zm2.11-6.85c-.08-1.49-.68-2.52-2.14-2.61-.98-.06-2.06,1.19-2.06,2.41,0,1.33.83,2.53,1.96,2.54,1.29.02,2.21-.93,2.25-2.35Z"/>
        <path class="cls-2" d="m33.69,50.68c0,.09.02.17.03.26,0-.09-.02-.17-.03-.26Z"/>
      </g>
    </g>
  </g>
</svg>