<?xml version="1.0" encoding="UTF-8"?>
<svg id="Layer_2" data-name="Layer 2" xmlns="http://www.w3.org/2000/svg" viewBox="0 0 67.13 67.15">
  <defs>
    <style>
      .cls-1 {
        fill: none;
      }

      .cls-2 {
        fill: #383838;
      }

      .cls-3 {
        fill: #fefefe;
      }
    </style>
  </defs>
  <g id="Layer_3" data-name="Layer 3">
    <g>
      <rect class="cls-1" width="67.13" height="67.13"/>
      <g>
        <path class="cls-2" d="m41.96.99c.39.11.78.22,1.17.33.38.11.76.23,1.14.34.74.28,1.48.56,2.22.84.79.36,1.58.73,2.37,1.09.74.43,1.48.85,2.22,1.28.19.12.38.24.57.37.19.13.38.27.58.4.79.59,1.59,1.18,2.38,1.77.05.04.11.09.16.13.33.29.66.57.98.86.11.1.21.19.32.29.28.26.56.52.84.77.13.13.26.25.39.38.25.26.5.52.75.78.11.12.22.24.33.36.28.31.55.62.83.93.06.07.12.14.18.22.29.36.59.72.87,1.09.58.78,1.14,1.57,1.71,2.36.23.38.47.76.7,1.13.02.04.04.07.06.11l.61,1.07c.12.23.24.46.36.69.08.16.16.31.23.47.18.41.36.82.54,1.23.15.36.31.71.46,1.07l.41,1.13c.12.36.24.71.36,1.07.21.82.42,1.63.64,2.45.05.36.11.72.16,1.08.08.38.15.76.23,1.14.05.39.11.77.16,1.16.05.43.09.86.14,1.29,0,.21,0,.41,0,.62.03.51.06,1.01.09,1.52-.03,1.15-.06,2.3-.1,3.45-.05.43-.1.86-.15,1.3-.03.31-.05.62-.08.93-.06.4-.12.81-.19,1.21-.07.38-.14.77-.21,1.15-.09.38-.19.76-.28,1.15-.03.11-.06.21-.09.32-.08.28-.15.56-.23.83-.11.38-.22.76-.33,1.14-.14.38-.29.77-.43,1.15-.03.1-.07.21-.1.31-.02.02-.02.05-.01.07,0,0,0,0,0,0-.1.23-.21.45-.31.68-.18.41-.36.82-.54,1.23-.38.74-.77,1.48-1.15,2.21-.1.16-.19.33-.29.49-.13.25-.27.49-.4.74h.01s-.08.06-.12.08c-.23.35-.46.69-.69,1.04-.29.4-.57.79-.86,1.19-.09.12-.17.24-.26.36-.21.26-.41.51-.62.77-.11.12-.23.23-.33.37-.15.21-.27.44-.44.63-.28.32-.6.61-.9.91-.13.13-.25.26-.38.4-.55.52-1.1,1.04-1.64,1.56-.21.21-.4.44-.62.64-.25.22-.54.42-.81.62-.24.2-.48.4-.72.6-.15.1-.29.21-.44.31-.76.53-1.53,1.05-2.29,1.58-.2.12-.4.24-.6.36-.18.11-.36.22-.54.33-.76.4-1.53.79-2.29,1.19-.41.18-.82.36-1.23.53l-.62.3h0s-.05,0-.07,0c-.13.05-.25.1-.38.15-.41.14-.81.28-1.22.41-.36.11-.72.22-1.08.33-.28.07-.55.14-.83.21-.11.03-.21.07-.32.1l-1.14.28c-.38.07-.77.14-1.15.2-.38.06-.76.12-1.14.18-.33.05-.67.1-1,.15-.43.02-.86.05-1.29.07-.38.03-.77.05-1.15.08-.61,0-1.21.02-1.82.03-.13,0-.27,0-.4-.01-.4,0-.81-.01-1.21-.02-.33-.03-.67-.06-1-.09-.43-.05-.86-.09-1.29-.14l-1.16-.16c-.38-.05-.76-.1-1.14-.15-.38-.08-.77-.16-1.15-.23-.82-.22-1.64-.44-2.45-.67-.33-.11-.66-.22-.99-.33-.38-.14-.76-.27-1.14-.41-.03-.02-.06-.04-.08-.05-.35-.14-.71-.29-1.06-.43-.39-.18-.77-.36-1.16-.54-.17-.08-.35-.15-.52-.23-.21-.11-.42-.22-.62-.33-.38-.22-.76-.44-1.14-.66-.05-.03-.11-.07-.16-.1-.3-.19-.6-.37-.9-.56-.79-.56-1.58-1.12-2.38-1.69-.38-.31-.77-.61-1.15-.92-.08-.07-.16-.14-.24-.21-.31-.28-.61-.56-.92-.83-.12-.11-.24-.22-.36-.33l-.71-.67c-.15-.16-.3-.31-.45-.47-.26-.28-.52-.56-.77-.84-.1-.11-.19-.21-.29-.32l-.79-.9c-.07-.08-.14-.16-.21-.25-.59-.79-1.18-1.59-1.77-2.38-.13-.18-.26-.35-.39-.53h0s-.05-.07-.08-.11c-.08-.14-.16-.28-.23-.42-.02,0-.04-.01-.07-.02,0,0,0,0,0,0-.44-.78-.87-1.57-1.31-2.35-.35-.77-.71-1.54-1.06-2.31-.22-.54-.45-1.07-.66-1.61-.08-.19-.12-.4-.18-.6-.11-.38-.23-.76-.34-1.14-.1-.38-.2-.76-.3-1.14-.1-.36-.2-.72-.31-1.07,0-.08,0-.15,0-.23-.07-.33-.13-.67-.2-1-.06-.41-.12-.81-.19-1.22-.05-.31-.1-.62-.15-.92-.02-.43-.05-.86-.07-1.3-.03-.38-.05-.77-.08-1.15,0-.38,0-.76-.01-1.14,0-.39,0-.77.01-1.16,0-.41,0-.81,0-1.22.03-.31.06-.62.09-.92.05-.43.09-.86.14-1.3.05-.39.11-.77.16-1.16.05-.38.1-.76.16-1.14.18-.77.36-1.53.54-2.3.11-.38.21-.76.32-1.15.13-.38.25-.77.38-1.15.03-.08.05-.15.08-.23.1-.28.21-.56.31-.84.17-.41.34-.82.52-1.22.37-.76.74-1.53,1.11-2.29.1-.19.21-.37.3-.56.07-.16.1-.34.19-.48.28-.43.58-.84.88-1.26.02-.03.04-.06.07-.09.24-.35.47-.7.71-1.05.43-.56.86-1.13,1.28-1.69.04-.05.09-.1.13-.15l.11-.15s.03-.04.03-.07c0,0,.03,0,.03,0,.36-.42.72-.85,1.09-1.27.02,0,.04-.02.06-.05.39-.4.77-.81,1.16-1.21.36-.35.72-.69,1.08-1.04.02-.02.04-.03.06-.05.46-.4.92-.81,1.39-1.21v-.03s.05-.02.07-.03c.05-.04.1-.07.15-.11.05-.04.1-.09.15-.13.1-.08.2-.16.3-.24.03-.04.06-.09.1-.13h0s.03.01.03.01h.03c.25-.19.5-.37.75-.56.16-.12.32-.24.47-.37.33-.23.67-.47,1-.7h0s.08-.05.11-.08h.02s.02,0,.02,0c.42-.29.84-.59,1.26-.88.07-.05.16-.08.24-.11.27-.12.54-.25.81-.37.76-.37,1.53-.74,2.29-1.11.41-.17.82-.34,1.22-.52.28-.1.56-.21.84-.31.08-.03.15-.05.23-.08.36-.12.71-.24,1.07-.36.41-.11.82-.22,1.22-.33.77-.17,1.53-.35,2.3-.52.38-.06.76-.11,1.14-.17.39-.05.77-.11,1.16-.16.43-.05.86-.09,1.3-.14.26,0,.51,0,.77,0,.46-.03.91-.05,1.37-.08.36,0,.72-.01,1.08-.02.25.01.51.03.76.04.05.02.1.04.16.06.1,0,.2,0,.3,0,.38,0,.77,0,1.15,0,.43.05.86.1,1.3.15.31.03.62.05.92.08.41.06.81.12,1.22.19.33.07.66.15.99.22.08.02.15.04.23.05.35.07.7.14,1.05.2Zm-9.92,33.58c-.12-1.36-.17-2.67-.35-3.95-.22-1.51-.7-2.96-1.42-4.33-1.21-2.29-2.92-4.04-5.33-5.04-1.96-.82-4.04-.86-6.1-.59-2.39.31-4.46,1.38-6.17,3.09-1.65,1.65-2.7,3.64-3.26,5.9-.28,1.11-.45,2.23-.49,3.37-.02.68.08,1.36.14,2.04.11,1.31.36,2.59.77,3.84.66,2.03,1.73,3.79,3.37,5.18,2.09,1.77,4.58,2.43,7.25,2.57,1.23.06,2.46-.1,3.66-.39,2.89-.7,5.15-2.25,6.57-4.92.46-.87.74-1.79.93-2.78h-4.04c-.02.07-.04.13-.05.19-.36,1.51-1.28,2.58-2.58,3.35-.91.54-1.92.76-2.96.9-1.15.15-2.29.04-3.38-.26-1.4-.39-2.64-1.13-3.57-2.3-.87-1.08-1.4-2.31-1.58-3.69-.05-.37-.08-.75-.1-1.13-.02-.34,0-.67,0-1.04h18.72Zm25.02-14.02c-1.73,0-3.35,0-4.97,0-.1,0-.24.08-.3.17-1.48,2.06-2.95,4.13-4.42,6.19-.65.91-1.3,1.82-1.95,2.74-.04-.04-.06-.06-.07-.08-2-2.91-3.99-5.82-5.98-8.74-.14-.21-.29-.3-.55-.3-1.58.01-3.16,0-4.75,0-.11,0-.22,0-.41,0,3.06,4.16,6.06,8.25,9.07,12.35-3.25,4.56-6.49,9.1-9.75,13.67.14.02.21.03.28.03,1.44,0,2.88,0,4.32.03.43.01.66-.14.88-.48,2.22-3.33,4.46-6.64,6.69-9.96.07-.11.16-.21.26-.34.78,1.15,1.52,2.24,2.26,3.34,1.6,2.38,3.21,4.76,4.8,7.14.14.21.29.27.53.27,1.57,0,3.14,0,4.71,0,.11,0,.22-.01.43-.03-3.38-4.72-6.72-9.38-10.06-14.04,2.99-3.99,5.95-7.96,8.97-12Z"/>
        <path class="cls-3" d="m32.05,34.58H13.33c0,.37-.01.71,0,1.04.02.38.05.75.1,1.13.18,1.38.71,2.61,1.58,3.69.93,1.17,2.17,1.9,3.57,2.3,1.09.3,2.23.42,3.38.26,1.04-.14,2.04-.36,2.96-.9,1.31-.77,2.23-1.85,2.58-3.35.01-.06.03-.12.05-.19h4.04c-.19.99-.47,1.92-.93,2.78-1.41,2.67-3.68,4.22-6.57,4.92-1.2.29-2.42.45-3.66.39-2.66-.14-5.15-.8-7.25-2.57-1.64-1.39-2.71-3.15-3.37-5.18-.41-1.25-.66-2.53-.77-3.84-.05-.68-.16-1.36-.14-2.04.04-1.14.21-2.26.49-3.37.57-2.26,1.62-4.25,3.26-5.9,1.71-1.71,3.77-2.78,6.17-3.09,2.06-.27,4.14-.23,6.1.59,2.4,1,4.12,2.76,5.33,5.04.72,1.36,1.2,2.81,1.42,4.33.19,1.28.24,2.58.35,3.95Zm-4.46-3.53c-.02-.28,0-.56-.07-.83-.63-2.93-2.22-4.99-5.22-5.81-1.32-.36-2.65-.37-3.93.01-2.09.62-3.58,1.98-4.41,4.02-.18.61-.36,1.22-.53,1.84,0,.05,0,.1,0,.15-.02.1-.04.21-.06.31,0,.05-.02.1-.02.15-.02.1-.04.19-.07.31.13,0,.21,0,.29,0,3.64,0,7.29,0,10.93,0,.93,0,1.86,0,2.79,0,.1,0,.2-.1.3-.15Z"/>
        <path class="cls-3" d="m57.06,20.56c-3.02,4.04-5.99,8-8.97,12,3.34,4.66,6.68,9.32,10.06,14.04-.21.01-.32.03-.43.03-1.57,0-3.14,0-4.71,0-.24,0-.39-.06-.53-.27-1.59-2.39-3.2-4.76-4.8-7.14-.74-1.1-1.48-2.19-2.26-3.34-.1.13-.19.23-.26.34-2.23,3.32-4.47,6.63-6.69,9.96-.23.34-.46.49-.88.48-1.44-.04-2.88-.03-4.32-.03-.07,0-.14-.02-.28-.03,3.26-4.58,6.5-9.12,9.75-13.67-3.01-4.1-6.02-8.19-9.07-12.35.19,0,.3,0,.41,0,1.58,0,3.16,0,4.75,0,.26,0,.41.09.55.3,1.99,2.92,3.99,5.82,5.98,8.74.01.02.03.04.07.08.66-.92,1.3-1.83,1.95-2.74,1.47-2.07,2.94-4.13,4.42-6.19.06-.09.2-.16.3-.17,1.62-.01,3.24,0,4.97,0Z"/>
        <path class="cls-2" d="m13.96,28.44c.83-2.04,2.32-3.4,4.41-4.02,1.28-.38,2.61-.37,3.93-.01,3,.81,4.59,2.88,5.22,5.81.06.27.05.55.07.83-4.58,0-9.15,0-13.73,0-.17,0-.35-.1-.52-.15,0-.05.02-.1.02-.15.02-.1.04-.21.06-.31,0-.05,0-.1,0-.15.05-.05.12-.09.14-.14.09-.29.16-.58.23-.88.06-.27.11-.54.16-.82Z"/>
      </g>
    </g>
  </g>
</svg>