<?xml version="1.0" encoding="UTF-8"?>
<svg id="Layer_2" data-name="Layer 2" xmlns="http://www.w3.org/2000/svg" viewBox="0 0 67.13 67.46">
  <defs>
    <style>
      .cls-1 {
        fill: #2b2d33;
      }

      .cls-2 {
        fill: #f14e1d;
      }

      .cls-3 {
        fill: #a25afe;
      }

      .cls-4 {
        fill: #2d3038;
      }

      .cls-5 {
        fill: #124338;
      }

      .cls-6 {
        fill: #23b984;
      }

      .cls-7 {
        fill: #fe7362;
      }

      .cls-8 {
        fill: #2f313a;
      }

      .cls-9 {
        fill: #36a9d9;
      }

      .cls-10 {
        fill: #1abcfd;
      }

      .cls-11 {
        fill: #0acf84;
      }

      .cls-12 {
        fill: #ca6b62;
      }

      .cls-13 {
        fill: #c05037;
      }

      .cls-14 {
        fill: #3f2526;
      }

      .cls-15 {
        fill: none;
      }

      .cls-16 {
        fill: #9662d9;
      }

      .cls-17 {
        fill: #2a313a;
      }

      .cls-18 {
        fill: #2d2e37;
      }
    </style>
  </defs>
  <g id="Layer_3" data-name="Layer 3">
    <g>
      <rect class="cls-15" y=".33" width="67.13" height="67.13"/>
      <g>
        <path class="cls-8" d="m.94,9.5l.33-.95c.13-.14.29-.27.37-.43,1.41-2.93,3.56-5.13,6.45-6.6.15-.08.27-.2.41-.3C10.3.38,12.2,0,14.18,0c13,0,26.01,0,39.01,0,.16,0,.32.01.48.02.22.01.45.02.67.04.64.1,1.29.21,1.93.31.1.05.2.1.3.14,1.07.43,2.15.85,3.22,1.28.28.11.54.26.81.39,0,0,0,0,0,0,.19.13.38.26.57.39,0,0,0,0,0,0,.26.19.51.38.77.58,0,0,0,0,0,0,.19.16.38.32.57.49.1.1.2.19.3.29.09.1.19.19.28.29.13.13.26.27.38.4.26.32.52.63.78.95,0,0,0,0,0,0,.1.13.19.25.29.38,0,0,0,0,0,0,.06.1.12.19.19.29,0,0,0,0,0,0,.06.1.13.19.19.29,0,0,0,0,0,0,.1.16.19.32.29.48,0,0,0,0,0,0,.25.49.5.97.74,1.46.05.15.11.29.16.44.23.87.46,1.75.7,2.62.07.32.13.64.2.96.03.51.09,1.02.09,1.54,0,4.82,0,9.64,0,14.46,0,.21-.04.41-.06.62-.46.09-.6-.04-.52-.47.06-.3.14-.6.14-.9.04-3.08.07-6.17.1-9.25.01-1.34,0-2.67,0-4.01,0-.11.04-.26-.01-.33-.09-.12-.24-.27-.36-.27-.13,0-.36.14-.37.24-.1.64-.2,1.29-.21,1.94-.02,3.64-.02,7.27,0,10.91,0,.44-.15.63-.58.6-.18-.01-.35,0-.53,0-3.43,0-6.85,0-10.28,0-.66,0-.78-.12-.78-.79,0-.05,0-.1,0-.14q0-.61-.63-.61c-1.13,0-2.25,0-3.38,0-.38,0-.56-.14-.54-.54.03-.38.06-.77-.3-1.07-.1-.09-.19-.37-.14-.43.17-.19.39-.36.62-.45.1-.04.35.13.42.27.12.21.16.48.25.79.15-.04.43-.05.45-.12.06-.28.16-.77.03-.84-.47-.29-.61-.81-.97-1.16-.01-.01-.06,0,.05,0-.33.33-.57.58-.82.82-.25.24-.41.09-.5-.16-.07-.19-.11-.39-.16-.58.13-.31.26-.63.39-.94.64-1,1.24-2.01,1.47-3.2.02-.26.05-.52.07-.78,0-.06,0-.13,0-.19,0-.37-.06-.75.03-1.1.21-.73-.17-1.34-.33-1.99l-.07-.2c-.03-.06-.06-.13-.09-.19-.01-.06-.02-.12-.03-.18-.05-.07-.11-.14-.16-.22-.06-.18-.09-.38-.19-.54-.6-.91-1.13-1.87-2.07-2.53-1.34-.95-2.73-1.74-4.42-1.86-.18-.06-.35-.17-.53-.17-5.76,0-11.51-.01-17.27,0-.51,0-1.02.11-1.51.22-.24.05-.44.23-.66.35,0,0,0,0,0,0-.19.09-.39.18-.58.27-1.44.64-2.58,1.64-3.39,2.99-.07.07-.13.13-.2.2-.03.03-.06.06-.09.1-.03.04-.05.07-.08.11-.04.1-.09.19-.13.29-.22.55-.44,1.1-.67,1.64-.04.16-.07.32-.11.48,0,.07-.02.13-.03.2-.4.91-.31,1.84-.07,2.77,0,.01.02.02.04.03.06.13.12.26.18.4.04.83.33,1.58.79,2.25.41.59.84,1.18,1.33,1.71.7.76,1.46,1.43,2.5,1.74.7.21,1.38.5,2.07.75-.13.07-.26.17-.4.19-.92.17-1.79.45-2.58.97-1.07.71-1.97,1.58-2.73,2.61-.11-.03-.22-.05-.38-.09.04.24.07.41.09.58,0,0,0,0,0,0-.48.09-.54.02-.43-.5.16-.74.07-.86-.67-.86-2.68,0-5.37,0-8.05,0-2.43,0-4.85,0-7.28.01-.19,0-.48.1-.54.23-.19.39-.38.38-.66.06v1.11c.32-.21.49-.06.57.2.09.27-.02.45-.34.51-.05-.16-.09-.3-.13-.44-.03,0-.05,0-.08,0-.02.21-.03.42-.05.63.01.42-.37.84,0,1.25,0,1.06,0,2.12,0,3.19,0,.23,0,.45,0,.68,0,.29,0,.58,0,.87-.09.09-.18.19-.27.28-.02-.15-.06-.31-.06-.46,0-.82,0-1.64,0-2.46,0-6.77.01-13.53.02-20.3.03-.28.05-.55.08-.83,0-.12.02-.25.03-.37.02-.06.03-.13.05-.19,0-.11.02-.23.03-.34.16-.6.31-1.2.47-1.8,0-.06,0-.12.01-.18Zm-.33,18.08c.05.01.1.02.15.03.04-.13.1-.27.1-.4,0-1.77,0-3.54,0-5.31,0-.14-.09-.27-.13-.41-.04.01-.08.03-.12.04v6.05Zm.03-12.27v1.56c.32-.49.31-1.17,0-1.56Zm-.02,4.69c.33-.56.32-1.24,0-1.61v1.61Z"/>
        <path class="cls-18" d="m.58,30.16c.02-.21.03-.42.05-.63.03,0,.05,0,.08,0,.04.14.08.28.13.44.32-.05.43-.24.34-.51-.08-.25-.24-.41-.57-.2v-1.11c.28.32.47.33.66-.06.07-.14.35-.23.54-.23,2.43-.02,4.85-.01,7.28-.01,2.68,0,5.37,0,8.05,0,.74,0,.83.12.67.86-.11.51-.05.59.43.5-.16.36-.32.72-.48,1.07,0-.06.02-.15,0-.19-.14-.17-.29-.33-.43-.49-.11.17-.24.33-.32.51-.04.09.02.22.03.33.07.57.18,1.13.21,1.7.03.51-.03,1.02-.06,1.53-.01.29-.16.74-.03.84.44.36-.16.89.27,1.2.02.01-.05.16-.1.24-.22.36-.13.57.34.72v-.92c.49.87.97,1.73,1.46,2.6-.1.08-.3.2-.29.22.12.25.28.49.42.73.08-.06.23-.18.22-.19-.11-.17-.24-.32-.41-.54,0-.01.03-.12.06-.22.35.36.7.72,1.05,1.08-.12-.02-.23-.03-.35-.05-.03.03-.06.06-.09.09.09.11.18.22.27.33.09-.09.17-.19.26-.28.03.01.06.03.09.04.81.43,1.49,1.11,2.44,1.29.23.04.44.2.66.3-.05.09-.09.24-.16.26-.46.16-.92.29-1.38.43-.23-.1-.47-.2-.7-.3-.07.08-.13.16-.2.24l.61.34c-.06.07-.12.14-.19.21,0,0,0,0,0,0-.04.03-.07.06-.11.08-.02.02-.03.02-.06.02-.14,0-.28-.01-.42-.02-.13.03-.26.06-.39.09-.03.13-.06.26-.1.39.01.04.02.08.03.12,0,0,0,0,0,0-.04.05-.09.1-.13.15,0,.04,0,.07-.01.11,0,0,0,0,0,0-.06.01-.11.02-.17.03-.14-.07-.27-.14-.47-.24-.01.3-.02.51-.03.71-.03.03-.06.06-.09.09-.09.08-.18.15-.27.23l-.11.17c-.1.13-.19.26-.29.39-.03.03-.06.06-.09.1-.03.06-.07.13-.1.19-.17-.02-.34-.05-.46-.07-.29.4-.57.76-.82,1.13-.28.43-.23.78.13,1.16.06.27-.45.5-.06.79,0,.03,0,.05-.02.08-.39.82-.23,1.67-.13,2.51.04.25.08.51.12.76.02.1.04.2.06.3.04.13.08.25.12.38-.04.31-.1.62-.1.92,0,.14.11.28.17.43.1-.13.2-.26.31-.39.18.24.36.47.55.71h0c.01.08.03.16.04.25-.52-.06-1.04-.1-1.55-.2-.12-.02-.26-.24-.29-.38-.21-.97-.1-1.99-.48-2.95-.17-.44-.6-.8-1.04-.64-.44.15-.82.09-1.26.01-.29-.05-.66.17-.93.35-.11.08-.17.48-.07.59.51.64.21,1.35.27,1.86-.35.3-.72.46-.83.73-.16.38-.36.6-.72.73-.96-1.05-1.35-.73-2.01.41-.1-.02-.21-.04-.31-.06-.39-.07-.95.15-1.04.51-.14.53-.44.47-.83.36-.13-.82.06-1.56.66-2.08.34-.3.85-.47,1.31-.54.63-.09,1.28-.01,1.93-.02.49,0,.7-.22.71-.71,0-.64-.05-1.29.02-1.93.05-.42.23-.84.44-1.21.12-.21.39-.41.63-.47.33-.07.43-.25.45-.52.02-.34.04-.68,0-1.01-.03-.18-.2-.44-.34-.46-.41-.06-.95-.18-1.22.02-.48.35-1.39.27-1.36,1.2,0,.03-.06.08-.1.09-.43.17-.45.53-.44.92,0,.61,0,.62-.64.61-.37,0-.71.02-.88.42-.02.05-.08.13-.13.13-.61.04-.84.43-.91.99-.5,0-.95.02-1.39-.01-.1,0-.3-.2-.28-.26.19-.66.15-1.42.71-1.94.1-.09.24-.17.37-.19.41-.06.44-.25.24-.56-.09-.14-.15-.31-.21-.47-.14-.41-.52-.6-.86-.57-.32.02-.69.23-.92.47-.28.29,0,.59.21.84.03.03.02.09.03.16-.52.05-.89.26-.94.84,0,.07-.1.17-.18.2-.33.15-.39.43-.39.76,0,1.11-.02,2.22.01,3.33.01.46-.16.54-.56.52-.36-.02-.64.04-.62-.5.04-1.62.02-3.25,0-4.87,0-.21-.09-.59-.17-.6-.55-.08-.62-.58-.87-.91-.19-.25-.41-.48-.6-.73-.06-.08-.11-.23-.08-.31.19-.54.08-1.08,0-1.62-.02-.14.09-.3.11-.46.02-.15.06-.36-.02-.44-.33-.36-.34-.73-.18-1.16.04-.11,0-.24,0-.37,0-.39,0-.78,0-1.17.01-.34.05-.67-.4-.76,0-.61,0-1.22,0-1.83.15-.22.35-.42.45-.65.21-.51.02-.97-.45-1.18,0-.29,0-.58,0-.87.4-.28.4-.47,0-.68,0-1.06,0-2.12,0-3.19.16-.21.44-.42.44-.63,0-.21-.28-.41-.44-.62Z"/>
        <path class="cls-3" d="m19.13,38.34c-.49-.87-.97-1.73-1.46-2.6-.02-.14-.05-.27-.07-.41-.17-.94-.46-1.87-.23-2.85.17-.73.27-1.47.4-2.21.16-.36.32-.72.48-1.07,0,0,0,0,0,0,.09-.16.19-.32.28-.49.76-1.03,1.66-1.9,2.73-2.61.79-.52,1.66-.8,2.58-.97.14-.03.27-.13.4-.19.12,0,.25,0,.37,0,.03.02.07.04.1.05h.09c.06-.02.13-.04.19-.06,2.83,0,5.67,0,8.5,0,.03.02.06.04.09.06,0,2.42,0,4.83,0,7.25,0,.17.04.34.06.51,0,.23,0,.47,0,.7,0,.09,0,.18,0,.27,0,.13.02.26.02.39,0,.13.01.26.02.4,0,.06-.02.13-.03.19-.03.12-.08.24-.08.36,0,1.88,0,3.76,0,5.64,0,.12.05.24.08.36,0,.08,0,.17-.01.25-.03,0-.05.01-.07.04-2.76,0-5.52-.01-8.29-.02,0-.03,0-.06,0-.09-.2,0-.39.01-.59.02-.42-.04-.83-.07-1.25-.11-.22-.1-.43-.26-.66-.3-.95-.18-1.63-.86-2.44-1.29-.03-.01-.06-.03-.09-.04-.03-.03-.06-.06-.09-.09-.35-.36-.7-.72-1.05-1.08l-.02.02v-.02Z"/>
        <path class="cls-2" d="m33.5,24.93c-2.83,0-5.67,0-8.5,0-.13,0-.26,0-.38,0-.12,0-.25,0-.37,0-.69-.25-1.37-.54-2.07-.75-1.03-.31-1.8-.98-2.5-1.74-.49-.53-.92-1.11-1.33-1.71-.46-.67-.74-1.42-.79-2.25,0-.21.03-.42,0-.62-.26-1.59,0-3.11.67-4.57.04-.09,0-.21,0-.32.04-.1.09-.19.13-.29.03-.04.05-.07.08-.11.03-.03.06-.06.09-.1.07-.07.13-.13.2-.2.82-1.36,1.95-2.35,3.39-2.99.19-.09.39-.18.58-.27,0,0,0,0,0,0,.48-.1.96-.2,1.43-.3.3-.05.59-.1.89-.15.09,0,.19,0,.28-.01.12.02.25.07.37.07,2.49,0,4.98,0,7.47,0,.12,0,.24-.05.37-.07.06,0,.12,0,.19,0,0,.03,0,.05.01.08,0,5.4,0,10.81,0,16.21-.06.03-.13.05-.19.08Z"/>
        <path class="cls-7" d="m33.69,24.85c0-5.4,0-10.81,0-16.21,2.9,0,5.8,0,8.69-.01.09,0,.18,0,.28-.01,1.68.12,3.08.91,4.42,1.86.93.66,1.46,1.62,2.07,2.53.1.15.13.36.19.54.05.07.11.14.16.22.01.06.02.12.03.18.03.06.06.13.09.19.02.07.05.13.07.2-.02.14-.06.28-.05.41.04.36.12.72.17,1.08.07.53.12,1.07.18,1.6,0,.06,0,.13,0,.19-.33.23-.21.5-.07.78-.22,1.19-.82,2.21-1.47,3.2-.32.38-.64.76-.96,1.14h0c-.29.23-.58.45-.87.67-.03.03-.07.07-.1.1-.07.05-.15.11-.22.16,0,0,0,0,0,0l-.26.13c-.23.13-.45.27-.68.37-.42.18-.84.35-1.27.48-.43.13-.88.19-1.32.28-.78.03-1.55.06-2.33.09-.13-.04-.26-.07-.39-.11-1.99,0-3.98,0-5.97,0-.13-.02-.26-.05-.39-.07Z"/>
        <path class="cls-4" d="m42.77,24.93c.44-.09.89-.16,1.32-.28.43-.13.86-.3,1.27-.48.24-.1.46-.25.68-.37.09-.04.18-.09.26-.13,0,0,0,0,0,0,.07-.05.15-.11.22-.16.03-.03.07-.07.1-.1.5.05.69-.3.87-.67,0,0,0,0,0,0,.19-.07.38-.13.57-.2.05.2.09.4.16.58.09.25.25.4.5.16.25-.24.5-.49.82-.82-.11.01-.06,0-.05,0,.36.35.5.86.97,1.16.12.08.03.56-.03.84-.02.07-.29.08-.45.12-.09-.31-.13-.57-.25-.79-.08-.13-.32-.3-.42-.27-.23.08-.46.26-.62.45-.05.06.03.35.14.43.35.3.32.69.3,1.07-.03.41.16.55.54.54,1.13,0,2.25,0,3.38,0q.63,0,.63.61s0,.1,0,.14c0,.67.12.79.78.79,3.43,0,6.85,0,10.28,0,.18,0,.35,0,.53,0,.43.03.58-.16.58-.6-.01-3.64-.02-7.27,0-10.91,0-.65.11-1.3.21-1.94.02-.1.25-.25.37-.24.13,0,.27.15.36.27.05.07.01.22.01.33,0,1.34,0,2.67,0,4.01-.03,3.08-.06,6.17-.1,9.25,0,.3-.09.6-.14.9-.08.43.06.57.52.47,0,.16,0,.32,0,.48-.19-.07-.39-.15-.65-.25,0,.41.02.67,0,.92-.01.13-.07.31-.16.37-.32.17-.32.44-.32.74,0,1.11,0,2.22,0,3.33,0,.83,0,1.65,0,2.48,0,.14-.05.3-.14.4-.43.52-.94.94-1.67.89-.71-.04-1.42-.16-2.14-.18-1.2-.03-2.41-.01-3.62,0-.69,0-1.4.11-1.8-.52-.5.26-.93.62-1.4.68-.87.11-1.76.03-2.65.03-.31,0-.48-.15-.48-.47,0-.16.03-.33,0-.48-.05-.2-.12-.52-.26-.57-.51-.19-.96-.02-1.11.32-.21.46-.25.91-.2,1.43.11,1.22.19,1.4-1.05,1.31-.26-.02-.43.06-.49.34-.07.32-.16.64-.24.96-.68.12-.64.11-.71-.53-.04-.39-.26-.76-.43-1.13-.02-.05-.21-.07-.28-.03-.07.04-.13.2-.1.26.1.19.25.36.39.54-.38.97-.37,1.02-1.04,1.16-.37.08-.79-.01-1.16-.12-.14-.04-.19-.35-.3-.53-.04-.07-.11-.11-.17-.16.16-.07.32-.13.48-.2.26.08.52.16.69.21.11-.23.18-.36.25-.5.08-.15.15-.3.23-.45.81-.56,1.54-1.19,2.04-2.05.34.02.45-.15.38-.47.37-.02.26-.29.27-.5,0,0,0,0,0,0,.06-.13.13-.26.19-.39.06-.19.12-.39.18-.58.14-.36.28-.71.42-1.07.06-.38.12-.77.18-1.15.12-.14.37-.3.35-.43-.03-.22.05-.59-.35-.63-.07-.53-.14-1.06-.23-1.58-.02-.1-.16-.17-.24-.25-.26-.55-.5-1.12-.79-1.65-.94-1.72-2.36-2.89-4.19-3.57-.64-.24-1.32-.39-1.98-.59Z"/>
        <path class="cls-14" d="m42.66,8.61c-.09,0-.18,0-.28.01-.17-.03-.33-.09-.5-.09-1.3,0-2.59,0-3.89,0-1.44,0-2.88.02-4.32.02-.06,0-.12,0-.19,0-1.15,0-2.3-.02-3.45-.02-1.58,0-3.17.02-4.75.03-.09,0-.19,0-.28.01-.3.05-.59.1-.89.15-.48.1-.96.2-1.43.3.22-.12.43-.3.66-.35.5-.11,1.01-.22,1.51-.22,5.76-.01,11.51-.01,17.27,0,.18,0,.36.11.53.17Z"/>
        <path class="cls-18" d="m.61,27.58v-6.05s.08-.03.12-.04c.05.14.13.27.13.41,0,1.77,0,3.54,0,5.31,0,.14-.07.27-.1.4-.05-.01-.1-.02-.15-.03Z"/>
        <path class="cls-13" d="m18.22,12.97c0,.11.04.23,0,.32-.66,1.46-.93,2.97-.67,4.57.03.2,0,.42,0,.62-.06-.13-.12-.26-.18-.4.01-.93.02-1.87.04-2.8,0-.07.02-.13.03-.2.04-.16.07-.32.11-.48.22-.55.44-1.1.67-1.64Z"/>
        <path class="cls-1" d="m.58,36.14c.46.21.65.67.45,1.18-.1.24-.29.44-.45.65-.06-.42.17-.91-.27-1.25,0-.1,0-.2,0-.31.09-.09.18-.19.27-.28Z"/>
        <path class="cls-1" d="m.58,30.16c.16.21.44.42.44.62,0,.21-.28.42-.44.63-.37-.42.01-.84,0-1.25Z"/>
        <path class="cls-12" d="m49.99,17.42c-.06-.53-.11-1.07-.18-1.6-.05-.36-.12-.72-.17-1.08-.02-.13.03-.27.05-.41.16.65.54,1.26.33,1.99-.1.34-.03.73-.03,1.1Z"/>
        <path class="cls-18" d="m.64,15.31c.31.38.32,1.07,0,1.56v-1.56Z"/>
        <path class="cls-18" d="m.62,20v-1.61c.32.37.33,1.05,0,1.61Z"/>
        <path class="cls-14" d="m17.42,15.29c-.01.93-.02,1.87-.04,2.8-.01,0-.03-.02-.04-.03-.24-.93-.32-1.86.07-2.77Z"/>
        <path class="cls-14" d="m48.07,22.53c-.19.07-.38.13-.57.2.32-.38.64-.76.96-1.14-.13.31-.26.63-.39.94Z"/>
        <path class="cls-1" d="m.58,34.6c.4.21.4.39,0,.68,0-.23,0-.45,0-.68Z"/>
        <path class="cls-12" d="m49.92,18.39c-.14-.27-.25-.55.07-.78-.02.26-.05.52-.07.78Z"/>
        <path class="cls-18" d="m18.53,28.71c-.09.16-.19.32-.28.49-.03-.17-.05-.34-.09-.58.16.04.27.07.38.09Z"/>
        <path class="cls-14" d="m22.68,9.02c-.19.09-.39.18-.58.27.19-.09.39-.18.58-.27Z"/>
        <path class="cls-14" d="m17.55,14.62c-.04.16-.07.32-.11.48.04-.16.07-.32.11-.48Z"/>
        <path class="cls-12" d="m49.62,14.13c-.03-.06-.06-.13-.09-.19.03.06.06.13.09.19Z"/>
        <path class="cls-13" d="m18.71,12.28c-.07.07-.13.13-.2.2.07-.07.13-.13.2-.2Z"/>
        <path class="cls-12" d="m49.5,13.75c-.05-.07-.11-.14-.16-.22.05.07.11.14.16.22Z"/>
        <path class="cls-13" d="m18.43,12.57s-.05.07-.08.11c.03-.04.05-.07.08-.11Z"/>
        <path class="cls-1" d="m.58,39.81c.45.09.42.42.4.76-.01.39,0,.78,0,1.17,0,.12.04.26,0,.37-.16.43-.15.8.18,1.16.08.08.04.29.02.44-.02.16-.13.31-.11.46.08.54.19,1.08,0,1.62-.03.09.02.23.08.31.19.25.41.48.6.73.25.34.31.83.87.91.09.01.17.39.17.6.01,1.62.03,3.25,0,4.87-.01.54.27.49.62.5.4.02.57-.06.56-.52-.03-1.11,0-2.22-.01-3.33,0-.33.06-.6.39-.76.08-.03.17-.13.18-.2.05-.58.42-.78.94-.84-.01-.07,0-.13-.03-.16-.21-.25-.49-.54-.21-.84.23-.24.6-.45.92-.47.35-.03.72.16.86.57.06.16.12.33.21.47.2.31.17.5-.24.56-.13.02-.27.1-.37.19-.56.52-.52,1.28-.71,1.94-.02.06.18.25.28.26.45.03.9.01,1.39.01.06-.56.3-.95.91-.99.05,0,.1-.08.13-.13.17-.41.51-.43.88-.42.64,0,.65,0,.64-.61,0-.39,0-.75.44-.92.04-.02.1-.06.1-.09-.03-.93.89-.85,1.36-1.2.27-.2.81-.08,1.22-.02.14.02.31.29.34.46.05.33.03.67,0,1.01-.02.27-.13.45-.45.52-.24.05-.51.25-.63.47-.21.37-.39.79-.44,1.21-.07.64-.01,1.28-.02,1.93,0,.5-.21.71-.71.71-.64.01-1.3-.06-1.93.02-.46.06-.97.24-1.31.54-.6.52-.79,1.26-.66,2.08.38.11.69.17.83-.36.09-.36.65-.58,1.04-.51.11.02.21.04.31.06.66-1.14,1.05-1.46,2.01-.41.36-.13.56-.35.72-.73.11-.27.47-.43.83-.73-.06-.51.24-1.21-.27-1.86-.09-.12-.04-.51.07-.59.27-.19.64-.41.93-.35.44.08.82.14,1.26-.01.44-.16.87.21,1.04.64.38.96.27,1.98.48,2.95.03.15.17.36.29.38.51.1,1.03.14,1.55.2,0,0,0,.02,0,.02l.09.1c.09.1.19.2.28.3,0,0,0,0,0,0,.1.13.2.25.3.38h0c.06.07.13.13.19.2,0,0,0,0,0,0,.06.07.13.13.19.2h0s.07.06.1.1h0c.1.1.2.19.3.29h0s.07.06.1.09h0s.07.06.1.1h0s.07.07.1.1c.42.29.84.58,1.26.87.23.12.46.24.69.37,0,0,0,0,0,0,.07.03.13.07.2.1.03,0,.06.01.08.02.16.12.3.3.48.34.58.13,1.18.21,1.77.32.61.11,1.22.18,1.82-.08.03,0,.06-.01.09-.02.16-.03.33-.07.49-.1h0c.13-.04.26-.07.39-.11h.03s.03,0,.03,0c.69-.03,1.3-.22,1.78-.74.3-.17.61-.33.89-.53,1.74-1.24,2.78-2.93,3.26-4.99.09-.03.19-.06.28-.09.07.16.2.32.2.48-.01.32-.2.64.06.96.04.05-.05.26-.12.37-.17.27-.37.52-.58.81,1.06.22,1.14.14.97-.97.24.04.63.06.64.11.03.28-.04.57-.08.88.43.16.49.1.67-.33.1-.23.37-.39.58-.56.1-.08.33-.14.33-.2-.04-.62.25-1.27-.2-1.86-.28-.36-.15-.72.25-.9.64-.29,1.05-.1,1.47.66.01-.43.19-.87-.16-1.29-.32-.38-.19-.8.3-.93.32-.08.67-.02,1.02-.02.25-.99.68-1.24,1.55-.82.03-.11.03-.25.09-.3.25-.19.52-.46.8-.49.25-.03.68.15.77.36.25.56.66,1.07.53,1.77-.08.4-.01.83-.01,1.25,0,.72-.11.85-.84.82-.63-.03-1.14.27-1.54.64-.44.41-.75.98-.71,1.65.02.45,0,.9,0,1.35.01.91-.12.77.78.81.48.02.62-.15.57-.6-.04-.4.12-.68.4-1.03.33-.41.57-.78,1.07-1.06.27-.15.72-.45.73-.98,0-.14.35-.27.54-.4.1-.06.22-.08.37-.13-.13-.19-.23-.31-.32-.44-.18-.28-.14-.58.12-.72.26-.14.59-.16.9-.17.23-.01.47.1.7.09.4-.02.79-.08,1.22-.13.15-.61.62-1.09,1.04-.98.37.1.84.69.7.96-.12.25-.32.54-.55.62-.27.1-.61-.02-.93-.04,0,.06-.04.23,0,.26.48.35.33.86.35,1.33.02.46.01.9-.63.91-.06,0-.14.08-.18.14-.2.31-.45.61-.55.96-.12.4-.12.85-.16,1.28,0,.03.12.11.19.11.36.01.73,0,1.09,0-.04-.05-.08-.1-.13-.14.22-.45.56-.88.65-1.35.12-.64.39-1,1.01-1.13.01,0,.02-.06.03-.09-.54-.76-.5-.88.33-1.3.12-.06.24-.17.3-.29.46-.86.52-.88,1.3-.36.02.01.06,0,.11-.01.03-.04.09-.09.09-.14.04-.52.31-.77.83-.79.15,0,.35-.08.43-.19.28-.38.67-.39,1.08-.37.37.01.74,0,1.11,0,.62,0,.61,0,.62-.63,0-.31-.08-.64.27-.87.15-.1.19-.33.32-.47.18-.2.38-.42.62-.52.1-.04.44.21.46.36.09.62.45.72.99.68.34-.02.63.12.63.55,0,1.33.02,2.67-.02,4,0,.18-.24.45-.43.52-.38.16-.66.33-.72.77-.02.11-.06.23-.14.3-.42.38-.17.87-.21,1.31,0,.04.09.12.16.14.51.17.78-.02.78-.55,0-.75.02-.76.74-.75.01-.82.69-.55,1.12-.65.03-.07.05-.09.05-.12,0-.58.02-1.16.01-1.74,0-.36.02-.67.41-.83.09-.04.1-.22.17-.31.2-.22.42-.42.62-.63.12-.13.3-.26.32-.41.05-.33,0-.67.02-1.01.02-.53.25-.67.77-.63.55.05,1.11.09,1.65,0,.37-.06.46,0,.48.34.03.44.54.81.86.54.4-.32.85-.79.93-1.25.17-.95.11-1.95.14-2.92,0-.31-.02-.61.01-.92.01-.13.15-.24.23-.36.11.11.25.21.32.35.05.1.01.25.01.38,0,2.61,0,5.21,0,7.82,0,.19.05.38.08.56.07-.02.14-.04.2-.07h.17c.02.41.04.83.05,1.24-.01.07-.02.14-.03.21,0,.19,0,.39,0,.58-.03.03-.08.06-.09.1-.18.92-.36,1.84-.54,2.76-.17.47-.35.93-.52,1.4-.04.09-.09.17-.13.26-.03.04-.07.08-.1.12-.06.16-.12.32-.18.47-.34.56-.68,1.12-1.02,1.67,0,0,0,0,0,0-.09.13-.19.25-.28.38h0c-.13.17-.26.32-.39.48h0c-.42.41-.84.81-1.27,1.22-.32.3-.63.61-.95.91h0c-.13.06-.26.1-.37.18-1.53,1.09-3.21,1.86-5.04,2.28-.55.13-1.1.24-1.65.36-.06,0-.12,0-.17.01l-.64.04c-.79,0-1.57.03-2.36.03-2.6,0-5.21-.03-7.81-.04-4.2,0-8.39,0-12.59,0-2.36,0-4.72.04-7.09.03-2.86,0-5.72-.07-8.59-.02-2.04.04-4.02-.17-5.94-.86-.14-.09-.28-.2-.43-.27-.69-.36-1.39-.71-2.07-1.08-.37-.2-.73-.43-1.09-.65,0,0,0,0,0,0-.32-.3-.63-.61-.95-.91-.42-.4-.85-.81-1.27-1.21,0,0,0,0,0,0-.13-.16-.25-.32-.38-.47,0,0,0,0,0,0,0-.03.02-.07,0-.09-.6-1.05-1.19-2.1-1.79-3.14-.02-.03-.08-.05-.12-.07-.1-.29-.21-.58-.31-.87l-.17-.39c0-.06-.01-.12-.02-.19-.02-.04-.05-.08-.07-.11,0-.09-.02-.18-.03-.27-.03-.1-.06-.19-.08-.29-.01-.12-.03-.24-.04-.36-.05-.3-.11-.6-.16-.89,0-.06-.01-.12-.02-.18,0-.23.01-.45.02-.68,0-.11.01-.22.02-.33.41-4.56.08-9.12.19-13.68Z"/>
        <path class="cls-18" d="m66.89,52.17c-.07.02-.14.04-.2.07-.03-.19-.08-.37-.08-.56,0-2.61,0-5.21,0-7.82,0-.13.04-.28-.01-.38-.07-.14-.21-.23-.32-.35-.08.12-.22.24-.23.36-.03.3,0,.61-.01.92-.03.98.03,1.97-.14,2.92-.08.46-.53.92-.93,1.25-.32.26-.84-.1-.86-.54-.02-.34-.11-.4-.48-.34-.54.09-1.1.05-1.65,0-.51-.05-.75.1-.77.63-.01.34.03.68-.02,1.01-.02.15-.2.29-.32.41-.2.21-.42.41-.62.63-.08.09-.09.27-.17.31-.4.16-.42.48-.41.83,0,.58,0,1.16-.01,1.74,0,.03-.02.06-.05.12-.42.1-1.11-.16-1.12.65-.73-.01-.74,0-.74.75,0,.53-.27.72-.78.55-.06-.02-.16-.1-.16-.14.04-.44-.21-.93.21-1.31.08-.07.13-.19.14-.3.06-.43.35-.61.72-.77.19-.08.42-.34.43-.52.04-1.33.02-2.67.02-4,0-.44-.29-.57-.63-.55-.53.03-.9-.06-.99-.68-.02-.15-.36-.4-.46-.36-.24.09-.43.32-.62.52-.13.14-.18.37-.32.47-.35.23-.26.56-.27.87,0,.63,0,.63-.62.63-.37,0-.74,0-1.11,0-.41-.01-.8-.01-1.08.37-.08.11-.28.19-.43.19-.52.02-.8.27-.83.79,0,.05-.07.1-.09.14-.05,0-.09.02-.11.01-.78-.53-.84-.51-1.3.36-.06.12-.18.23-.3.29-.84.42-.87.54-.33,1.3,0,.03-.01.08-.03.09-.62.13-.89.49-1.01,1.13-.09.47-.42.9-.65,1.35.04.05.08.1.13.14-.36,0-.73,0-1.09,0-.07,0-.19-.08-.19-.11.04-.43.03-.87.16-1.28.1-.34.36-.64.55-.96.04-.06.12-.14.18-.14.64-.01.65-.45.63-.91-.02-.47.13-.98-.35-1.33-.05-.04,0-.21,0-.26.33.02.67.14.93.04.23-.08.43-.38.55-.62.13-.27-.33-.87-.7-.96-.41-.11-.89.37-1.04.98-.43.05-.83.11-1.22.13-.23,0-.47-.1-.7-.09-.3.02-.64.04-.9.17-.26.14-.3.44-.12.72.08.13.18.25.32.44-.16.05-.28.08-.37.13-.2.12-.54.26-.54.4,0,.53-.46.83-.73.98-.5.27-.75.64-1.07,1.06-.28.35-.44.63-.4,1.03.05.45-.09.62-.57.6-.9-.05-.77.1-.78-.81,0-.45.02-.9,0-1.35-.03-.67.27-1.25.71-1.65.4-.37.91-.67,1.54-.64.73.03.84-.1.84-.82,0-.42-.06-.85.01-1.25.14-.7-.28-1.22-.53-1.77-.09-.2-.52-.39-.77-.36-.29.03-.55.3-.8.49-.07.05-.06.2-.09.3-.86-.41-1.3-.17-1.55.82-.35,0-.7-.07-1.02.02-.49.13-.62.55-.3.93.36.42.18.85.16,1.29-.43-.76-.84-.95-1.47-.66-.41.18-.53.54-.25.9.46.58.16,1.24.2,1.86,0,.06-.23.11-.33.2-.21.17-.48.33-.58.56-.18.43-.24.49-.67.33.04-.31.11-.6.08-.88,0-.06-.4-.07-.64-.11.16,1.12.09,1.19-.97.97.21-.29.41-.54.58-.81.07-.11.17-.31.12-.37-.26-.32-.07-.64-.06-.96,0-.16-.13-.32-.2-.48,0-.13,0-.26,0-.39,1.08.27,1.45-.02,1.45-1.1,0-.16-.04-.33,0-.48.1-.33.17-.69.37-.95.47-.62.44-.95-.26-1.26-.25-.11-.32-.24-.32-.5,0-.37-.07-.73-.12-1.16-.21.09-.3.13-.38.16-.11.05-.22.1-.33.14-.04-.13-.11-.25-.12-.38-.02-.29,0-.58,0-.87,0-.66.04-.68.71-.51.07-.47.16-.93-.11-1.47-.17.31-.29.53-.42.75l-.14-.03c-.02-.14-.04-.29-.05-.43,0-.35.02-.71-.02-1.06-.01-.12-.18-.22-.27-.33,0-1.94,0-3.87,0-5.81,0-.15.05-.31.07-.46.57,1.99,1.68,3.59,3.35,4.84.7.53,1.48.83,2.27,1.16.08.54-.54.22-.68.55.37.21.71.1,1.03-.05.05-.02.03-.21.03-.32.2.04.39.07.59.11.18.06.35.14.53.16.28.03.58-.02.85.05.45.11.84.04,1.22-.21.35-.03.71-.06,1.06-.1-.04.44.23.4.55.32-.05-.13-.09-.25-.1-.27.14-.21.23-.33.32-.46h0c.06.06.13.1.17.17.11.18.16.49.3.53.37.11.8.2,1.16.12.67-.14.66-.2,1.04-1.16-.14-.18-.29-.35-.39-.54-.03-.06.03-.22.1-.26.07-.04.26-.01.28.03.16.37.38.74.43,1.13.07.64.03.65.71.53.08-.32.18-.64.24-.96.06-.28.23-.36.49-.34,1.24.09,1.16-.09,1.05-1.31-.05-.52,0-.98.2-1.43.15-.34.6-.51,1.11-.32.14.05.2.36.26.57.04.15,0,.32,0,.48,0,.32.17.47.48.47.88,0,1.78.07,2.65-.03.47-.06.89-.42,1.4-.68.4.63,1.11.52,1.8.52,1.21,0,2.41-.02,3.62,0,.71.02,1.42.14,2.14.18.73.04,1.24-.37,1.67-.89.09-.1.13-.26.14-.4.01-.83,0-1.65,0-2.48,0-1.11,0-2.22,0-3.33,0-.3,0-.57.32-.74.09-.05.15-.24.16-.37.02-.25,0-.51,0-.92.27.1.46.17.65.25,0,.04,0,.07,0,.11-.09.08-.26.18-.25.23.05.16.16.29.25.44,0,.16,0,.32,0,.48-.12.24-.34.47-.35.72-.04,1.09-.02,2.17,0,3.26,0,.12.12.25.18.37-.03.64-.06,1.29-.1,1.93v1.16c.03,4.63.06,9.27.1,13.9Zm-17.02-2.8h0c.08,0,.16,0,.24,0,.45.02.8-.02.89-.61.03-.21.42-.36.63-.55.17-.14.46-.3.45-.45,0-.47.29-1.11-.2-1.38-.34-.19-.96-.16-1.32.02-.47.25-1.23.31-1.22,1.13,0,.04-.1.07-.15.11-.35.25-.52,1.17-.26,1.5.09.11.26.18.4.21.17.04.35,0,.53,0Zm-2.77-1.27c0-.33-.54-.85-.86-.85-.33,0-.86.52-.86.85,0,.35.55.89.89.87.33-.02.85-.56.84-.88Zm-12.68-11.13c-.06.3-.14.51-.13.71.04,1,.1,2,.18,3.01.01.14.13.27.19.4.06-.02.11-.03.17-.05.04-.23.1-.46.1-.69.01-.64-.05-1.29.02-1.92.07-.57-.15-.97-.54-1.45Z"/>
        <path class="cls-8" d="m.58,39.81c-.1,4.56.22,9.12-.19,13.68-.04.02-.07.05-.11.07-.01-1.07-.03-2.15-.03-3.22,0-4.37,0-8.73,0-13.1,0-.17.04-.34.06-.51.44.34.21.82.27,1.25,0,.61,0,1.22,0,1.83Z"/>
        <path class="cls-8" d="m66.89,52.17c-.03-4.63-.06-9.27-.1-13.9.09-.03.18-.06.27-.09.02.14.06.28.06.42,0,4.4,0,8.79-.01,13.19,0,.13-.03.25-.05.38-.06,0-.11,0-.17,0Z"/>
        <path class="cls-4" d="m66.89,35.18c-.06-.12-.18-.25-.18-.37-.01-1.09-.03-2.17,0-3.26,0-.24.23-.48.35-.72.02.49.06.98.06,1.48,0,.93-.04,1.85-.06,2.78-.06.03-.11.06-.17.1Z"/>
        <path class="cls-8" d="m66.89,35.18c.06-.03.11-.06.17-.1,0,.7,0,1.41,0,2.11-.09-.03-.18-.06-.27-.09.03-.64.06-1.29.1-1.93Z"/>
        <path class="cls-4" d="m66.8,37.11c.09.03.18.06.27.09,0,.33,0,.66,0,.98-.09.03-.18.06-.27.09v-1.16Z"/>
        <path class="cls-4" d="m67.06,30.35c-.09-.15-.2-.28-.25-.44-.01-.05.16-.15.25-.23,0,.22,0,.45,0,.67Z"/>
        <path class="cls-11" d="m21.52,56.62c-.42-.29-.84-.58-1.26-.87-.03-.03-.07-.07-.1-.1,0,0,0,0,0,0-.03-.03-.07-.07-.1-.1,0,0,0,0,0,0-.03-.03-.07-.07-.1-.1,0,0,0,0,0,0-.1-.1-.2-.19-.3-.29,0,0,0,0,0,0-.03-.03-.07-.07-.1-.1,0,0,0,0,0,0-.06-.07-.13-.13-.19-.2,0,0,0,0,0,0-.06-.07-.13-.13-.19-.2,0,0,0,0,0,0-.1-.13-.2-.25-.3-.38,0,0,0,0,0,0-.13-.22-.27-.44-.4-.67,0,0,0,0,0,0-.2-.56-.35-1.14-.6-1.68-.5-1.07-.48-2.19-.37-3.32.05-.5.09-.99.14-1.49,0-.06,0-.13,0-.19,0,0,0,0,0,0,.03,0,.05,0,.08-.01.1-.23.19-.45.29-.68.11-.26.21-.51.32-.77.02-.03.05-.06.07-.1,0,0,0,0,0,0,.03-.04.06-.07.09-.11,0,0,0,0,0,0,.14-.22.27-.44.41-.66h0c.06-.07.12-.14.18-.21,0,0,0,0,0,0,.13-.16.26-.32.39-.48,0,0,0,0,0,0,.03-.03.07-.07.1-.1,0,0,0,0,0,0,.03-.03.07-.07.1-.1,0,0,0,0,0,0l.1-.1h0s.07-.06.1-.1h0s.07-.06.1-.09h0c.09-.07.18-.14.28-.21,0,0,0,0,0,0,.03-.04.07-.08.1-.12.01-.05.02-.09.04-.14,0,0,0,0,0,0,.09-.07.19-.13.28-.2,0,0,0,0,0,0,.06-.04.12-.07.19-.11h0c.14-.09.28-.18.42-.28.02,0,.04,0,.06-.02.04-.03.07-.06.11-.08,0,0,0,0,0,0,.79-.27,1.57-.55,2.37-.8.29-.09.61-.13.91-.19.06,0,.13.02.19.02.03,0,.06,0,.09-.01.06,0,.13-.01.19-.02.04,0,.07,0,.11-.01,2.76,0,5.52.01,8.29.02,0,2.71,0,5.42,0,8.13,0,.19.04.38.06.56-.02.13-.04.25-.05.38-.04.16-.07.32-.11.48h0c0,.1-.01.2-.02.29h.03c-.49,2.05-1.53,3.75-3.26,4.99-.28.2-.59.35-.89.53-.34.13-.68.26-1.03.39-.14.06-.29.12-.43.18-.02.01-.04.02-.06.01-.56.06-1.12.14-1.69.17-.65.03-1.31.02-1.96.02-.05,0-.1,0-.14,0-.1-.04-.2-.07-.3-.11h0s-.06,0-.09-.01c-.39-.09-.78-.18-1.16-.27-.03,0-.06-.01-.08-.02-.07-.03-.13-.07-.2-.1,0,0,0,0,0,0-.23-.12-.46-.24-.69-.37Z"/>
        <path class="cls-8" d="m17.77,30.27c-.13.74-.23,1.48-.4,2.21-.23.98.06,1.91.23,2.85.02.14.05.28.07.41,0,.3,0,.61,0,.92-.47-.15-.56-.36-.34-.72.05-.08.11-.23.1-.24-.43-.31.16-.84-.27-1.2-.13-.11.01-.55.03-.84.02-.51.08-1.02.06-1.53-.03-.57-.14-1.13-.21-1.7-.01-.11-.07-.24-.03-.33.08-.18.21-.34.32-.51.15.16.3.32.43.49.03.04,0,.12,0,.19Z"/>
        <path class="cls-1" d="m18.36,45.5c-.11.26-.21.51-.32.77-.07.1-.14.2-.21.29-.05.13-.11.27-.16.4,0,0,0,0,0,0-.03.07-.06.14-.09.21,0,0,0,0,0,0-.04,0-.08-.01-.12-.02-.36-.38-.41-.73-.13-1.16.25-.38.53-.73.82-1.13.12.02.29.04.46.07,0,0,.01.01.01.01-.04.12-.09.24-.13.36,0,0,0,0,0,0-.03.04-.06.07-.09.11,0,0,0,0,0,0-.02.03-.05.06-.07.1Z"/>
        <path class="cls-6" d="m17.68,47.15c-.05.5-.09.99-.14,1.49-.12,1.13-.13,2.25.37,3.32.25.54.4,1.12.6,1.68-.18-.24-.36-.47-.55-.71-.13-.32-.25-.64-.38-.96-.04-.13-.08-.25-.12-.38-.02-.1-.04-.2-.06-.3-.04-.25-.08-.51-.12-.76.04-.84.08-1.67.13-2.51.02-.02.02-.05.02-.08.06-.26.11-.51.17-.77,0,0,0,0,0,0,.03,0,.06,0,.09-.02Z"/>
        <path class="cls-5" d="m24.71,41.34c-.3.06-.62.09-.91.19-.79.25-1.58.53-2.37.8.06-.07.12-.14.19-.21.1-.09.19-.19.29-.28.46-.14.93-.27,1.38-.43.08-.03.11-.17.16-.26.42.04.83.07,1.25.11,0,.03,0,.06,0,.09Z"/>
        <path class="cls-1" d="m17.58,51.96c.13.32.25.64.38.96-.1.13-.2.26-.31.39-.06-.14-.17-.28-.17-.43,0-.31.06-.62.1-.92Z"/>
        <path class="cls-8" d="m19.13,38.34c-.03.11-.06.21-.06.22.17.21.3.37.41.54,0,.01-.14.12-.22.19-.14-.24-.3-.48-.42-.73-.01-.02.19-.14.29-.22,0,0-.01.02-.01.02l.02-.02Z"/>
        <path class="cls-5" d="m17.4,48.01c-.04.84-.08,1.67-.13,2.51-.1-.84-.26-1.69.13-2.51Z"/>
        <path class="cls-17" d="m21.91,41.84c-.1.09-.19.19-.29.28-.2-.11-.41-.23-.61-.34.07-.08.13-.16.2-.24.23.1.47.2.7.3Z"/>
        <path class="cls-1" d="m19.59,43.76c0-.2.02-.4.03-.71.19.1.33.17.47.24-.04.06-.07.12-.11.18,0,0,0,0,0,0-.03.03-.07.06-.1.1,0,0,0,0,0,0-.03.03-.07.07-.1.1,0,0,0,0,0,0-.03.03-.07.07-.1.1,0,0,0,0,0,0-.03,0-.06,0-.09,0h0Z"/>
        <path class="cls-1" d="m20.18,39.42s.06.06.09.09c-.09.09-.17.19-.26.28-.09-.11-.18-.22-.27-.33.03-.03.06-.06.09-.09.12.02.23.03.35.05Z"/>
        <path class="cls-5" d="m17.59,47.17c-.06.26-.11.51-.17.77-.39-.29.11-.52.06-.79.04,0,.08.01.12.02Z"/>
        <path class="cls-1" d="m20.37,42.9c.03-.13.06-.26.1-.39.13,0,.26,0,.39,0,0,.07,0,.13,0,.2,0,0,0,0,0,0-.06.04-.12.07-.19.11,0,0,0,0,0,0-.1.02-.21.05-.31.07Z"/>
        <path class="cls-6" d="m18.51,53.63c.13.22.27.44.4.67-.09-.1-.19-.2-.28-.3-.03-.03-.06-.07-.09-.1,0,0,0-.02,0-.02-.01-.08-.03-.17-.04-.25Z"/>
        <path class="cls-6" d="m19.49,43.96c-.13.16-.26.32-.39.48,0-.06,0-.12,0-.18.04-.06.07-.11.11-.17.09-.04.18-.08.28-.13Z"/>
        <path class="cls-5" d="m20.85,42.71c0-.07,0-.13,0-.2,0-.03,0-.06,0-.09.14,0,.28.01.42.02-.14.09-.28.19-.42.28Z"/>
        <path class="cls-17" d="m20.85,42.42s0,.06,0,.09c-.13,0-.26,0-.39,0,.13-.03.26-.06.39-.09Z"/>
        <path class="cls-1" d="m19.11,44.25c0,.06,0,.12,0,.18,0,0,0,0,0,0-.06.07-.12.14-.18.2,0,0,0,0,0,0-.03,0-.06,0-.09,0h-.01c.1-.14.19-.27.29-.4Z"/>
        <path class="cls-1" d="m17.4,51.29c.02.1.04.2.06.3-.02-.1-.04-.2-.06-.3Z"/>
        <path class="cls-6" d="m19.98,43.48c.04-.06.07-.12.11-.18.06-.01.11-.02.17-.03-.09.07-.18.14-.28.21Z"/>
        <path class="cls-1" d="m19.49,43.96c-.09.04-.18.08-.28.13.09-.08.18-.15.27-.23h0s0,.07,0,.1h0Z"/>
        <path class="cls-5" d="m20.37,42.9c.1-.02.21-.05.31-.07-.09.07-.19.13-.28.2,0-.04-.02-.08-.03-.12Z"/>
        <path class="cls-1" d="m18.63,44.92c.03-.06.07-.13.1-.19l.03.03c-.04.06-.08.12-.12.18h-.01Z"/>
        <path class="cls-5" d="m20.39,43.02s-.02.09-.04.14c-.03,0-.06.01-.09,0,.04-.05.09-.1.13-.15Z"/>
        <path class="cls-1" d="m19.49,43.86s.06-.06.09-.09c0,0,0,0,0,0,0,.03,0,.06,0,.09,0,0,0,0,0,0-.03,0-.06,0-.09,0,0,0,0,0,0,0Z"/>
        <path class="cls-6" d="m20.26,43.16s.06,0,.09,0c-.03.04-.07.08-.1.12,0-.04,0-.07.01-.11Z"/>
        <path class="cls-1" d="m18.73,44.73s.06-.06.09-.1c0,0,.01.01.01.01-.02.04-.05.07-.07.11,0,0-.03-.03-.03-.03Z"/>
        <path class="cls-5" d="m21.44,42.33s-.07.06-.11.08c.04-.03.07-.06.11-.08Z"/>
        <path class="cls-10" d="m39.48,40.98c-.79-.33-1.57-.63-2.27-1.16-1.66-1.25-2.77-2.85-3.35-4.84-.03-.16-.06-.32-.1-.48-.03-.13-.05-.27-.08-.4,0-.13-.02-.26-.02-.39,0-.09,0-.18,0-.27,0-.23,0-.47,0-.7.04-.32.08-.63.12-.95.03-.16.07-.32.1-.49.03-.03.08-.07.09-.1.03-.8.46-1.46.78-2.16.37-.81,1.07-1.35,1.66-1.98.32-.35.6-.7,1.07-.89.81-.32,1.6-.7,2.39-1.05.16-.04.32-.07.49-.11h.04s.04-.01.04-.01c.78-.03,1.55-.06,2.33-.09.66.19,1.33.35,1.98.59,1.83.68,3.25,1.85,4.19,3.57.29.53.53,1.1.79,1.65.03.22.06.44.09.66.06.33.11.65.17.98v.48c0,.19,0,.39,0,.58,0,.13,0,.25,0,.38-.03.1-.06.19-.08.29.04.22.08.45.12.67-.14.36-.28.71-.42,1.07-.38.27-.54.64-.51,1.09h-.01c-.04.09-.09.17-.13.26h0s-.05.08-.08.12c-.1.15-.19.3-.29.45-.5.86-1.24,1.49-2.04,2.05-.39.25-.78.49-1.16.74-.16.07-.32.13-.48.2,0,0,0,0,0,0-.16.07-.32.13-.48.2-.15-.02-.31-.08-.44-.05-1.07.23-2.14.35-3.23.16-.38-.07-.77-.07-1.15-.1-.03-.01-.06,0-.09,0Z"/>
        <path class="cls-6" d="m33.66,50.04c-.02-.19-.06-.38-.06-.56,0-2.71,0-5.42,0-8.13.02-.02.04-.03.07-.04,0,.02.02.04.04.05,0,2.16,0,4.32-.02,6.48,0,.74-.02,1.47-.03,2.21Z"/>
        <path class="cls-16" d="m33.78,31.8c-.04.32-.08.63-.12.95-.02-.17-.06-.34-.06-.51,0-2.42,0-4.83,0-7.25.03,0,.07,0,.1-.01,0,.05.02.1.03.16,0,1.16,0,2.33,0,3.49-.02.03-.02.06,0,.08,0,.2,0,.4,0,.6,0,.35,0,.69,0,1.04,0,.1,0,.21,0,.31.02.38.04.77.06,1.15Z"/>
        <path class="cls-8" d="m33.77,34.51c.03.16.06.32.1.48-.03.15-.07.31-.07.46,0,1.94,0,3.87,0,5.81,0,.03,0,.06,0,.1-.03,0-.05,0-.08,0-.02-.01-.03-.03-.04-.05,0-.08,0-.17.01-.25,0-2.12,0-4.24,0-6.36,0-.06.02-.13.03-.19,0,0,.03,0,.03,0h.03Z"/>
        <path class="cls-16" d="m33.67,34.7c0,2.12,0,4.24,0,6.36-.03-.12-.08-.24-.08-.36,0-1.88,0-3.76,0-5.64,0-.12.05-.24.08-.36Z"/>
        <path class="cls-16" d="m24.71,41.34s0-.06,0-.09c.2,0,.39-.01.59-.02-.03.03-.07.07-.1.1-.06,0-.13.01-.19.02-.03,0-.06,0-.09.01-.06,0-.13-.02-.19-.02Z"/>
        <path class="cls-16" d="m33.77,34.51h-.03s-.03,0-.03,0c0-.13-.01-.26-.02-.4.03.13.05.27.08.4Z"/>
        <path class="cls-12" d="m33.69,24.98s-.07,0-.1.01c-.03-.02-.06-.04-.09-.06.06-.03.13-.05.19-.08.13.02.26.05.39.07-.1.02-.2.04-.3.05-.03-.01-.06-.01-.09,0Z"/>
        <path class="cls-12" d="m24.61,24.93c.13,0,.26,0,.38,0-.06.02-.13.04-.19.05-.03-.02-.06-.02-.09,0-.03-.02-.07-.04-.1-.05Z"/>
        <path class="cls-16" d="m33.66,33.45c0,.09,0,.18,0,.27,0-.09,0-.18,0-.27Z"/>
        <path class="cls-9" d="m25.19,41.34s.07-.07.1-.1c0,.03,0,.06,0,.09-.04,0-.07,0-.11.01Z"/>
        <path class="cls-16" d="m24.71,24.99s.06-.02.09,0c-.03,0-.06,0-.09,0Z"/>
        <path class="cls-12" d="m33.68,8.56c1.44,0,2.88-.02,4.32-.02,1.3,0,2.59,0,3.89,0,.17,0,.33.06.5.09-2.9,0-5.8,0-8.69.01,0-.03,0-.05-.01-.08Z"/>
        <path class="cls-13" d="m25.29,8.56c1.58,0,3.17-.02,4.75-.03,1.15,0,2.3.01,3.45.02-.12.02-.24.07-.37.07-2.49,0-4.98,0-7.47,0-.12,0-.25-.04-.37-.07Z"/>
        <path class="cls-13" d="m24.12,8.72c.3-.05.59-.1.89-.15-.3.05-.59.1-.89.15Z"/>
        <path class="cls-14" d="m33.78,24.97c.1-.02.2-.04.3-.05,1.99,0,3.98,0,5.97,0,.1.04.21.08.31.12-.16.04-.32.07-.49.11-.19-.03-.37-.1-.56-.1-1.84,0-3.69,0-5.53,0,0-.02,0-.05,0-.07Z"/>
        <path class="cls-14" d="m47.49,22.73c-.17.37-.37.72-.87.67.29-.22.58-.45.87-.67Z"/>
        <path class="cls-14" d="m46.31,23.66c-.09.04-.18.09-.26.13.09-.04.18-.09.26-.13Z"/>
        <path class="cls-12" d="m40.36,25.03c-.1-.04-.2-.08-.31-.12.13.04.26.07.39.11,0,0-.04.01-.04.01h-.04Z"/>
        <path class="cls-14" d="m46.53,23.51c-.07.05-.15.11-.22.16.07-.05.15-.11.22-.16Z"/>
        <path class="cls-5" d="m50.02,34.78c-.04-.22-.08-.45-.12-.67.03-.1.06-.19.08-.29,0-.13,0-.25,0-.38,0-.19,0-.39,0-.58,0-.16,0-.32,0-.48-.06-.33-.11-.65-.17-.98-.03-.22-.06-.44-.09-.66.08.08.22.16.24.25.09.52.16,1.05.23,1.58,0,.35,0,.71,0,1.06-.06.38-.12.77-.18,1.15Z"/>
        <path class="cls-17" d="m45.36,40.57c.39-.25.78-.49,1.16-.74-.08.15-.15.3-.23.45-.07.14-.14.27-.25.5-.17-.05-.43-.13-.69-.21Z"/>
        <path class="cls-1" d="m50.19,33.63c0-.35,0-.71,0-1.06.4.05.32.41.35.63.02.12-.22.28-.35.43Z"/>
        <path class="cls-9" d="m49.09,36.94c-.02-.46.14-.83.51-1.09-.06.19-.12.39-.18.58-.06.13-.13.26-.19.39,0,0,0,0,0,0-.05.04-.09.08-.14.12Z"/>
        <path class="cls-17" d="m48.57,37.78c.1-.15.19-.3.29-.45.03,0,.05-.01.08-.03h.01c.07.33-.04.5-.38.48Z"/>
        <path class="cls-17" d="m49.09,36.94s.09-.08.14-.12c-.01.21.1.48-.27.5,0,0-.01-.01-.01-.01,0-.03,0-.07,0-.1,0,0,0,0,0,0,.04-.09.09-.18.13-.27,0,0,.01,0,.01,0Z"/>
        <path class="cls-17" d="m49.23,36.81c.06-.13.13-.26.19-.39-.06.13-.13.26-.19.39Z"/>
        <path class="cls-5" d="m33.7,41.36s.05,0,.08,0c0,3.12,0,6.24,0,9.36,0,.13,0,.26,0,.39-.09.03-.19.06-.28.09,0,0-.03,0-.03,0,0-.1.01-.2.02-.29,0,0,0,0,0,0,.04-.16.07-.32.11-.48.02-.13.04-.25.05-.38.01-.74.03-1.47.03-2.21,0-2.16.01-4.32.02-6.48Z"/>
        <path class="cls-5" d="m22.49,57.1c.39.09.78.18,1.16.27.03,0,.06.01.09.02,0,0,0,0,0,0,.1.04.2.07.3.11.05,0,.1,0,.14,0,.06.03.11.07.17.08.73.04,1.46.08,2.2.12-.6.26-1.21.19-1.82.08-.59-.11-1.18-.19-1.77-.32-.18-.04-.32-.22-.48-.34Z"/>
        <path class="cls-6" d="m26.55,57.69c-.73-.04-1.46-.07-2.2-.12-.06,0-.11-.05-.17-.08.65,0,1.31,0,1.96-.02.56-.03,1.13-.11,1.69-.17-.09.05-.18.1-.26.16h-.03s-.03,0-.03,0c-.13.04-.26.07-.39.11,0,0,0,0,0,0-.16.03-.33.07-.49.1-.03,0-.06.01-.09.02Z"/>
        <path class="cls-5" d="m27.57,57.45c.09-.05.18-.1.26-.16.02,0,.04,0,.06-.01.14-.06.29-.12.43-.18.34-.13.68-.26,1.03-.39-.48.52-1.1.71-1.78.74Z"/>
        <path class="cls-5" d="m21.52,56.62c.23.12.46.24.69.37-.23-.12-.46-.24-.69-.37Z"/>
        <path class="cls-6" d="m18.91,54.3c.1.13.2.25.3.38-.1-.13-.2-.25-.3-.38Z"/>
        <path class="cls-6" d="m19.68,55.17c.1.1.2.19.3.29-.1-.1-.2-.19-.3-.29Z"/>
        <path class="cls-5" d="m26.63,57.67c.16-.03.33-.07.49-.1-.16.03-.33.07-.49.1Z"/>
        <path class="cls-6" d="m19.39,54.87c.06.07.13.13.19.2-.06-.07-.13-.13-.19-.2Z"/>
        <path class="cls-5" d="m27.12,57.57c.13-.04.26-.07.39-.11-.13.04-.26.07-.39.11Z"/>
        <path class="cls-6" d="m19.21,54.67c.06.07.13.13.19.2-.06-.07-.13-.13-.19-.2Z"/>
        <path class="cls-5" d="m22.2,56.98c.07.03.13.07.2.1-.07-.03-.13-.07-.2-.1Z"/>
        <path class="cls-18" d="m18.54,53.9s.06.07.09.1c-.03-.03-.06-.07-.09-.1Z"/>
        <path class="cls-6" d="m20.17,55.64s.07.07.1.1c-.03-.03-.07-.07-.1-.1Z"/>
        <path class="cls-6" d="m20.07,55.55s.07.07.1.1c-.03-.03-.07-.07-.1-.1Z"/>
        <path class="cls-6" d="m19.97,55.45s.07.07.1.1c-.03-.03-.07-.07-.1-.1Z"/>
        <path class="cls-6" d="m19.58,55.07s.07.07.1.1c-.03-.03-.07-.07-.1-.1Z"/>
        <path class="cls-1" d="m33.78,50.72c0-3.12,0-6.24,0-9.36,0-.03,0-.06,0-.1.1.11.26.21.27.33.04.35,0,.7.02,1.06,0,.14.03.29.05.43l.14.03c.12-.22.24-.44.42-.75.27.54.17,1,.11,1.47-.67-.17-.71-.14-.71.51,0,.29-.01.58,0,.87,0,.13.08.25.12.38.11-.05.22-.1.33-.14.08-.04.17-.07.38-.16.05.42.12.79.12,1.16,0,.26.07.39.32.5.7.3.73.64.26,1.26-.2.26-.27.62-.37.95-.04.15,0,.32,0,.48,0,1.09-.37,1.37-1.45,1.1Z"/>
        <path class="cls-1" d="m49.87,49.36c-.18,0-.36.03-.53,0-.14-.03-.32-.1-.4-.21-.26-.34-.09-1.26.26-1.5.05-.04.15-.07.15-.11,0-.82.75-.88,1.22-1.13.36-.19.98-.22,1.32-.02.49.27.19.91.2,1.38,0,.15-.29.31-.45.45-.22.19-.6.34-.63.55-.09.59-.44.64-.89.61-.08,0-.16,0-.24,0h0Z"/>
        <path class="cls-1" d="m47.1,48.1c0,.32-.51.86-.84.88-.34.02-.9-.53-.89-.87,0-.33.54-.85.86-.85.32,0,.86.52.86.85Z"/>
        <path class="cls-1" d="m34.42,36.97c.39.48.61.88.54,1.45-.08.63,0,1.28-.02,1.92,0,.23-.07.46-.1.69-.06.02-.11.03-.17.05-.07-.13-.18-.27-.19-.4-.07-1-.13-2-.18-3.01,0-.2.07-.4.13-.71Z"/>
        <path class="cls-9" d="m39.57,40.98c.38.03.77.03,1.15.1,1.09.19,2.16.06,3.23-.16.14-.03.3.03.44.05-.1.07-.19.14-.29.22-.35.03-.71.06-1.06.1-.87,0-1.73,0-2.6,0-.2-.04-.39-.07-.59-.11-.1-.06-.2-.13-.3-.19Z"/>
        <path class="cls-1" d="m39.57,40.98c.1.06.2.13.3.19,0,.11.02.29-.03.32-.32.15-.66.26-1.03.05.14-.33.76-.02.68-.55.03-.01.06-.02.09,0Z"/>
        <path class="cls-5" d="m40.45,41.28c.87,0,1.73,0,2.6,0-.37.26-.77.33-1.22.21-.27-.07-.57-.01-.85-.05-.18-.02-.35-.11-.53-.16Z"/>
        <path class="cls-4" d="m44.11,41.18c.1-.07.19-.14.29-.22.16-.07.32-.13.48-.2-.09.13-.18.26-.32.46,0,.02.05.14.1.27-.32.07-.59.12-.55-.32Z"/>
        <path class="cls-6" d="m18.76,44.76s.05-.07.07-.11c.03,0,.06,0,.09,0-.14.22-.27.44-.41.66.04-.12.09-.24.13-.36.04-.06.08-.12.12-.18Z"/>
        <path class="cls-6" d="m17.83,46.56c.07-.1.14-.2.21-.29-.1.23-.19.45-.29.68.03-.13.06-.26.08-.39Z"/>
        <path class="cls-6" d="m28.32,57.11c-.14.06-.29.12-.43.18.14-.06.29-.12.43-.18Z"/>
        <path class="cls-5" d="m17.83,46.56c-.03.13-.06.26-.08.39-.03,0-.05.01-.08.01.05-.13.11-.27.16-.4Z"/>
        <path class="cls-6" d="m33.6,50.42c-.04.16-.07.32-.11.48.04-.16.07-.32.11-.48Z"/>
        <path class="cls-6" d="m18.93,44.64c.06-.07.12-.14.18-.2-.06.07-.12.14-.18.2Z"/>
        <path class="cls-6" d="m33.49,50.91c0,.1-.01.2-.02.29,0-.1.01-.2.02-.29Z"/>
        <path class="cls-6" d="m24.04,57.49c-.1-.04-.2-.07-.3-.11.1.04.2.07.3.11Z"/>
        <path class="cls-5" d="m17.68,47.15s-.06.02-.09.02c.03-.07.06-.14.09-.21,0,.06,0,.13,0,.19Z"/>
        <path class="cls-6" d="m24.91,41.37s.06,0,.09-.01c-.03,0-.06,0-.09.01Z"/>
        <path class="cls-5" d="m20.67,42.82c.06-.04.12-.07.19-.11-.06.04-.12.07-.19.11Z"/>
        <path class="cls-6" d="m19.59,43.86s0-.06,0-.09c.03,0,.06,0,.09,0-.03.03-.07.07-.1.1Z"/>
        <path class="cls-6" d="m19.69,43.77s.07-.07.1-.1c-.03.03-.07.07-.1.1Z"/>
        <path class="cls-6" d="m19.78,43.67s.07-.07.1-.1c-.03.03-.07.07-.1.1Z"/>
        <path class="cls-6" d="m23.74,57.39s-.06,0-.09-.02c.03,0,.06.01.09.02Z"/>
        <path class="cls-6" d="m19.88,43.57s.07-.06.1-.1c-.03.03-.07.06-.1.1Z"/>
        <path class="cls-6" d="m19.5,43.87s.06,0,.09,0c-.03.03-.07.07-.1.1,0-.03,0-.06,0-.09Z"/>
        <path class="cls-6" d="m18.43,45.41s.06-.07.09-.11c-.03.04-.06.07-.09.11Z"/>
        <path class="cls-6" d="m18.36,45.5s.05-.06.07-.1c-.02.03-.05.06-.07.1Z"/>
        <path class="cls-17" d="m33.79,25.04c1.84,0,3.69,0,5.53,0,.19,0,.37.06.56.1-.8.35-1.58.73-2.39,1.05-.47.18-.75.54-1.07.89-.59.63-1.29,1.17-1.66,1.98-.32.7-.75,1.35-.78,2.16,0,.03-.06.07-.09.1-.05-.22-.11-.45-.16-.67,0-.1,0-.21,0-.31,0-.35,0-.69,0-1.04,0-.2,0-.4,0-.6,0,0,.03-.02.02-.02,0-.02-.02-.04-.02-.06,0-1.16,0-2.33,0-3.49.02-.03.05-.06.07-.09Z"/>
        <path class="cls-8" d="m33.71,30.65c.05.22.11.45.16.67-.03.16-.07.32-.1.49-.02-.38-.04-.77-.06-1.15Z"/>
        <path class="cls-9" d="m49.81,31.4c.06.33.11.65.17.98-.06-.33-.11-.65-.17-.98Z"/>
        <path class="cls-9" d="m49.99,32.86c0,.19,0,.39,0,.58,0-.19,0-.39,0-.58Z"/>
        <path class="cls-9" d="m49.98,33.82c-.03.1-.06.19-.08.29.03-.1.06-.19.08-.29Z"/>
        <path class="cls-9" d="m49.07,36.94c-.04.09-.09.18-.13.27.04-.09.09-.18.13-.27Z"/>
        <path class="cls-9" d="m48.94,37.2s0,.07,0,.1c-.02.02-.05.02-.08.03.03-.04.05-.08.08-.13Z"/>
        <path class="cls-8" d="m33.72,29.3c0,.35,0,.69,0,1.04,0-.35,0-.69,0-1.04Z"/>
        <path class="cls-8" d="m33.79,25.04s-.05.06-.07.09c0-.05-.02-.1-.03-.16.03-.01.06-.01.09,0,0,.02,0,.05,0,.07Z"/>
        <path class="cls-8" d="m33.72,28.62s.02.04.02.06c0,0-.02.02-.02.02-.02-.03-.02-.06,0-.08Z"/>
      </g>
    </g>
  </g>
</svg>