<?xml version="1.0" encoding="UTF-8"?>
<svg id="Layer_2" data-name="Layer 2" xmlns="http://www.w3.org/2000/svg" viewBox="0 0 67.14 67.13">
  <defs>
    <style>
      .cls-1 {
        fill: none;
      }

      .cls-2 {
        fill: #f04f32;
      }
    </style>
  </defs>
  <g id="Layer_3" data-name="Layer 3">
    <g>
      <rect class="cls-1" width="67.13" height="67.13"/>
      <path class="cls-2" d="m67.14,33.08v1.18c-.18.08-.11.26-.14.39-.17.73-.51,1.37-1.02,1.9-1.02,1.06-2.05,2.1-3.08,3.14-1.77,1.78-3.55,3.56-5.32,5.33-5.24,5.23-10.47,10.47-15.71,15.7-1.73,1.72-3.46,3.44-5.2,5.15-1.04,1.02-2.32,1.41-3.74,1.19-.91-.14-1.69-.58-2.36-1.25-1.5-1.51-3.03-2.98-4.54-4.48-1.71-1.7-3.41-3.42-5.12-5.13-2.33-2.33-4.67-4.65-7-6.98-2.44-2.44-4.87-4.89-7.31-7.33-1.73-1.74-3.47-3.47-5.2-5.21-1.08-1.08-1.58-2.37-1.34-3.91.14-.9.54-1.69,1.19-2.34,3.24-3.23,6.48-6.47,9.71-9.71,3.44-3.44,6.87-6.88,10.31-10.32.03-.03.08-.06.12-.09.05.04.08.08.12.11.95.95,1.9,1.9,2.85,2.85,1.46,1.46,2.92,2.92,4.38,4.38.29.29.26.28.14.65-.13.39-.25.79-.28,1.19-.05.52-.02,1.06.12,1.58.42,1.6,1.35,2.79,2.87,3.5.09.04.16.17.19.27.03.1,0,.22,0,.33,0,.01,0,.03,0,.04,0,.06,0,.12,0,.17,0,5.29,0,10.59,0,15.88,0,.07,0,.13,0,.2,0,.01,0,.03,0,.04,0,.1,0,.2,0,.31,0,.01,0,.03,0,.04,0,.04,0,.09,0,.13v.04s0,.09,0,.13c0,.01,0,.03,0,.04,0,.12,0,.23,0,.35,0,0,0,0,0,.01,0,.01,0,.02,0,.03,0,.13.02.26,0,.39,0,.06-.05.14-.11.16-.73.35-1.34.84-1.89,1.43-.72.8-1.05,1.76-1.19,2.8-.07.52,0,1.05.11,1.58.55,2.37,2.52,3.84,4.73,4.02.57.04,1.13-.04,1.67-.2,2.05-.6,3.53-2.31,3.72-4.51.07-.82-.06-1.62-.37-2.39-.43-1.08-1.24-1.83-2.17-2.45-.23-.16-.31-.31-.31-.58,0-5.37,0-10.75,0-16.12,0-.56,0-1.12,0-1.72.08.05.17.09.24.16,1.37,1.38,2.74,2.76,4.11,4.13.81.81,1.62,1.62,2.43,2.43.14.14.16.27.09.46-.13.39-.25.79-.29,1.2-.09.92.07,1.82.47,2.67,1.03,2.21,3.58,3.4,5.91,2.79,2.79-.73,4.43-3.51,3.69-6.31-.32-1.21-.99-2.18-2.06-2.86-.87-.56-1.8-.88-2.84-.89-.61,0-1.2.11-1.78.26-.04-.05-.08-.09-.11-.13-1.32-1.33-2.65-2.66-3.97-3.99-1.07-1.07-2.14-2.14-3.2-3.22-.06-.06-.12-.2-.09-.28.26-.8.32-1.61.17-2.43-.28-1.49-1.03-2.66-2.36-3.44-.72-.43-1.5-.69-2.33-.75-.6-.04-1.2-.01-1.77.18-.17.06-.29,0-.41-.11-2.45-2.46-4.91-4.92-7.37-7.38-.15-.15-.15-.23,0-.38,1.96-1.95,3.92-3.91,5.87-5.87.52-.52,1.11-.92,1.83-1.12.14-.04.26-.13.39-.2.58,0,1.17,0,1.75,0,.09.06.18.13.29.17.33.13.67.23.98.39.63.32,1.09.85,1.58,1.34,9.02,9.02,18.03,18.03,27.05,27.05.63.63,1.27,1.27,1.87,1.94.47.53.79,1.15.88,1.87.01.11.08.22.13.32Z"/>
    </g>
  </g>
</svg>