<svg xmlns="http://www.w3.org/2000/svg" xmlns:xlink="http://www.w3.org/1999/xlink" viewBox="0 0 459.49 105.41"><defs><style>.cls-1{fill:url(#New_Gradient_Swatch_3);}.cls-2{fill:url(#New_Gradient_Swatch_3-2);}.cls-3{fill:url(#New_Gradient_Swatch_3-3);}.cls-4{fill:url(#New_Gradient_Swatch_3-4);}.cls-5{fill:url(#New_Gradient_Swatch_3-5);}.cls-6{fill:url(#New_Gradient_Swatch_3-6);}.cls-7{fill:url(#New_Gradient_Swatch_3-7);}.cls-8{fill:#4d4d4d;}.cls-9{fill:url(#linear-gradient);}.cls-10{fill:url(#linear-gradient-2);}</style><linearGradient id="New_Gradient_Swatch_3" x1="196.09" y1="30.59" x2="249.07" y2="30.59" gradientUnits="userSpaceOnUse"><stop offset="0" stop-color="#2385e0"/><stop offset="1" stop-color="#0071bc"/></linearGradient><linearGradient id="New_Gradient_Swatch_3-2" x1="252.89" y1="30.69" x2="285.87" y2="30.69" xlink:href="#New_Gradient_Swatch_3"/><linearGradient id="New_Gradient_Swatch_3-3" x1="290.32" y1="30.59" x2="312.33" y2="30.59" xlink:href="#New_Gradient_Swatch_3"/><linearGradient id="New_Gradient_Swatch_3-4" x1="315.21" y1="27.02" x2="336.08" y2="27.02" xlink:href="#New_Gradient_Swatch_3"/><linearGradient id="New_Gradient_Swatch_3-5" x1="338.89" y1="30.69" x2="371.12" y2="30.69" xlink:href="#New_Gradient_Swatch_3"/><linearGradient id="New_Gradient_Swatch_3-6" x1="374.95" y1="30.59" x2="427.94" y2="30.59" xlink:href="#New_Gradient_Swatch_3"/><linearGradient id="New_Gradient_Swatch_3-7" x1="431.32" y1="30.69" x2="459.49" y2="30.69" xlink:href="#New_Gradient_Swatch_3"/><linearGradient id="linear-gradient" x1="56.81" y1="38.52" x2="117.74" y2="101.92" gradientUnits="userSpaceOnUse"><stop offset="0" stop-color="#8cc63f"/><stop offset="0.37" stop-color="#4fa176"/><stop offset="0.81" stop-color="#0071bc"/></linearGradient><linearGradient id="linear-gradient-2" x1="72.46" y1="23.48" x2="133.43" y2="86.92" xlink:href="#linear-gradient"/></defs><g id="Layer_2" data-name="Layer 2"><g id="Layer_1-2" data-name="Layer 1"><path class="cls-1" d="M237.12,29.77a3.92,3.92,0,0,0-4.27-4.16c-2.65,0-4.27,1.57-4.27,4.16V45.94h-12V29.77a3.92,3.92,0,0,0-4.27-4.16c-2.65,0-4.27,1.57-4.27,4.16V45.94h-12V15.45h12v4.11a10.25,10.25,0,0,1,8.81-4.33,10.91,10.91,0,0,1,9.9,5.46,12.27,12.27,0,0,1,10-5.46c7.89,0,12.27,5.14,12.27,13V45.94H237.12Z"/><path class="cls-2" d="M265.49,15.07c4.06,0,7,1.78,8.43,4.54V15.45h11.95V45.94H273.92V41.78c-1.45,2.76-4.37,4.54-8.43,4.54-7,0-12.6-5.79-12.6-15.63S258.46,15.07,265.49,15.07Zm4,10.49c-2.49,0-4.43,1.78-4.43,5.13s1.94,5.14,4.43,5.14,4.43-1.78,4.43-5.14S272,25.56,269.49,25.56Z"/><path class="cls-3" d="M302.32,45.94h-12V15.45h12v5.62c2.38-3.41,6.06-5.84,10-5.84V28h-3.41c-4.32,0-6.6,1.25-6.6,5.41Z"/><path class="cls-4" d="M319,25.45h-3.79v-10H319V8.09h12v7.36h5v10h-5v8.22c0,1.4.65,2,2.22,2h2.86V45.94h-4.54c-7.14,0-12.54-3-12.54-12.49Z"/><path class="cls-5" d="M355,46.32c-9.19,0-16.11-5.89-16.11-15.63S345.81,15.07,355,15.07,371.12,21,371.12,30.69,364.2,46.32,355,46.32Zm0-10.38c2.11,0,3.95-1.62,3.95-5.25s-1.84-5.24-3.95-5.24-3.94,1.62-3.94,5.24S352.84,35.94,355,35.94Z"/><path class="cls-6" d="M416,29.77a3.92,3.92,0,0,0-4.27-4.16c-2.65,0-4.27,1.57-4.27,4.16V45.94H395.5V29.77a3.92,3.92,0,0,0-4.27-4.16c-2.65,0-4.27,1.57-4.27,4.16V45.94H375V15.45h12v4.11a10.25,10.25,0,0,1,8.81-4.33,10.9,10.9,0,0,1,9.89,5.46,12.3,12.3,0,0,1,10-5.46c7.89,0,12.27,5.14,12.27,13V45.94H416Z"/><path class="cls-7" d="M446.46,46.32c-8.81,0-14.6-4.7-15.14-10.92h11.52c.27,1.84,1.73,2.65,3.57,2.65,1.24,0,2-.65,2-1.41,0-4-15.73-.32-15.73-11.52,0-5.51,4.38-10,13-10S458.63,20,459.49,26H448.84a3.17,3.17,0,0,0-3.46-2.6c-1.19,0-1.89.49-1.89,1.41,0,3.78,15.95.27,15.95,12C459.44,42.21,454.57,46.32,446.46,46.32Z"/><path class="cls-8" d="M206.27,68.6V64.22a2.06,2.06,0,1,0-4.11,0v3.63a12.72,12.72,0,0,0,1.68,5.08l4.65,8.76a12.17,12.17,0,0,1,1.73,6V92.5a4.83,4.83,0,0,1-4.87,4.81h-2.43a4.9,4.9,0,0,1-4.7-4.81V88.61a2.22,2.22,0,0,1,1.08-2.11c.32-.11,1.89-.81,2.86-1.24v6.59a2.06,2.06,0,1,0,4.11,0V87.47a13.12,13.12,0,0,0-1.67-5.13L200,73.63a12.17,12.17,0,0,1-1.73-6V63.74a5,5,0,0,1,4.86-5h2.44a5,5,0,0,1,4.7,5V65.2a2.22,2.22,0,0,1-1.08,2.11C208.82,67.47,207.3,68.17,206.27,68.6Z"/><path class="cls-8" d="M254.19,61.9a2,2,0,0,1-2.06,1h-3a1,1,0,0,0-1,.92V96.94h-2.76c-.92,0-1.08-.55-1.08-.82V62.93h-5.46V60.28A1.2,1.2,0,0,1,240,59.09h15.46Z"/><path class="cls-8" d="M295.79,92.5a4.64,4.64,0,0,1-4.65,4.6v.05h-3a4.68,4.68,0,0,1-4.81-4.65V60.17a1.16,1.16,0,0,1,1.13-1.08h2.76V91.8a2,2,0,0,0,2,2h.6a2.05,2.05,0,0,0,2-2V59.09h3.89Z"/><path class="cls-8" d="M333.15,59.09A4.81,4.81,0,0,1,338,63.85V92.18a4.81,4.81,0,0,1-4.81,4.76h-7.51V59.09Zm1,5.84a1.84,1.84,0,0,0-2.05-2h-2.54V93.1h2.54a1.85,1.85,0,0,0,2.05-2Z"/><path class="cls-8" d="M370.86,59.09a1.48,1.48,0,0,1,1.57,1.51V96.94h-2.76c-.92,0-1.08-.55-1.14-.82v-37Z"/><path class="cls-8" d="M410.79,58.71a4.88,4.88,0,0,1,4.7,4.81v29a4.85,4.85,0,0,1-4.7,4.75h-3A4.88,4.88,0,0,1,403,92.56v-29a4.83,4.83,0,0,1,4.86-4.81Zm-1.3,35.2a2.06,2.06,0,0,0,2.05-2.11V64.22a2.06,2.06,0,0,0-2.05-2.1h-.59a2.13,2.13,0,0,0-2.06,2.1V91.8a2.15,2.15,0,0,0,2.06,2.11Z"/><path class="cls-8" d="M453.42,68.6V64.22a2.06,2.06,0,1,0-4.11,0v3.63A12.77,12.77,0,0,0,451,72.93l4.65,8.76a12,12,0,0,1,1.73,6V92.5a4.83,4.83,0,0,1-4.86,4.81h-2.44a4.91,4.91,0,0,1-4.7-4.81V88.61a2.24,2.24,0,0,1,1.08-2.11c.33-.11,1.9-.81,2.87-1.24v6.59a2.06,2.06,0,1,0,4.11,0V87.47c0-2.21-1.68-5.13-1.68-5.13l-4.65-8.71a12.17,12.17,0,0,1-1.73-6V63.74a5,5,0,0,1,4.87-5h2.43a5,5,0,0,1,4.7,5V65.2a2.22,2.22,0,0,1-1.08,2.11C456,67.47,454.44,68.17,453.42,68.6Z"/><path class="cls-9" d="M76.59,38.12,84.51,46a7.14,7.14,0,0,0,10.1,0l13-13,13-13a7.15,7.15,0,0,0,0-10.11l-7.92-7.91a7.14,7.14,0,0,0-10.1,0L94.61,10a7.14,7.14,0,0,1-10.1,0L76.59,2.09a7.14,7.14,0,0,0-10.1,0l-13,13-18,18-18,18L2.09,66.3a7.14,7.14,0,0,0,0,10.1L10,84.31a7.15,7.15,0,0,0,10.11,0L35.51,69.1l18-18,13-13A7.14,7.14,0,0,1,76.59,38.12Z"/><polygon class="cls-10" points="170.63 60.09 152.61 42.08 134.59 24.06 116.58 42.08 89.28 69.38 71.27 51.36 53.25 69.38 71.27 87.39 89.28 105.41 107.3 87.39 134.59 60.09 152.61 78.11 161.33 86.83 179.35 68.82 170.63 60.09"/></g></g></svg>