<?xml version="1.0" encoding="UTF-8"?>
<svg id="Layer_2" data-name="Layer 2" xmlns="http://www.w3.org/2000/svg" viewBox="0 0 459.49 105.52">
  <defs>
    <style>
      .cls-1 {
        fill: #fff;
      }
    </style>
  </defs>
  <g id="Layer_1-2" data-name="Layer 1">
    <g id="Layer_2-2" data-name="Layer 2">
      <g id="Layer_1-2" data-name="Layer 1-2">
        <path class="cls-1" d="m237.12,29.88c.14-2.16-1.49-4.03-3.66-4.17-.2-.01-.41-.01-.61,0-2.65,0-4.27,1.57-4.27,4.16v16.17h-12v-16.17c.14-2.16-1.49-4.03-3.66-4.17-.2-.01-.41-.01-.61,0-2.65,0-4.27,1.57-4.27,4.16v16.17h-12V15.56h12v4.11c2.01-2.85,5.33-4.48,8.81-4.33,4.06-.17,7.87,1.94,9.9,5.46,2.24-3.35,5.97-5.39,10-5.46,7.89,0,12.27,5.14,12.27,13v17.71h-11.9v-16.17Z"/>
        <path class="cls-1" d="m265.49,15.18c4.06,0,7,1.78,8.43,4.54v-4.16h11.95v30.49h-11.95v-4.16c-1.45,2.76-4.37,4.54-8.43,4.54-7,0-12.6-5.79-12.6-15.63s5.57-15.62,12.6-15.62Zm4,10.49c-2.49,0-4.43,1.78-4.43,5.13s1.94,5.14,4.43,5.14,4.43-1.78,4.43-5.14-1.92-5.13-4.43-5.13Z"/>
        <path class="cls-1" d="m302.32,46.05h-12V15.56h12v5.62c2.38-3.41,6.06-5.84,10-5.84v12.77h-3.41c-4.32,0-6.6,1.25-6.6,5.41v12.53Z"/>
        <path class="cls-1" d="m319,25.56h-3.79v-10h3.79v-7.36h12v7.36h5v10h-5v8.22c0,1.4.65,2,2.22,2h2.86v10.27h-4.54c-7.14,0-12.54-3-12.54-12.49v-8Z"/>
        <path class="cls-1" d="m355,46.43c-9.19,0-16.11-5.89-16.11-15.63s6.92-15.62,16.11-15.62,16.12,5.93,16.12,15.62-6.92,15.63-16.12,15.63Zm0-10.38c2.11,0,3.95-1.62,3.95-5.25s-1.84-5.24-3.95-5.24-3.94,1.62-3.94,5.24,1.78,5.25,3.94,5.25Z"/>
        <path class="cls-1" d="m416,29.88c.14-2.16-1.49-4.03-3.66-4.17-.2-.01-.41-.01-.61,0-2.65,0-4.27,1.57-4.27,4.16v16.17h-11.96v-16.17c.14-2.16-1.49-4.03-3.66-4.17-.2-.01-.41-.01-.61,0-2.65,0-4.27,1.57-4.27,4.16v16.17h-11.96V15.56h12v4.11c2.01-2.85,5.33-4.48,8.81-4.33,4.06-.16,7.87,1.94,9.89,5.46,2.24-3.35,5.97-5.39,10-5.46,7.89,0,12.27,5.14,12.27,13v17.71h-11.97v-16.17Z"/>
        <path class="cls-1" d="m446.46,46.43c-8.81,0-14.6-4.7-15.14-10.92h11.52c.27,1.84,1.73,2.65,3.57,2.65,1.24,0,2-.65,2-1.41,0-4-15.73-.32-15.73-11.52,0-5.51,4.38-10,13-10s12.95,4.88,13.81,10.88h-10.65c-.29-1.64-1.8-2.78-3.46-2.6-1.19,0-1.89.49-1.89,1.41,0,3.78,15.95.27,15.95,12,0,5.4-4.87,9.51-12.98,9.51Z"/>
        <path class="cls-1" d="m206.27,68.71v-4.38c.08-1.13-.78-2.12-1.91-2.2-1.13-.08-2.12.78-2.2,1.91,0,.1,0,.19,0,.29v3.63c.19,1.79.77,3.52,1.68,5.08l4.65,8.76c1.09,1.82,1.68,3.88,1.73,6v4.81c-.01,2.67-2.18,4.82-4.85,4.81,0,0-.01,0-.02,0h-2.43c-2.59-.11-4.65-2.21-4.7-4.81v-3.89c-.08-.85.34-1.67,1.08-2.11.32-.11,1.89-.81,2.86-1.24v6.59c-.08,1.13.78,2.12,1.91,2.2,1.13.08,2.12-.78,2.2-1.91,0-.1,0-.19,0-.29v-4.38c-.2-1.81-.76-3.55-1.67-5.13l-4.6-8.71c-1.09-1.82-1.68-3.88-1.73-6v-3.89c0-2.71,2.15-4.92,4.86-5h2.44c2.64.16,4.7,2.35,4.7,5v1.46c.08.85-.34,1.67-1.08,2.11-.37.16-1.89.86-2.92,1.29Z"/>
        <path class="cls-1" d="m254.19,62.01c-.41.73-1.23,1.13-2.06,1h-3c-.52,0-.96.4-1,.92v33.12h-2.76c-.92,0-1.08-.55-1.08-.82v-33.19h-5.46v-2.65c0-.65.52-1.17,1.17-1.19h15.46l-1.27,2.81Z"/>
        <path class="cls-1" d="m295.79,92.61c-.02,2.55-2.1,4.61-4.65,4.6v.05h-3c-2.58.07-4.74-1.96-4.81-4.55,0-.03,0-.07,0-.1v-32.33c.04-.6.53-1.07,1.13-1.08h2.76v32.71c0,1.1.9,2,2,2h.6c1.09-.03,1.97-.91,2-2v-32.71h3.89l.08,33.41Z"/>
        <path class="cls-1" d="m333.15,59.2c2.65-.02,4.82,2.11,4.85,4.76v28.33c-.03,2.64-2.17,4.76-4.81,4.76h-7.51v-37.85h7.47Zm1,5.84c.1-1.01-.65-1.91-1.66-2-.13-.01-.26-.01-.39,0h-2.54v30.17h2.54c1.02.11,1.93-.62,2.05-1.63.01-.12.02-.25,0-.37v-26.17Z"/>
        <path class="cls-1" d="m370.86,59.2c.82-.05,1.52.57,1.57,1.39,0,.04,0,.08,0,.12v36.34h-2.76c-.92,0-1.08-.55-1.14-.82v-37l2.33-.03Z"/>
        <path class="cls-1" d="m410.79,58.82c2.6.1,4.66,2.21,4.7,4.81v29c-.05,2.58-2.12,4.67-4.7,4.75h-3c-2.6-.05-4.7-2.12-4.79-4.71v-29c.01-2.67,2.18-4.82,4.85-4.81,0,0,0,0,.01,0l2.93-.04Zm-1.3,35.2c1.14,0,2.06-.93,2.05-2.07,0-.01,0-.03,0-.04v-27.58c.02-1.14-.88-2.08-2.02-2.1-.01,0-.02,0-.03,0h-.59c-1.14.04-2.04.96-2.06,2.1v27.58c.02,1.14.92,2.06,2.06,2.11h.59Z"/>
        <path class="cls-1" d="m453.42,68.71v-4.38c.08-1.13-.78-2.12-1.91-2.2-1.13-.08-2.12.78-2.2,1.91,0,.1,0,.19,0,.29v3.63c.2,1.79.77,3.53,1.69,5.08l4.65,8.76c1.1,1.81,1.69,3.88,1.73,6v4.81c-.01,2.67-2.18,4.82-4.85,4.81,0,0,0,0-.01,0h-2.44c-2.59-.11-4.65-2.22-4.7-4.81v-3.89c-.07-.85.35-1.67,1.08-2.11.33-.11,1.9-.81,2.87-1.24v6.59c-.08,1.13.78,2.12,1.91,2.2,1.13.08,2.12-.78,2.2-1.91,0-.1,0-.19,0-.29v-4.38c0-2.21-1.68-5.13-1.68-5.13l-4.65-8.71c-1.09-1.82-1.68-3.88-1.73-6v-3.89c0-2.71,2.16-4.93,4.87-5h2.43c2.64.16,4.7,2.35,4.7,5v1.46c.08.85-.34,1.67-1.08,2.11-.3.16-1.86.86-2.88,1.29Z"/>
        <path class="cls-1" d="m76.59,38.23l7.92,7.88c2.79,2.79,7.31,2.79,10.1,0,0,0,0,0,0,0l13-13,13-13c2.79-2.79,2.79-7.32,0-10.11l-7.92-7.91c-2.79-2.79-7.31-2.79-10.1,0,0,0,0,0,0,0l-7.98,8.02c-2.79,2.79-7.31,2.79-10.1,0,0,0,0,0,0,0l-7.92-7.91c-2.79-2.79-7.31-2.79-10.1,0,0,0,0,0,0,0l-13,13-18,18-18,18-15.4,15.21c-2.79,2.79-2.79,7.31,0,10.1,0,0,0,0,0,0l7.91,7.91c2.79,2.79,7.32,2.79,10.11,0l15.4-15.21,18-18,13-13c2.79-2.77,7.3-2.76,10.08.02Z"/>
        <polygon class="cls-1" points="170.63 60.2 152.61 42.19 134.59 24.17 116.58 42.19 89.28 69.49 71.27 51.47 53.25 69.49 71.27 87.5 89.28 105.52 107.3 87.5 134.59 60.2 152.61 78.22 161.33 86.94 179.35 68.93 170.63 60.2"/>
      </g>
    </g>
  </g>
</svg>