<?xml version="1.0" encoding="UTF-8"?>
<svg id="Layer_2" data-name="Layer 2" xmlns="http://www.w3.org/2000/svg" viewBox="0 0 67.13 67.13">
  <defs>
    <style>
      .cls-1 {
        fill: #ecebea;
      }

      .cls-2 {
        fill: none;
      }

      .cls-3 {
        fill: #f47a34;
      }

      .cls-4 {
        fill: #ef5b33;
      }

      .cls-5 {
        fill: #fefefe;
      }
    </style>
  </defs>
  <g id="Layer_3" data-name="Layer 3">
    <g>
      <rect class="cls-2" width="67.13" height="67.13"/>
      <g id="Layer_1-2" data-name="Layer 1-2">
        <g>
          <path class="cls-4" d="m33.51.02c9.57,0,19.13,0,28.7-.02.82,0,1.03.19.95,1.02-.87,9.37-1.69,18.75-2.53,28.13-.88,9.77-1.77,19.52-2.65,29.29-.19,2.06-.19,2.06-2.17,2.61-7.1,1.97-14.22,3.94-21.32,5.92-.6.16-1.17.21-1.8.04-7.54-2.11-15.08-4.19-22.63-6.27-.59-.16-.81-.44-.86-1.04-.4-4.74-.84-9.47-1.27-14.21-.56-6.25-1.12-12.5-1.68-18.75-.48-5.38-.96-10.76-1.43-16.15-.28-3.21-.52-6.4-.84-9.59-.09-.84.13-1.02.94-1.02,9.54.03,19.07.02,28.6.02Zm.09,46.55l.02.07c-2.63-.69-5.25-1.39-7.88-2.06-.44-.11-.51-.36-.54-.76-.11-1.45-.28-2.9-.36-4.35-.04-.72-.24-1.02-1.04-.99-1.88.06-3.76.07-5.64,0-.86-.03-.94.31-.87,1.01.33,3.31.64,6.63.92,9.95.05.61.28.82.82.96,3.18.86,6.36,1.75,9.54,2.62,1.68.46,3.32,1.06,5.05,1.31l-.02.07c0,2.2.03,4.4,0,6.6,0,.77.12,1.03.99.79,6-1.69,12-3.33,18.01-4.97.54-.14.66-.44.69-.97.09-1.86.25-3.73.41-5.58.23-2.56.5-5.12.73-7.68.16-1.76.26-3.53.43-5.29.23-2.53.51-5.05.74-7.58.16-1.8.26-3.59.42-5.39.24-2.75.5-5.5.75-8.26.15-1.63.29-3.27.44-4.9.17-1.79.35-3.58.53-5.37.06-.57-.14-.8-.76-.8-7.53.01-15.05.01-22.57,0-.66,0-.82.24-.82.85.03,2.17.01,4.34.02,6.51-5.96.01-11.91.04-17.87.01-.71,0-.87.19-.79.87.21,1.92.38,3.86.56,5.79.46,5.05.92,10.1,1.34,15.15.04.52.24.64.71.64,5.34-.02,10.68-.03,16.03-.04,0,.04,0,.09.03.13,0,3.88,0,7.77-.01,11.66h0Z"/>
          <path class="cls-3" d="m33.62,12.36c0-2.17.01-4.34-.02-6.51,0-.62.16-.85.82-.85,7.53.02,15.05.01,22.57,0,.62,0,.82.23.76.8-.19,1.79-.36,3.58-.53,5.37-.16,1.63-.29,3.27-.44,4.9-.25,2.75-.52,5.5-.75,8.26-.16,1.8-.26,3.59-.42,5.39-.23,2.53-.51,5.05-.74,7.58-.16,1.76-.26,3.53-.43,5.29-.23,2.56-.5,5.12-.73,7.68-.16,1.86-.31,3.72-.41,5.58-.03.54-.15.82-.69.97-6,1.64-12.01,3.28-18.01,4.97-.87.24-1-.02-.99-.79.03-2.2,0-4.4,0-6.6,4.76-1.32,9.53-2.65,14.29-3.96.58-.16.89-.35.94-1.07.38-4.7.88-9.4,1.26-14.1.21-2.58.58-5.14.62-7.73.02-.14-.04-.17-.16-.14-5.65,0-11.3,0-16.95,0l.02-.09c0-2.15,0-4.31,0-6.47,0-.39.06-.78-.36-1.02.12-.03.24-.06.36-.09,4.21.01,8.41.03,12.62.04h4.56c.29,0,.67.13.72-.39.19-2.15.38-4.31.59-6.46.04-.43-.11-.56-.54-.55-5.99.02-11.98.04-17.96.05l.02-.07h-.02Z"/>
          <path class="cls-1" d="m33.61,19.76c-.12.03-.24.06-.36.09h-9.97c-.11-.04-.15,0-.14.11.02,2.35.41,4.69.54,7.03.03.45.34.39.62.39,3.1-.01,6.2-.03,9.31-.04l-.02.09c0,2.45,0,4.91,0,7.36-5.34.01-10.68.02-16.03.04-.47,0-.67-.12-.71-.64-.43-5.05-.89-10.1-1.34-15.15-.17-1.93-.34-3.86-.56-5.79-.08-.67.09-.87.79-.87,5.96.01,11.91,0,17.87-.01l-.02.07c0,2.44,0,4.88.01,7.32h0Z"/>
          <path class="cls-5" d="m33.59,34.78c0-2.45,0-4.91,0-7.36,5.65,0,11.3,0,16.95,0,.06.04.11.09.16.14-.04,2.59-.4,5.15-.62,7.73-.38,4.7-.88,9.4-1.26,14.1-.06.72-.36.91-.94,1.07-4.76,1.31-9.53,2.63-14.29,3.96l.02-.07v-7.68l-.02-.07c2.59-.68,5.17-1.36,7.76-2.03.28-.07.42-.2.45-.52.24-2.86.5-5.72.77-8.58.04-.41-.09-.59-.52-.58-2.81.03-5.62.04-8.44.06-.02-.04-.03-.09-.03-.13h0Z"/>
          <path class="cls-1" d="m33.63,46.64v7.68c-1.73-.25-3.38-.85-5.05-1.31-3.18-.86-6.36-1.76-9.54-2.62-.54-.14-.77-.35-.82-.96-.26-3.32-.58-6.64-.92-9.95-.07-.7.01-1.04.87-1.01,1.88.07,3.76.06,5.64,0,.79-.03.99.27,1.04.99.09,1.45.26,2.9.36,4.35.03.39.1.65.54.76,2.63.67,5.26,1.37,7.88,2.06h0Z"/>
          <path class="cls-3" d="m33.62,34.91c2.81-.01,5.62-.03,8.44-.06.44,0,.56.17.52.58-.26,2.86-.52,5.72-.77,8.58-.03.31-.16.44-.45.52-2.59.67-5.17,1.35-7.76,2.03,0-3.88,0-7.77.01-11.66h0Z"/>
          <path class="cls-5" d="m33.61,19.76c0-2.44,0-4.88-.01-7.32,5.99-.01,11.98-.02,17.96-.05.42,0,.58.13.54.55-.21,2.15-.4,4.31-.59,6.46-.04.52-.42.39-.72.39-1.52,0-3.04,0-4.56,0-4.21-.01-8.41-.03-12.62-.04h0Z"/>
          <path class="cls-4" d="m33.62,27.34c-3.1.01-6.2.03-9.31.04-.28,0-.6.06-.62-.39-.14-2.35-.52-4.67-.54-7.03.06,0,.11-.04.14-.11h9.97c.42.24.36.63.36,1.02v6.47h0Z"/>
          <path class="cls-3" d="m23.27,19.85c-.02.06-.07.09-.14.11-.01-.11.03-.15.14-.11Z"/>
        </g>
      </g>
    </g>
  </g>
</svg>