<?xml version="1.0" encoding="UTF-8"?>
<svg id="Layer_2" data-name="Layer 2" xmlns="http://www.w3.org/2000/svg" viewBox="0 0 67.13 67.13">
  <defs>
    <style>
      .cls-1 {
        fill: #ee3b68;
      }

      .cls-2 {
        fill: #451022;
      }

      .cls-3 {
        fill: #461022;
      }

      .cls-4 {
        fill: none;
      }
    </style>
  </defs>
  <g id="Layer_3" data-name="Layer 3">
    <g>
      <rect class="cls-4" width="67.13" height="67.13"/>
      <g id="Layer_1-2" data-name="Layer 1-2">
        <g>
          <path class="cls-2" d="m56.27,66.3H10.8c-.04-.09-.13-.06-.2-.07-.54-.06-1.07-.15-1.6-.28C3.72,64.63,0,59.9,0,54.44,0,40.52,0,26.6,0,12.68,0,11.58.16,10.5.45,9.44,1.86,4.44,6.52.85,11.72.84c14.56-.01,29.12,0,43.68,0,.9,0,1.78.12,2.65.33,4.5,1.04,8.14,4.92,8.89,9.45.06.36.05.73.18,1.08v43.81c-.14.32-.13.67-.18,1.01-.77,4.65-4.58,8.59-9.22,9.52-.48.1-.97.17-1.45.26h0Zm-6.77-36.73h-.01v-13.92c0-.42-.04-.45-.45-.45h-5.27c-.51,0-.52.01-.52.52,0,2.78,0,5.55,0,8.33,0,.24-.06.31-.3.29-1.78-.17-3.56-.06-5.28.4-4.27,1.15-7.15,3.79-8.47,8.04-.63,2-.57,4.05-.23,6.1.33,2,1.15,3.77,2.55,5.26,2.12,2.25,4.84,3.15,7.82,3.4,1.27.11,2.55.02,3.82-.11,2.09-.23,4.12-.72,6.07-1.51.31-.13.45-.31.43-.65-.06-.82-.13-1.64-.13-2.45-.01-4.4,0-8.81,0-13.22h0Zm-25.1,2.78v-14.11c0-.58-.08-.65-.67-.65h-5.05c-.45,0-.54.09-.54.54v28.39c0,.51.08.6.59.6h4.98c.61,0,.68-.07.68-.68v-14.08h0Z"/>
          <path class="cls-1" d="m49.5,29.57c0,4.4,0,8.81,0,13.22,0,.82.07,1.64.13,2.45.02.34-.12.53-.43.65-1.95.79-3.98,1.28-6.07,1.51-1.27.14-2.55.22-3.82.11-2.98-.25-5.7-1.14-7.82-3.4-1.4-1.49-2.22-3.26-2.55-5.26-.33-2.04-.39-4.09.23-6.1,1.33-4.25,4.21-6.89,8.47-8.04,1.73-.46,3.5-.57,5.28-.4.24.02.3-.04.3-.29,0-2.78,0-5.55,0-8.33,0-.51.01-.52.52-.52h5.27c.41,0,.45.04.45.45v13.92h.01,0Zm-6.26,6.23c0-1.95,0-3.89,0-5.84,0-.26-.09-.34-.32-.38-1.25-.21-2.48-.17-3.68.26-1.91.7-3.35,1.91-3.88,3.94-.45,1.7-.37,3.42.29,5.07.5,1.26,1.34,2.21,2.6,2.76,1.52.66,3.1.61,4.7.44.24-.03.31-.13.3-.37,0-1.96,0-3.91,0-5.87h0Z"/>
          <path class="cls-1" d="m24.4,32.35v14.08c0,.61-.07.68-.68.68h-4.98c-.51,0-.59-.08-.59-.6v-28.39c0-.45.09-.54.54-.54h5.05c.59,0,.67.07.67.65v14.11h0Z"/>
          <path class="cls-3" d="m43.24,35.8c0,1.96,0,3.91,0,5.87,0,.24-.07.35-.3.37-1.6.17-3.18.22-4.7-.44-1.26-.55-2.1-1.5-2.6-2.76-.66-1.65-.74-3.37-.29-5.07.53-2.03,1.97-3.24,3.88-3.94,1.19-.44,2.43-.47,3.68-.26.24.04.33.12.32.38-.01,1.95,0,3.89,0,5.84h0Z"/>
        </g>
      </g>
    </g>
  </g>
</svg>