<?xml version="1.0" encoding="UTF-8"?>
<svg id="Layer_2" data-name="Layer 2" xmlns="http://www.w3.org/2000/svg" viewBox="0 0 67.13 67.13">
  <defs>
    <style>
      .cls-1 {
        fill: #f58333;
      }

      .cls-2 {
        fill: #fffdfc;
      }

      .cls-3 {
        fill: #ecebea;
      }

      .cls-4 {
        fill: none;
      }

      .cls-5 {
        fill: #f69d38;
      }
    </style>
  </defs>
  <g id="Layer_3" data-name="Layer 3">
    <g>
      <rect class="cls-4" width="67.13" height="67.13"/>
      <g id="Layer_1-2" data-name="Layer 1-2">
        <g>
          <path class="cls-1" d="m63.06,1c-.42,4.96-.84,9.92-1.28,14.88-.41,4.73-.85,9.47-1.28,14.2-.49,5.51-.99,11.01-1.49,16.52-.39,4.38-.8,8.76-1.16,13.14-.05.64-.33.86-.89,1.01-7.57,2.08-15.15,4.17-22.72,6.27-.52.14-.99.14-1.51,0-7.54-2.1-15.08-4.18-22.63-6.25-.62-.17-.89-.44-.94-1.1-.77-9.05-1.57-18.1-2.38-27.15-.87-9.78-1.77-19.57-2.65-29.37-.06-.77-.11-1.54-.21-2.32-.08-.56.04-.88.69-.79.22.03.45,0,.68,0h57.26c.22,0,.44-.04.67-.05v.39c-.3.14-.2.39-.16.62Zm-29.59,32.53v27.47c0,1.01.11,1.08,1.05.82,5.94-1.64,11.86-3.29,17.81-4.9.62-.17.89-.52.94-1.06.16-1.69.29-3.4.42-5.09.14-1.76.26-3.53.42-5.29.23-2.52.51-5.05.74-7.57.16-1.8.26-3.59.42-5.39.24-2.75.51-5.5.75-8.25.14-1.6.27-3.2.42-4.81.24-2.69.5-5.37.75-8.06.16-1.73.27-3.46.5-5.18.14-1.1.15-1.18-.94-1.18-7.39,0-14.78.01-22.16-.02-.89,0-1.14.24-1.14,1.13.04,9.13.02,18.24.02,27.37h0Zm-1.48,20.47v-4.64c-.01-8.99-.03-17.98-.04-26.97,0-3.04-.02-6.08.01-9.12,0-.69-.19-.87-.87-.85-1.52.05-3.05.06-4.57,0-.78-.04-.9.25-.87.94.11,2.13.15,4.26.22,6.4.17,4.81.35,9.63.51,14.45.11,3.26.19,6.53.31,9.79.03.67-.16.77-.77.57-.95-.32-1.92-.59-2.89-.82-.49-.11-.7-.32-.72-.84-.03-.94-.14-1.87-.19-2.8-.03-.54-.27-.79-.82-.86-1.02-.14-2.05-.33-3.05-.54-.74-.16-1.03,0-.94.84.29,2.8.55,5.59.77,8.4.18,2.25.15,2.25,2.27,2.85,3.83,1.07,7.65,2.12,11.63,3.23v-.02Z"/>
          <path class="cls-5" d="m33.47,33.53c0-9.13.01-18.24-.02-27.37,0-.89.24-1.14,1.14-1.13,7.39.04,14.78.02,22.16.02,1.09,0,1.09.08.94,1.18-.22,1.72-.34,3.45-.5,5.18-.25,2.69-.5,5.37-.75,8.06-.14,1.6-.27,3.2-.42,4.81-.25,2.75-.51,5.5-.75,8.25-.16,1.8-.26,3.59-.42,5.39-.23,2.52-.51,5.05-.74,7.57-.16,1.76-.28,3.53-.42,5.29-.14,1.69-.26,3.4-.42,5.09-.05.54-.32.89-.94,1.06-5.94,1.61-11.88,3.25-17.81,4.9-.94.26-1.05.19-1.05-.82v-27.47h0Zm1.38-9.89c0,3.4.03,6.79-.02,10.19-.01.84.25,1.02,1.04.96,2.58-.2,5.17-.31,7.75-.5.55-.04.73,0,.67.64-.27,2.8-.51,5.6-.72,8.4-.04.62-.26.87-.88,1.02-2.39.56-4.76,1.19-7.14,1.79-.39.1-.72.14-.72.7.03,2.2.02,4.4,0,6.6,0,.55.2.55.64.42,4.2-1.18,8.4-2.35,12.61-3.49.48-.13.69-.34.72-.84.09-1.45.25-2.9.38-4.35.51-5.63,1-11.26,1.53-16.89.06-.66-.04-.92-.77-.9-2.62.04-5.25,0-7.87.03-.67,0-.9-.14-.86-.85.12-1.94.21-3.88.23-5.81,0-.82.24-1.12,1.11-1.12,2.72,0,5.44-.11,8.16-.14.63,0,.82-.21.86-.83.11-1.8.26-3.61.5-5.41.09-.75-.14-.85-.8-.85-5.19.02-10.37.03-15.56,0-.78,0-.89.27-.88.95.03,3.43.01,6.86.01,10.28h0Z"/>
          <path class="cls-3" d="m31.98,54c-3.98-1.1-7.8-2.16-11.63-3.23-2.12-.59-2.1-.6-2.27-2.85-.22-2.8-.48-5.6-.77-8.4-.09-.84.2-.99.94-.84,1.01.21,2.03.4,3.05.54.55.08.79.31.82.86.05.94.16,1.87.19,2.8.01.51.23.72.72.84.97.23,1.95.5,2.89.82.61.21.8.1.77-.57-.12-3.26-.2-6.53-.31-9.79-.16-4.81-.34-9.63-.51-14.45-.07-2.13-.11-4.27-.22-6.4-.04-.69.09-.97.87-.94,1.52.07,3.05.06,4.57,0,.67-.02.88.16.87.85-.04,3.04-.02,6.08-.01,9.12.01,8.99.03,17.98.04,26.97v4.66Z"/>
          <path class="cls-2" d="m34.85,23.64c0-3.43.01-6.86-.01-10.28,0-.67.09-.95.88-.95,5.19.04,10.37.03,15.56,0,.66,0,.9.1.8.85-.23,1.8-.39,3.6-.5,5.41-.04.62-.23.82-.86.83-2.72.03-5.44.14-8.16.14-.87,0-1.1.29-1.11,1.12-.02,1.94-.11,3.88-.23,5.81-.04.71.19.86.86.85,2.62-.04,5.25,0,7.87-.03.74-.01.84.24.77.9-.53,5.63-1.02,11.26-1.53,16.89-.13,1.45-.28,2.9-.38,4.35-.04.51-.24.72-.72.84-4.21,1.14-8.41,2.31-12.61,3.49-.45.13-.65.12-.64-.42.02-2.2.02-4.4,0-6.6,0-.56.33-.61.72-.7,2.38-.59,4.76-1.23,7.14-1.79.62-.14.84-.4.88-1.02.21-2.8.44-5.61.72-8.4.06-.62-.11-.67-.67-.64-2.58.19-5.17.3-7.75.5-.79.06-1.05-.12-1.04-.96.05-3.4.02-6.79.02-10.19h0Z"/>
        </g>
      </g>
    </g>
  </g>
</svg>