<?xml version="1.0" encoding="UTF-8"?>
<svg id="Layer_2" data-name="Layer 2" xmlns="http://www.w3.org/2000/svg" viewBox="0 0 67.13 67.13">
  <defs>
    <style>
      .cls-1 {
        fill: #54a1d8;
      }

      .cls-2 {
        fill: #071b33;
      }

      .cls-3 {
        fill: #54a0d7;
      }

      .cls-4 {
        fill: #55a1d8;
      }

      .cls-5 {
        fill: none;
      }

      .cls-6 {
        fill: #353c50;
      }
    </style>
  </defs>
  <g id="Layer_3" data-name="Layer 3">
    <g>
      <rect class="cls-5" width="67.13" height="67.13"/>
      <g id="Layer_1-2" data-name="Layer 1-2">
        <g>
          <path class="cls-2" d="m0,56.49V10.64c.29-.09.2-.35.26-.55C1.41,5.76,4.07,2.82,8.34,1.36c.64-.22,1.37-.14,1.96-.56h.67c.33.36.77.22,1.16.22,14.29,0,28.58,0,42.88,0,.39,0,.83.15,1.16-.22h.45c.07.07.14.19.22.19,4.9.33,10.33,5.11,10.3,11.82-.05,13.9,0,27.81-.02,41.71,0,6.44-5.26,11.76-11.7,11.78-14.58.04-29.15.03-43.73,0-5.2-.01-9.79-3.6-11.25-8.61-.12-.4-.04-.89-.43-1.19h0ZM55.02,19.98c-4.42-.11-8.2,1.22-10.96,4.85-2.29,3.01-2.86,6.47-2.69,10.13.51,10.62,8.87,14.17,17.45,12.09.6-.14.95-.49.92-1.18-.04-1.19-.03-2.39,0-3.58.02-.76-.25-.87-.94-.64-1.32.45-2.71.52-4.08.49-3.48-.07-6.07-1.9-7.16-5.04-.46-1.31-.61-2.68-.54-4.07.19-3.83,2.09-6.65,5.22-7.53,2.16-.61,4.35-.49,6.46.34.8.31,1.15.32,1.1-.69-.06-1.15-.07-2.31,0-3.46.05-.86-.35-1.22-1.09-1.39-1.21-.28-2.44-.28-3.67-.31h0ZM7.17,32.34v13.64c0,.64-.04,1.15.9,1.14,5.03-.04,10.06-.03,15.09,0,.56,0,.8-.19.87-.74.18-1.33.35-2.65.61-3.96.16-.82-.09-1.01-.88-1.01-3.2.04-6.41-.03-9.62.04-1.04.02-1.39-.2-1.38-1.33.05-7.15.02-14.31.04-21.46,0-.8-.15-1.15-1.03-1.09-1.15.08-2.31.07-3.46,0-.88-.05-1.16.22-1.15,1.13.04,4.55.02,9.09.02,13.64h-.01Zm25.74-4.86c-.1-.65-.21-1.09-.23-1.53-.04-.93-.47-1.3-1.43-1.24-1.08.07-2.16.05-3.24,0-.61-.03-.77.2-.72.78.1,1.15.19,2.3.2,3.46.03,5.63.04,11.26,0,16.89,0,.93.15,1.37,1.2,1.28,1.11-.1,2.24-.07,3.35,0,.83.05,1.09-.19,1.08-1.05-.04-4.25,0-8.5-.04-12.75-.01-.79.29-1.24.9-1.63,1.39-.9,2.94-1.3,4.56-1.24.98.04,1.1-.35,1.07-1.15-.05-1.23-.01-2.46-.02-3.69,0-1.42-.03-1.45-1.43-1.3-.18.02-.36.07-.54.11-1.9.4-3.33,1.57-4.72,3.06h.02Z"/>
          <path class="cls-6" d="m56.15.79c-.33.36-.77.22-1.16.22-14.29,0-28.58,0-42.88,0-.39,0-.83.15-1.16-.22h45.19Z"/>
          <path class="cls-3" d="m55.02,19.98c1.23.03,2.46.03,3.67.31.74.18,1.15.53,1.09,1.39-.07,1.15-.06,2.31,0,3.46.05,1-.29,1-1.1.69-2.1-.83-4.29-.95-6.46-.34-3.13.89-5.03,3.7-5.22,7.53-.07,1.39.09,2.76.54,4.07,1.09,3.14,3.68,4.97,7.16,5.04,1.38.03,2.77-.04,4.08-.49.7-.24.96-.12.94.64-.03,1.19-.04,2.39,0,3.58.03.7-.32,1.04-.92,1.18-8.58,2.08-16.94-1.47-17.45-12.09-.18-3.66.4-7.12,2.69-10.13,2.76-3.63,6.55-4.96,10.96-4.85h0Z"/>
          <path class="cls-1" d="m7.17,32.34c0-4.55.02-9.09-.02-13.64-.01-.9.27-1.18,1.15-1.13,1.15.07,2.31.07,3.46,0,.88-.06,1.04.29,1.03,1.09-.03,7.15.01,14.31-.04,21.46-.01,1.12.34,1.35,1.38,1.33,3.2-.07,6.41,0,9.62-.04.79-.01,1.05.19.88,1.01-.26,1.31-.43,2.64-.61,3.96-.07.55-.31.74-.87.74-5.03-.02-10.06-.03-15.09,0-.93,0-.9-.5-.9-1.14.01-4.55,0-9.09,0-13.64h.01Z"/>
          <path class="cls-4" d="m32.91,27.48c1.39-1.5,2.81-2.67,4.72-3.06.18-.04.36-.09.54-.11,1.4-.15,1.43-.12,1.43,1.3,0,1.23-.04,2.46.02,3.69.03.8-.09,1.19-1.07,1.15-1.62-.06-3.17.34-4.56,1.24-.61.39-.91.84-.9,1.63.05,4.25,0,8.5.04,12.75.01.86-.26,1.1-1.08,1.05-1.11-.06-2.24-.09-3.35,0-1.06.09-1.21-.35-1.2-1.28.04-5.63.02-11.26,0-16.89,0-1.15-.1-2.31-.2-3.46-.05-.57.11-.8.72-.78,1.08.04,2.16.07,3.24,0,.95-.07,1.38.3,1.43,1.24.02.44.13.88.23,1.53h-.02Z"/>
        </g>
      </g>
    </g>
  </g>
</svg>