<?xml version="1.0" encoding="UTF-8"?>
<svg id="Layer_2" data-name="Layer 2" xmlns="http://www.w3.org/2000/svg" viewBox="0 0 395.62 372.17">
  <defs>
    <style>
      .cls-1 {
        fill: #fff;
      }
    </style>
  </defs>
  <g id="Layer_1-2" data-name="Layer 1">
    <g id="Layer_2-2" data-name="Layer 2">
      <g id="Layer_1-2" data-name="Layer 1-2">
        <path class="cls-1" d="m84.83,288c0-3.24-2.09-5.19-5.32-5.19s-5.32,1.95-5.32,5.19v20.14h-14.9v-20.14c0-3.24-2.08-5.19-5.32-5.19s-5.32,1.95-5.32,5.19v20.14h-15v-38h15v5.12c2.51-3.55,6.66-5.58,11-5.39,5.53,0,9.84,2.49,12.33,6.81,2.79-4.18,7.45-6.72,12.47-6.81,9.84,0,15.29,6.4,15.29,16.24v22h-14.91v-20.11Z"/>
        <path class="cls-1" d="m120.18,269.66c5.06,0,8.69,2.22,10.51,5.66v-5.19h14.89v38h-14.89v-5.13c-1.82,3.43-5.45,5.66-10.51,5.66-8.76,0-15.7-7.21-15.7-19.48s6.94-19.52,15.7-19.52Zm5,13.07c-3.1,0-5.53,2.22-5.53,6.4s2.43,6.4,5.53,6.4,5.52-2.22,5.52-6.4-2.43-6.4-5.53-6.4h.01Z"/>
        <path class="cls-1" d="m166.09,308.13h-15v-38h15v7c3-4.25,7.54-7.28,12.46-7.28v16h-4.24c-5.39,0-8.22,1.55-8.22,6.74v15.54Z"/>
        <path class="cls-1" d="m186.86,282.6h-4.71v-12.47h4.71v-9.13h15v9.16h6.17v12.44h-6.2v10.24c0,1.75.81,2.56,2.77,2.56h3.57v12.73h-5.66c-8.9,0-15.64-3.77-15.64-15.56v-9.97Z"/>
        <path class="cls-1" d="m231.74,308.61c-11.46,0-20.08-7.35-20.08-19.48s8.62-19.47,20.08-19.47,20.08,7.34,20.08,19.47-8.63,19.48-20.08,19.48Zm0-12.94c2.63,0,4.92-2,4.92-6.54s-2.29-6.53-4.92-6.53-4.92,2-4.92,6.53,2.21,6.54,4.92,6.54h0Z"/>
        <path class="cls-1" d="m307.74,288c0-3.24-2.09-5.19-5.32-5.19s-5.33,1.95-5.33,5.19v20.14h-14.89v-20.14c0-3.24-2.09-5.19-5.32-5.19s-5.32,1.95-5.32,5.19v20.14h-15v-38h15v5.12c2.51-3.55,6.66-5.58,11-5.39,5.52,0,9.84,2.49,12.33,6.81,2.79-4.18,7.45-6.72,12.47-6.81,9.83,0,15.29,6.4,15.29,16.24v22h-14.91v-20.11Z"/>
        <path class="cls-1" d="m345.72,308.61c-11,0-18.2-5.87-18.87-13.62h14.35c.34,2.3,2.16,3.31,4.45,3.31,1.55,0,2.49-.81,2.49-1.76,0-5-19.61-.4-19.61-14.35,0-6.87,5.46-12.53,16.18-12.53s16.17,6.13,17.25,13.61h-13.28c-.4-2-1.88-3.23-4.31-3.23-1.48,0-2.36.6-2.36,1.75,0,4.71,19.88.34,19.88,15,0,6.69-6.06,11.82-16.17,11.82Z"/>
        <path class="cls-1" d="m46.39,336.38v-5.46c.09-1.42-.99-2.64-2.4-2.73-1.42-.09-2.64.99-2.73,2.4,0,.11,0,.21,0,.32v4.51c0,2.77,2.09,6.34,2.09,6.34l5.8,10.91c1.36,2.26,2.1,4.84,2.15,7.48v6c0,3.31-2.69,6-6,6-.02,0-.04,0-.06,0h-3c-3.23-.14-5.8-2.77-5.87-6v-4.85c-.09-1.06.43-2.08,1.35-2.63.41-.13,2.36-1,3.57-1.55v8.22c-.07,1.42,1.03,2.62,2.45,2.69s2.62-1.03,2.69-2.45c0-.1,0-.21,0-.31v-5.39c0-2.76-2.09-6.4-2.09-6.4l-5.8-10.85c-1.36-2.26-2.1-4.83-2.16-7.47v-4.86c0-3.38,2.69-6.16,6.07-6.26h3c3.3.21,5.87,2.95,5.86,6.26v1.82c.09,1.06-.43,2.08-1.34,2.63-.41.24-2.29,1.08-3.57,1.62Z"/>
        <path class="cls-1" d="m106.09,328c-.51.91-1.53,1.42-2.56,1.28h-3.77c-.64.01-1.16.51-1.21,1.15v41.24h-3.44c-1.14,0-1.35-.68-1.35-1v-41.37h-6.8v-3.3c0-.82.66-1.47,1.48-1.48h19.27l-1.62,3.48Z"/>
        <path class="cls-1" d="m157.95,366.16c-.03,3.18-2.62,5.74-5.8,5.73v.11h-3.7c-3.22.09-5.91-2.45-6-5.68,0-.04,0-.08,0-.12v-40.33c.06-.74.66-1.33,1.41-1.35h3.44v40.76c-.03,1.38,1.06,2.53,2.44,2.56.02,0,.03,0,.05,0h.74c1.41,0,2.56-1.14,2.57-2.55,0,0,0,0,0-.01v-40.76h4.85v41.64Z"/>
        <path class="cls-1" d="m204.5,324.52c3.29,0,5.96,2.64,6,5.93v35.31c-.04,3.29-2.71,5.93-6,5.93h-9.36v-47.17h9.36Zm1.22,7.28c.08-1.27-.88-2.36-2.15-2.44-.14,0-.27,0-.41.01h-3.13v37.53h3.17c1.27.14,2.41-.77,2.55-2.04.02-.15.02-.3,0-.45l-.04-32.61Z"/>
        <path class="cls-1" d="m251.5,324.52c1.02-.06,1.89.73,1.95,1.75,0,.05,0,.1,0,.14v45.28h-3.42c-1.15,0-1.35-.68-1.42-1v-46.17h2.89Z"/>
        <path class="cls-1" d="m301.26,324.05c3.24.11,5.82,2.76,5.86,6v36.19c-.07,3.22-2.64,5.82-5.86,5.93h-3.71c-3.29-.02-5.97-2.64-6.06-5.93v-36.24c0-3.31,2.69-6,6-6,.02,0,.04,0,.06,0l3.71.05Zm-1.62,43.86c1.42,0,2.57-1.16,2.56-2.58,0-.02,0-.03,0-.05v-34.36c.03-1.42-1.1-2.6-2.53-2.63-.01,0-.02,0-.03,0h-.74c-1.42.06-2.54,1.21-2.56,2.63v34.36c.02,1.42,1.14,2.58,2.56,2.63h.74Z"/>
        <path class="cls-1" d="m354.38,336.38v-5.46c0-1.41-1.14-2.56-2.56-2.56-1.41,0-2.56,1.14-2.56,2.56h0v4.52c0,2.77,2.09,6.34,2.09,6.34l5.8,10.91c1.35,2.26,2.09,4.84,2.15,7.48v6c0,3.31-2.69,6-6,6-.02,0-.04,0-.06,0h-3c-3.23-.14-5.8-2.77-5.87-6v-4.85c-.09-1.06.43-2.09,1.35-2.63.41-.13,2.36-1,3.57-1.55v8.22c.02,1.41,1.18,2.54,2.6,2.52s2.54-1.18,2.52-2.6v-5.39c0-2.76-2.09-6.4-2.09-6.4l-5.79-10.85c-1.36-2.26-2.1-4.83-2.16-7.47v-4.86c0-3.38,2.69-6.16,6.07-6.26h3c3.3.22,5.86,2.96,5.86,6.26v1.82c.09,1.06-.43,2.09-1.35,2.63-.4.24-2.29,1.08-3.57,1.62Z"/>
        <path class="cls-1" d="m380.31,240v3.3h-179.88c-.28-1.44-1.68-2.38-3.12-2.1-1.06.21-1.89,1.04-2.1,2.1H15.34v-3.3h-7.6v7.6h7.6v-3.3h179.87c.28,1.44,1.68,2.38,3.12,2.1,1.06-.21,1.89-1.04,2.1-2.1h179.88v3.3h7.6v-7.6h-7.6Zm-366,6.6h-5.57v-5.6h5.6l-.03,5.6Zm372.57,0h-5.6v-5.6h5.6v5.6Z"/>
        <path class="cls-1" d="m168.97,84.09l17.45,17.45c6.16,6.15,16.13,6.15,22.29,0l28.59-28.54,28.6-28.6c6.15-6.15,6.15-16.13,0-22.28l-17.46-17.5c-6.14-6.15-16.11-6.16-22.26-.02,0,0-.01.01-.02.02l-17.45,17.45c-6.16,6.15-16.13,6.15-22.29,0l-17.45-17.45c-6.14-6.15-16.11-6.16-22.26-.02,0,0-.01.01-.02.02l-28.6,28.59-39.73,39.79-39.74,39.68L4.62,146.24c-6.15,6.14-6.16,16.11-.02,22.26,0,0,.01.01.02.02l17.48,17.48c6.14,6.15,16.11,6.16,22.26.02,0,0,.01-.01.02-.02l34-33.55,39.73-39.74,28.6-28.59c6.14-6.16,16.1-6.17,22.26-.03,0,0,0,0,0,0Z"/>
        <polygon class="cls-1" points="376.38 132.55 336.64 92.81 296.91 53.08 257.17 92.81 196.96 153.02 157.22 113.29 117.49 153.02 157.22 192.76 196.96 232.5 236.7 192.76 296.91 132.55 336.64 172.29 355.88 191.52 395.62 151.79 376.38 132.55"/>
      </g>
    </g>
  </g>
</svg>