<?xml version="1.0" encoding="UTF-8"?>
<svg id="Layer_2" data-name="Layer 2" xmlns="http://www.w3.org/2000/svg" xmlns:xlink="http://www.w3.org/1999/xlink" viewBox="0 0 459.49 105.41">
  <defs>
    <style>
      .cls-1 {
        fill: url(#linear-gradient-2);
      }

      .cls-2 {
        fill: #4d4d4d;
      }

      .cls-3 {
        fill: url(#New_Gradient_Swatch_3-4);
      }

      .cls-4 {
        fill: url(#New_Gradient_Swatch_3-2);
      }

      .cls-5 {
        fill: url(#New_Gradient_Swatch_3);
      }

      .cls-6 {
        fill: url(#New_Gradient_Swatch_3-3);
      }

      .cls-7 {
        fill: url(#New_Gradient_Swatch_3-7);
      }

      .cls-8 {
        fill: url(#New_Gradient_Swatch_3-5);
      }

      .cls-9 {
        fill: url(#linear-gradient);
      }

      .cls-10 {
        fill: url(#New_Gradient_Swatch_3-6);
      }
    </style>
    <linearGradient id="New_Gradient_Swatch_3" data-name="New Gradient Swatch 3" x1="196.09" y1="30.59" x2="249.07" y2="30.59" gradientUnits="userSpaceOnUse">
      <stop offset="0" stop-color="#2385e0"/>
      <stop offset="1" stop-color="#0071bc"/>
    </linearGradient>
    <linearGradient id="New_Gradient_Swatch_3-2" data-name="New Gradient Swatch 3" x1="252.89" y1="30.69" x2="285.87" y2="30.69" xlink:href="#New_Gradient_Swatch_3"/>
    <linearGradient id="New_Gradient_Swatch_3-3" data-name="New Gradient Swatch 3" x1="290.32" x2="312.33" xlink:href="#New_Gradient_Swatch_3"/>
    <linearGradient id="New_Gradient_Swatch_3-4" data-name="New Gradient Swatch 3" x1="315.21" y1="27.02" x2="336.08" y2="27.02" xlink:href="#New_Gradient_Swatch_3"/>
    <linearGradient id="New_Gradient_Swatch_3-5" data-name="New Gradient Swatch 3" x1="338.89" y1="30.69" x2="371.12" y2="30.69" xlink:href="#New_Gradient_Swatch_3"/>
    <linearGradient id="New_Gradient_Swatch_3-6" data-name="New Gradient Swatch 3" x1="374.95" x2="427.94" xlink:href="#New_Gradient_Swatch_3"/>
    <linearGradient id="New_Gradient_Swatch_3-7" data-name="New Gradient Swatch 3" x1="431.32" y1="30.69" x2="459.49" y2="30.69" xlink:href="#New_Gradient_Swatch_3"/>
    <linearGradient id="linear-gradient" x1="56.81" y1="38.52" x2="117.74" y2="101.92" gradientUnits="userSpaceOnUse">
      <stop offset="0" stop-color="#8cc63f"/>
      <stop offset=".37" stop-color="#4ea075"/>
      <stop offset=".81" stop-color="#0071bc"/>
    </linearGradient>
    <linearGradient id="linear-gradient-2" x1="72.46" y1="23.48" x2="133.43" y2="86.92" xlink:href="#linear-gradient"/>
  </defs>
  <g id="Layer_1-2" data-name="Layer 1">
    <g>
      <g>
        <g>
          <path class="cls-5" d="m237.12,29.77c0-2.59-1.68-4.16-4.27-4.16s-4.27,1.57-4.27,4.16v16.17h-11.95v-16.17c0-2.59-1.68-4.16-4.27-4.16s-4.27,1.57-4.27,4.16v16.17h-12V15.45h12v4.11c1.62-2.38,4.54-4.33,8.81-4.33s7.89,2,9.9,5.46c2.05-2.92,5.51-5.46,10-5.46,7.89,0,12.27,5.14,12.27,13.03v17.68h-11.95v-16.17Z"/>
          <path class="cls-4" d="m265.49,15.07c4.06,0,6.98,1.78,8.43,4.54v-4.16h11.95v30.49h-11.95v-4.16c-1.46,2.76-4.38,4.54-8.43,4.54-7.03,0-12.6-5.78-12.6-15.62s5.57-15.63,12.6-15.63Zm4,10.49c-2.49,0-4.43,1.78-4.43,5.14s1.95,5.14,4.43,5.14,4.43-1.78,4.43-5.14-1.95-5.14-4.43-5.14Z"/>
          <path class="cls-6" d="m302.32,45.94h-12V15.45h12v5.62c2.38-3.41,6.06-5.84,10-5.84v12.81h-3.41c-4.33,0-6.6,1.24-6.6,5.41v12.49Z"/>
          <path class="cls-3" d="m319,25.45h-3.78v-10h3.78v-7.35h12v7.35h4.97v10h-4.97v8.22c0,1.41.65,2.05,2.22,2.05h2.86v10.22h-4.54c-7.14,0-12.54-3.03-12.54-12.49v-8Z"/>
          <path class="cls-8" d="m355,46.32c-9.19,0-16.11-5.89-16.11-15.62s6.92-15.63,16.11-15.63,16.11,5.89,16.11,15.63-6.92,15.62-16.11,15.62Zm0-10.38c2.11,0,3.95-1.62,3.95-5.24s-1.84-5.24-3.95-5.24-3.95,1.62-3.95,5.24,1.78,5.24,3.95,5.24Z"/>
          <path class="cls-10" d="m415.99,29.77c0-2.59-1.68-4.16-4.27-4.16s-4.27,1.57-4.27,4.16v16.17h-11.95v-16.17c0-2.59-1.68-4.16-4.27-4.16s-4.27,1.57-4.27,4.16v16.17h-12V15.45h12v4.11c1.62-2.38,4.54-4.33,8.81-4.33s7.89,2,9.9,5.46c2.05-2.92,5.51-5.46,10-5.46,7.89,0,12.27,5.14,12.27,13.03v17.68h-11.95v-16.17Z"/>
          <path class="cls-7" d="m446.46,46.32c-8.81,0-14.6-4.7-15.14-10.92h11.52c.27,1.84,1.73,2.65,3.57,2.65,1.24,0,2-.65,2-1.41,0-4-15.73-.32-15.73-11.52,0-5.52,4.38-10.06,12.98-10.06s12.98,4.92,13.84,10.92h-10.65c-.32-1.62-1.51-2.6-3.46-2.6-1.19,0-1.89.49-1.89,1.41,0,3.78,15.95.27,15.95,12,0,5.41-4.87,9.52-12.98,9.52Z"/>
        </g>
        <g>
          <path class="cls-2" d="m206.27,68.6v-4.38c0-1.19-.92-2.11-2.05-2.11s-2.05.92-2.05,2.11v3.62c0,2.22,1.68,5.08,1.68,5.08l4.65,8.76c1.89,3.46,1.73,6,1.73,6v4.81c0,2.65-2.16,4.81-4.87,4.81h-2.43c-2.6-.11-4.65-2.22-4.7-4.81v-3.89c0-1.24.6-1.84,1.08-2.11.33-.11,1.89-.81,2.87-1.24v6.6c0,1.14.92,2.05,2.05,2.05s2.05-.92,2.05-2.11v-4.33c0-2.22-1.68-5.14-1.68-5.14l-4.65-8.71c-1.89-3.46-1.73-6-1.73-6v-3.89c0-2.65,2.16-5.03,4.87-5.03h2.43c2.6.05,4.7,2.43,4.7,5.03v1.46c0,1.24-.59,1.84-1.08,2.11-.32.16-1.84.86-2.86,1.3Z"/>
          <path class="cls-2" d="m254.19,61.9c-.22.49-.81,1.03-2.05,1.03h-3.03c-.54,0-.92.43-.97.92v33.09h-2.76c-.92,0-1.08-.54-1.08-.81v-33.2h-5.46v-2.65c0-.65.54-1.19,1.19-1.19h15.46l-1.3,2.81Z"/>
          <path class="cls-2" d="m295.79,92.5c0,2.6-2.11,4.54-4.65,4.6v.05h-2.97c-2.65,0-4.81-2-4.81-4.65v-32.33c.05-.59.54-1.08,1.14-1.08h2.76v32.71c0,1.14.86,2.05,2,2.05h.59c1.14,0,2.05-.92,2.05-2.05v-32.71h3.89v33.41Z"/>
          <path class="cls-2" d="m333.15,59.09c2.65,0,4.76,2.11,4.81,4.76v28.33c-.05,2.65-2.16,4.76-4.81,4.76h-7.52v-37.85h7.52Zm.97,5.84c0-1.41-.97-1.95-2.05-1.95h-2.54v30.12h2.54c1.08,0,2.05-.54,2.05-2v-26.17Z"/>
          <path class="cls-2" d="m370.86,59.09c1.14,0,1.57.86,1.57,1.51v36.33h-2.76c-.92,0-1.08-.54-1.14-.81v-37.04h2.33Z"/>
          <path class="cls-2" d="m410.79,58.71c2.6.11,4.7,2.22,4.7,4.81v29.04c-.05,2.59-2.11,4.65-4.7,4.76h-2.97c-2.65,0-4.81-2.16-4.87-4.76v-29.04c0-2.65,2.16-4.81,4.87-4.81h2.97Zm-1.3,35.2c1.14,0,2.05-.92,2.05-2.11v-27.58c0-1.19-.92-2.11-2.05-2.11h-.59c-1.14.05-2.05.97-2.05,2.11v27.58c0,1.14.92,2.05,2.05,2.11h.59Z"/>
          <path class="cls-2" d="m453.42,68.6v-4.38c0-1.19-.92-2.11-2.05-2.11s-2.05.92-2.05,2.11v3.62c0,2.22,1.68,5.08,1.68,5.08l4.65,8.76c1.89,3.46,1.73,6,1.73,6v4.81c0,2.65-2.16,4.81-4.87,4.81h-2.43c-2.6-.11-4.65-2.22-4.7-4.81v-3.89c0-1.24.6-1.84,1.08-2.11.33-.11,1.89-.81,2.87-1.24v6.6c0,1.14.92,2.05,2.05,2.05s2.05-.92,2.05-2.11v-4.33c0-2.22-1.68-5.14-1.68-5.14l-4.65-8.71c-1.89-3.46-1.73-6-1.73-6v-3.89c0-2.65,2.16-5.03,4.87-5.03h2.43c2.6.05,4.7,2.43,4.7,5.03v1.46c0,1.24-.59,1.84-1.08,2.11-.32.16-1.84.86-2.86,1.3Z"/>
        </g>
      </g>
      <g>
        <path class="cls-9" d="m76.59,38.12l7.91,7.91c2.79,2.79,7.31,2.79,10.1,0l12.96-12.96,12.96-12.96c2.79-2.79,2.79-7.31,0-10.1l-7.91-7.91c-2.79-2.79-7.31-2.79-10.1,0l-7.91,7.91c-2.79,2.79-7.31,2.79-10.1,0l-7.91-7.91c-2.79-2.79-7.31-2.79-10.1,0l-12.96,12.96-18.02,18.02-18.02,18.02-15.4,15.21c-2.79,2.79-2.79,7.31,0,10.1l7.91,7.91c2.79,2.79,7.31,2.79,10.1,0l15.4-15.21,18.02-18.02,12.96-12.96c2.79-2.79,7.31-2.79,10.1,0Z"/>
        <polygon class="cls-1" points="170.63 60.09 152.61 42.08 134.6 24.06 116.58 42.08 89.28 69.38 71.27 51.36 53.25 69.38 71.27 87.39 89.28 105.41 107.3 87.39 134.6 60.09 152.61 78.11 161.33 86.83 179.35 68.82 170.63 60.09"/>
      </g>
    </g>
  </g>
</svg>