<svg xmlns="http://www.w3.org/2000/svg" xmlns:xlink="http://www.w3.org/1999/xlink" viewBox="0 0 395.59 372.16"><defs><style>.cls-1{fill:url(#New_Gradient_Swatch_3);}.cls-2{fill:url(#New_Gradient_Swatch_3-2);}.cls-3{fill:url(#New_Gradient_Swatch_3-3);}.cls-4{fill:url(#New_Gradient_Swatch_3-4);}.cls-5{fill:url(#New_Gradient_Swatch_3-5);}.cls-6{fill:url(#New_Gradient_Swatch_3-6);}.cls-7{fill:url(#New_Gradient_Swatch_3-7);}.cls-8{fill:#4d4d4d;}.cls-9{fill:url(#New_Gradient_Swatch_3-8);}.cls-10{fill:url(#linear-gradient);}.cls-11{fill:url(#linear-gradient-2);}</style><linearGradient id="New_Gradient_Swatch_3" x1="33.66" y1="289" x2="99.69" y2="289" gradientUnits="userSpaceOnUse"><stop offset="0" stop-color="#2385e0"/><stop offset="1" stop-color="#0071bc"/></linearGradient><linearGradient id="New_Gradient_Swatch_3-2" x1="104.45" y1="289.13" x2="145.55" y2="289.13" xlink:href="#New_Gradient_Swatch_3"/><linearGradient id="New_Gradient_Swatch_3-3" x1="151.1" y1="289" x2="178.52" y2="289" xlink:href="#New_Gradient_Swatch_3"/><linearGradient id="New_Gradient_Swatch_3-4" x1="182.12" y1="284.55" x2="208.13" y2="284.55" xlink:href="#New_Gradient_Swatch_3"/><linearGradient id="New_Gradient_Swatch_3-5" x1="211.63" y1="289.13" x2="251.79" y2="289.13" xlink:href="#New_Gradient_Swatch_3"/><linearGradient id="New_Gradient_Swatch_3-6" x1="256.57" y1="289" x2="322.6" y2="289" xlink:href="#New_Gradient_Swatch_3"/><linearGradient id="New_Gradient_Swatch_3-7" x1="326.82" y1="289.13" x2="361.93" y2="289.13" xlink:href="#New_Gradient_Swatch_3"/><linearGradient id="New_Gradient_Swatch_3-8" x1="7.71" y1="243.8" x2="387.88" y2="243.8" xlink:href="#New_Gradient_Swatch_3"/><linearGradient id="linear-gradient" x1="125.31" y1="84.96" x2="259.7" y2="224.8" gradientUnits="userSpaceOnUse"><stop offset="0" stop-color="#8cc63f"/><stop offset="0.37" stop-color="#4fa176"/><stop offset="0.81" stop-color="#0071bc"/></linearGradient><linearGradient id="linear-gradient-2" x1="159.82" y1="51.79" x2="294.29" y2="191.71" xlink:href="#linear-gradient"/></defs><title>martoms studios full</title><g id="Layer_2" data-name="Layer 2"><g id="Layer_1-2" data-name="Layer 1"><path class="cls-1" d="M84.8,288c0-3.24-2.09-5.19-5.32-5.19s-5.32,1.95-5.32,5.19v20.14H59.26V288c0-3.24-2.08-5.19-5.32-5.19s-5.32,1.95-5.32,5.19v20.14h-15v-38h15v5.12a12.79,12.79,0,0,1,11-5.39c5.53,0,9.84,2.49,12.33,6.81a15.31,15.31,0,0,1,12.47-6.81c9.84,0,15.29,6.4,15.29,16.24v22H84.8Z"/><path class="cls-2" d="M120.15,269.66c5.06,0,8.69,2.22,10.51,5.66v-5.19h14.89v38H130.66V303c-1.82,3.43-5.45,5.66-10.51,5.66-8.76,0-15.7-7.21-15.7-19.48S111.39,269.66,120.15,269.66Zm5,13.07c-3.1,0-5.53,2.22-5.53,6.4s2.43,6.4,5.53,6.4,5.52-2.22,5.52-6.4S128.24,282.73,125.14,282.73Z"/><path class="cls-3" d="M166.06,308.13h-15v-38h15v7c3-4.25,7.54-7.28,12.46-7.28v16h-4.24c-5.39,0-8.22,1.55-8.22,6.74Z"/><path class="cls-4" d="M186.83,282.6h-4.71V270.13h4.71V261h15v9.16H208V282.6h-6.2v10.24c0,1.75.81,2.56,2.77,2.56h3.57v12.73h-5.66c-8.9,0-15.64-3.77-15.64-15.56Z"/><path class="cls-5" d="M231.71,308.61c-11.46,0-20.08-7.35-20.08-19.48s8.62-19.47,20.08-19.47,20.08,7.34,20.08,19.47S243.16,308.61,231.71,308.61Zm0-12.94c2.63,0,4.92-2,4.92-6.54s-2.29-6.53-4.92-6.53-4.92,2-4.92,6.53S229,295.67,231.71,295.67Z"/><path class="cls-6" d="M307.71,288c0-3.24-2.09-5.19-5.32-5.19s-5.33,1.95-5.33,5.19v20.14H282.17V288c0-3.24-2.09-5.19-5.32-5.19s-5.32,1.95-5.32,5.19v20.14h-15v-38h15v5.12a12.79,12.79,0,0,1,11-5.39c5.52,0,9.84,2.49,12.33,6.81a15.31,15.31,0,0,1,12.47-6.81c9.83,0,15.29,6.4,15.29,16.24v22H307.71Z"/><path class="cls-7" d="M345.69,308.61c-11,0-18.2-5.87-18.87-13.62h14.35c.34,2.3,2.16,3.31,4.45,3.31,1.55,0,2.49-.81,2.49-1.76,0-5-19.61-.4-19.61-14.35,0-6.87,5.46-12.53,16.18-12.53s16.17,6.13,17.25,13.61H348.65c-.4-2-1.88-3.23-4.31-3.23-1.48,0-2.36.6-2.36,1.75,0,4.71,19.88.34,19.88,15C361.86,303.48,355.8,308.61,345.69,308.61Z"/><path class="cls-8" d="M46.36,336.38v-5.46a2.57,2.57,0,1,0-5.13,0v4.51c0,2.77,2.09,6.34,2.09,6.34l5.8,10.91a15.07,15.07,0,0,1,2.15,7.48v6a6,6,0,0,1-6.06,6h-3a6.14,6.14,0,0,1-5.87-6v-4.85a2.79,2.79,0,0,1,1.35-2.63c.41-.13,2.36-1,3.57-1.55v8.22a2.57,2.57,0,1,0,5.13-.07v-5.39c0-2.76-2.09-6.4-2.09-6.4l-5.8-10.85a15.12,15.12,0,0,1-2.16-7.47v-4.86a6.26,6.26,0,0,1,6.07-6.26h3a6.26,6.26,0,0,1,5.86,6.26v1.82a2.79,2.79,0,0,1-1.34,2.63C49.52,335,47.64,335.84,46.36,336.38Z"/><path class="cls-8" d="M106.06,328a2.55,2.55,0,0,1-2.56,1.28H99.73a1.24,1.24,0,0,0-1.21,1.15v41.24H95.08c-1.14,0-1.35-.68-1.35-1V329.3h-6.8V326a1.49,1.49,0,0,1,1.48-1.48h19.27Z"/><path class="cls-8" d="M157.92,366.16a5.79,5.79,0,0,1-5.8,5.73V372h-3.7a5.84,5.84,0,0,1-6-5.8V325.87a1.46,1.46,0,0,1,1.41-1.35h3.44v40.76a2.5,2.5,0,0,0,2.49,2.56h.74a2.56,2.56,0,0,0,2.57-2.56V324.52h4.85Z"/><path class="cls-8" d="M204.47,324.52a6,6,0,0,1,6,5.93v35.31a6,6,0,0,1-6,5.93h-9.36V324.52Zm1.22,7.28a2.3,2.3,0,0,0-2.56-2.43H200V366.9h3.17a2.31,2.31,0,0,0,2.56-2.49Z"/><path class="cls-8" d="M251.47,324.52a1.85,1.85,0,0,1,1.95,1.89v45.28H250c-1.15,0-1.35-.68-1.42-1V324.52Z"/><path class="cls-8" d="M301.23,324.05a6.07,6.07,0,0,1,5.86,6v36.19a6.07,6.07,0,0,1-5.86,5.93h-3.71a6.1,6.1,0,0,1-6.06-5.93V330a6,6,0,0,1,6.06-6Zm-1.62,43.86a2.57,2.57,0,0,0,2.56-2.63V330.92a2.58,2.58,0,0,0-2.56-2.63h-.74a2.67,2.67,0,0,0-2.56,2.63v34.36a2.66,2.66,0,0,0,2.56,2.63Z"/><path class="cls-8" d="M354.35,336.38v-5.46a2.56,2.56,0,1,0-5.12,0v4.51c0,2.77,2.09,6.34,2.09,6.34l5.8,10.91a15.2,15.2,0,0,1,2.15,7.48v6a6,6,0,0,1-6.06,6h-3a6.14,6.14,0,0,1-5.87-6v-4.85a2.77,2.77,0,0,1,1.35-2.63c.41-.13,2.36-1,3.57-1.55v8.22a2.56,2.56,0,1,0,5.12-.07v-5.39c0-2.76-2.09-6.4-2.09-6.4l-5.79-10.85a15.12,15.12,0,0,1-2.16-7.47v-4.86a6.26,6.26,0,0,1,6.07-6.26h3a6.27,6.27,0,0,1,5.86,6.26v1.82a2.77,2.77,0,0,1-1.35,2.63C357.52,335,355.63,335.84,354.35,336.38Z"/><path class="cls-9" d="M380.28,240v3.3H200.4a2.66,2.66,0,0,0-5.22,0H15.31V240H7.71v7.6h7.6v-3.3H195.18a2.66,2.66,0,0,0,5.22,0H380.28v3.3h7.6V240Zm-366,6.6H8.71V241h5.6Zm372.57,0h-5.6V241h5.6Z"/><path class="cls-10" d="M168.94,84.09l17.45,17.45a15.77,15.77,0,0,0,22.29,0L237.27,73l28.6-28.6a15.76,15.76,0,0,0,0-22.28L248.41,4.62a15.74,15.74,0,0,0-22.28,0L208.68,22.07a15.77,15.77,0,0,1-22.29,0L168.94,4.62a15.74,15.74,0,0,0-22.28,0l-28.6,28.59L78.33,73,38.59,112.68l-34,33.56a15.74,15.74,0,0,0,0,22.28L22.07,186a15.74,15.74,0,0,0,22.28,0l34-33.55,39.73-39.74,28.6-28.59A15.74,15.74,0,0,1,168.94,84.09Z"/><polygon class="cls-11" points="376.35 132.55 336.61 92.81 296.88 53.08 257.14 92.81 196.93 153.02 157.19 113.29 117.46 153.02 157.19 192.76 196.93 232.5 236.67 192.76 296.88 132.55 336.61 172.29 355.85 191.52 395.59 151.79 376.35 132.55"/></g></g></svg>