<?xml version="1.0" encoding="UTF-8"?>
<svg id="Layer_2" data-name="Layer 2" xmlns="http://www.w3.org/2000/svg" viewBox="0 0 67.13 67.13">
  <defs>
    <style>
      .cls-1 {
        fill: #4e9445;
      }

      .cls-2 {
        fill: #79b766;
      }

      .cls-3 {
        fill: #c1bca2;
      }

      .cls-4 {
        fill: #62ac52;
      }

      .cls-5 {
        fill: #412e1e;
      }

      .cls-6 {
        fill: #8e714d;
      }

      .cls-7 {
        fill: #80bc6e;
      }

      .cls-8 {
        fill: #81c564;
      }

      .cls-9 {
        fill: #6fb25c;
      }

      .cls-10 {
        fill: #6ab057;
      }

      .cls-11 {
        fill: #51a548;
      }

      .cls-12 {
        fill: none;
      }

      .cls-13 {
        fill: #88c076;
      }

      .cls-14 {
        fill: #73b460;
      }

      .cls-15 {
        fill: #b0ad8e;
      }

      .cls-16 {
        fill: #549b4a;
      }

      .cls-17 {
        fill: #5aa94d;
      }
    </style>
  </defs>
  <g id="Layer_3" data-name="Layer 3">
    <g>
      <rect class="cls-12" width="67.13" height="67.13"/>
      <g>
        <path class="cls-8" d="m41.65.4c1.12.14,2.23.3,3.35.41,2.32.24,4.56.84,6.79,1.47,1.49.42,2.94,1.01,4.37,1.62,1.61.69,3.15,1.54,4.46,2.73.62.57.98,1.33,1.3,2.09.59,1.37.94,2.82,1.22,4.28.27,1.44.46,2.89.69,4.34,0,.06,0,.11.01.17.05,1.92.1,3.83.14,5.75,0,.3-.03.61-.05.91,0,.14,0,.27,0,.41-.02.11-.07.21-.07.32-.02.87-.04,1.74-.06,2.62-.02.16-.05.32-.07.48-.02.1-.06.19-.07.29-.17,1.19-.32,2.39-.52,3.58-.19,1.13-.44,2.25-.67,3.38-.05.13-.11.27-.16.4-.06.27-.11.54-.17.81-.03.07-.07.14-.1.21-.53,1.58-.97,3.2-1.68,4.72l-.17.4c-.23.54-.47,1.08-.7,1.61-.09.19-.19.38-.28.56-.47.79-.95,1.59-1.42,2.38-.07.11-.14.21-.21.32-.11.17-.22.33-.34.5-.16.23-.32.47-.48.7,0,0,0,0,0,0-.12.18-.24.37-.36.55-.36.5-.73,1-1.09,1.5-.05.06-.09.12-.14.17-.36.49-.72.98-1.08,1.47-.25.31-.5.63-.75.94-.2.21-.4.42-.61.63-.23.25-.46.5-.68.75-.03.03-.06.06-.09.09-.9.91-1.8,1.82-2.7,2.73-.16.16-.32.31-.49.46-.34.31-.69.63-1.03.94-.34.28-.68.55-1.02.83-.05.04-.09.08-.14.13-.13.1-.27.2-.4.3-.11.09-.23.17-.34.26-.26.2-.52.41-.78.61-.04.02-.07.05-.11.07-.21.16-.41.32-.62.48-.11.07-.22.15-.34.22-.18.15-.37.31-.55.46-.14.09-.28.17-.41.26-.21.14-.41.28-.62.41-.04.03-.09.05-.13.08-.07.05-.14.09-.2.14-.05.04-.09.09-.14.13-1.03.61-2.07,1.23-3.1,1.84-.51.3-1.03.6-1.54.91-.05.02-.09.04-.14.06l-2.12,1.03c-.38.16-.79.28-1.14.5-.4.25-.72.06-1.04-.08-.72-.33-1.43-.68-2.13-1.04-.81-.42-1.63-.84-2.42-1.3-1.01-.59-2.01-1.19-2.99-1.83-.86-.56-1.68-1.17-2.51-1.76-.51-.36-1.02-.72-1.5-1.11-.64-.52-1.26-1.05-1.87-1.6-.59-.52-1.19-1.04-1.75-1.6-1.1-1.08-2.21-2.15-3.25-3.29-.84-.93-1.6-1.93-2.35-2.93-.88-1.18-1.74-2.38-2.55-3.6-.57-.86-1.08-1.77-1.54-2.69-.56-1.12-1.11-2.25-1.56-3.41-.53-1.35-.99-2.72-1.42-4.11-.33-1.07-.57-2.16-.81-3.25-.21-.94-.4-1.89-.56-2.84-.08-.51-.08-1.03-.14-1.54-.05-.48-.13-.95-.19-1.42-.02-.19-.02-.38-.03-.57-.02-.13-.06-.26-.06-.39-.03-.79-.07-1.58-.07-2.37,0-1.76.04-3.51.07-5.27.01-.61.02-1.22.07-1.82.04-.55.13-1.1.2-1.66.05-.41.08-.82.16-1.23.13-.65.3-1.29.45-1.94.02-.11.05-.23.07-.34.19-.65.37-1.3.56-1.94.08-.29.18-.57.27-.85.18-.38.36-.75.53-1.13.32-.72.83-1.3,1.44-1.8.23-.16.46-.32.69-.49.16-.09.33-.17.49-.27,1.62-1.01,3.35-1.77,5.14-2.4,1.11-.39,2.25-.71,3.38-1.06.27-.06.54-.12.82-.18.03-.02.05-.03.08-.05,0,0,0,0,0,0,.11-.03.22-.06.33-.09.14-.02.27-.04.41-.06l.35-.11c.07-.01.13-.02.2-.04,1.02-.17,2.04-.37,3.07-.52,1.55-.21,3.1-.38,4.65-.57.09,0,.18,0,.27-.01.34-.02.68-.04,1.02-.06.05,0,.09,0,.14,0,.34-.02.68-.04,1.02-.06.07,0,.14,0,.2,0,.41-.02.82-.04,1.23-.07.16,0,.32,0,.48-.01,1.19-.02,2.37-.04,3.56-.05.59,0,1.18.03,1.77.05.41.02.82.05,1.23.07.02,0,.05,0,.07,0,.04,0,.09,0,.13,0,.05,0,.09,0,.14,0,.09,0,.18,0,.27,0,.06.02.12.07.19.07.67.02,1.33.04,2,.06.46.05.91.09,1.37.14ZM8.15,27.02s-.04,0-.06,0c.14,1.01.26,2.02.42,3.03.15.89.34,1.78.53,2.67.16.77.31,1.54.53,2.28.26.9.62,1.78.9,2.68.52,1.68,1.28,3.26,2.14,4.78,1.65,2.92,3.68,5.57,5.92,8.07,1.7,1.89,3.55,3.63,5.57,5.17,1.52,1.17,3.07,2.31,4.68,3.35,1.38.89,2.87,1.61,4.3,2.44.34.2.61.19.94.02,1.8-.91,3.54-1.91,5.21-3.03,2.24-1.51,4.4-3.11,6.34-4.99,1.08-1.04,2.14-2.1,3.17-3.18,1.61-1.69,3.02-3.55,4.31-5.49.79-1.18,1.45-2.44,2.12-3.69.43-.81.8-1.66,1.14-2.51.31-.79.56-1.61.82-2.42.16-.49.34-.99.47-1.49.13-.5.21-1.01.32-1.52.19-.93.44-1.85.58-2.78.21-1.4.36-2.81.49-4.22.12-1.23.23-2.47.24-3.71,0-1.36-.1-2.72-.19-4.08-.06-.85-.14-1.7-.26-2.54-.12-.82-.29-1.63-.48-2.43-.22-.93-.47-1.85-.75-2.75-.1-.31-.31-.63-.56-.82-.56-.42-1.17-.79-1.79-1.12-1.35-.71-2.76-1.27-4.23-1.67-1.19-.32-2.37-.65-3.57-.93-1.99-.47-4-.82-6.04-.95-1.85-.12-3.69-.25-5.54-.32-1.49-.05-2.98-.02-4.47,0-1.01.01-2.02.04-3.03.1-1.03.06-2.06.14-3.08.25-1.02.12-2.04.27-3.06.44-.85.14-1.69.33-2.54.5-.59.12-1.19.22-1.78.38-.71.19-1.41.42-2.11.66-.67.22-1.35.42-1.99.71-1.07.49-2.11,1.05-3.16,1.59-.48.25-.86.6-1.04,1.12-.11.33-.25.66-.33,1-.28,1.17-.54,2.34-.79,3.51-.12.58-.24,1.16-.3,1.74-.11,1.2-.2,2.4-.25,3.6-.04,1.09-.04,2.19,0,3.28.04,1.1.16,2.2.25,3.29Z"/>
        <path class="cls-5" d="m8.15,27.02c-.09-1.1-.21-2.19-.25-3.29-.04-1.09-.04-2.18,0-3.28.04-1.2.14-2.4.25-3.6.05-.58.17-1.17.3-1.74.25-1.17.52-2.34.79-3.51.08-.34.21-.67.33-1,.18-.53.56-.88,1.04-1.12,1.05-.54,2.09-1.09,3.16-1.59.64-.29,1.32-.49,1.99-.71.7-.23,1.4-.46,2.11-.66.58-.16,1.18-.26,1.78-.38.84-.17,1.69-.36,2.54-.5,1.02-.17,2.04-.33,3.06-.44,1.02-.12,2.05-.19,3.08-.25,1.01-.06,2.02-.09,3.03-.1,1.49-.01,2.98-.04,4.47,0,1.85.06,3.69.2,5.54.32,2.04.13,4.05.48,6.04.95,1.2.28,2.38.61,3.57.93,1.47.4,2.88.96,4.23,1.67.62.33,1.23.7,1.79,1.12.25.19.47.52.56.82.29.91.53,1.83.75,2.75.19.8.36,1.62.48,2.43.13.84.21,1.69.26,2.54.09,1.36.2,2.72.19,4.08,0,1.24-.12,2.47-.24,3.71-.13,1.41-.29,2.82-.49,4.22-.14.94-.38,1.85-.58,2.78-.11.51-.19,1.02-.32,1.52-.13.5-.31,1-.47,1.49-.27.81-.51,1.63-.82,2.42-.34.85-.71,1.7-1.14,2.51-.67,1.25-1.33,2.51-2.12,3.69-1.29,1.94-2.7,3.8-4.31,5.49-1.04,1.08-2.1,2.14-3.17,3.18-1.94,1.88-4.1,3.49-6.34,4.99-1.67,1.12-3.42,2.12-5.21,3.03-.34.17-.6.18-.94-.02-1.43-.83-2.92-1.55-4.3-2.44-1.61-1.04-3.16-2.18-4.68-3.35-2.02-1.55-3.87-3.28-5.57-5.17-2.24-2.5-4.26-5.15-5.92-8.07-.86-1.52-1.62-3.1-2.14-4.78-.28-.9-.63-1.78-.9-2.68-.22-.75-.37-1.52-.53-2.28-.19-.89-.38-1.77-.53-2.67-.17-1-.28-2.02-.42-3.03.02,0,.04,0,.06,0Zm25.23,29.79s0,.05,0,.08c.42.17.83.34,1.33.54-.04-.79-.07-1.49-.11-2.18,0-.41.01-.82.02-1.23.02-.02.03-.05.05-.07,0-.07,0-.14,0-.21-.02-.98.1-1.92.74-2.72,0-.01,0-.04-.01-.06.53-.42,1.09-.81,1.59-1.27,1.39-1.3,2.68-2.69,3.69-4.31.67-1.07,1.3-2.16,1.84-3.3.47-.99.79-2.05,1.14-3.09.21-.62.41-1.26.5-1.9.17-1.13.25-2.27.36-3.41.14-1.49.03-2.97-.15-4.45,0-.07,0-.14,0-.21-.02-.03-.04-.06-.05-.09-.03-.15-.05-.31-.08-.46,0-.05,0-.09,0-.14-.02-.25-.05-.5-.07-.75-.02-.03-.03-.05-.05-.08,0-.05,0-.09,0-.14-.33-1.14-.65-2.29-1-3.42-.36-1.19-.86-2.32-1.43-3.42-.37-.71-.74-1.43-1.16-2.11-.58-.94-1.15-1.9-1.83-2.76-.92-1.16-1.94-2.24-2.91-3.36-.43-.5-.85-1-1.21-1.55-.34-.53-.6-1.12-.89-1.68-.06-.19-.12-.38-.18-.57-.24,1.02-.77,1.8-1.55,2.43-.3.24-.56.53-.84.79-.51.5-1.02,1.01-1.53,1.51-.13.14-.27.27-.38.42-.38.49-.76.99-1.14,1.49-.29.43-.59.86-.88,1.29-.21.34-.42.69-.63,1.03-.36.64-.72,1.29-1.07,1.94-.13.24-.22.49-.33.74-.35.93-.69,1.87-1.04,2.8-.02.03-.05.05-.06.08-.22.78-.47,1.55-.66,2.34-.18.73-.29,1.48-.44,2.22-.01.17-.03.34-.04.51-.1.96-.23,1.91-.29,2.87-.12,2.26.11,4.49.65,6.68.37,1.51.95,2.96,1.64,4.35.89,1.82,1.97,3.53,3.3,5.07.66.76,1.37,1.49,2.05,2.23.8.69,1.6,1.37,2.4,2.06.15.52.3,1.04.44,1.56.23,1.29.31,2.59.3,3.9h-.02Z"/>
        <path class="cls-1" d="m44.38,29.23c.18,1.48.29,2.96.15,4.45-.11,1.14-.2,2.28-.36,3.41-.09.65-.29,1.28-.5,1.9-.35,1.04-.67,2.1-1.14,3.09-.53,1.14-1.17,2.23-1.84,3.3-1.01,1.62-2.3,3.02-3.69,4.31-.5.46-1.06.85-1.59,1.27-.24-.23-.48-.46-.73-.69-.52-.84-.66-1.79-.82-2.73-.04-.55-.09-1.09-.13-1.64,0-.7-.01-1.41.02-2.11.04-.73.12-1.46.18-2.19.02-1.41.05-2.82.07-4.23v-3.28c0-1.5,0-3,0-4.51,0-.36,0-.73,0-1.09.14.02.31.08.43.04.47-.16,1.02.08,1.44-.29.02-.02.06-.01.1-.02.34-.05.7-.03,1-.15.44-.18.97-.05,1.36-.4.03-.02.09,0,.13,0,.38,0,.76,0,1.14-.01.05,0,.13-.02.15-.06.12-.27.36-.19.56-.2.2-.01.4-.02.59-.07.56-.14,1.11-.31,1.68-.46.14-.04.3-.04.44-.02.32.04.45.26.42.59,0,.09.04.19.08.27.04.09.15.16.16.25.05.39-.06.78.33,1.11.14.12.19.22.37.16Z"/>
        <path class="cls-16" d="m44.38,29.23c-.18.06-.23-.04-.37-.16-.38-.33-.28-.73-.33-1.11-.01-.09-.11-.16-.16-.25-.04-.08-.09-.18-.08-.27.03-.33-.1-.55-.42-.59-.14-.02-.3-.02-.44.02-.56.14-1.11.31-1.68.46-.19.05-.39.05-.59.07-.21.01-.44-.07-.56.2-.02.04-.1.06-.15.06-.38,0-.76.01-1.14.01-.05,0-.11-.01-.13,0-.39.34-.92.22-1.36.4-.31.12-.67.11-1,.15-.03,0-.08,0-.1.02-.42.37-.97.13-1.44.29-.13.04-.29-.02-.43-.04-.02-1.59-.05-3.19-.07-4.78-.02-1.33-.04-2.65-.06-3.98,0-.76,0-1.52,0-2.28,0-.12-.04-.24-.06-.36-.02-1.2-.05-2.4-.07-3.6,0-.68,0-1.36,0-2.04,0-.13-.04-.27-.04-.4,0-.65-.01-1.3-.02-1.95.29.56.55,1.15.89,1.68.36.55.78,1.05,1.21,1.55.96,1.13,1.99,2.2,2.91,3.36.68.86,1.25,1.82,1.83,2.76.42.68.79,1.4,1.16,2.11.57,1.1,1.07,2.23,1.43,3.42.35,1.14.67,2.28,1,3.42.01.04,0,.09,0,.14.02.03.03.05.05.08.02.25.05.5.07.75-.09.03-.18.05-.26.08.01.03.02.06.03.1.08-.01.16-.03.24-.04.03.15.05.31.08.46.02.03.04.06.05.09,0,.07,0,.14,0,.21Z"/>
        <path class="cls-17" d="m22.95,27.59c.14-.74.26-1.49.44-2.22.19-.79.44-1.56.66-2.34,0-.03.04-.06.06-.08.18.15.42.26.54.45.15.23.13.62.32.78.27.22.21.46.24.72,0,.05.03.12.07.15.22.13.18.34.2.54,0,.11.08.21.14.32.03.07.11.12.12.19.1.42.19.85.29,1.27.03.13.07.27.14.38.21.38.07.88.4,1.23.07.07.1.18.15.28.04.09.11.17.12.26.09.46.38.88.32,1.37,0,.06.09.13.12.2.13.31.29.61.37.93.12.48-.02,1.06.53,1.38-.05.38.14.68.3,1,.08.17.14.36.2.54.03.08.05.17.07.25.04.2.08.39.13.59.05.2.09.4.15.59.11.39.22.78.33,1.16.01.05.08.08.11.12.04.06.11.15.09.2-.12.42.24.67.34,1.01.12.39.35.75.47,1.14.15.49.24,1,.35,1.5.01.06.05.12.07.19.14.37.27.73.41,1.1.01.04,0,.09,0,.14.02.07.06.14.09.21.06.13.12.27.18.4.05.11.09.22.13.33.05.13.11.26.14.4.03.11-.01.27.05.33.39.39.11.97.47,1.41.24.29.18.8.33,1.18.14.36.37.69.58,1.03.03.05.14.05.21.07,0,.14,0,.28,0,.41l-.05.07c-.12.63-.23,1.26-.38,1.89-.06.24-.2.47-.3.7-.8-.69-1.6-1.37-2.4-2.06.04-.07.06-.14.11-.2.33-.44.32-.98,0-1.43-.14-.19-.32-.44-.29-.64.05-.32-.03-.52-.29-.65.06-.27.05-.26-.17-.44-.06-.05-.08-.15-.11-.23-.05-.12-.08-.25-.13-.38-.14-.41-.37-.82-.4-1.24-.04-.6-.13-1.16-.51-1.65-.03-.04-.07-.12-.05-.16.12-.28-.14-.42-.19-.61-.08-.32-.11-.63-.35-.89-.07-.07-.05-.21-.07-.32-.07-.27-.19-.53-.2-.8-.01-.46.01-.91-.44-1.21-.04-.03-.09-.1-.08-.14.09-.43-.41-.73-.26-1.17.01-.04-.06-.16-.12-.18-.26-.1-.21-.31-.2-.51,0-.1,0-.25-.06-.29-.38-.29-.49-.71-.49-1.14,0-.58-.16-1.09-.45-1.59-.13-.23-.06-.57-.37-.72-.01,0,0-.04,0-.07-.05-.16-.11-.32-.14-.48-.04-.21-.05-.43-.08-.65-.02-.11-.04-.27-.11-.31-.24-.12-.23-.3-.19-.52.02-.11.05-.24.01-.33-.28-.62-.33-1.33-.79-1.88-.16-.2-.29-.44-.46-.62-.11-.12-.28-.17-.42-.26Z"/>
        <path class="cls-4" d="m33.38,48.28c-.07-.02-.18-.02-.21-.07-.21-.34-.44-.66-.58-1.03-.15-.38-.09-.89-.33-1.18-.36-.44-.07-1.02-.47-1.41-.06-.06-.02-.22-.05-.33-.04-.14-.09-.27-.14-.4-.04-.11-.08-.22-.13-.33-.06-.13-.12-.27-.18-.4-.03-.07-.07-.14-.09-.21-.01-.04,0-.09,0-.14-.13-.37-.27-.73-.41-1.1-.02-.06-.06-.12-.07-.19-.12-.5-.2-1.01-.35-1.5-.12-.39-.35-.75-.47-1.14-.1-.34-.47-.59-.34-1.01.02-.05-.05-.14-.09-.2-.03-.05-.1-.08-.11-.12-.12-.39-.23-.77-.33-1.16-.05-.2-.1-.39-.15-.59-.05-.2-.08-.39-.13-.59-.02-.09-.04-.17-.07-.25-.06-.18-.12-.37-.2-.54-.16-.32-.35-.63-.3-1-.55-.32-.4-.9-.53-1.38-.08-.32-.24-.62-.37-.93-.03-.07-.13-.14-.12-.2.06-.5-.23-.91-.32-1.37-.02-.09-.08-.17-.12-.26-.05-.09-.08-.21-.15-.28-.33-.35-.19-.84-.4-1.23-.06-.12-.11-.25-.14-.38-.1-.42-.18-.85-.29-1.27-.02-.07-.09-.12-.12-.19-.05-.1-.13-.21-.14-.32-.02-.2.02-.41-.2-.54-.04-.02-.07-.09-.07-.15-.03-.25.03-.49-.24-.72-.19-.15-.17-.54-.32-.78-.12-.19-.36-.3-.54-.45.35-.93.69-1.87,1.04-2.8.15-.03.31-.03.46-.09.28-.11.37-.04.43.25.08.36.22.7.34,1.05.13.39.26.79.41,1.17.04.1.12.2.2.26.07.05.17.06.27.1-.29.49-.26.61.18.98.04.03.07.09.08.14.12.54.22,1.09.35,1.63.12.46.29.91.42,1.37.06.2.04.49.17.59.38.32.24.82.49,1.17.06.08.04.22.06.33.08.41.16.83.26,1.24.01.05.12.08.19.11.08.03.16.05.32.1-.37.21-.31.41-.09.6.05.04.09.12.08.18-.04.28.07.47.36.56-.15.35-.12.63.26.77.04.02.09.08.1.13.1.42.19.85.28,1.27.04.21.08.42.12.63.03,0,.07,0,.1,0-.03.06-.1.12-.09.17.07.32.07.76.28.92.23.18.32.28.25.53,0,.03.02.08.04.09.28.15.31.38.23.67-.02.08,0,.19.05.26.18.24.19.54.28.8.16.49.1,1.04.45,1.48.15.19.21.47.24.72.03.39.41.64.37,1.08-.01.16.3.35.47.52.11-.11.21-.21.32-.32.01-.01.04-.01.06-.02-.06.73-.15,1.46-.18,2.19-.03.7-.02,1.41-.02,2.11-.07.11-.18.21-.19.32-.04.44-.05.88-.07,1.32-.03.25-.06.5-.09.75Z"/>
        <path class="cls-11" d="m22.95,27.59c.14.08.32.14.42.26.18.19.3.42.46.62.45.55.51,1.26.79,1.88.04.09.01.22-.01.33-.05.22-.05.39.19.52.07.04.09.2.11.31.04.21.04.43.08.65.03.16.09.32.14.48,0,.02,0,.06,0,.07.31.15.24.5.37.72.29.5.45,1.01.45,1.59,0,.43.11.85.49,1.14.06.05.06.19.06.29-.02.21-.07.41.2.51.06.02.14.14.12.18-.15.45.35.74.26,1.17,0,.04.04.12.08.14.45.3.42.75.44,1.21,0,.27.13.53.2.8.03.11,0,.25.07.32.25.25.27.57.35.89.05.2.32.34.19.61-.02.04.02.12.05.16.38.49.47,1.04.51,1.65.03.42.26.82.4,1.24.04.13.08.25.13.38.03.08.05.18.11.23.22.17.22.17.17.44.26.13.34.32.29.65-.03.2.16.45.29.64.32.45.33.99,0,1.43-.05.06-.07.13-.11.2-.68-.74-1.39-1.47-2.05-2.23-1.33-1.53-2.41-3.24-3.3-5.07-.68-1.4-1.27-2.84-1.64-4.35-.54-2.19-.77-4.42-.65-6.68.05-.96.19-1.92.29-2.87.02-.17.03-.34.04-.51Z"/>
        <path class="cls-10" d="m33.94,41.59s-.05,0-.06.02c-.11.1-.21.21-.32.32-.17-.18-.49-.36-.47-.52.04-.44-.34-.69-.37-1.08-.02-.25-.09-.53-.24-.72-.35-.44-.29-.99-.45-1.48-.09-.27-.09-.56-.28-.8-.05-.06-.07-.18-.05-.26.08-.28.05-.51-.23-.67-.02-.01-.05-.06-.04-.09.07-.26-.02-.36-.25-.53-.21-.16-.2-.6-.28-.92-.01-.05.06-.11.09-.17-.03,0-.07,0-.1,0-.04-.21-.07-.42-.12-.63-.09-.42-.18-.85-.28-1.27-.01-.05-.06-.11-.1-.13-.38-.14-.41-.42-.26-.77-.29-.08-.4-.27-.36-.56,0-.06-.04-.14-.08-.18-.22-.2-.28-.39.09-.6-.16-.05-.25-.07-.32-.1-.07-.03-.18-.06-.19-.11-.1-.41-.18-.83-.26-1.24-.02-.11,0-.25-.06-.33-.25-.35-.11-.85-.49-1.17-.13-.11-.11-.39-.17-.59-.14-.46-.31-.91-.42-1.37-.14-.54-.23-1.09-.35-1.63-.01-.05-.04-.11-.08-.14-.44-.37-.47-.49-.18-.98-.1-.03-.2-.04-.27-.1-.08-.07-.17-.16-.2-.26-.14-.39-.27-.78-.41-1.17-.12-.35-.26-.69-.34-1.05-.07-.29-.15-.36-.43-.25-.14.05-.3.06-.46.09.11-.25.2-.5.33-.74.35-.65.71-1.29,1.07-1.94.22.05.44.11.65.16.17.04.24.12.27.32.09.7.23,1.39.35,2.08.04.21.07.42.1.64.4-.13.39.17.42.41.02.25,0,.5.17.74.17.22.27.51.34.78.12.47,0,.98.3,1.43.13.19.21.43.27.66.1.34.45.61.31,1.03,0,.02.05.05.06.08.06.17.15.34.18.52.02.18.05.29.25.34.1.02.19.19.23.3.05.16.08.34.06.5-.07.61.44,1.11.3,1.73-.01.05.07.13.11.2.05.08.12.14.14.22.08.34.44.6.31,1-.01.04.08.1.12.16.04.06.1.13.12.2.13.52.34,1.01.35,1.55,0,.12.08.23.13.34.11.24.32.49.32.73,0,.38.24.62.34.94.07.24.22.48.22.72,0,.33.13.59.28.85.22.38.42.77.63,1.15.02.04.08.06.13.09-.02,1.41-.05,2.82-.07,4.23Z"/>
        <path class="cls-2" d="m33.93,23.69c.02,1.59.05,3.19.07,4.78,0,.36,0,.73,0,1.09-.09.1-.18.2-.28.32-.03-.05-.07-.09-.09-.13-.17-.41-.32-.83-.53-1.21-.24-.45-.56-.85-.55-1.39,0,0,0-.02-.02-.03-.26-.16-.23-.41-.24-.67,0-.07-.05-.14-.08-.22-.06-.18-.14-.36-.18-.55-.04-.16.02-.4-.07-.49-.25-.24-.2-.51-.21-.79,0-.11,0-.24-.06-.32-.23-.39-.52-.75-.49-1.24,0-.04-.03-.09-.05-.12-.33-.45-.52-.95-.5-1.52,0-.16-.07-.32-.12-.47-.04-.14-.1-.28-.15-.43-.03-.1,0-.21-.05-.29-.23-.4-.54-.76-.51-1.27,0-.04-.02-.1-.05-.12-.2-.16-.22-.37-.22-.61,0-.1-.09-.2-.13-.3-.15-.38-.48-.7-.42-1.16.02-.13-.04-.28-.08-.42-.05-.17-.15-.34-.18-.52-.05-.28-.14-.47-.48-.42-.07.01-.15-.03-.23-.05.38-.5.75-1,1.14-1.49.12-.15.25-.28.38-.42.1.28.25.48.57.56.24.06.44.21.34.55-.04.14.01.31.05.46.03.15.13.3.13.45,0,.5.1.95.44,1.33.06.07.06.19.09.29.03.08.06.17.09.25.04.11.1.21.13.32.1.4.22.81.32,1.21.13.51.49.96.45,1.53,0,.14.04.35.14.41.22.14.21.29.16.49-.02.09-.02.26.03.27.25.11.41.23.29.54-.01.03.09.09.12.15.04.08.07.17.1.27.04.12.06.25.1.37.03.09.11.17.13.26.03.19-.04.44.06.56.11.12.37.11.56.16.02,0,.04,0,.07.01Z"/>
        <path class="cls-9" d="m34.01,37.36s-.1-.05-.13-.09c-.21-.38-.41-.77-.63-1.15-.16-.27-.28-.52-.28-.85,0-.24-.15-.48-.22-.72-.1-.32-.34-.56-.34-.94,0-.24-.21-.48-.32-.73-.05-.11-.13-.23-.13-.34-.01-.54-.22-1.04-.35-1.55-.02-.07-.08-.13-.12-.2-.04-.06-.13-.12-.12-.16.13-.41-.23-.66-.31-1-.02-.08-.09-.15-.14-.22-.04-.07-.13-.14-.11-.2.14-.62-.37-1.12-.3-1.73.02-.16,0-.34-.06-.5-.04-.12-.13-.28-.23-.3-.21-.05-.23-.16-.25-.34-.02-.18-.11-.35-.18-.52-.01-.03-.06-.06-.06-.08.13-.41-.22-.68-.31-1.03-.06-.23-.14-.47-.27-.66-.31-.44-.18-.96-.3-1.43-.07-.27-.17-.56-.34-.78-.18-.24-.15-.48-.17-.74-.02-.24-.02-.54-.42-.41-.04-.22-.07-.43-.1-.64-.12-.69-.26-1.38-.35-2.08-.03-.2-.1-.28-.27-.32-.22-.05-.44-.11-.65-.16.21-.34.42-.69.63-1.03,0,.01,0,.03.02.03.49.25.89.57,1,1.15,0,.04.07.09.12.11.18.08.19.2.1.36-.12.2-.04.34.14.45.07.04.19.15.18.17-.13.28.1.41.21.59.05.08.06.19.07.29.05.4.03.83.16,1.2.13.39.36.76.56,1.14.12.21.15.54.22.81.11.41.14.83.47,1.14.03.03.02.08.03.13.1.55.18,1.11.29,1.66.02.1.09.22.17.28.38.29.25.79.49,1.14.02.02,0,.07,0,.1.01.06.02.13.05.19.17.34.35.68.52,1.02.02.04.04.09.03.13-.09.28-.03.53.06.82.2.61.32,1.24.49,1.86.04.12.15.26.26.32.19.09.2.23.23.41.05.31.14.63.26.92.14.33.32.64.5.96.05.09.12.17.19.25v3.28Z"/>
        <path class="cls-14" d="m34,34.08c-.06-.08-.14-.16-.19-.25-.17-.32-.36-.63-.5-.96-.12-.29-.21-.61-.26-.92-.03-.18-.04-.31-.23-.41-.11-.06-.23-.2-.26-.32-.17-.62-.29-1.25-.49-1.86-.09-.28-.15-.53-.06-.82.01-.04-.01-.09-.03-.13-.17-.34-.35-.68-.52-1.02-.03-.06-.04-.13-.05-.19,0-.03.01-.08,0-.1-.24-.34-.11-.85-.49-1.14-.08-.06-.15-.18-.17-.28-.11-.55-.19-1.1-.29-1.66,0-.04,0-.1-.03-.13-.33-.31-.37-.73-.47-1.14-.07-.27-.11-.59-.22-.81-.2-.37-.43-.74-.56-1.14-.12-.38-.11-.8-.16-1.2-.01-.1-.02-.21-.07-.29-.12-.18-.34-.31-.21-.59.01-.03-.11-.13-.18-.17-.19-.11-.26-.25-.14-.45.09-.16.08-.28-.1-.36-.05-.02-.11-.07-.12-.11-.11-.58-.52-.9-1-1.15,0,0-.01-.02-.02-.03.29-.43.59-.86.88-1.29.08.02.16.06.23.05.34-.06.42.14.48.42.03.18.13.34.18.52.04.14.1.28.08.42-.06.47.27.78.42,1.16.04.1.13.2.13.3,0,.24.02.45.22.61.03.02.05.08.05.12-.03.5.28.87.51,1.27.05.08.02.2.05.29.04.15.1.28.15.43.05.16.12.32.12.47-.02.57.17,1.07.5,1.52.03.04.05.08.05.12-.03.49.26.85.49,1.24.05.09.06.22.06.32.01.28-.04.55.21.79.09.09.03.32.07.49.04.19.12.37.18.55.03.07.08.14.08.22,0,.25-.02.51.24.67,0,0,.02.02.02.03-.01.54.31.95.55,1.39.21.39.35.81.53,1.21.02.05.06.09.09.13.11-.12.2-.22.28-.32,0,1.5,0,3,0,4.51Z"/>
        <path class="cls-7" d="m33.93,23.69s-.05,0-.07-.01c-.19-.05-.45-.04-.56-.16-.1-.11-.03-.37-.06-.56-.01-.09-.1-.17-.13-.26-.04-.12-.07-.25-.1-.37-.03-.09-.06-.18-.1-.27-.03-.06-.13-.12-.12-.15.12-.31-.05-.43-.29-.54-.04-.02-.05-.19-.03-.27.04-.2.06-.36-.16-.49-.1-.06-.15-.27-.14-.41.04-.58-.32-1.02-.45-1.53-.1-.4-.22-.8-.32-1.21-.03-.11-.08-.21-.13-.32-.03-.08-.06-.17-.09-.25-.03-.1-.03-.22-.09-.29-.34-.38-.44-.84-.44-1.33,0-.15-.1-.3-.13-.45-.03-.15-.09-.33-.05-.46.1-.34-.1-.49-.34-.55-.32-.08-.47-.28-.57-.56.51-.5,1.02-1.01,1.53-1.51.61.12.9.46.8,1.11-.02.12.09.36.16.37.41.07.38.35.37.64-.01.33.02.62.34.83.12.07.16.29.2.44.14.57.07,1.16.32,1.73.14.31.27.3.5.22.02.12.06.24.06.36,0,.76,0,1.52,0,2.28.02,1.33.04,2.65.06,3.98Z"/>
        <path class="cls-13" d="m33.81,17.07c-.23.08-.36.09-.5-.22-.25-.56-.18-1.16-.32-1.73-.04-.16-.09-.37-.2-.44-.32-.21-.35-.5-.34-.83,0-.29.04-.57-.37-.64-.08-.01-.18-.25-.16-.37.1-.65-.19-.99-.8-1.11.28-.27.54-.55.84-.79.78-.63,1.31-1.41,1.55-2.43.06.19.12.38.18.57,0,.65,0,1.3.02,1.95,0,.13.04.27.04.4,0,.68,0,1.36,0,2.04.02,1.2.04,2.4.07,3.6Z"/>
        <path class="cls-15" d="m33.38,48.28c.03-.25.06-.5.09-.75.13,0,.26,0,.39,0,.16.95.3,1.89.82,2.73-.06.14-.13.28-.19.43-.05.11-.08.22-.12.33-.05.13-.13.25-.15.38-.04.24,0,.5-.08.73-.13.4-.5.7-.54,1.16,0,.04-.06.08-.07.08-.15-.16-.29-.31-.43-.45-.15-.52-.3-1.04-.44-1.56.1-.23.24-.46.3-.7.15-.62.25-1.26.38-1.89.02-.02.03-.05.05-.07,0-.14,0-.28,0-.41Z"/>
        <path class="cls-3" d="m33.1,52.92c.14.15.28.29.43.45,0,0,.06-.04.07-.08.04-.46.41-.75.54-1.16.07-.23.04-.49.08-.73.02-.13.1-.25.15-.38.04-.11.08-.22.12-.33.06-.14.13-.28.19-.43.24.23.48.46.73.69,0,.02.02.05.01.06-.64.8-.76,1.74-.74,2.72-.08-.03-.16-.05-.23-.08.05.29-.21.42-.33.62-.25.42-.12.96-.45,1.35,0,0,0,.02,0,.03-.02.38-.05.76-.07,1.14-.07,0-.14,0-.2,0,.02-1.31-.06-2.61-.3-3.9Z"/>
        <path class="cls-1" d="m44.25,28.48c-.08.01-.16.03-.24.04-.01-.03-.02-.06-.03-.1.09-.03.18-.05.26-.08,0,.05,0,.09,0,.14Z"/>
        <path class="cls-1" d="m44.16,27.59s-.03-.05-.05-.08c.02.03.03.05.05.08Z"/>
        <path class="cls-6" d="m33.37,56.81s0,.05,0,.08c0-.03,0-.05,0-.08Z"/>
        <path class="cls-1" d="m44.38,29.02s-.04-.06-.05-.09c.02.03.04.06.05.09Z"/>
        <path class="cls-3" d="m34.62,54.03s.03-.05.05-.07c-.02.02-.03.05-.05.07Z"/>
        <path class="cls-7" d="m33.86,47.53c-.13,0-.26,0-.39,0,.02-.44.03-.88.07-1.32.01-.11.12-.21.19-.32.04.55.09,1.09.13,1.64Z"/>
        <path class="cls-4" d="m33.38,48.7s-.03.05-.05.07c.02-.02.03-.05.05-.07Z"/>
      </g>
    </g>
  </g>
</svg>