<?xml version="1.0" encoding="UTF-8"?>
<svg id="Layer_2" data-name="Layer 2" xmlns="http://www.w3.org/2000/svg" viewBox="0 0 67.14 67.13">
  <defs>
    <style>
      .cls-1 {
        fill: #807871;
      }

      .cls-2 {
        fill: #fbfcfd;
      }

      .cls-3 {
        fill: #256392;
      }

      .cls-4 {
        fill: #bf844a;
      }

      .cls-5 {
        fill: #f2891a;
      }

      .cls-6 {
        fill: #145183;
      }

      .cls-7 {
        fill: #4378a1;
      }

      .cls-8 {
        fill: #1d75b7;
      }

      .cls-9 {
        fill: #e6882c;
      }

      .cls-10 {
        fill: #f68d0d;
      }

      .cls-11 {
        fill: #95c3e8;
      }

      .cls-12 {
        fill: #145486;
      }

      .cls-13 {
        fill: #3174aa;
      }

      .cls-14 {
        fill: #3a78a9;
      }

      .cls-15 {
        fill: #fdfdfe;
      }

      .cls-16 {
        fill: #205f8e;
      }

      .cls-17 {
        fill: #115082;
      }

      .cls-18 {
        fill: none;
      }

      .cls-19 {
        fill: #3675a6;
      }

      .cls-20 {
        fill: #0c4679;
      }

      .cls-21 {
        fill: #23608e;
      }

      .cls-22 {
        fill: #e7882b;
      }

      .cls-23 {
        fill: #1b5988;
      }

      .cls-24 {
        fill: #ec8925;
      }

      .cls-25 {
        fill: #205e8c;
      }

      .cls-26 {
        fill: #fefefe;
      }
    </style>
  </defs>
  <g id="Layer_3" data-name="Layer 3">
    <g>
      <rect class="cls-18" x=".01" width="67.13" height="67.13"/>
      <g>
        <path class="cls-7" d="m31.71,67.07c-1.77-.08-3.52-.29-5.23-.66-.77-.17-1.53-.36-2.28-.6-1.34-.44-2.68-.89-3.98-1.42-1.58-.65-3.09-1.46-4.53-2.38-1.5-.96-2.92-2.01-4.26-3.18-1.28-1.12-2.47-2.32-3.56-3.62-1.52-1.81-2.87-3.74-3.95-5.85-.44-.87-.91-1.73-1.26-2.63-.51-1.29-.96-2.61-1.36-3.94-.32-1.07-.58-2.17-.79-3.26-.16-.84-.21-1.7-.29-2.56-.09-.9-.2-1.8-.21-2.7-.02-.97.05-1.94.11-2.91.04-.67.09-1.35.17-2.01.11-.83.21-1.67.39-2.49.22-.98.48-1.96.77-2.93.73-2.44,1.75-4.75,3.02-6.96,1.02-1.77,2.18-3.44,3.5-4.99,1.45-1.71,3.07-3.27,4.84-4.65,1.64-1.28,3.35-2.45,5.2-3.38,1.37-.69,2.8-1.28,4.24-1.82,1.15-.43,2.35-.76,3.55-1.05,1.11-.27,2.24-.48,3.38-.64.98-.14,1.98-.18,2.98-.23.75-.04,1.51-.03,2.27,0,.61.01,1.22.07,1.83.11.57.04,1.15.05,1.71.14,1.08.18,2.17.37,3.23.62,1.01.24,2.01.53,2.99.86,1.07.36,2.14.74,3.17,1.21,1.09.5,2.16,1.08,3.2,1.69.91.53,1.8,1.09,2.64,1.72,1.17.88,2.32,1.79,3.37,2.83,1.39,1.37,2.76,2.77,3.88,4.37.57.81,1.16,1.6,1.65,2.45.68,1.18,1.32,2.39,1.88,3.63.55,1.22,1.02,2.47,1.43,3.74,1.84,5.67,2.07,11.87.68,17.66-.18.75-.36,1.51-.59,2.25-.22.73-.48,1.46-.76,2.18-.33.85-.65,1.7-1.04,2.51-.58,1.23-1.25,2.41-2,3.54-.36.53-.69,1.08-1.07,1.6-.41.56-.84,1.11-1.3,1.64-.77.89-1.52,1.79-2.35,2.61-.88.86-1.81,1.69-2.79,2.44-1.1.84-2.26,1.63-3.45,2.35-1.12.68-2.3,1.26-3.47,1.83-.75.37-1.53.68-2.31.96-.76.28-1.55.49-2.33.72-.82.23-1.63.5-2.46.65-2.75.49-5.63.72-8.48.6Zm9.38-39.81h0c.05.04.11.08.16.12.02.07.04.14.06.21.19.19.37.41.58.57.23.17.8.15.99,0,.15-.17.33-.32.44-.51.09-.15.09-.35.15-.53.02-.07.09-.13.14-.19.05.05.11.08.15.14.12.18.21.4.36.55.47.48.95.94,1.43,1.41.23.23.45.47.68.7.12.11.24.09.27-.1.05-.05.1-.09.15-.14.13-.14.08-.28-.12-.33-.11-.03-.22-.04-.32-.06h0c-.03-.32-.19-.56-.43-.63-.02-.09-.05-.18-.07-.27-.05-.09-.11-.19-.16-.28h0c-.05-.06-.11-.12-.16-.18-.04-.07-.08-.14-.12-.21-.09-.13-.18-.26-.28-.39-.05-.1-.08-.21-.14-.3-.46-.75-.83-1.54-1.11-2.38-.02-.07-.14-.1-.21-.15-.02,0-.03,0-.04,0-.17-.11-.33-.08-.45.06-.13.15-.23.33-.34.49-.19.68-.38,1.36-.58,2.06-.34-.31-.45-.75-.51-1.15-.09-.67-.12-1.35-.06-2.03.04-.53.25-1.04.37-1.56.1-.45.21-.86-.17-1.3-.35-.4-.61-.91-.82-1.4-.29-.69-.5-1.41-.75-2.11-.02-.02-.03-.03-.05-.05-.05-.08-.11-.16-.16-.23-.09-.16-.16-.33-.26-.48-.29-.42-.59-.82-.87-1.24-.05-.07-.07-.26-.03-.28.1-.06.26-.12.35-.08.52.24,1.06.45,1.53.77.38.26.75.45,1.21.49.36.04.73.02,1.07.12.4.12.79.31,1.16.51.47.26.94.54,1.38.86.37.27.68.62,1.05.89.7.53,1.18,1.25,1.7,1.93.19.25.35.51.53.77.04.07.08.14.12.22.04.04.07.08.11.12.22.55.44,1.1.68,1.64.32.73.65,1.46,1.01,2.18.16.31.39.59.59.88.02.38.35.44.6.53.72.28,1.49.4,2.11.91.32.27.71.46,1.07.7.06.04.09.12.16.21-.26.06-.48.1-.69.16-.52.14-1.04.27-1.54.45-.13.05-.27.29-.26.43.02.23.1.49.25.67.57.71,1.25,1.26,2.09,1.65.48.22.92.53,1.38.8.09.05.18.09.27.14.13.36.53.37.77.59.02.02.12-.03.17-.07.17-.15.17-.35.04-.5-.46-.54-.92-1.09-1.42-1.59-.27-.27-.62-.47-.94-.7-.2-.14-.43-.25-.62-.4-.13-.1-.15-.25.07-.29.47-.08.95-.13,1.42-.24.28-.06.53-.21.79-.32.02-.02.04-.04.05-.06,0,0,0,0,0,0,.03-.1.1-.21.07-.29-.06-.16-.14-.33-.27-.45-.47-.44-.95-.87-1.46-1.27-.39-.31-.83-.56-1.25-.84-.46-.21-.93-.39-1.37-.63-.25-.14-.48-.34-.65-.57-.17-.22-.26-.51-.38-.77-.5-1.11-1.01-2.23-1.51-3.34-.05-.06-.1-.12-.15-.18-.06-.11-.11-.22-.17-.33-.02-.06-.04-.11-.06-.17-.08-.13-.16-.26-.23-.39-.03-.06-.04-.12-.08-.17-.49-.61-.97-1.24-1.49-1.81-.45-.49-.93-.96-1.46-1.35-.62-.46-1.3-.83-1.96-1.23-.11-.06-.24-.09-.36-.13-.53-.25-1.11-.31-1.68-.39-.36-.05-.77-.03-1.05-.34-.05-.06-.09-.14-.15-.18-.64-.39-1.31-.72-2.06-.84-.57-.1-1.07.04-1.45.49-.22.25-.26,1.16-.07,1.47.28.45.56.89.85,1.32.18.26.39.51.59.76.23.67.44,1.35.7,2.02.17.45.41.87.63,1.29.16.31.38.55.27.98-.18.71-.31,1.44-.35,2.16-.05,1,.08,2,.55,2.92.02.02.03.04.05.06Zm-12.28,8.17c-.4,0-.81-.02-1.21,0-.1,0-.2.09-.3.14-.07.11-.19.21-.21.33-.08.46-.1.92-.2,1.38-.27,1.25-.58,2.49-.87,3.74-.03.13-.1.25-.15.37-.03,0-.06,0-.09,0-.09-.22-.19-.43-.26-.65-.11-.38-.18-.77-.3-1.15-.18-.57-.4-1.14-.58-1.71-.17-.55-.32-1.12-.47-1.68-.05-.36-.17-.66-.59-.69-.46-.04-.92-.07-1.38-.08-.1,0-.21.14-.31.22,0,.02,0,.03,0,.05-.01.04-.03.08-.04.11.01.11.01.22.04.33.28.88.56,1.76.84,2.64.25.79.5,1.59.74,2.38.26.84.51,1.68.76,2.52-.02.17-.04.35-.07.52-.1.47-.37.8-.81.97-.42.16-.84.25-1.3.15-.14-.03-.38-.04-.27.25,0,.32,0,.63,0,.95-.05.06-.09.12-.14.18.06.04.12.08.18.1.14.04.29.07.43.11.95.28,1.8.04,2.59-.51.63-.44,1.03-1.08,1.5-1.67.05-.06.05-.16.07-.24.07-.09.15-.17.2-.27.79-1.37,1.33-2.85,1.74-4.38.34-1.26.6-2.55.88-3.82.04-.17.04-.36-.2-.41,0,0,0,0,0,0,0-.16-.04-.25-.22-.21Zm26.52,8.48c.15.09.26.03.27-.18.01-.19,0-.39.01-.58,0-.04.08-.08.12-.12.03.04.08.08.08.13.01.19.01.39.02.58.01.35.05.39.38.39.38,0,.76,0,1.13,0,.16,0,.29-.04.33-.22.06-.07.15-.13.16-.2.02-.3,0-.61,0-.91,0-.16-.08-.24-.24-.22-.15.02-.29.03-.44.05-.23,0-.46,0-.69,0-.13-.02-.26-.04-.39-.06-.1,0-.21,0-.31,0h-1.05s-.02.06-.04.09c.08.04.17.12.25.12.2,0,.23.1.22.26-.02.22-.02.44-.05.66-.02.19.07.23.23.21Zm-45.34-10.28c-.01.13-.02.26-.04.39-.06.43-.13.86-.17,1.29-.07.72-.11,1.45-.16,2.17-.07,1.02-.15,2.04-.22,3.06-.02.29-.03.59-.09.88-.04.23.03.35.24.43-.02.44-.03.89-.06,1.33,0,.04-.04.08-.06.12-.29.2-.31.47-.04.61h0c0,.23.2.22.34.22.33.01.67,0,1,0,.47,0,.64-.16.66-.64.01-.45.01-.91,0-1.36,0-.08-.12-.16-.19-.24.04-.79.07-1.58.11-2.36.18-.05.19-.19.2-.35.04-.69.08-1.38.12-2.07.01-.21.05-.43.07-.64.02,0,.04,0,.06,0,.07.14.13.28.2.42.09.3.18.6.27.9.18.59.36,1.18.55,1.77.27.84.53,1.69.8,2.53.16.5.32,1,.48,1.5.03.41.18.55.59.56.29,0,.58,0,.86,0,.38,0,.47-.08.58-.46.1-.35.2-.69.31-1.03.35-1.1.71-2.2,1.06-3.31.31-.98.61-1.97.91-2.95.05-.04.09-.07.12-.1.07.47.13.92.21,1.38.02.1.1.18.15.28.02.13.04.26.05.4-.05.08-.15.16-.15.24,0,.35.04.7.05,1.05,0,.5,0,.99,0,1.49,0,.19.04.33.26.34.04.82.09,1.64.13,2.46-.08.18.03.22.16.22.47,0,.95,0,1.42,0,.16,0,.22-.08.2-.22,0-.08,0-.15.01-.23.07-.07.2-.14.2-.21.01-.51.02-1.02-.01-1.53-.05-.91-.13-1.81-.2-2.72-.06-.83-.13-1.66-.2-2.49-.05-.6-.13-1.2-.18-1.8-.04-.53-.04-1.06-.07-1.58-.03-.48-.24-.77-.7-.81-.58-.05-1.17-.02-1.75-.02-.07,0-.15.09-.22.14-.17.44-.37.86-.52,1.31-.26.73-.49,1.48-.73,2.22-.35,1.1-.7,2.21-1.05,3.31-.06.2-.15.39-.22.58-.03,0-.05,0-.08.01-.08-.15-.18-.29-.23-.45-.12-.37-.22-.76-.34-1.13-.17-.53-.36-1.05-.53-1.58-.18-.56-.36-1.12-.53-1.69-.1-.32-.2-.63-.3-.95-.1-.31-.25-.62-.3-.94-.11-.66-.39-.79-.98-.84-.51-.05-1.02-.02-1.53,0-.12,0-.24.1-.36.16-.18.29-.27.6-.17.95Zm31.83-16.19c0,.12-.04.25,0,.35.11.26.25.5.4.74.05.08.11.29.26.08.06-.01.11-.03.17-.04.04.05.08.1.12.15.07-.07.17-.14.19-.22.05-.29.16-.57,0-.89-.17-.33-.74-.62-1.09-.47-.11.05-.22.11-.07.24,0,.02.01.04.02.06Zm12,26.46v-1.33h-3.4s-.08-.04-.12-.06c-.01-.06-.03-.12-.04-.17,0-.41,0-.81,0-1.22,0,0,.01-.01.01-.02,0-.02,0-.03-.01-.05,0-.05,0-.1,0-.16,0,0,.01-.01.01-.02,0-.02,0-.03-.01-.05,0-.05,0-.1,0-.16,0,0,.01-.01.01-.02,0-.02,0-.03-.01-.05,0-.05,0-.1,0-.16,0,0,.01-.01.01-.02,0-.02,0-.03-.01-.05,0-.05,0-.1,0-.16,0,0,.01-.01.01-.02,0-.02,0-.03-.01-.05,0-.05,0-.1,0-.16,0,0,.01-.01.01-.02,0-.02,0-.03-.01-.05,0-.05,0-.1,0-.16,0,0,.01-.01.01-.02,0-.02,0-.03-.01-.05,0-.05,0-.1,0-.16,0,0,.01-.01.01-.02,0-.02,0-.03-.01-.05,0-.05,0-.1,0-.16,0,0,.01-.01.01-.02,0-.02,0-.03-.01-.05,0-.05,0-.1,0-.16,0,0,.01-.01.01-.02,0-.02,0-.03-.01-.05,0-.05,0-.1,0-.16,0,0,.01-.01.01-.02,0-.02,0-.03-.01-.05,0-.05,0-.1,0-.16,0,0,.01-.01.01-.02,0-.02,0-.03-.01-.05,0-.05,0-.1,0-.16,0,0,.01-.01.01-.02,0-.02,0-.03-.01-.05,0-.05,0-.1,0-.16,0,0,.01-.01.01-.02,0-.02,0-.03-.01-.05,0-.05,0-.1,0-.16,0,0,.01-.01.01-.02,0-.02,0-.03-.01-.05,0-.05,0-.1,0-.16,0,0,.01-.01.01-.02,0-.02,0-.03-.01-.05,0-.05,0-.1,0-.16,0,0,.01-.01.01-.02,0-.02,0-.03-.01-.05,0-.05,0-.1,0-.16,0,0,.01-.01.01-.02,0-.02,0-.03-.01-.05,0-.05,0-.1,0-.16,0,0,.01-.01.01-.02,0-.02,0-.03-.01-.05,0-.05,0-.1,0-.16,0,0,.01-.01.01-.02,0-.02,0-.03-.01-.05,0-.05,0-.1,0-.16,0,0,.01-.01.01-.02,0-.02,0-.03-.01-.05,0-.05,0-.1,0-.16,0,0,.01-.01.01-.02,0-.02,0-.03-.01-.05,0-.05,0-.1,0-.16,0,0,.01-.01.01-.02,0-.02,0-.03-.01-.05,0-.05,0-.1,0-.16,0,0,.01-.01.01-.02,0-.02,0-.03-.01-.05,0-.05,0-.1,0-.16,0,0,.01-.01.01-.02,0-.02,0-.03-.01-.05,0-.05,0-.1,0-.16,0,0,.01-.01.01-.02,0-.02,0-.03-.01-.05,0-.05,0-.1,0-.16,0,0,.01-.01.01-.02,0-.02,0-.03-.01-.05,0-.05,0-.1,0-.16,0,0,.01-.01.01-.02,0-.02,0-.03-.01-.05,0-.05,0-.1,0-.16,0,0,.01-.01.01-.02,0-.02,0-.03-.01-.05,0-.05,0-.1,0-.16,0,0,.01-.01.01-.02,0-.02,0-.03-.01-.05v-.16s.01-.01.01-.02c0-.02,0-.03-.01-.05,0-.13,0-.25,0-.38,0,0,.01-.01.01-.02,0-.02,0-.03-.01-.05,0-.05,0-.11,0-.16,0-.06,0-.12,0-.18,0-.18,0-.36.02-.54.02-.2-.05-.32-.27-.3-.06-.07-.12-.2-.19-.2-.4-.02-.8-.02-1.2,0-.06,0-.12.1-.18.16-.23.11-.22.32-.22.53,0,1.52,0,3.05,0,4.57,0,1.96,0,3.92,0,5.88,0,.14-.05.31.17.36.09.04.18.11.27.11,1.64,0,3.28,0,4.92,0,.17,0,.24-.06.23-.23Zm-15.47-2.12s.04.07.04.1c.06.5.33.88.66,1.25.44.49,1.06.66,1.61.95.21.11.51.11.74-.08.27.03.54.05.81.08.05.07.09.18.15.19.22.06.44.03.67-.05.23-.08.56-.13.76-.02.74.37,1.45.81,2.17,1.21.09.05.25,0,.37,0,.11-.13.23-.26.33-.4.13-.19.22-.41.36-.59.13-.16.12-.25-.07-.34-.61-.29-1.21-.59-1.85-.91.05-.07.09-.13.15-.18.61-.53.97-1.21,1.22-1.96.14-.45.25-.91.37-1.37.23-.03.28-.19.28-.38,0-.77,0-1.54,0-2.32,0-.18-.05-.33-.26-.37-.06-.19-.15-.38-.18-.57-.15-1.06-.63-1.92-1.45-2.6-.56-.46-1.23-.68-1.94-.74-.43-.03-.87-.04-1.29,0-.46.05-.9.19-1.35.29-.09-.03-.2-.1-.27-.08-.18.06-.33.18-.5.26-.82.41-1.24,1.12-1.49,1.96-.01.03-.03.07-.05.1-.33.46-.41.97-.38,1.52.01.26-.08.52-.12.77-.03.16-.09.32-.09.49-.01.53,0,1.06,0,1.59,0,.11,0,.24-.05.32-.14.19-.04.29.08.42.09.1.15.24.19.38.1.32.17.66.26.98.01.04.09.06.13.09Zm-8.2-6.42c-.05.81.08,1.57.65,2.19.16.17.29.38.48.5.77.47,1.55.92,2.33,1.37.52.3,1.03.62,1.28,1.22.15.36.15.95-.1,1.21-.24.24-.52.45-.88.5-.15.02-.28.09-.18.28-.68.22-1.33.03-1.98-.17-.37-.11-.73-.23-1.09-.35-.11-.19-.19-.08-.25.03-.05.09-.06.19-.11.28-.31.56-.23.95.37,1.15.41.13.8.33,1.19.5.22.1.67.06.83-.09.46.01.92.02,1.38.03.11.05.23.15.34.15.4.02.76-.16,1.11-.32.52-.25.92-.66,1.27-1.11.1-.13.34-.29.12-.52.09-.28.21-.56.25-.85.14-1.01,0-1.96-.89-2.59-.69-.5-1.44-.9-2.17-1.34-.58-.35-1.22-.62-1.59-1.22-.23-.37-.45-.78-.19-1.24.11-.06.23-.11.34-.18.25-.16.48-.39.76-.46.25-.07.44-.15.59-.36.06,0,.11,0,.17,0,.02,0,.03,0,.05,0h.12s.07.09.11.11c.44.16.89.33,1.34.48.13.04.27.02.23-.19.08-.07.19-.12.24-.2.1-.16.15-.36.26-.52.09-.13.07-.19-.05-.26-.49-.32-1.03-.54-1.61-.65-.61-.11-1.23-.16-1.85-.05-.09-.28-.33-.19-.49-.16-.55.09-1.01.4-1.43.73-.66.53-.87,1.29-.93,2.1Z"/>
        <path class="cls-7" d="m66.78,30.27c.07,0,.14,0,.22,0"/>
        <path class="cls-7" d="m66.99,31.67s-.04,0-.06,0c-.06-.22-.14-.44-.16-.66"/>
        <path class="cls-7" d="m31.7,67.13c.1-.05.19-.15.29-.15.23,0,.46.03.68.04.01.02.01.02.02.03,0,0-.02,0-.03,0-.02.02-.04.05-.07.08h-.89Z"/>
        <path class="cls-7" d="m66.93,31.68s.04,0,.06,0v1.12c-.17-.36-.16-.73-.06-1.11Z"/>
        <path class="cls-7" d="m66.99,35.47c-.05.02-.1.04-.15.06,0-.21-.02-.42,0-.63,0-.08.1-.14.16-.21v.78Z"/>
        <path class="cls-7" d="m35.48,67.11v.02s-.03,0-.03,0h-1.06c.36,0,.73-.01,1.09-.02Z"/>
        <path class="cls-26" d="m18.91,38.32c-.02-.13-.04-.26-.05-.4-.03-.3-.07-.6-.09-.9-.04-.59-.07-1.18-.1-1.77-.03,0-.07-.01-.1-.02-.1.3-.2.61-.3.91-.42,1.35-.85,2.71-1.27,4.06-.37,1.19-.74,2.38-1.12,3.57-.03.08-.17.17-.25.18-.36,0-.72-.05-1.07-.04-.23,0-.32-.08-.33-.29-.72-2.29-1.45-4.58-2.17-6.87-.14-.9-.32-1.38-.54-1.44-.04.91-.08,1.81-.12,2.72,0,.08,0,.17-.01.25-.03.41-.05.82-.08,1.23-.04.79-.07,1.58-.11,2.36,0,.67,0,1.34,0,2.02h-1.8s0,0,0,0c.01-.2.02-.41.04-.61.02-.04.05-.08.06-.12.02-.44.04-.89.06-1.33.04-.93.08-1.85.13-2.78.03-.53.07-1.05.1-1.58.08-.86.15-1.72.23-2.58.04-.42.1-.85.16-1.27.04-.3.08-.59.12-.89.72,0,1.45,0,2.17,0,.19,0,.23.11.28.25.23.72.47,1.44.7,2.16.01.03.02.06.03.09h0s.01.02.01.02c0,.06,0,.13.01.19.27.79.55,1.57.81,2.35.31.95.6,1.91.91,2.86.03.09.09.17.13.23.18-.62.34-1.21.53-1.8.24-.74.5-1.48.74-2.22.32-.98.65-1.95.96-2.93.13-.39.22-.79.33-1.19h2.32c.03.18.07.35.08.52.04.43.08.86.12,1.28.06.61.13,1.21.19,1.82.07.79.13,1.57.19,2.36.03.47.03.94.06,1.41.05.72.12,1.44.16,2.17.03.45.01.91.02,1.37,0,.08,0,.15-.01.23-.59,0-1.19,0-1.78,0-.04-.82-.09-1.64-.13-2.46-.06-1.04-.11-2.08-.17-3.12Z"/>
        <path class="cls-9" d="m40.65,32.97c.45-.1.9-.23,1.35-.29.43-.05.86-.04,1.29,0,.72.05,1.39.27,1.94.74.81.68,1.3,1.54,1.45,2.6.03.2.12.38.18.57,0,.01,0,.02.02.02,0,.05,0,.11.01.16,0,.07,0,.14,0,.21-.07.09-.2.18-.2.27-.02.51-.02,1.02,0,1.53,0,.09.13.18.2.27-.01.21-.03.41-.04.62-.12.46-.22.92-.37,1.37-.24.75-.61,1.43-1.22,1.96-.06.05-.1.12-.15.18.64.31,1.24.61,1.85.91.19.09.19.17.07.34-.14.18-.23.4-.36.59-.1.14-.22.27-.33.4-.18-.12-.35-.25-.54-.36-.56-.34-1.14-.66-1.7-1.01-.23-.14-.44-.15-.69-.11-.4.06-.8.11-1.21.16-.27-.03-.54-.05-.81-.08-.11-.03-.23-.08-.34-.1-.85-.15-1.52-.61-2.02-1.3-.27-.38-.46-.81-.68-1.22-.1-.56-.2-1.12-.3-1.68,0-.02,0-.03,0-.05-.03-.3-.06-.6-.09-.9,0-.09,0-.19,0-.28.02-.31.02-.63.07-.94.13-.86.25-1.73.65-2.52.25-.5.48-1.03.97-1.36.34-.23.67-.46,1.01-.69Zm4.34,4.29c-.04-.27-.07-.53-.11-.8-.09-.53-.24-1.05-.54-1.5-.35-.53-.84-.86-1.5-.92-.84-.08-1.63-.02-2.19.82-.24.37-.37.82-.56,1.23-.04.12-.1.25-.11.37-.07.92-.22,1.83-.06,2.75.06.37.09.75.13,1.12.07.25.11.51.2.75.34.84.88,1.46,1.86,1.57.64.07,1.25,0,1.75-.43.88-.76,1.04-1.81,1.11-2.89v-2.07Z"/>
        <path class="cls-2" d="m43.49,24.31s.03,0,.04,0c.02.13.02.26.07.38.29.66.57,1.33.91,1.96.37.67.82,1.3,1.23,1.94.08.13.17.26.25.39-.02.04-.05.09-.07.13-.05-.04-.1-.08-.15-.12-.2-.18-.41-.35-.61-.54-.56-.52-1.08-1.07-1.39-1.78-.08-.17-.17-.33-.25-.49-.04-.07-.05-.16-.08-.24-.04.04-.07.07-.11.11-.03.36-.03.72-.1,1.07-.07.33-.07.71-.44.91-.45.09-.85.01-1.15-.38-.03-.04-.08-.07-.12-.11-.58-.72-.86-1.56-.89-2.47-.02-.66-.05-1.33.15-1.98.13-.43.2-.87.34-1.3.05-.14.03-.2-.04-.31-.25-.36-.54-.71-.72-1.11-.32-.72-.57-1.48-.85-2.22-.06-.17-.15-.33-.22-.5-.07-.13-.14-.26-.22-.38-.26-.36-.56-.7-.79-1.08-.18-.3-.41-.64-.42-.97-.02-.97.67-1.34,1.55-1.18.75.13,1.43.46,2.05.9.2.12.4.35.6.35.77-.01,1.48.24,2.2.44,1.02.52,1.95,1.17,2.83,1.9.89.75,1.62,1.65,2.28,2.6.3.57.61,1.13.89,1.71.54,1.12,1.05,2.24,1.58,3.36.15.32.33.61.69.76.55.23,1.09.5,1.63.75.08.06.16.12.24.18.87.62,1.75,1.21,2.41,2.07.07.09.1.21.15.31-.02.01-.04.04-.07.04-.86.17-1.72.34-2.58.51-.09.02-.18.05-.36.1.34.25.59.48.88.66.78.47,1.51,1.01,2.06,1.76.08.1.2.17.28.27.16.2.31.41.47.62-.02.02-.04.04-.07.06-.23-.15-.45-.3-.68-.45-.3-.22-.58-.48-.91-.65-.75-.39-1.5-.77-2.17-1.3-.41-.32-.68-.73-.9-1.19-.08-.17-.06-.25.12-.31.72-.24,1.43-.5,2.21-.46.25.01.5,0,.74,0,.02-.02.03-.05.05-.07-.08-.09-.15-.19-.24-.25-.17-.13-.37-.22-.54-.35-.88-.66-1.78-1.26-2.87-1.56-.34-.09-.64-.29-.96-.44-.56-1.15-1.13-2.29-1.69-3.44-.28-.56-.55-1.13-.82-1.69-.02-.04-.04-.07-.06-.11-.02-.03-.03-.06-.05-.09-.39-.55-.75-1.13-1.16-1.66-.71-.92-1.62-1.6-2.57-2.26-.99-.68-2.08-1.06-3.29-1.09-.19,0-.39-.13-.58-.23-.53-.29-1.05-.61-1.59-.88-.21-.11-.47-.14-.71-.16-.28-.02-.45.21-.36.47.06.18.14.37.25.52.32.46.65.9.98,1.35.21.48.47.94.63,1.44.31.94.57,1.9,1.32,2.62.09.09.15.25.14.38-.02.24-.06.49-.15.72-.36.87-.43,1.77-.4,2.7.02.68.26,1.29.53,1.89.1.22.27.42.58.47,0-.82.06-1.61.47-2.33.2-.23.41-.45.61-.68Z"/>
        <path class="cls-15" d="m21.76,46.52c0-.32,0-.63,0-.95.11,0,.21-.03.32-.02.88.1,1.68-.12,2.11-.88.16-.28.2-.57.13-.89-.03-.26-.03-.53-.11-.78-.4-1.3-.81-2.59-1.22-3.89-.17-.55-.35-1.1-.53-1.65-.18-.56-.37-1.12-.55-1.67-.02-.04-.03-.07-.05-.11,0-.01.01-.03,0-.05.49,0,.98,0,1.47-.01.43,0,.43,0,.55.42.01.05.05.1.08.14.06.19.12.39.17.58.24.79.47,1.59.71,2.38.2.65.42,1.29.58,1.95.11.43.15.88.23,1.42.08-.16.16-.25.19-.36.11-.41.21-.82.31-1.23.17-.68.36-1.36.51-2.05.17-.76.29-1.53.44-2.29.06-.31.11-.63.17-.94.5,0,1-.01,1.5-.02.07,0,.15.01.22.02h0c-.08.6-.14,1.2-.26,1.79-.14.68-.32,1.35-.52,2.01-.29.97-.58,1.95-.95,2.9-.29.75-.7,1.44-1.06,2.16-.48.66-.96,1.3-1.67,1.76-.9.58-1.81.74-2.8.26Z"/>
        <path class="cls-9" d="m32.99,32.68c.62-.11,1.24-.06,1.85.05.58.11,1.12.32,1.61.65.12.08.14.14.05.26-.11.16-.16.35-.26.52-.05.08-.16.14-.24.2-.52-.3-1.1-.34-1.67-.4h-.12s-.03,0-.05,0c-.06,0-.11,0-.17,0-.84-.04-1.46.33-1.69,1-.26.46-.04.87.19,1.24.37.6,1.02.87,1.59,1.22.73.44,1.48.85,2.17,1.34.88.64,1.03,1.59.89,2.59-.04.29-.16.57-.25.85-.39.7-.93,1.23-1.7,1.49-.37.13-.76.21-1.14.31-.46-.01-.92-.02-1.38-.03,0,0-.01-.02-.02-.03-.07-.09-.13-.23-.23-.27-.4-.17-.82-.28-1.22-.46-.16-.07-.28-.23-.39-.37-.03-.04.04-.22.07-.22.22-.02.46-.04.67.01.46.1.9.3,1.36.35.57.06,1.1-.19,1.63-.4.57-.23.8-.72.93-1.21.16-.61-.13-1.16-.54-1.64-.49-.56-1.19-.79-1.79-1.19-.46-.31-.96-.58-1.43-.88-.43-.28-.75-.65-.95-1.13-.04-.1-.2-.16-.3-.24-.03-.34-.07-.67-.1-1.01.1-.64.36-1.21.81-1.69.5-.52,1.13-.8,1.82-.93Z"/>
        <path class="cls-22" d="m50.26,38.88c0,.05,0,.1,0,.16,0,.02,0,.04,0,.07,0,.05,0,.1,0,.16,0,.02,0,.04,0,.07,0,.05,0,.1,0,.16,0,.02,0,.04,0,.07,0,.05,0,.1,0,.16,0,.02,0,.04,0,.07,0,.05,0,.1,0,.16,0,.02,0,.04,0,.07,0,.05,0,.1,0,.16,0,.02,0,.04,0,.07,0,.05,0,.1,0,.16,0,.02,0,.04,0,.07,0,.05,0,.1,0,.16,0,.02,0,.04,0,.07,0,.05,0,.1,0,.16,0,.02,0,.04,0,.07,0,.05,0,.1,0,.16,0,.02,0,.04,0,.07,0,.41,0,.81,0,1.22.01.06.03.12.04.17.04.02.08.04.12.06.04.2.2.22.36.22.84,0,1.69,0,2.53,0,.22,0,.28.07.29.29.02.31-.04.58-.23.82-1.61,0-3.23,0-4.84,0,0-.13,0-.25,0-.38,0,0,.01-.01.01-.02,0-.01,0-.03-.01-.04,0-2.12,0-4.24,0-6.36,0-1.38-.04-2.76-.06-4.15,0-.07.04-.14.07-.2.5,0,.99-.01,1.49-.02.22-.02.28.1.27.3-.01.18-.02.36-.02.54,0,.06,0,.12,0,.18,0,.05,0,.11,0,.16,0,.02,0,.04,0,.07,0,.13,0,.25,0,.38,0,.02,0,.04,0,.07,0,.05,0,.1,0,.16,0,.02,0,.04,0,.07,0,.05,0,.1,0,.16,0,.02,0,.04,0,.07,0,.05,0,.1,0,.16,0,.02,0,.04,0,.07,0,.05,0,.1,0,.16,0,.02,0,.04,0,.07,0,.05,0,.1,0,.16,0,.02,0,.04,0,.07,0,.05,0,.1,0,.16,0,.02,0,.04,0,.07,0,.05,0,.1,0,.16,0,.02,0,.04,0,.07,0,.05,0,.1,0,.16,0,.02,0,.04,0,.07,0,.05,0,.1,0,.16,0,.02,0,.04,0,.07,0,.05,0,.1,0,.16,0,.02,0,.04,0,.07,0,.05,0,.1,0,.16,0,.02,0,.04,0,.07,0,.05,0,.1,0,.16,0,.02,0,.04,0,.07,0,.05,0,.1,0,.16,0,.02,0,.04,0,.07,0,.05,0,.1,0,.16,0,.02,0,.04,0,.07,0,.05,0,.1,0,.16,0,.02,0,.04,0,.07,0,.05,0,.1,0,.16,0,.02,0,.04,0,.07,0,.05,0,.1,0,.16,0,.02,0,.04,0,.07,0,.05,0,.1,0,.16,0,.02,0,.04,0,.07,0,.05,0,.1,0,.16,0,.02,0,.04,0,.07,0,.05,0,.1,0,.16,0,.02,0,.04,0,.07Z"/>
        <path class="cls-24" d="m30.47,36.31c.1.08.26.13.3.24.2.48.52.85.95,1.13.47.3.96.57,1.43.88.59.4,1.3.63,1.79,1.19.41.48.7,1.03.54,1.64-.13.49-.36.98-.93,1.21-.53.21-1.05.47-1.63.4-.46-.05-.9-.25-1.36-.35-.22-.05-.45-.03-.67-.01-.03,0-.1.19-.07.22.11.14.23.31.39.37.4.17.82.29,1.22.46.1.04.15.17.23.27-.19-.03-.39-.03-.57-.1-.56-.23-1.12-.47-1.66-.73-.07-.03-.1-.24-.07-.35.07-.23.19-.44.29-.66.36.12.73.24,1.09.35.65.2,1.3.39,1.98.17.13-.02.26-.04.38-.08.88-.27,1.4-1.2,1.06-2.04-.14-.36-.37-.66-.69-.85-.88-.55-1.78-1.06-2.68-1.59-.68-.41-1.16-.98-1.34-1.77Z"/>
        <path class="cls-21" d="m48.85,21.12s.04.07.06.11c-.04.04-.08.08-.12.12-.18-.26-.34-.52-.53-.77-.52-.68-.99-1.4-1.7-1.93-.37-.27-.68-.63-1.05-.89-.44-.32-.91-.6-1.38-.86-.37-.2-.76-.39-1.16-.51-.34-.1-.71-.09-1.07-.12-.45-.04-.83-.23-1.21-.49-.47-.32-1.01-.54-1.53-.77-.09-.04-.25.02-.35.08-.04.02-.02.21.03.28.28.42.59.83.87,1.24.1.15.18.32.26.48-.07,0-.14,0-.21.01-.33-.45-.67-.89-.98-1.35-.11-.16-.19-.34-.25-.52-.09-.27.08-.5.36-.47.24.02.5.05.71.16.54.27,1.06.59,1.59.88.18.1.38.22.58.23,1.21.03,2.3.4,3.29,1.09.94.65,1.86,1.34,2.57,2.26.41.53.78,1.11,1.16,1.66.02.03.03.06.05.09Z"/>
        <path class="cls-25" d="m51.42,26.36c.32.15.63.35.96.44,1.08.3,1.99.9,2.87,1.56.17.13.36.22.54.35.09.07.16.17.24.25-.02.02-.03.05-.05.07-.25,0-.5.01-.74,0-.78-.04-1.49.22-2.21.46-.17.06-.2.14-.12.31.22.46.49.86.9,1.19.67.53,1.42.91,2.17,1.3.33.17.61.43.91.65-.06.02-.12.04-.18.06-.09-.05-.18-.09-.27-.14-.46-.27-.9-.58-1.38-.8-.84-.38-1.52-.94-2.09-1.65-.14-.18-.23-.44-.25-.67,0-.14.13-.38.26-.43.5-.18,1.02-.31,1.54-.45.21-.06.43-.1.69-.16-.07-.09-.1-.17-.16-.21-.35-.23-.74-.43-1.07-.7-.62-.52-1.39-.64-2.11-.91-.25-.09-.58-.15-.6-.53.04,0,.09,0,.13-.01Z"/>
        <path class="cls-14" d="m48.52,32.74c-.02.07-.07.14-.07.2.02,1.38.05,2.76.06,4.15.01,2.12,0,4.24,0,6.36,0,.02,0,.04,0,.06,0,.13,0,.25,0,.38-.04.04-.08.08-.13.12-.21-.05-.17-.22-.17-.36,0-1.96,0-3.92,0-5.88,0-1.52,0-3.05,0-4.57,0-.21,0-.41.22-.53.02.02.05.04.07.07Z"/>
        <path class="cls-13" d="m30.47,36.31c.18.79.65,1.36,1.34,1.77.89.53,1.79,1.05,2.68,1.59.32.2.54.49.69.85.33.83-.18,1.76-1.06,2.04-.12.04-.25.05-.38.08-.1-.19.03-.26.18-.28.36-.05.64-.27.88-.5.26-.25.26-.85.1-1.21-.25-.6-.76-.92-1.28-1.22-.78-.45-1.56-.9-2.33-1.37-.19-.12-.32-.33-.48-.5-.57-.62-.7-1.38-.65-2.19.07-.02.15-.04.22-.06.03.34.07.67.1,1.01Z"/>
        <path class="cls-23" d="m20.99,43.67c0-.46,0-.91-.02-1.37-.04-.72-.11-1.45-.16-2.17-.03-.47-.03-.94-.06-1.41-.05-.79-.12-1.58-.19-2.36-.05-.61-.13-1.21-.19-1.82-.04-.43-.07-.86-.12-1.28-.02-.17-.05-.34-.08-.52h-2.32s0-.05,0-.08c.07-.05.14-.14.22-.14.58,0,1.17-.04,1.75.02.47.04.68.33.7.81.03.53.03,1.06.07,1.58.04.6.12,1.2.18,1.8.07.83.14,1.66.2,2.49.07.9.15,1.81.2,2.72.03.51.02,1.02.01,1.53,0,.07-.13.14-.2.21Z"/>
        <path class="cls-12" d="m39.77,17.1c.07,0,.14,0,.21-.01.05.08.11.16.16.23.02.02.03.03.05.05.25.71.46,1.43.75,2.11.21.5.47,1,.82,1.4.38.43.27.85.17,1.3-.12.52-.33,1.03-.37,1.56-.05.67-.03,1.36.06,2.03.06.4.17.83.51,1.15.2-.7.39-1.38.58-2.06.06.04.12.09.18.13-.4.72-.46,1.51-.47,2.33-.31-.05-.47-.24-.58-.47-.27-.6-.51-1.21-.53-1.89-.03-.93.04-1.83.4-2.7.09-.22.13-.47.15-.72,0-.12-.05-.29-.14-.38-.75-.72-1.01-1.67-1.32-2.62-.16-.5-.42-.96-.63-1.44Z"/>
        <path class="cls-17" d="m17.85,32.66s0,.05,0,.08c-.11.4-.2.8-.33,1.19-.31.98-.64,1.96-.96,2.93-.25.74-.51,1.48-.74,2.22-.19.59-.35,1.18-.53,1.8-.03-.06-.1-.14-.13-.23-.3-.95-.59-1.91-.91-2.86-.26-.79-.54-1.57-.81-2.35-.02-.06,0-.13-.01-.19.06,0,.11,0,.17,0,.18.56.35,1.13.53,1.69.17.53.36,1.05.53,1.58.12.37.21.76.34,1.13.05.16.15.3.23.45.03,0,.05,0,.08-.01.07-.19.16-.39.22-.58.35-1.1.7-2.21,1.05-3.31.24-.74.47-1.48.73-2.22.15-.44.35-.87.52-1.31Z"/>
        <path class="cls-19" d="m40.65,32.97c-.34.23-.67.46-1.01.69-.49.33-.72.86-.97,1.36-.4.79-.52,1.66-.65,2.52-.05.31-.05.63-.07.94-.15.1-.15.19,0,.28.03.3.06.6.09.9-.01.02,0,.03,0,.05.1.56.2,1.12.3,1.68-.22.13.05.26,0,.4-.05-.03-.12-.05-.13-.09-.09-.33-.16-.66-.26-.98-.04-.13-.1-.27-.19-.38-.12-.14-.22-.24-.08-.42.06-.08.05-.21.05-.32,0-.53,0-1.06,0-1.59,0-.16.06-.32.09-.49.05-.26.13-.52.12-.77-.02-.55.06-1.06.38-1.52.02-.03.04-.06.05-.1.25-.84.67-1.55,1.49-1.96.17-.08.32-.2.5-.26.07-.03.18.05.27.08Z"/>
        <path class="cls-17" d="m27.3,35.65c-.06.31-.11.63-.17.94-.14.76-.27,1.53-.44,2.29-.15.69-.34,1.37-.51,2.05-.1.41-.2.83-.31,1.23-.03.11-.1.2-.19.36-.09-.54-.12-.99-.23-1.42-.17-.66-.39-1.3-.58-1.95-.24-.79-.47-1.59-.71-2.38-.06-.19-.12-.39-.17-.58.06,0,.12,0,.18,0,.16.56.3,1.12.47,1.68.18.57.4,1.14.58,1.71.12.38.19.77.3,1.15.07.22.17.43.26.65.03,0,.06,0,.09,0,.05-.12.12-.24.15-.37.3-1.24.6-2.49.87-3.74.1-.45.12-.92.2-1.38.02-.12.14-.22.21-.32,0,.03,0,.05,0,.08Z"/>
        <path class="cls-16" d="m56.72,33.01c.06-.02.12-.04.18-.06.23.15.45.3.68.45.02-.02.04-.04.07-.06-.15-.21-.3-.42-.47-.62-.08-.1-.21-.16-.28-.27-.55-.75-1.27-1.28-2.06-1.76-.29-.17-.54-.4-.88-.66.18-.05.27-.09.36-.1.86-.17,1.72-.34,2.58-.51.02,0,.04-.03.07-.04l.1.06h0s-.04.04-.05.06c-.26.11-.52.26-.79.32-.47.11-.95.16-1.42.24-.22.04-.2.19-.07.29.19.15.42.26.62.4.32.22.67.42.94.7.5.5.96,1.05,1.42,1.59.13.15.13.35-.04.5-.04.04-.15.08-.17.07-.24-.22-.64-.23-.77-.59Z"/>
        <path class="cls-17" d="m14.22,43.62c0,.21.1.3.33.29.36,0,.72.04,1.07.04.09,0,.23-.1.25-.18.38-1.19.75-2.38,1.12-3.57.42-1.35.85-2.71,1.27-4.06.03.08.07.15.1.23-.3.98-.6,1.97-.91,2.95-.35,1.1-.71,2.2-1.06,3.31-.11.34-.21.69-.31,1.03-.1.38-.2.46-.58.46-.29,0-.58,0-.86,0-.41,0-.56-.15-.59-.56.05.02.11.04.16.06Z"/>
        <path class="cls-6" d="m39.3,17.66c.07.17.16.33.22.5.28.74.53,1.49.85,2.22.18.4.47.75.72,1.11.08.11.09.17.04.31-.14.42-.21.87-.34,1.3-.2.65-.17,1.32-.15,1.98.03.91.31,1.75.89,2.47-.07.02-.15.04-.22.05-.02-.07-.04-.14-.06-.21-.05-.04-.11-.08-.16-.12,0,0,0,0,0,0-.02-.02-.03-.04-.05-.06-.46-.92-.6-1.91-.55-2.92.04-.73.16-1.46.35-2.16.11-.43-.11-.67-.27-.98-.22-.43-.46-.85-.63-1.29-.26-.66-.47-1.34-.7-2.02.02-.06.04-.12.06-.18Z"/>
        <path class="cls-6" d="m26.23,44.51c.36-.72.77-1.42,1.06-2.16.37-.95.66-1.92.95-2.9.2-.66.38-1.34.52-2.01.12-.59.18-1.2.26-1.8.24.05.24.24.2.41-.29,1.28-.55,2.56-.88,3.82-.41,1.52-.95,3-1.74,4.38-.06.1-.13.18-.2.27-.06,0-.11,0-.17,0Z"/>
        <path class="cls-25" d="m39.3,17.66c-.02.06-.04.12-.06.18-.2-.25-.41-.5-.59-.76-.29-.43-.58-.87-.85-1.32-.19-.31-.15-1.22.07-1.47.39-.45.89-.58,1.45-.49.75.13,1.42.46,2.06.84.06.04.1.12.15.18-.02.04-.04.09-.06.13-.62-.44-1.3-.76-2.05-.9-.87-.15-1.56.22-1.55,1.18,0,.33.23.67.42.97.23.38.53.72.79,1.08.09.12.15.25.22.38Z"/>
        <path class="cls-16" d="m49.37,20.23c-.66-.96-1.39-1.85-2.28-2.6-.88-.73-1.81-1.38-2.83-1.9v-.19c.13.04.26.07.36.13.66.4,1.34.77,1.96,1.23.53.39,1.01.86,1.46,1.35.53.58,1,1.2,1.49,1.81.04.05.05.11.08.17-.08,0-.16,0-.25,0Z"/>
        <path class="cls-12" d="m49.37,20.23c.08,0,.16,0,.25,0,.08.13.16.26.23.39.02.06.04.11.06.17.06.11.11.22.17.33.05.06.1.12.15.18.5,1.11,1.01,2.23,1.51,3.34.12.26.21.55.38.77.17.23.41.43.65.57.44.24.91.42,1.37.63,0,.07,0,.15,0,.22-.54-.25-1.08-.52-1.63-.75-.36-.15-.54-.44-.69-.76-.53-1.12-1.04-2.24-1.58-3.36-.28-.58-.59-1.14-.89-1.71Z"/>
        <path class="cls-16" d="m26.23,44.51c.06,0,.11,0,.17,0-.02.08-.02.18-.07.24-.47.58-.87,1.23-1.5,1.67-.79.55-1.64.79-2.59.51-.14-.04-.29-.07-.43-.11-.07-.02-.12-.07-.18-.1.05-.06.09-.12.14-.18.98.48,1.9.33,2.8-.26.7-.46,1.18-1.11,1.67-1.76Z"/>
        <path class="cls-20" d="m21.92,35.8c.18.56.37,1.12.55,1.67.18.55.35,1.1.53,1.65.41,1.29.82,2.59,1.22,3.89.08.25.08.52.11.78-.04-.04-.07-.07-.11-.11-.25-.84-.5-1.68-.76-2.52-.24-.8-.49-1.59-.74-2.38-.28-.88-.56-1.76-.84-2.64-.03-.1-.03-.22-.04-.33.03,0,.06,0,.09,0Z"/>
        <path class="cls-10" d="m57.15,42.62c.15-.02.29-.03.44-.05,0,.42,0,.85.01,1.27-.11.14-.22.14-.33,0,.02-.25.04-.51.05-.76-.03,0-.06-.01-.08-.02-.09.22-.17.44-.26.67-.05.05-.11.11-.16.16-.05-.07-.13-.12-.16-.2-.1-.24-.19-.49-.3-.77-.18.25-.09.49-.09.71,0,.09-.05.17-.07.26-.06-.07-.12-.15-.18-.22,0-.07,0-.15,0-.22.01-.3.03-.59.04-.89.13.02.26.04.39.06.03.07.06.14.09.22.02.02.03.04.05.06.04.12.06.25.11.37.02.05.08.08.13.12.03-.04.07-.08.09-.12.08-.21.14-.43.21-.64Z"/>
        <path class="cls-23" d="m42.81,28.02c.36-.2.37-.58.44-.91.07-.35.07-.71.1-1.07.04-.04.07-.07.11-.11.03.08.04.16.08.24.08.17.18.32.25.49.32.71.83,1.27,1.39,1.78.2.18.4.36.61.54-.08.02-.16.04-.24.06-.48-.47-.97-.93-1.43-1.41-.15-.16-.24-.37-.36-.55-.04-.06-.1-.09-.15-.14-.05.06-.11.12-.14.19-.06.17-.06.37-.15.53-.11.19-.29.34-.44.51-.02-.05-.05-.09-.07-.14Z"/>
        <path class="cls-8" d="m48.4,44.01s.08-.08.13-.12c1.61,0,3.23,0,4.84,0,.15,0,.3,0,.44,0,.02.17-.06.23-.23.23-1.64,0-3.28,0-4.92,0-.09,0-.18-.07-.27-.11Z"/>
        <path class="cls-19" d="m30.36,35.3c-.07.02-.15.04-.22.06.06-.81.28-1.57.93-2.1.42-.34.88-.64,1.43-.73.16-.03.41-.12.49.16-.7.13-1.33.4-1.82.93-.45.47-.71,1.04-.81,1.69Z"/>
        <path class="cls-23" d="m51.42,26.36s-.09,0-.13.01c-.2-.29-.44-.56-.59-.88-.36-.72-.69-1.45-1.01-2.18-.24-.54-.45-1.09-.68-1.64-.04-.04-.07-.08-.11-.12-.04-.07-.08-.14-.12-.22.04-.04.08-.08.12-.12.27.56.55,1.13.82,1.69.56,1.15,1.13,2.3,1.69,3.44Z"/>
        <path class="cls-20" d="m14.22,43.62c-.05-.02-.11-.04-.16-.06-.16-.5-.32-1-.48-1.5-.27-.84-.54-1.69-.8-2.53-.19-.59-.37-1.18-.55-1.77-.09-.3-.18-.6-.27-.9.03-.04.06-.07.1-.11.72,2.29,1.45,4.58,2.17,6.87Z"/>
        <path class="cls-13" d="m38.35,41.78c.06-.13-.22-.27,0-.4.22.41.41.85.68,1.22.49.69,1.16,1.15,2.02,1.3.12.02.23.06.34.1-.23.19-.52.19-.74.08-.55-.29-1.17-.46-1.61-.95-.33-.37-.6-.74-.66-1.25,0-.04-.03-.07-.04-.1Z"/>
        <path class="cls-6" d="m12.04,36.75s-.06.07-.1.11c-.07-.14-.13-.28-.2-.42-.02,0-.04,0-.06,0-.02.21-.06.43-.07.64-.05.69-.09,1.38-.12,2.07,0,.16-.01.3-.2.35.03-.41.05-.82.08-1.23,0-.08,0-.17.01-.25.04-.91.08-1.81.12-2.72.22.06.4.54.54,1.44Z"/>
        <path class="cls-13" d="m42.2,44.08c.4-.05.8-.1,1.21-.16.25-.04.46-.03.69.11.56.35,1.13.67,1.7,1.01.19.11.36.24.54.36-.12,0-.28.06-.37,0-.73-.4-1.43-.84-2.17-1.21-.2-.1-.53-.05-.76.02-.23.08-.45.11-.67.05-.06-.02-.1-.13-.15-.19Z"/>
        <path class="cls-3" d="m54.15,26.82c0-.07,0-.15,0-.22.42.28.86.53,1.25.84.51.4.98.83,1.46,1.27.12.11.21.29.27.45.03.08-.04.19-.07.29-.03-.02-.07-.04-.1-.06-.05-.11-.08-.22-.15-.31-.66-.86-1.54-1.46-2.41-2.07-.08-.06-.16-.12-.24-.18Z"/>
        <path class="cls-5" d="m53.81,43.89c-.15,0-.3,0-.44,0,.19-.24.25-.51.23-.82-.01-.22-.08-.29-.29-.29-.84,0-1.69,0-2.53,0-.17,0-.32-.01-.36-.22h3.4v1.33Z"/>
        <path class="cls-12" d="m13.61,35.25c-.06,0-.11,0-.17,0,0,0-.01-.01-.01-.01,0,0,0-.01,0-.01-.01-.03-.02-.06-.03-.08-.23-.72-.47-1.44-.7-2.16-.04-.14-.09-.25-.28-.25-.72,0-1.45,0-2.17,0-.04-.02-.08-.04-.12-.06.12-.06.24-.15.36-.16.51-.02,1.02-.04,1.53,0,.59.05.87.18.98.84.05.32.2.63.3.94.1.31.2.63.3.95Z"/>
        <path class="cls-13" d="m30.64,42.11c-.1.22-.22.43-.29.66-.03.1,0,.32.07.35.54.26,1.1.51,1.66.73.17.07.38.07.57.1,0,.01.01.02.02.03-.16.15-.61.19-.83.09-.39-.18-.78-.37-1.19-.5-.6-.2-.68-.59-.37-1.15.05-.09.06-.2.11-.28.06-.11.14-.22.25-.03Z"/>
        <path class="cls-21" d="m9.75,37.48c-.03.53-.07,1.05-.1,1.58-.05.93-.08,1.85-.13,2.78-.21-.07-.28-.19-.24-.43.06-.29.07-.58.09-.88.08-1.02.15-2.04.22-3.06.05,0,.1,0,.15,0Z"/>
        <path class="cls-12" d="m45.76,28.59c-.41-.65-.86-1.27-1.23-1.94-.35-.63-.62-1.3-.91-1.96-.05-.11-.05-.25-.07-.38.07.05.19.08.21.15.28.84.65,1.63,1.11,2.38.06.09.09.2.14.3.09.13.18.26.28.39.04.07.08.14.12.21.05.06.11.12.16.18,0,0,0,0,0,0,.05.09.11.19.16.28.02.09.05.18.07.27-.01.04-.02.08-.03.11Z"/>
        <path class="cls-23" d="m9.37,43.89h1.8c0-.67,0-1.34,0-2.02.07.08.19.16.19.24.02.45.02.91,0,1.36-.01.48-.19.64-.66.64-.33,0-.67,0-1,0-.15,0-.33,0-.34-.23Z"/>
        <path class="cls-25" d="m24.22,43.68s.07.07.11.11c.07.31.02.61-.13.89-.43.76-1.23.98-2.11.88-.1-.01-.21.01-.32.02-.11-.29.13-.28.27-.25.46.1.88.01,1.3-.15.45-.17.72-.51.81-.97.04-.17.05-.35.07-.52Z"/>
        <path class="cls-2" d="m42.65,18.56c-.06.01-.11.03-.17.04-.07-.48-.42-.8-.67-1.17,0-.02-.01-.04-.02-.06.13-.02.27-.04.4-.05.24,0,.63.25.67.48.05.27.08.56-.21.75Z"/>
        <path class="cls-13" d="m34.05,44.01c.38-.1.77-.18,1.14-.31.77-.26,1.31-.79,1.7-1.49.22.23-.02.39-.12.52-.35.45-.75.86-1.27,1.11-.35.17-.71.34-1.11.32-.12,0-.23-.1-.34-.15Z"/>
        <path class="cls-14" d="m57.28,43.84c.11.13.22.13.33,0,.02.02.04.04.06.07-.04.18-.17.22-.33.22-.38,0-.76,0-1.13,0-.33,0-.37-.05-.38-.39.06-.02.12-.04.17-.06.01,0,.03,0,.04,0,.06.07.12.15.18.22.03-.09.07-.17.07-.26,0-.23-.09-.46.09-.71.11.28.2.53.3.77.03.08.1.13.16.2.05-.05.11-.11.16-.16q.16.23.29.11Z"/>
        <path class="cls-17" d="m9.75,37.48c-.05,0-.1,0-.15,0,.05-.72.1-1.45.16-2.17.04-.43.12-.86.17-1.29.02-.13.03-.26.04-.39.05,0,.11,0,.16,0-.05.42-.11.85-.16,1.27-.08.86-.16,1.72-.23,2.58Z"/>
        <path class="cls-19" d="m46.84,39.65c.01-.21.03-.41.04-.62,0-.69,0-1.38,0-2.06,0-.07,0-.14,0-.21,0-.05,0-.11-.01-.16-.01,0-.02,0-.02-.02.2.04.26.2.26.37,0,.77,0,1.54,0,2.32,0,.19-.05.36-.28.38Z"/>
        <path class="cls-23" d="m18.37,36.37c-.03-.08-.07-.15-.1-.23.1-.3.2-.61.3-.91.03,0,.07.01.1.02.03.59.06,1.18.1,1.77.02.3.06.6.09.9-.05-.09-.13-.18-.15-.28-.08-.45-.14-.91-.21-1.38-.03.03-.08.06-.12.1Z"/>
        <path class="cls-8" d="m56,43.67c-.06.02-.12.04-.17.06,0-.19,0-.39-.02-.58,0-.04-.05-.08-.08-.13-.04.04-.12.08-.12.12-.01.19,0,.39-.01.58-.01.2-.12.27-.27.18.03-.37.05-.74.08-1.11q.36,0,.36-.23c.1,0,.21,0,.31,0-.01.3-.03.59-.04.89-.01.07-.03.15-.04.22Z"/>
        <path class="cls-17" d="m44.26,15.54v.19c-.72-.2-1.43-.46-2.2-.44-.2,0-.4-.23-.6-.35.02-.04.04-.09.06-.13.29.31.69.29,1.05.34.57.08,1.15.13,1.68.39Z"/>
        <path class="cls-10" d="m55.76,42.56q0,.23-.36.23c-.03.37-.05.74-.08,1.11-.16.02-.25-.02-.23-.21.03-.22.03-.44.05-.66.01-.16-.02-.27-.22-.26-.08,0-.16-.08-.25-.12.01-.03.02-.06.04-.09h1.05Z"/>
        <path class="cls-23" d="m24.16,36.19c-.06,0-.12,0-.18,0-.03-.05-.07-.09-.08-.14-.12-.42-.12-.42-.55-.42-.49,0-.98,0-1.47.01.1-.08.21-.22.31-.22.46,0,.92.04,1.38.08.42.03.54.34.59.69Z"/>
        <path class="cls-23" d="m18.91,38.32c.06,1.04.11,2.08.17,3.12-.22,0-.27-.16-.26-.34,0-.5,0-.99,0-1.49,0-.35-.05-.7-.05-1.05,0-.08.1-.16.15-.24Z"/>
        <path class="cls-13" d="m32.3,34.97c.24-.67.85-1.04,1.69-1-.15.21-.34.29-.59.36-.27.07-.51.3-.76.46-.11.07-.23.12-.34.18Z"/>
        <path class="cls-25" d="m42.65,18.56c.28-.19.25-.48.21-.75-.04-.24-.42-.49-.67-.48-.13,0-.27.03-.4.05-.14-.13-.04-.19.07-.24.35-.15.91.13,1.09.47.16.32.06.6,0,.89-.02.08-.12.15-.19.22-.04-.05-.08-.1-.12-.15Z"/>
        <path class="cls-13" d="m34.33,33.97c.57.06,1.15.1,1.67.4.04.21-.1.23-.23.19-.45-.15-.89-.31-1.34-.48-.04-.02-.07-.07-.11-.11Z"/>
        <path class="cls-12" d="m19.2,43.9c.59,0,1.19,0,1.78,0,.02.15-.04.23-.2.22-.47,0-.95,0-1.42,0-.13,0-.25-.04-.16-.22Z"/>
        <path class="cls-3" d="m42.81,28.02s.05.09.07.14c-.19.15-.76.17-.99,0-.21-.16-.39-.38-.58-.57.07-.02.15-.04.22-.05.04.03.09.06.12.11.3.39.7.46,1.15.38Z"/>
        <path class="cls-13" d="m48.52,32.74s-.05-.04-.07-.07c.06-.06.12-.16.18-.16.4-.01.8-.02,1.2,0,.07,0,.13.13.19.2-.5,0-.99.01-1.49.02Z"/>
        <path class="cls-23" d="m27.3,35.65s0-.05,0-.08c.1-.05.2-.14.3-.14.4-.01.81,0,1.21,0,0,.07,0,.13,0,.2-.5,0-1,.01-1.5.02Z"/>
        <path class="cls-8" d="m56.56,42.83c-.03-.07-.06-.14-.09-.22.23,0,.46,0,.69,0-.07.21-.14.43-.21.64-.02.05-.06.08-.09.12-.04-.04-.11-.07-.13-.12-.05-.12-.07-.25-.11-.37-.02-.02-.03-.04-.05-.06Z"/>
        <path class="cls-21" d="m41.81,17.43c.25.37.6.69.67,1.17-.16.21-.21,0-.26-.08-.15-.24-.29-.48-.4-.74-.04-.1,0-.23,0-.35Z"/>
        <path class="cls-13" d="m57.67,43.9s-.04-.04-.06-.07c0-.42,0-.85-.01-1.27.16-.01.24.06.24.22,0,.3.01.61,0,.91,0,.07-.1.14-.16.2Z"/>
        <path class="cls-19" d="m45.55,29.04c.08-.02.16-.04.24-.06.05.04.1.08.15.12.19.18.38.35.57.53-.03.19-.15.21-.27.1-.24-.22-.46-.46-.68-.7Z"/>
        <path class="cls-3" d="m42.88,24.99c-.06-.04-.12-.09-.18-.13.11-.17.21-.34.34-.49.12-.15.28-.17.45-.06-.2.23-.41.45-.61.68Z"/>
        <path class="cls-3" d="m10.14,33.63c-.05,0-.11,0-.16,0-.11-.34-.02-.66.17-.95.04.02.08.04.12.06-.04.3-.08.59-.12.89Z"/>
        <path class="cls-11" d="m46.51,29.64c-.19-.18-.38-.35-.57-.53.02-.04.05-.09.07-.13.07.04.14.08.21.12,0,0,0,0,0,0,.15.13.3.26.44.39-.05.05-.1.09-.15.14Z"/>
        <path class="cls-3" d="m46.22,29.11c-.07-.04-.14-.08-.21-.12-.08-.13-.17-.26-.25-.39.01-.04.02-.08.03-.11.24.07.41.31.43.63Z"/>
        <path class="cls-3" d="m46.66,29.5c-.15-.13-.3-.26-.44-.39.11.02.22.03.32.06.2.05.25.19.12.33Z"/>
        <path class="cls-23" d="m9.42,43.29c-.01.2-.02.41-.04.61-.27-.13-.25-.41.04-.61Z"/>
        <path class="cls-3" d="m45.27,27.54c-.09-.13-.18-.26-.28-.39.09.13.18.26.28.39Z"/>
        <path class="cls-6" d="m28.8,35.62c0-.07,0-.13,0-.2.17-.03.23.06.22.21-.07,0-.15-.01-.22-.02Z"/>
        <path class="cls-3" d="m45.71,28.21c-.05-.09-.11-.19-.16-.28.05.09.11.19.16.28Z"/>
        <path class="cls-16" d="m50.23,21.29c-.05-.06-.1-.12-.15-.18.05.06.1.12.15.18Z"/>
        <path class="cls-3" d="m45.55,27.93c-.05-.06-.11-.12-.16-.18.05.06.11.12.16.18Z"/>
        <path class="cls-16" d="m49.91,20.78c-.02-.06-.04-.11-.06-.17.02.06.04.11.06.17Z"/>
        <path class="cls-3" d="m41.09,27.26c.05.04.11.08.16.12-.05-.04-.11-.08-.16-.12Z"/>
        <path class="cls-21" d="m48.9,21.56s.07.08.11.12c-.04-.04-.07-.08-.11-.12Z"/>
        <path class="cls-1" d="m50.26,33.74c0-.06,0-.12,0-.18,0,.06,0,.12,0,.18Z"/>
        <path class="cls-23" d="m21.92,35.8s-.06,0-.09,0c.01-.04.03-.08.04-.11.02.04.03.07.05.11Z"/>
        <path class="cls-1" d="m50.29,42.51c-.01-.06-.03-.12-.04-.17.01.06.03.12.04.17Z"/>
        <path class="cls-7" d="m66.83,35.63s0,.08,0,.12c0-.04,0-.08,0-.12Z"/>
        <path class="cls-1" d="m50.26,36.87s0-.04,0-.07c0,.02.01.03.01.05,0,0,0,.01-.01.02Z"/>
        <path class="cls-1" d="m50.26,39.33s0-.04,0-.07c0,.02.01.03.01.05,0,0,0,.01-.01.02Z"/>
        <path class="cls-1" d="m50.26,38.88s0-.04,0-.07c0,.02.01.03.01.05,0,0,0,.01-.01.02Z"/>
        <path class="cls-1" d="m50.26,39.55s0-.04,0-.07c0,.02.01.03.01.05,0,0,0,.01-.01.02Z"/>
        <path class="cls-1" d="m50.26,36.65s0-.04,0-.07c0,.02.01.03.01.05,0,0,0,.01-.01.02Z"/>
        <path class="cls-1" d="m50.26,39.77s0-.04,0-.07c0,.02.01.03.01.05,0,0,0,.01-.01.02Z"/>
        <path class="cls-1" d="m50.26,40s0-.04,0-.07c0,.02.01.03.01.05,0,0,0,.01-.01.02Z"/>
        <path class="cls-1" d="m50.26,40.22s0-.04,0-.07c0,.02.01.03.01.05,0,0,0,.01-.01.02Z"/>
        <path class="cls-1" d="m50.26,40.44s0-.04,0-.07c0,.02.01.03.01.05,0,0,0,.01-.01.02Z"/>
        <path class="cls-1" d="m50.26,40.67s0-.04,0-.07c0,.02.01.03.01.05,0,0,0,.01-.01.02Z"/>
        <path class="cls-1" d="m50.26,40.89s0-.04,0-.07c0,.02.01.03.01.05,0,0,0,.01-.01.02Z"/>
        <path class="cls-1" d="m50.26,41.11s0-.04,0-.07c0,.02.01.03.01.05,0,0,0,.01-.01.02Z"/>
        <path class="cls-1" d="m50.26,34.64s0-.04,0-.07c0,.02.01.03.01.05,0,0,0,.01-.01.02Z"/>
        <path class="cls-3" d="m57,29.5s.04-.04.05-.06c-.02.02-.04.04-.05.06Z"/>
        <path class="cls-1" d="m50.26,36.42s0-.04,0-.07c0,.02.01.03.01.05,0,0,0,.01-.01.02Z"/>
        <path class="cls-1" d="m50.26,36.2s0-.04,0-.07c0,.02.01.03.01.05,0,0,0,.01-.01.02Z"/>
        <path class="cls-1" d="m50.26,38.66s0-.04,0-.07c0,.02.01.03.01.05,0,0,0,.01-.01.02Z"/>
        <path class="cls-1" d="m50.26,34.86s0-.04,0-.07c0,.02.01.03.01.05,0,0,0,.01-.01.02Z"/>
        <path class="cls-1" d="m50.26,35.98s0-.04,0-.07c0,.02.01.03.01.05,0,0,0,.01-.01.02Z"/>
        <path class="cls-1" d="m50.26,38.43s0-.04,0-.07c0,.02.01.03.01.05,0,0,0,.01-.01.02Z"/>
        <path class="cls-1" d="m50.26,34.41s0-.04,0-.07c0,.02.01.03.01.05,0,0,0,.01-.01.02Z"/>
        <path class="cls-1" d="m50.26,38.21s0-.04,0-.07c0,.02.01.03.01.05,0,0,0,.01-.01.02Z"/>
        <path class="cls-3" d="m41.04,27.2s.03.04.05.06c-.02-.02-.03-.04-.05-.06Z"/>
        <path class="cls-1" d="m50.26,37.99s0-.04,0-.07c0,.02.01.03.01.05,0,0,0,.01-.01.02Z"/>
        <path class="cls-1" d="m50.26,35.08s0-.04,0-.07c0,.02.01.03.01.05,0,0,0,.01-.01.02Z"/>
        <path class="cls-1" d="m50.26,35.75s0-.04,0-.07c0,.02.01.03.01.05,0,0,0,.01-.01.02Z"/>
        <path class="cls-1" d="m50.26,37.76s0-.04,0-.07c0,.02.01.03.01.05,0,0,0,.01-.01.02Z"/>
        <path class="cls-1" d="m50.26,37.54s0-.04,0-.07c0,.02.01.03.01.05,0,0,0,.01-.01.02Z"/>
        <path class="cls-1" d="m50.26,37.32s0-.04,0-.07c0,.02.01.03.01.05,0,0,0,.01-.01.02Z"/>
        <path class="cls-1" d="m50.26,37.09s0-.04,0-.07c0,.02.01.03.01.05,0,0,0,.01-.01.02Z"/>
        <path class="cls-1" d="m50.26,33.96s0-.04,0-.07c0,.02.01.03.01.05,0,0,0,.01-.01.02Z"/>
        <path class="cls-13" d="m34.16,33.97s.03,0,.05,0c-.02,0-.03,0-.05,0Z"/>
        <path class="cls-21" d="m40.18,17.38s-.03-.03-.05-.05c.02.02.03.03.05.05Z"/>
        <path class="cls-1" d="m50.26,35.31s0-.04,0-.07c0,.02.01.03.01.05,0,0,0,.01-.01.02Z"/>
        <path class="cls-1" d="m50.26,35.53s0-.04,0-.07c0,.02.01.03.01.05,0,0,0,.01-.01.02Z"/>
        <path class="cls-1" d="m50.26,39.1s0-.04,0-.07c0,.02.01.03.01.05,0,0,0,.01-.01.02Z"/>
        <path class="cls-17" d="m13.41,35.13s.02.06.03.08c-.01-.03-.02-.06-.03-.08Z"/>
        <path class="cls-7" d="m40.05,40.33c-.04-.37-.06-.75-.13-1.12-.16-.92-.01-1.84.06-2.75,0-.13.07-.25.11-.37.44-.08.37-.53.52-.8.21-.38.82-.97,1.28-.98.36-.01.72-.16,1.09,0,.24.1.54.14.72.31.58.58.94,1.28.97,2.12,0,.24.09.43.33.52,0,.69,0,1.38,0,2.07-.11.19-.29.37-.31.56-.05.56-.26,1.06-.5,1.56-.16.33-.38.62-.74.76-.21.08-.46.09-.65.19-.21.11-.38.1-.58.02-.3-.11-.62-.19-.91-.32-.16-.07-.32-.21-.4-.36-.19-.35-.32-.74-.51-1.09-.07-.13-.22-.21-.33-.31Z"/>
        <path class="cls-19" d="m40.05,40.33c.11.1.26.19.33.31.19.36.32.74.51,1.09.08.15.24.29.4.36.29.13.61.21.91.32.2.08.37.09.58-.02.2-.11.44-.11.65-.19.36-.14.58-.43.74-.76.24-.49.45-.99.5-1.56.02-.2.2-.38.31-.56-.07,1.08-.23,2.13-1.11,2.89-.5.43-1.11.5-1.75.43-.98-.1-1.52-.72-1.86-1.57-.1-.24-.14-.5-.2-.75Z"/>
        <path class="cls-13" d="m44.99,37.25c-.24-.09-.32-.28-.33-.52-.03-.84-.39-1.54-.97-2.12-.17-.17-.47-.21-.72-.31-.36-.15-.72,0-1.09,0-.46.01-1.06.6-1.28.98-.15.27-.07.72-.52.8.18-.41.31-.86.56-1.23.56-.84,1.35-.9,2.19-.82.66.06,1.15.39,1.5.92.3.45.45.97.54,1.5.04.26.07.53.11.8Z"/>
        <path class="cls-5" d="m46.88,36.98c0,.69,0,1.38,0,2.06-.07-.09-.2-.18-.2-.27-.02-.51-.02-1.02,0-1.53,0-.09.13-.18.2-.27Z"/>
        <path class="cls-13" d="m37.96,38.76c-.15-.09-.15-.18,0-.28,0,.09,0,.19,0,.28Z"/>
        <path class="cls-7" d="m46.87,36.61c0,.05,0,.11.01.16,0-.05,0-.11-.01-.16Z"/>
        <path class="cls-13" d="m38.05,39.71s-.02-.03,0-.05c.01.01.01.03,0,.05Z"/>
        <path class="cls-23" d="m48.85,21.12s-.03-.06-.05-.09c.02.03.03.06.05.09Z"/>
        <path class="cls-4" d="m48.52,43.51s0-.04,0-.06c0,.01,0,.03.01.04,0,0,0,.01-.01.02Z"/>
        <path class="cls-8" d="m57.28,43.84q-.13.12-.29-.11c.09-.22.17-.44.26-.67.03,0,.06.01.08.02-.02.25-.04.51-.05.76Z"/>
        <path class="cls-7" d="m56,43.67c.01-.07.03-.15.04-.22,0,.07,0,.15,0,.22-.01,0-.03,0-.04,0Z"/>
        <path class="cls-7" d="m56.56,42.83s.03.04.05.06c-.02-.02-.03-.04-.05-.06Z"/>
      </g>
    </g>
  </g>
</svg>