<?xml version="1.0" encoding="UTF-8"?>
<svg id="Layer_2" data-name="Layer 2" xmlns="http://www.w3.org/2000/svg" viewBox="0 0 62.05 62.05">
  <defs>
    <style>
      .cls-1 {
        fill: #8cc84b;
      }

      .cls-2 {
        fill: none;
      }
    </style>
  </defs>
  <g id="Layer_3" data-name="Layer 3">
    <g>
      <rect class="cls-2" width="62.05" height="62.05"/>
      <g>
        <path class="cls-1" d="m36.56,59.64c-.92.52-1.85,1.05-2.77,1.57-.86.5-1.8.73-2.77.85-1.05,0-1.97-.4-2.86-.9-.85-.48-1.69-.96-2.54-1.44-.23-.15-.46-.3-.69-.45-.28-.15-.55-.31-.83-.46-.43-.25-.85-.5-1.28-.75-.1-.06-.2-.12-.3-.17-.39-.23-.79-.47-1.18-.7-.27-.17-.56-.31-.81-.5-.16-.12-.27-.3-.4-.46.15-.11.29-.26.46-.34.55-.24,1.11-.46,1.67-.68.15-.06.31-.13.46-.19.46-.25.92-.49,1.38-.74.56-.11.92.34,1.38.51.19.11.37.22.56.32l.04.02h.04s0-.01,0-.01c.25.15.5.3.75.45.46.28.92.55,1.39.83.08.04.16.08.24.12.37.22.75.44,1.12.66.47.23.94.45,1.41.68l1.49-.72c.33-.19.67-.38,1-.56.09-.06.18-.12.28-.19.47-.26.94-.52,1.41-.79.28-.16.56-.32.84-.48.17-.1.35-.2.52-.3l2.85-1.58c.92-.52,1.85-1.05,2.77-1.57.41-.24.83-.47,1.24-.71.02,0,.04-.01.05-.03l1.39-.78c.3-.17.61-.34.91-.51.15-.09.31-.18.46-.28.92-.52,1.85-1.04,2.77-1.56.92-.53,1.84-1.05,2.77-1.58.47-.27.94-.53,1.41-.8.45-.25.91-.51,1.36-.76.33-.11.43-.34.39-.67,0-.48,0-.97,0-1.45,0-.44,0-.88,0-1.32,0-.48,0-.97,0-1.45,0-.41,0-.82,0-1.23,0-.48,0-.97,0-1.45,0-.44,0-.88,0-1.32,0-.48,0-.97,0-1.45,0-.44,0-.88,0-1.32,0-.48,0-.97,0-1.45,0-.44,0-.88,0-1.32,0-.48,0-.97,0-1.45,0-.44,0-.88,0-1.32,0-.48,0-.97,0-1.45,0-.44,0-.88,0-1.32,0-.48,0-.97,0-1.45,0-.44,0-.88,0-1.32,0-.48,0-.97,0-1.45,0-.44,0-.88,0-1.32-.05-.51-.01-1.06-.17-1.54-.24-.73-1.03-.86-1.61-1.22-.09-.06-.19-.12-.28-.17-.37-.21-.73-.41-1.1-.62-.88-.48-1.75-.96-2.63-1.44-.97-.55-1.94-1.1-2.91-1.65-.92-.52-1.85-1.05-2.77-1.57-.09-.06-.19-.12-.28-.18-.36-.2-.72-.4-1.08-.6-.49-.27-.99-.54-1.48-.82-.44-.25-.87-.5-1.31-.76-.92-.52-1.84-1.04-2.75-1.56-.9-.51-1.8-1.02-2.71-1.52-.21-.12-.43-.25-.64-.37-.24-.13-.48-.25-.73-.38l-1.4-.72-1.47.63c-.31.18-.62.36-.94.54-.16.08-.31.16-.47.25-.92.52-1.84,1.04-2.75,1.56-.93.52-1.86,1.05-2.79,1.57-.43.25-.87.5-1.3.76-.02,0-.04.01-.05.03-.5.27-.99.55-1.49.82-.32.18-.64.37-.96.55-.11.07-.21.13-.32.2l-2.77,1.56c-.95.53-1.9,1.05-2.85,1.58-.9.51-1.81,1.02-2.71,1.52-.37.22-.75.44-1.12.66-.08.04-.16.08-.24.12-.4.22-.79.46-1.21.65-.49.22-.65.59-.64,1.1.02,2.15.02,4.3.03,6.45,0,.47,0,.93,0,1.4,0,.46,0,.91,0,1.37,0,.47,0,.93,0,1.4,0,.46,0,.91,0,1.37,0,.47,0,.93,0,1.4,0,.46,0,.91,0,1.37,0,.47,0,.93,0,1.4,0,.46,0,.91,0,1.37,0,.47,0,.93,0,1.4,0,.46,0,.91,0,1.37,0,.47,0,.93,0,1.4,0,.46,0,.92,0,1.38,0,.93-.04,1.87,0,2.8,0,.21.28.41.43.61.43.25.85.5,1.28.75.49.28.99.55,1.48.83.92.52,1.85,1.04,2.77,1.56.89.63,1.86,1.03,2.95,1.09.43-.06.86-.11,1.29-.17l1.03-.54c.09-.09.18-.18.27-.27.21-.37.42-.75.64-1.12.04-.09.07-.18.11-.28.01-.07.03-.13.04-.2-.01-.33-.02-.65-.03-.98,0-.41,0-.82,0-1.23,0-.51,0-1.03,0-1.54,0-.41,0-.82,0-1.23,0-.48,0-.97,0-1.45,0-.44,0-.88,0-1.32,0-.48,0-.97,0-1.45,0-.44,0-.88,0-1.32,0-.51,0-1.03,0-1.54,0-.41,0-.82,0-1.23,0-.51,0-1.03,0-1.54,0-.41,0-.82,0-1.23,0-.51,0-1.03,0-1.54,0-.41,0-.82,0-1.23,0-.51,0-1.03,0-1.54,0-.41,0-.82,0-1.23,0-.48,0-.97,0-1.45,0-.47,0-.94,0-1.4.02-.06.03-.11.05-.17,0-.16,0-.32,0-.48,0-.21,0-.42,0-.63.03-.27.07-.53.1-.8.16-.13.32-.25.48-.38.45,0,.91,0,1.36,0,.47,0,.94,0,1.41,0,.39.03.78.05.92.52,0,.19.01.38.02.56,0,.46,0,.91,0,1.37,0,.47,0,.93,0,1.4,0,.46,0,.91,0,1.37,0,.47,0,.93,0,1.4,0,.46,0,.91,0,1.37,0,.47,0,.93,0,1.4,0,.46,0,.91,0,1.37,0,.47,0,.93,0,1.4,0,.46,0,.91,0,1.37,0,.47,0,.93,0,1.4,0,.46,0,.92,0,1.38,0,1.38,0,2.76,0,4.14,0,.46,0,.92,0,1.38,0,.47,0,.93,0,1.4,0,1.38,0,2.77-.01,4.15-.06.46-.12.92-.19,1.38l-.47,1.39c-.1.2-.2.41-.31.61-.18.26-.36.51-.54.77-.27.26-.54.51-.81.77-.22.16-.45.32-.67.49-.24.11-.48.22-.72.32-.46.14-.93.27-1.39.41-.43.05-.86.1-1.28.16-.46,0-.93,0-1.39,0-.49-.08-.97-.16-1.46-.24-.46-.14-.93-.27-1.39-.41-.15-.06-.31-.12-.46-.19-.31-.15-.62-.31-.92-.46-.46-.25-.92-.49-1.38-.74-.06-.03-.12-.07-.18-.1-.4-.23-.8-.46-1.2-.69-.92-.52-1.83-1.04-2.75-1.56-.74-.42-1.54-.75-2.06-1.48-.22-.31-.5-.59-.69-.92-.16-.27-.22-.59-.33-.89-.06-.46-.12-.93-.18-1.39,0-.46,0-.92,0-1.38v-1.39c0-.46,0-.92,0-1.38,0-.46,0-.93,0-1.39,0-.46,0-.92,0-1.38,0-.46,0-.93,0-1.39,0-.46,0-.92,0-1.38v-1.39c0-.46,0-.92,0-1.38v-1.39c0-.46,0-.92,0-1.38,0-.46,0-.93,0-1.39,0-.46,0-.92,0-1.38,0-.46,0-.93,0-1.39,0-.46,0-.92,0-1.38v-1.39c0-.46,0-.92,0-1.38,0-.46,0-.93,0-1.39s0-.92,0-1.38c.07-.43.13-.86.2-1.3.09-.22.18-.43.28-.65.18-.28.35-.56.53-.83.29-.3.57-.6.86-.9.25-.16.5-.31.74-.47.21-.12.42-.25.64-.37.95-.53,1.9-1.05,2.85-1.58.89-.5,1.78-1,2.68-1.5.38-.23.77-.46,1.15-.69.08-.04.16-.08.24-.12.46-.26.93-.52,1.39-.77.3-.17.6-.35.9-.52.13-.07.26-.15.38-.22.11-.05.22-.1.33-.17.51-.31,1.01-.64,1.53-.94.33-.19.67-.34,1.01-.51.89-.51,1.79-1.01,2.68-1.52.43-.23.86-.47,1.28-.7.06-.05.13-.09.19-.14.46-.26.92-.52,1.38-.78.32-.18.64-.36.96-.54.15-.09.3-.18.45-.26.95-.53,1.9-1.07,2.85-1.6.43-.19.85-.38,1.28-.56.43-.04.86-.07,1.3-.11.49.04.98.09,1.47.13.46.21.93.41,1.39.62.89.5,1.78.99,2.67,1.49l.47.27.04.02h.04s0-.01,0-.01c.31.18.62.37.93.55.45.26.91.51,1.36.77.07.05.14.09.21.14.4.22.79.44,1.19.66.92.52,1.85,1.04,2.77,1.56.92.52,1.85,1.05,2.77,1.57.17.1.34.2.52.31.28.16.56.32.84.48.47.26.94.52,1.41.79.06.03.12.07.18.1.4.23.8.46,1.2.69.93.53,1.86,1.06,2.78,1.59l2.68,1.5c.22.12.44.25.67.37.27.17.53.35.8.52.29.29.58.58.87.87.17.26.34.52.51.78.08.2.16.4.24.61.08.46.16.92.25,1.37,0,.46,0,.93,0,1.39,0,.46,0,.92,0,1.38,0,.46,0,.93,0,1.39s0,.92,0,1.38v1.39c0,.46,0,.92,0,1.38v1.39c0,.46,0,.92,0,1.38,0,.46,0,.93,0,1.39,0,.46,0,.92,0,1.38,0,.46,0,.93,0,1.39,0,.46,0,.92,0,1.38,0,.46,0,.93,0,1.39v1.38c0,.46,0,.93,0,1.39,0,.46,0,.92,0,1.38s0,.93,0,1.39c0,.46,0,.92,0,1.38v1.39c-.07.46-.13.92-.2,1.38-.26.5-.48,1.01-.79,1.48-.55.85-1.44,1.29-2.27,1.8-.93.52-1.86,1.05-2.79,1.57-.33.2-.66.39-1,.59-.12.06-.24.13-.36.19-.46.26-.93.52-1.39.78-.29.17-.58.33-.87.5l-.51.29c-.92.52-1.85,1.04-2.77,1.56-.92.51-1.85,1.02-2.77,1.52-.45.26-.91.53-1.36.79-.04.03-.08.05-.12.08-.43.23-.85.45-1.28.68-.32.2-.64.4-.97.6-.14.07-.28.14-.42.21-.92.52-1.85,1.05-2.77,1.57Z"/>
        <path class="cls-1" d="m26.78,24.66c.12-1.07.73-1.91,1.31-2.76.09-.09.18-.18.27-.28.46-.37.92-.74,1.38-1.11.43-.23.86-.46,1.3-.69.92-.27,1.84-.53,2.76-.8.46-.06.93-.12,1.39-.18.46-.03.92-.06,1.38-.09.46,0,.93,0,1.39,0,.46.03.92.06,1.38.09.46.03.93.06,1.39.1.92.22,1.84.44,2.77.66.45.2.91.4,1.36.6.28.16.56.31.84.47.19.14.37.28.56.42.28.28.55.55.83.83.18.25.37.5.55.75.12.21.25.43.37.64l.54,1.39c.1.46.19.92.29,1.39-.02.42.16.87-.19,1.24-.36.05-.72.1-1.08.15-.43,0-.87,0-1.3,0-.45-.01-.9-.03-1.36-.04-.11-.14-.27-.26-.33-.42-.14-.33-.23-.68-.34-1.03-.25-.46-.49-.91-.74-1.37-.02-.03-.04-.05-.07-.06-.31-.48-.74-.81-1.29-1h0s-.07-.04-.11-.06c-.82-.19-1.64-.39-2.46-.58-.51-.03-1.02-.06-1.53-.1-.48,0-.97,0-1.45,0-.47.03-.93.07-1.4.1-.27.04-.55.04-.79.12-.67.24-1.33.52-2,.78-.24.26-.48.52-.72.77-.33.44-.41.94-.35,1.48-.02.63.18,1.17.76,1.44.54.26,1.14.41,1.71.6.46.1.92.19,1.39.29.46.08.93.16,1.39.24.46.06.92.12,1.38.19.93.12,1.85.25,2.78.37.46.07.92.15,1.38.22.49.11.99.22,1.48.33.43.11.86.23,1.28.34.92.42,1.85.84,2.77,1.26.1.09.2.17.3.26.36.38.71.77,1.07,1.15.04.08.08.16.12.24.17.46.34.93.5,1.39.05.37.1.73.16,1.1,0,.55,0,1.11,0,1.66-.11.46-.23.92-.34,1.37-.37,1.02-.97,1.9-1.71,2.68-.08.06-.16.13-.24.19-.81.62-1.64,1.21-2.62,1.52-.46.15-.91.29-1.37.44-.46.11-.93.21-1.39.32-2.23.45-4.48.31-6.73.2-.53-.09-1.05-.17-1.58-.26-.46-.1-.92-.19-1.38-.29-.46-.15-.92-.31-1.38-.46-.07-.03-.14-.07-.21-.09-.35-.13-.74-.2-1.05-.4-.53-.33-1.01-.73-1.51-1.1h.01c-.89-.79-1.49-1.78-1.96-2.85-.1-.4-.21-.8-.31-1.21-.02-.21-.05-.43-.07-.64,0-.06-.01-.12-.02-.18-.01-.22-.02-.44-.03-.65.1-.61-.05-.86,1.27-.84.37,0,.74,0,1.1,0,.49,0,.99,0,1.48,0,.44.11.46.51.57.85.29,2.24,1.57,3.2,3.5,3.76.42.08.84.16,1.26.24.5.05,1.01.09,1.51.14.46,0,.92,0,1.38.01.46,0,.93,0,1.39-.01.46-.03.92-.06,1.38-.09.47-.07.93-.14,1.4-.22.46-.17.92-.34,1.38-.51.28-.18.55-.37.83-.55.22-.34.52-.66.65-1.03.43-1.2.23-2.69-1.3-3.18-.52-.17-1.04-.32-1.57-.48-.46-.09-.93-.19-1.39-.28-.46-.07-.92-.15-1.38-.22l-1.39-.15c-.46-.04-.92-.07-1.38-.11-.49-.07-.98-.15-1.47-.22-.41-.06-.81-.12-1.22-.17-.49-.11-.97-.21-1.46-.32-.43-.12-.87-.25-1.3-.37-1.01-.37-1.96-.85-2.78-1.58-.09-.09-.18-.18-.27-.27-.65-.79-1.23-1.61-1.3-2.69-.03-.55-.06-1.11-.1-1.66.04-.37.07-.74.11-1.11Z"/>
      </g>
    </g>
  </g>
</svg>