<?xml version="1.0" encoding="UTF-8"?>
<svg id="Layer_2" data-name="Layer 2" xmlns="http://www.w3.org/2000/svg" viewBox="0 0 67.13 67.13">
  <defs>
    <style>
      .cls-1 {
        fill: #0a080c;
      }

      .cls-2 {
        fill: #09070b;
      }

      .cls-3 {
        fill: #220347;
      }

      .cls-4 {
        fill: #08060a;
      }

      .cls-5 {
        fill: none;
      }

      .cls-6 {
        fill: #63d4b6;
      }
    </style>
  </defs>
  <g id="Layer_3" data-name="Layer 3">
    <g>
      <rect class="cls-5" width="67.13" height="67.13"/>
      <g>
        <path class="cls-4" d="m62.81,23.13c0,4.5.01,8.91,0,13.33,0,1.5-.8,2.61-1.91,3.54-1.93,1.61-4.19,2.64-6.57,3.31-2.65.75-5.34,1.35-8.05,1.83-2.2.39-4.45.61-6.69.74-3.24.19-6.48.31-9.72.28-2.03-.02-4.06-.29-6.07-.56-2.42-.33-4.84-.66-7.22-1.2-3.05-.7-6.06-1.63-8.76-3.3-.52-.32-1.02-.67-1.49-1.06-1.32-1.08-2.04-2.39-2.01-4.19.08-3.97.03-7.95.03-11.92v-.66c1.76.83,3.49,1.73,5.28,2.48,2.43,1.01,4.97,1.73,7.57,2.17,2.29.39,4.59.73,6.89,1.04,4.29.58,8.6.55,12.91.41,2.47-.07,4.94-.28,7.4-.58,2.18-.27,4.33-.76,6.49-1.14,3.3-.58,6.45-1.62,9.45-3.11.83-.41,1.61-.91,2.5-1.41Zm-.3.59c-.2.08-.3.13-.41.17-1.86.86-3.68,1.84-5.59,2.56-3.25,1.23-6.65,1.98-10.1,2.37-3,.34-6.01.74-9.03.84-3.45.12-6.91-.04-10.36-.12-1.22-.03-2.44-.14-3.65-.32-2.55-.39-5.12-.76-7.64-1.31-3.74-.81-7.38-1.95-10.67-4.01-.11-.07-.25-.09-.43-.14,0,3.99.07,7.91-.03,11.83-.05,2.04.81,3.45,2.38,4.57,2.43,1.74,5.19,2.73,8.03,3.51,5.54,1.52,11.23,2.01,16.95,2.21,1.46.05,2.94-.06,4.4-.12,1.66-.08,3.32-.17,4.97-.29,3.78-.28,7.51-.89,11.16-1.92,2.72-.77,5.37-1.72,7.67-3.41,1.51-1.11,2.42-2.49,2.36-4.52-.11-3.7-.03-7.41-.03-11.11,0-.24,0-.47,0-.79Z"/>
        <path class="cls-2" d="m4.33,44.1c3.29,2.14,6.77,3.44,10.43,4.27,2.37.54,4.77.99,7.17,1.33,2.17.31,4.37.5,6.56.6,2.68.12,5.38.17,8.06.1,2.44-.07,4.89-.24,7.32-.54,4.76-.57,9.49-1.38,13.96-3.22,1.68-.7,3.3-1.57,4.98-2.37,0,.14,0,.38,0,.61,0,4.12-.02,8.24,0,12.37,0,1.2-.41,2.2-1.21,3.05-1.75,1.86-4.01,2.87-6.34,3.71-2.74.99-5.55,1.73-8.46,2.08-2.03.24-4.05.61-6.08.71-3.72.19-7.46.33-11.18.27-2.61-.04-5.22-.38-7.82-.71-4.27-.54-8.43-1.55-12.35-3.38-1.47-.69-2.86-1.52-3.94-2.77-.72-.83-1.14-1.76-1.13-2.92.04-4.15.01-8.29.01-12.44v-.75Zm.3.63v.85c0,3.63.1,7.27-.04,10.89-.09,2.45,1.13,3.94,3.01,5.14,2.53,1.62,5.34,2.55,8.21,3.28,4.41,1.13,8.92,1.72,13.46,1.88,4.4.16,8.83.24,13.2-.41,3.11-.46,6.22-.97,9.29-1.64,3.07-.67,6.03-1.75,8.57-3.68,1.39-1.05,2.23-2.36,2.19-4.24-.09-3.75-.02-7.51-.03-11.26,0-.25-.02-.5-.03-.67-1.82.82-3.54,1.71-5.34,2.38-6.56,2.43-13.42,3.25-20.35,3.47-3.42.11-6.86-.03-10.27-.28-3.06-.22-6.12-.64-9.14-1.18-3.99-.71-7.85-1.88-11.44-3.82-.4-.22-.79-.44-1.29-.72Z"/>
        <path class="cls-1" d="m4.33,12.55c0-.83.04-1.67,0-2.5-.08-1.38.47-2.47,1.41-3.41,1.54-1.54,3.43-2.55,5.46-3.22,2.59-.87,5.23-1.67,7.9-2.22,2.4-.5,4.87-.73,7.32-.91C29.31.08,32.21-.01,35.11,0c2.38.01,4.78.14,7.14.43,2.95.37,5.9.84,8.8,1.48,2.94.65,5.82,1.55,8.38,3.21.83.54,1.61,1.21,2.31,1.91.75.75,1.09,1.72,1.07,2.81-.03,1.69-.06,3.39,0,5.08.06,1.72-.66,3.01-1.92,4.06-2.19,1.83-4.78,2.9-7.48,3.61-2.89.75-5.83,1.34-8.78,1.8-2.26.36-4.57.48-6.86.59-2.76.12-5.53.24-8.28.13-2.59-.1-5.18-.41-7.75-.77-2.19-.31-4.38-.71-6.52-1.29-3.21-.86-6.36-1.91-8.99-4.08-1.28-1.05-2.05-2.34-1.91-4.08.06-.78,0-1.57,0-2.35Zm30.55,12.34c1.44-.1,4.27-.27,7.09-.47,3.32-.24,6.59-.81,9.8-1.66,3.16-.83,6.25-1.85,8.85-3.95,1.2-.97,1.95-2.16,1.9-3.78-.05-1.69-.03-3.39,0-5.08.02-1.41-.62-2.51-1.64-3.39-1.65-1.43-3.6-2.34-5.64-3.08C48.86,1.18,42.21.5,35.5.3c-2.73-.08-5.48.11-8.21.27-2.04.12-4.1.28-6.11.63-2.38.41-4.74.96-7.07,1.58-2.81.74-5.5,1.8-7.75,3.71-1.04.88-1.75,1.96-1.72,3.42.03,1.67.06,3.34,0,5-.08,1.78.77,3.04,2.09,4.06,2.46,1.88,5.32,2.88,8.26,3.68,6.06,1.65,12.25,2.16,19.9,2.24Z"/>
        <path class="cls-3" d="m62.51,23.72c0,.32,0,.55,0,.79,0,3.7-.08,7.41.03,11.11.06,2.03-.84,3.41-2.36,4.52-2.31,1.69-4.95,2.64-7.67,3.41-3.66,1.03-7.38,1.64-11.16,1.92-1.66.12-3.32.21-4.97.29-1.47.07-2.94.17-4.4.12-5.72-.2-11.41-.69-16.95-2.21-2.84-.78-5.6-1.77-8.03-3.51-1.57-1.13-2.44-2.53-2.38-4.57.1-3.92.03-7.85.03-11.83.18.06.32.08.43.14,3.29,2.05,6.93,3.19,10.67,4.01,2.52.55,5.09.92,7.64,1.31,1.2.18,2.43.29,3.65.32,3.45.08,6.91.24,10.36.12,3.02-.1,6.03-.5,9.03-.84,3.46-.39,6.85-1.14,10.1-2.37,1.91-.72,3.73-1.7,5.59-2.56.11-.05.21-.09.41-.17Zm-5.18,11.64c.64.02,1.19-.49,1.21-1.12.02-.67-.52-1.23-1.18-1.23-.63,0-1.16.53-1.17,1.17-.01.63.5,1.16,1.15,1.18Z"/>
        <path class="cls-3" d="m4.63,44.73c.5.28.89.5,1.29.72,3.59,1.94,7.46,3.11,11.44,3.82,3.02.54,6.08.95,9.14,1.18,3.41.25,6.86.39,10.27.28,6.93-.22,13.79-1.04,20.35-3.47,1.8-.67,3.52-1.56,5.34-2.38,0,.17.03.42.03.67,0,3.75-.06,7.51.03,11.26.04,1.88-.8,3.19-2.19,4.24-2.55,1.94-5.5,3.01-8.57,3.68-3.07.67-6.18,1.18-9.29,1.64-4.38.65-8.8.56-13.2.41-4.54-.16-9.05-.75-13.46-1.88-2.88-.74-5.69-1.66-8.21-3.28-1.88-1.2-3.1-2.69-3.01-5.14.14-3.63.04-7.26.04-10.89v-.85Zm52.76,11.83c.64-.01,1.16-.55,1.15-1.18,0-.64-.53-1.16-1.17-1.17-.66-.01-1.2.56-1.18,1.23.02.63.56,1.14,1.21,1.12Z"/>
        <path class="cls-3" d="m34.87,24.89c-7.65-.08-13.85-.59-19.9-2.24-2.94-.8-5.8-1.81-8.26-3.68-1.33-1.01-2.17-2.27-2.09-4.06.07-1.67.04-3.34,0-5-.03-1.46.68-2.53,1.72-3.42,2.25-1.91,4.95-2.97,7.75-3.71,2.33-.62,4.69-1.17,7.07-1.58,2.02-.35,4.07-.51,6.11-.63,2.73-.16,5.48-.35,8.21-.27,6.71.2,13.36.88,19.74,3.17,2.04.73,3.99,1.65,5.64,3.08,1.01.88,1.66,1.98,1.64,3.39-.02,1.69-.05,3.39,0,5.08.05,1.63-.7,2.81-1.9,3.78-2.6,2.1-5.69,3.12-8.85,3.95-3.21.85-6.48,1.43-9.8,1.66-2.83.2-5.66.38-7.09.47Zm22.47-11.02c-.63,0-1.16.53-1.17,1.17-.01.63.5,1.16,1.15,1.18.67.02,1.22-.53,1.21-1.19-.02-.64-.55-1.16-1.18-1.16Z"/>
        <path class="cls-6" d="m57.32,35.36c-.65-.02-1.16-.55-1.15-1.18.01-.64.54-1.17,1.17-1.17.67,0,1.21.56,1.18,1.23-.02.63-.57,1.14-1.21,1.12Z"/>
        <path class="cls-6" d="m57.38,56.56c-.65.01-1.19-.49-1.21-1.12-.02-.67.53-1.24,1.18-1.23.64,0,1.16.53,1.17,1.17,0,.63-.51,1.17-1.15,1.18Z"/>
        <path class="cls-6" d="m57.35,13.86c.64,0,1.17.52,1.18,1.16.02.66-.54,1.21-1.21,1.19-.65-.02-1.16-.55-1.15-1.18.01-.64.54-1.17,1.17-1.17Z"/>
      </g>
    </g>
  </g>
</svg>