<?xml version="1.0" encoding="UTF-8"?>
<svg id="Layer_2" data-name="Layer 2" xmlns="http://www.w3.org/2000/svg" viewBox="0 0 67.13 67.13">
  <defs>
    <style>
      .cls-1 {
        fill: #8f93be;
      }

      .cls-2 {
        fill: #aeb2d5;
      }

      .cls-3 {
        fill: #6c6fa3;
      }

      .cls-4 {
        fill: #fefeff;
      }

      .cls-5 {
        fill: #9599c3;
      }

      .cls-6 {
        fill: #50548f;
      }

      .cls-7 {
        fill: #585c95;
      }

      .cls-8 {
        fill: #989cc4;
      }

      .cls-9 {
        fill: #494d8a;
      }

      .cls-10 {
        fill: none;
      }

      .cls-11 {
        fill: #6a6ea3;
      }

      .cls-12 {
        fill: #777bb3;
      }

      .cls-13 {
        fill: #8488b6;
      }

      .cls-14 {
        fill: #61659c;
      }

      .cls-15 {
        fill: #a0a4cb;
      }

      .cls-16 {
        fill: #a7abd0;
      }

      .cls-17 {
        fill: #8d91bc;
      }

      .cls-18 {
        fill: #fefefe;
      }
    </style>
  </defs>
  <g id="Layer_3" data-name="Layer 3">
    <g>
      <rect class="cls-10" width="67.13" height="67.13"/>
      <g>
        <path class="cls-12" d="m42.15,16.49c.46.07.93.13,1.39.2.25.04.5.09.75.13-.01.05-.04.1-.03.14.05.27.1.53.15.8.06.32.12.4.37.45.57.12,1.15.25,1.72.37.2.04.4.08.6.12.04.02.09.04.13.05.34.08.68.16,1.01.25.25.06.49.12.74.19.41.13.83.25,1.24.38.16.05.32.09.49.14.54.19,1.08.38,1.62.56.24.09.48.18.72.27,1.11.43,2.21.91,3.27,1.45,1.23.62,2.43,1.31,3.54,2.13.62.46,1.23.95,1.82,1.45.38.32.71.69,1.06,1.05.47.48.88,1,1.26,1.55.5.72.91,1.49,1.22,2.31.33.86.52,1.76.57,2.68.03.58,0,1.15-.1,1.73-.14.86-.4,1.68-.77,2.47-.54,1.16-1.28,2.19-2.15,3.12-.42.44-.86.87-1.32,1.27-.61.51-1.24,1.01-1.89,1.47-1.04.74-2.15,1.38-3.3,1.95-.65.32-1.31.62-1.98.91-1.11.48-2.24.89-3.39,1.27-1.24.4-2.5.76-3.78,1.05-1.01.23-2.02.44-3.03.63-.94.17-1.88.29-2.82.41-.6.08-1.21.15-1.81.21-.56.06-1.12.1-1.69.14-.47.03-.95.06-1.42.08-.48.02-.96.02-1.44.03-.04,0-.09,0-.13,0-.15,0-.29.02-.44.02-.69,0-1.37-.01-2.06-.02-.49,0-.99-.02-1.48-.03-.21,0-.42-.01-.63-.03-.53-.03-1.06-.07-1.59-.11-.24-.02-.48-.03-.72-.06-.45-.04-.91-.09-1.36-.13-.11-.02-.23-.04-.34-.05-.46-.06-.92-.12-1.38-.19-.49-.07-.99-.14-1.48-.23-.61-.11-1.21-.21-1.81-.34-.85-.18-1.7-.37-2.55-.58-.59-.14-1.16-.32-1.74-.49-1.15-.33-2.27-.73-3.38-1.15-1.28-.49-2.5-1.1-3.74-1.67-.69-.32-1.36-.7-2.04-1.07-.84-.45-1.63-.97-2.4-1.52-1.05-.75-2.05-1.58-2.96-2.51-.42-.42-.82-.85-1.23-1.28-.06-.06-.1-.15-.2-.08-.31-.55-.55-1.12-.76-1.72-.27-.78-.44-1.59-.48-2.42-.02-.48,0-.96,0-1.45.04.03.09.05.12.09.28.46.55.93.83,1.4.09.16.2.3.32.48.02-.07.04-.1.04-.14,0-.16-.02-.33-.02-.49,0-.43,0-.86.03-1.29.02-.31.06-.61.12-.91.09-.42.22-.83.33-1.24.22-.64.52-1.24.86-1.82.07-.12.13-.24.2-.36.01-.01.03-.02.04-.03.29-.38.57-.77.86-1.15.1-.13.19-.25.29-.38.28-.29.57-.58.85-.86.13-.13.26-.27.39-.4.16-.14.33-.27.49-.41.23-.2.47-.39.7-.59.02,0,.04-.02.06-.03.33-.24.66-.5,1-.73,1.04-.73,2.14-1.36,3.28-1.94,1.2-.61,2.43-1.15,3.7-1.6.99-.35,1.97-.69,2.97-.99,1.05-.31,2.11-.56,3.17-.81.81-.19,1.64-.35,2.46-.49.87-.15,1.75-.27,2.63-.38.69-.09,1.38-.17,2.08-.24.57-.06,1.14-.1,1.71-.14.53-.03,1.06-.06,1.58-.08.54-.02,1.08-.02,1.62-.03.37,0,.75,0,1.12,0,.87.02,1.75.04,2.62.06.08,0,.17.02.25.03.55.03,1.11.06,1.66.08.06,0,.11.02.17.03.17.01.34.02.51.03.37.03.74.07,1.1.1.36.04.72.09,1.09.13.33.04.66.07,1,.11.13.02.17-.01.16-.14-.01-.12-.04-.24-.07-.35-.06-.27-.12-.54-.18-.81Zm-15.27,18.89s0,.06,0,.08c-.2,1.03-.4,2.06-.6,3.09-.1.51.23.92.75.92,1.25,0,2.51,0,3.76,0,.38,0,.67-.24.74-.6.24-1.25.49-2.49.73-3.74.37-1.9.74-3.8,1.1-5.69.02-.09.05-.11.13-.11.85,0,1.71,0,2.56,0,.31,0,.62.06.92.13.28.06.34.15.33.44,0,.28-.02.57-.07.84-.15.86-.33,1.71-.49,2.56-.34,1.73-.67,3.47-1.01,5.2-.11.55.21.95.77.95,1.21,0,2.41,0,3.62,0,.19,0,.39-.04.58-.06,0,0,0,.04,0,.08-.25,1.26-.49,2.52-.74,3.78-.09.48.22.9.7.9,1.29,0,2.59,0,3.89,0,.36,0,.63-.24.7-.59.26-1.32.52-2.65.77-3.98.02-.11.07-.13.17-.13,1.32-.01,2.63,0,3.95-.06.6-.02,1.2-.13,1.78-.26,1.43-.31,2.63-1.03,3.67-2.04.88-.86,1.56-1.84,2-2.99.3-.78.49-1.59.58-2.43.08-.77.09-1.54-.07-2.31-.4-1.88-1.54-3.14-3.32-3.84-.98-.38-2-.52-3.04-.53-2.54-.01-5.07,0-7.61,0-.39,0-.68.25-.75.64-.17.85-.33,1.71-.49,2.56-.03.17-.07.34-.11.51-.07-.62-.22-1.2-.55-1.72-.47-.76-1.18-1.22-2-1.51-1.02-.36-2.08-.46-3.14-.48-.9-.02-1.8,0-2.7,0-.05,0-.1,0-.17,0,.07-.38.14-.73.21-1.08.18-.9.34-1.81.53-2.71.09-.43-.21-.93-.78-.92-1.23.02-2.46,0-3.7,0-.45,0-.71.22-.79.67-.17.9-.35,1.8-.52,2.69-.28,1.46-.57,2.92-.85,4.39-.05.24-.09.48-.14.71-.05.24-.09.47-.15.73-.01-.05-.02-.07-.02-.09,0-.03-.01-.05-.02-.08-.32-1.45-1.1-2.57-2.37-3.34-1.07-.64-2.25-.9-3.48-.96-.58-.03-1.17-.03-1.75-.03-2.11,0-4.22,0-6.33,0-.4,0-.69.23-.77.6-.1.51-.2,1.03-.3,1.55-.33,1.7-.66,3.39-.99,5.09-.26,1.36-.53,2.72-.79,4.08-.29,1.51-.59,3.01-.88,4.52-.16.81-.31,1.63-.48,2.44-.08.39.2.88.74.88,1.27,0,2.54,0,3.8,0,.4,0,.67-.23.75-.62.2-1.03.4-2.05.6-3.08.06-.33.13-.67.2-1,.07,0,.13,0,.19,0,1.41-.02,2.82.06,4.23-.08.72-.07,1.43-.19,2.12-.42,1.56-.52,2.79-1.49,3.81-2.76.21-.26.39-.54.6-.83Z"/>
        <path class="cls-9" d="m34.79,49.89s.09,0,.13,0c.48,0,.96-.01,1.44-.03.47-.02.95-.05,1.42-.08.56-.04,1.12-.08,1.69-.14.6-.06,1.21-.13,1.81-.21.94-.13,1.89-.25,2.82-.41,1.02-.18,2.03-.4,3.03-.63,1.28-.29,2.53-.64,3.78-1.05,1.15-.37,2.28-.78,3.39-1.27.67-.29,1.33-.59,1.98-.91,1.15-.57,2.26-1.2,3.3-1.95.65-.46,1.28-.96,1.89-1.47.47-.39.9-.82,1.32-1.27.87-.93,1.61-1.96,2.15-3.12.37-.79.63-1.61.77-2.47.09-.57.13-1.15.1-1.73-.05-.92-.24-1.82-.57-2.68-.31-.82-.72-1.59-1.22-2.31-.38-.55-.79-1.07-1.26-1.55-.35-.36-.68-.73-1.06-1.05-.59-.5-1.19-.99-1.82-1.45-1.11-.82-2.31-1.5-3.54-2.13-1.07-.54-2.16-1.02-3.27-1.45-.24-.09-.48-.18-.72-.27,0-.07-.02-.14-.03-.21-.03-.32-.06-.64-.08-.97,0-.06.04-.12.06-.17.19.07.38.13.57.2.64.25,1.28.49,1.91.76,2.15.92,4.2,2.02,6.08,3.41,1.66,1.22,3.15,2.62,4.32,4.33.9,1.32,1.54,2.75,1.81,4.33.13.74.17,1.49.12,2.25-.17,2.3-1.1,4.3-2.51,6.09-1.24,1.58-2.74,2.88-4.4,4.01-2.02,1.38-4.2,2.47-6.47,3.37-2.42.96-4.92,1.7-7.47,2.23-1.23.26-2.47.47-3.71.67-.73.12-1.46.2-2.19.28-.57.06-1.15.11-1.72.16-.38.03-.77.06-1.15.08-.35.02-.7.04-1.06.05-.95.03-1.89.05-2.84.07-.45,0-.9-.01-1.35-.02.03-.03.06-.06.09-.08.75-.35,1.49-.7,2.24-1.06.08-.04.14-.12.21-.18Z"/>
        <path class="cls-2" d="m33.84,17.22c-.37,0-.75,0-1.12,0-.54,0-1.08.01-1.62.03-.53.02-1.06.05-1.58.08-.57.04-1.14.08-1.71.14-.69.07-1.39.15-2.08.24-.88.12-1.75.24-2.63.38-.82.14-1.65.3-2.46.49-1.06.25-2.13.51-3.17.81-1,.29-1.99.64-2.97.99-1.27.45-2.5.99-3.7,1.6-1.14.57-2.23,1.21-3.28,1.94-.34.24-.66.49-1,.73-.02.01-.04.02-.06.03-.02-.03-.05-.07-.05-.1-.05-.32-.09-.63-.14-.95-.01-.09-.05-.18-.08-.27.42-.29.83-.6,1.26-.88.83-.55,1.7-1.04,2.59-1.5,1.98-1.03,4.05-1.85,6.17-2.53,1.82-.58,3.66-1.05,5.53-1.41.91-.17,1.81-.33,2.72-.48.58-.09,1.17-.16,1.76-.23.56-.07,1.12-.13,1.68-.18.39-.04.78-.06,1.17-.09.73-.04,1.45-.08,2.18-.11.18,0,.37-.02.55-.02.56,0,1.11-.02,1.67-.02-.07.09-.05.19,0,.29.06.13.12.26.17.39.08.21.14.42.21.63Z"/>
        <path class="cls-11" d="m1.25,38.37c.11-.07.14.02.2.08.41.43.81.86,1.23,1.28.91.92,1.9,1.75,2.96,2.51.77.55,1.57,1.07,2.4,1.52.67.37,1.34.74,2.04,1.07,1.24.58,2.46,1.19,3.74,1.67,1.11.42,2.23.83,3.38,1.15.58.17,1.16.34,1.74.49.85.21,1.69.4,2.55.58.6.13,1.21.24,1.81.34.49.09.99.15,1.48.23.46.07.92.12,1.38.19.11.02.23.04.34.05-.02.02-.04.05-.06.05-.24.05-.47.1-.71.14-.54.09-1.09.19-1.64.27-.44.07-.89.1-1.34.16-.09.01-.17.05-.25.08-.45-.09-.9-.16-1.35-.26-1.68-.35-3.35-.78-4.98-1.3-1.48-.47-2.93-1.01-4.34-1.65-1.7-.76-3.35-1.63-4.88-2.7-.7-.48-1.37-1-2.02-1.55-.55-.46-1.07-.96-1.56-1.48-.83-.87-1.54-1.84-2.12-2.91,0,0,0-.02,0-.03Z"/>
        <path class="cls-7" d="m22.51,50.23c.08-.03.17-.07.25-.08.45-.06.9-.1,1.34-.16.55-.08,1.09-.18,1.64-.27.24-.04.47-.09.71-.14.02,0,.04-.03.06-.05.45.04.91.09,1.36.13.24.02.48.04.72.06.53.04,1.06.07,1.59.11.21.01.42.02.63.03.49.01.99.02,1.48.03.69.01,1.37.02,2.06.02.15,0,.29-.01.44-.02-.07.06-.13.14-.21.18-.74.36-1.49.7-2.24,1.06-.04.02-.06.05-.09.08-.49,0-.99,0-1.48-.02-.48-.02-.95-.04-1.43-.08-.56-.04-1.11-.1-1.67-.15-.27-.02-.55-.04-.82-.07-.52-.06-1.04-.13-1.56-.2-.48-.06-.96-.13-1.43-.2-.45-.07-.9-.16-1.35-.24Z"/>
        <path class="cls-13" d="m1.79,30.68c-.11.41-.24.82-.33,1.24-.07.3-.1.61-.12.91-.03.43-.02.86-.03,1.29,0,.16.01.33.02.49,0,.04-.02.07-.04.14-.12-.17-.23-.32-.32-.48-.28-.46-.55-.93-.83-1.4-.02-.04-.08-.06-.12-.09.09-.53.15-1.06.27-1.59.16-.69.4-1.35.72-1.98.03.03.07.05.08.09.18.42.36.84.54,1.26.03.07.07.12.16.11Z"/>
        <path class="cls-3" d="m47.11,18.71c-.2-.04-.4-.07-.6-.12-.57-.12-1.15-.25-1.72-.37-.25-.05-.31-.13-.37-.45-.05-.27-.1-.53-.15-.8,0-.05.02-.1.03-.14.88.18,1.75.35,2.63.53,0,.06,0,.12,0,.17.06.39.12.78.18,1.17Z"/>
        <path class="cls-15" d="m33.84,17.22c-.07-.21-.14-.42-.21-.63-.05-.13-.11-.26-.17-.39-.05-.1-.07-.19,0-.29.85.02,1.71.03,2.56.05.14.44.29.88.43,1.32-.87-.02-1.75-.04-2.62-.06Z"/>
        <path class="cls-1" d="m1.79,30.68c-.09.02-.13-.03-.16-.11-.18-.42-.35-.84-.54-1.26-.02-.03-.05-.06-.08-.09.19-.36.37-.73.58-1.07.22-.36.48-.7.72-1.05.03.03.06.06.07.1.05.15.08.3.14.45.1.29.21.57.32.86-.07.12-.13.24-.2.36-.34.58-.64,1.18-.86,1.82Z"/>
        <path class="cls-13" d="m42.15,16.49c.06.27.12.54.18.81.02.12.05.24.07.35.01.13-.03.15-.16.14-.33-.04-.66-.08-1-.11-.36-.04-.72-.09-1.09-.13,0-.05,0-.1-.02-.15-.1-.39-.2-.79-.3-1.18.56.06,1.12.12,1.68.18.21.02.43.06.64.09Z"/>
        <path class="cls-5" d="m36.46,17.28c-.14-.44-.29-.88-.43-1.32.66.04,1.31.07,1.97.11.04.14.09.28.13.42.08.3.17.6.25.9-.55-.03-1.11-.05-1.66-.08-.08,0-.17-.02-.25-.03Z"/>
        <path class="cls-14" d="m47.11,18.71c-.06-.39-.12-.78-.18-1.17,0-.06,0-.12,0-.17.64.16,1.28.32,1.92.48,0,.04,0,.09,0,.13.05.4.1.81.16,1.21-.25-.06-.49-.13-.74-.19-.34-.08-.68-.16-1.01-.25-.05-.01-.09-.03-.13-.05Z"/>
        <path class="cls-8" d="m2.84,28.5c-.11-.29-.22-.57-.32-.86-.05-.15-.09-.3-.14-.45-.01-.04-.05-.07-.07-.1.34-.41.68-.82,1.02-1.23.08-.1.18-.19.27-.28.02.04.06.07.07.11.08.29.14.59.22.88.03.12.09.24.13.36-.1.13-.19.25-.29.38-.29.38-.57.77-.86,1.15-.01.01-.03.02-.04.03Z"/>
        <path class="cls-17" d="m38.37,17.38c-.08-.3-.16-.6-.25-.9-.04-.14-.09-.28-.13-.42.43.03.86.06,1.29.09.18.01.36.04.54.06.1.39.2.79.3,1.18.01.05.01.1.02.15-.37-.03-.74-.07-1.1-.1-.17-.01-.34-.02-.51-.03-.06,0-.11-.02-.17-.03Z"/>
        <path class="cls-7" d="m49,19.19c-.05-.4-.11-.81-.16-1.21,0-.04,0-.09,0-.13.5.14,1,.28,1.5.42.09.03.19.06.28.09,0,.05,0,.1,0,.15.04.4.07.8.11,1.19-.16-.05-.33-.09-.49-.14-.41-.12-.83-.25-1.24-.38Z"/>
        <path class="cls-15" d="m4.03,26.93c-.05-.12-.1-.23-.13-.36-.08-.29-.15-.59-.22-.88-.01-.04-.05-.08-.07-.11.29-.29.58-.58.88-.86.16-.15.32-.28.49-.42.02.08.04.15.06.23.08.38.16.75.24,1.13-.13.13-.26.27-.39.4-.28.29-.57.58-.85.86Z"/>
        <path class="cls-6" d="m50.73,19.71c-.04-.4-.08-.79-.11-1.19,0-.05,0-.1,0-.15.56.19,1.12.37,1.68.56-.02.06-.06.12-.06.17.02.32.05.64.08.97,0,.07.02.14.03.21-.54-.19-1.08-.38-1.62-.56Z"/>
        <path class="cls-16" d="m5.27,25.67c-.08-.38-.16-.75-.24-1.13-.02-.08-.04-.15-.06-.23.35-.28.7-.57,1.05-.85.05-.04.11-.08.16-.11.03.09.07.18.08.27.05.32.09.63.14.95,0,.04.04.07.05.1-.23.2-.47.39-.7.59-.16.14-.33.27-.49.41Z"/>
        <path class="cls-18" d="m26.88,35.38c-.2.28-.39.56-.6.83-1.01,1.27-2.24,2.25-3.81,2.76-.69.23-1.4.35-2.12.42-1.41.14-2.82.06-4.23.08-.06,0-.12,0-.19,0-.07.34-.13.67-.2,1-.2,1.03-.4,2.05-.6,3.08-.08.39-.35.62-.75.62-1.27,0-2.54,0-3.8,0-.53,0-.82-.49-.74-.88.17-.81.32-1.63.48-2.44.29-1.51.59-3.01.88-4.52.26-1.36.53-2.72.79-4.08.33-1.7.66-3.39.99-5.09.1-.52.2-1.03.3-1.55.07-.37.37-.6.77-.6,2.11,0,4.22,0,6.33,0,.58,0,1.17,0,1.75.03,1.23.06,2.41.31,3.48.96,1.27.77,2.05,1.89,2.37,3.34,0,.03.01.05.02.08,0,.02.01.04.02.09.05-.26.1-.5.15-.73.05-.24.09-.48.14-.71.28-1.46.57-2.92.85-4.39.17-.9.35-1.8.52-2.69.08-.44.34-.67.79-.67,1.23,0,2.46.01,3.7,0,.57,0,.87.49.78.92-.19.9-.36,1.8-.53,2.71-.07.35-.14.7-.21,1.08.06,0,.11,0,.17,0,.9,0,1.8-.01,2.7,0,1.07.02,2.13.12,3.14.48.83.29,1.53.75,2,1.51.33.53.48,1.11.55,1.72.04-.17.07-.34.11-.51.17-.85.33-1.71.49-2.56.08-.39.36-.64.75-.64,2.54,0,5.07,0,7.61,0,1.04,0,2.06.15,3.04.53,1.78.69,2.92,1.95,3.32,3.84.16.76.16,1.53.07,2.31-.09.83-.28,1.64-.58,2.43-.45,1.14-1.13,2.13-2,2.99-1.04,1.02-2.24,1.74-3.67,2.04-.59.13-1.19.23-1.78.26-1.32.05-2.63.05-3.95.06-.1,0-.15.02-.17.13-.25,1.33-.51,2.65-.77,3.98-.07.35-.34.59-.7.59-1.29,0-2.59,0-3.89,0-.48,0-.79-.42-.7-.9.24-1.26.49-2.52.74-3.78,0-.04,0-.08,0-.08-.2.02-.39.06-.58.06-1.21,0-2.41,0-3.62,0-.57,0-.88-.4-.77-.95.34-1.73.67-3.47,1.01-5.2.17-.85.34-1.71.49-2.56.05-.28.06-.56.07-.84,0-.29-.05-.38-.33-.44-.3-.07-.61-.12-.92-.13-.85-.02-1.71,0-2.56,0-.08,0-.12.02-.13.11-.37,1.9-.74,3.8-1.1,5.69-.24,1.25-.48,2.49-.73,3.74-.07.36-.36.6-.74.6-1.25,0-2.51,0-3.76,0-.52,0-.85-.41-.75-.92.2-1.03.4-2.06.6-3.09,0-.02,0-.05,0-.08Zm-12.86-9.63c-.02.06-.05.11-.06.17-.09.46-.17.93-.26,1.39-.09.48-.19.96-.28,1.44-.07.38-.14.76-.22,1.14-.1.49-.2.98-.29,1.47-.09.44-.16.88-.25,1.33-.09.48-.2.96-.29,1.43-.08.42-.15.84-.23,1.26-.11.55-.22,1.1-.33,1.66-.08.42-.15.83-.23,1.25-.05.28-.12.55-.17.83-.08.41-.16.82-.24,1.23-.05.28-.11.56-.17.84-.08.41-.16.83-.24,1.24-.06.34-.12.67-.19,1.02h3.85c.31-1.57.61-3.13.91-4.69.32,0,.62,0,.91,0,1.2-.02,2.39.05,3.59-.05.35-.03.7-.07,1.05-.11.55-.06,1.09-.19,1.61-.39,1.73-.67,3-1.88,3.91-3.47.41-.72.69-1.5.81-2.32.07-.48.15-.96.18-1.44.02-.31-.03-.63-.05-.95-.03-.49-.15-.95-.34-1.4-.53-1.23-1.48-2-2.72-2.44-.6-.21-1.22-.32-1.85-.38-.39-.04-.78-.05-1.16-.05-2.37,0-4.73,0-7.1,0h-.15Zm30.49,17.69c.31-1.58.61-3.13.91-4.7.64,0,1.27,0,1.89,0,.73,0,1.46-.01,2.19-.03.35,0,.69-.04,1.03-.08.43-.06.86-.11,1.28-.21,1.16-.26,2.16-.84,3.03-1.63,1.14-1.04,1.93-2.29,2.33-3.78.09-.34.14-.69.2-1.03.05-.3.09-.6.11-.9.01-.29,0-.59-.03-.88-.03-.33-.07-.66-.16-.98-.24-.93-.75-1.69-1.51-2.28-.81-.63-1.76-.93-2.76-1.07-.43-.06-.87-.1-1.3-.1-2.5-.01-5.01,0-7.51,0-.04,0-.07,0-.11,0-.04.19-.07.37-.1.55-.1.49-.2.98-.3,1.48-.08.42-.15.84-.23,1.26-.07.38-.15.76-.22,1.14-.09.46-.18.92-.27,1.38-.07.36-.15.72-.22,1.09-.09.44-.16.89-.25,1.33-.08.43-.18.87-.26,1.3-.12.6-.23,1.21-.34,1.81-.1.5-.21,1-.3,1.5-.12.62-.23,1.23-.35,1.85-.09.48-.18.95-.28,1.43-.07.34-.15.69-.21,1.03-.04.18-.06.36-.09.55h3.84Zm-11.74-14.81c1.14,0,2.24,0,3.35,0,.41,0,.81.05,1.2.19.38.13.61.4.68.79.07.36.04.72-.02,1.08-.07.41-.17.82-.25,1.24-.08.41-.16.83-.23,1.24-.09.48-.18.97-.28,1.45-.08.4-.15.79-.23,1.19-.06.29-.12.57-.17.86-.09.45-.17.9-.26,1.36-.05.24-.09.48-.13.72h3.88c.05-.25.09-.48.13-.72.07-.35.14-.69.21-1.04.06-.3.11-.6.17-.9.09-.47.19-.94.28-1.41.07-.36.13-.73.2-1.09.09-.49.19-.98.29-1.47.09-.48.19-.96.27-1.44.07-.45.14-.91.18-1.36.02-.24-.03-.48-.05-.72-.02-.31-.11-.61-.23-.89-.24-.54-.64-.94-1.15-1.22-.66-.36-1.38-.52-2.11-.61-.48-.06-.97-.09-1.45-.1-1.19-.02-2.37,0-3.56,0-.05,0-.1,0-.16,0,.31-1.57.61-3.13.91-4.7h-3.83c-1.15,5.89-2.29,11.79-3.44,17.68.02.01.03.01.03.01,1.24,0,2.47,0,3.71,0,.03,0,.09-.05.1-.09.06-.28.11-.55.17-.83.09-.5.18-1,.28-1.49.08-.43.18-.86.26-1.29.1-.54.2-1.08.3-1.62.09-.45.18-.9.27-1.34.08-.43.16-.87.24-1.3.1-.49.2-.99.3-1.48.05-.23.09-.45.13-.66Z"/>
        <path d="m14.01,25.75h.15c2.37,0,4.73,0,7.1,0,.39,0,.78.01,1.16.05.63.06,1.26.16,1.85.38,1.24.44,2.18,1.21,2.72,2.44.19.45.31.91.34,1.4.02.32.07.63.05.95-.03.48-.11.96-.18,1.44-.12.82-.4,1.6-.81,2.32-.91,1.59-2.17,2.8-3.91,3.47-.52.2-1.06.33-1.61.39-.35.04-.7.08-1.05.11-1.2.11-2.39.03-3.59.05-.3,0-.59,0-.91,0-.3,1.56-.61,3.13-.91,4.69h-3.85c.06-.35.12-.68.19-1.02.08-.41.16-.83.24-1.24.05-.28.11-.56.17-.84.08-.41.16-.82.24-1.23.05-.28.12-.55.17-.83.08-.42.15-.83.23-1.25.11-.55.22-1.1.33-1.66.08-.42.15-.84.23-1.26.09-.48.2-.96.29-1.43.09-.44.16-.88.25-1.33.1-.49.2-.98.29-1.47.07-.38.15-.76.22-1.14.09-.48.19-.96.28-1.44.09-.46.17-.93.26-1.39.01-.06.04-.11.06-.17Zm1.86,10.2s.07,0,.09,0c.74,0,1.47,0,2.21,0,.54,0,1.08-.02,1.61-.12.45-.08.89-.2,1.3-.4.43-.21.81-.49,1.12-.87.43-.53.7-1.15.87-1.8.07-.26.14-.52.18-.79.04-.24.07-.49.09-.74.01-.18,0-.36,0-.54,0-.31-.07-.61-.19-.89-.23-.55-.69-.84-1.22-1.01-.56-.18-1.14-.23-1.72-.24-.91-.01-1.83,0-2.74,0-.05,0-.11,0-.17,0-.48,2.47-.96,4.93-1.44,7.4Z"/>
        <path d="m44.51,43.44h-3.84c.03-.19.05-.37.09-.55.07-.34.14-.69.21-1.03.09-.48.19-.95.28-1.43.12-.62.23-1.23.35-1.85.1-.5.21-1,.3-1.5.12-.6.23-1.21.34-1.81.08-.43.18-.87.26-1.3.09-.44.16-.89.25-1.33.07-.36.15-.72.22-1.09.09-.46.18-.92.27-1.38.07-.38.15-.76.22-1.14.08-.42.15-.84.23-1.26.1-.49.2-.98.3-1.48.04-.18.07-.36.1-.55.04,0,.08,0,.11,0,2.5,0,5.01,0,7.51,0,.43,0,.87.04,1.3.1,1,.14,1.94.44,2.76,1.07.76.59,1.27,1.35,1.51,2.28.08.32.12.65.16.98.03.29.04.59.03.88-.01.3-.06.6-.11.9-.05.35-.11.69-.2,1.03-.4,1.49-1.19,2.74-2.33,3.78-.88.8-1.87,1.37-3.03,1.63-.42.1-.85.15-1.28.21-.34.04-.69.07-1.03.08-.73.02-1.46.02-2.19.03-.62,0-1.25,0-1.89,0-.3,1.56-.61,3.12-.91,4.7Zm1.46-7.51s.03.02.04.02c1.01-.01,2.02-.03,3.03-.04.46,0,.91-.08,1.36-.19.74-.19,1.39-.52,1.89-1.12.43-.52.7-1.13.88-1.77.14-.5.22-1.01.28-1.54.04-.41.01-.81-.08-1.2-.15-.64-.57-1.03-1.17-1.25-.6-.23-1.24-.28-1.87-.29-.95-.02-1.9,0-2.84,0-.03,0-.05,0-.07,0-.48,2.47-.96,4.92-1.43,7.38Z"/>
        <path d="m32.76,28.63c-.04.21-.09.44-.13.66-.1.49-.2.99-.3,1.48-.08.43-.16.86-.24,1.3-.09.45-.18.9-.27,1.34-.1.54-.2,1.08-.3,1.62-.08.43-.18.86-.26,1.29-.1.5-.18,1-.28,1.49-.05.28-.1.55-.17.83,0,.04-.07.09-.1.09-1.24,0-2.47,0-3.71,0,0,0,0,0-.03-.01,1.14-5.89,2.29-11.78,3.44-17.68h3.83c-.3,1.56-.61,3.12-.91,4.7.06,0,.11,0,.16,0,1.19,0,2.37,0,3.56,0,.48,0,.97.04,1.45.1.73.09,1.45.25,2.11.61.51.28.91.68,1.15,1.22.12.28.21.58.23.89.02.24.07.48.05.72-.04.46-.1.91-.18,1.36-.08.48-.18.96-.27,1.44-.09.49-.2.98-.29,1.47-.07.36-.13.73-.2,1.09-.09.47-.19.94-.28,1.41-.06.3-.11.6-.17.9-.07.35-.14.69-.21,1.04-.05.24-.09.47-.13.72h-3.88c.04-.24.08-.48.13-.72.09-.45.17-.9.26-1.36.06-.29.12-.57.17-.86.08-.4.16-.79.23-1.19.09-.48.19-.97.28-1.45.08-.41.15-.83.23-1.24.08-.41.17-.82.25-1.24.06-.36.08-.72.02-1.08-.07-.39-.3-.66-.68-.79-.39-.14-.79-.19-1.2-.19-1.11,0-2.22,0-3.35,0Z"/>
        <path class="cls-4" d="m15.87,35.95c.48-2.47.96-4.93,1.44-7.4.06,0,.12,0,.17,0,.91,0,1.83,0,2.74,0,.58,0,1.16.06,1.72.24.54.18,1,.46,1.22,1.01.12.29.19.58.19.89,0,.18.01.36,0,.54-.02.25-.04.49-.09.74-.05.26-.12.53-.18.79-.17.66-.44,1.27-.87,1.8-.31.38-.68.66-1.12.87-.41.2-.85.32-1.3.4-.53.1-1.07.12-1.61.12-.74,0-1.47,0-2.21,0-.03,0-.05,0-.09,0Zm.89-.73c.55,0,1.07,0,1.59,0,.58,0,1.16-.05,1.73-.19.73-.18,1.37-.52,1.76-1.19.6-1.02.85-2.13.77-3.3-.03-.48-.28-.82-.75-.99-.46-.17-.93-.24-1.41-.25-.81-.02-1.63,0-2.44-.01-.07,0-.1.03-.11.1-.19.99-.39,1.99-.59,2.98-.15.74-.29,1.49-.43,2.23-.04.2-.08.41-.12.63Z"/>
        <path class="cls-18" d="m45.97,35.93c.48-2.46.95-4.91,1.43-7.38.02,0,.04,0,.07,0,.95,0,1.9-.01,2.84,0,.63.01,1.27.07,1.87.29.6.22,1.02.61,1.17,1.25.09.39.12.79.08,1.2-.05.52-.13,1.03-.28,1.54-.18.64-.45,1.25-.88,1.77-.5.6-1.15.93-1.89,1.12-.45.11-.9.19-1.36.19-1.01.01-2.02.02-3.03.04,0,0,0,0-.04-.02Zm.89-.72c.07,0,.11,0,.15,0,.5,0,1.01,0,1.51,0,.52,0,1.04-.05,1.55-.17.77-.17,1.44-.51,1.86-1.22.59-.98.83-2.05.78-3.18-.03-.7-.3-.99-.97-1.18-.47-.14-.96-.19-1.45-.19-.72,0-1.44,0-2.16,0-.04,0-.08,0-.12,0-.38,1.98-.77,3.95-1.15,5.93Z"/>
        <path class="cls-12" d="m16.76,35.22c.04-.22.08-.43.12-.63.14-.74.28-1.49.43-2.23.19-.99.39-1.99.59-2.98.01-.07.04-.1.11-.1.81,0,1.63,0,2.44.01.48.01.95.08,1.41.25.47.17.72.51.75.99.08,1.18-.17,2.29-.77,3.3-.4.67-1.03,1.01-1.76,1.19-.57.14-1.14.2-1.73.19-.52,0-1.04,0-1.59,0Z"/>
        <path class="cls-12" d="m46.85,35.21c.39-1.98.77-3.95,1.15-5.93.05,0,.09,0,.12,0,.72,0,1.44,0,2.16,0,.49,0,.98.05,1.45.19.67.2.95.49.97,1.18.05,1.13-.19,2.21-.78,3.18-.42.7-1.09,1.04-1.86,1.22-.51.12-1.03.17-1.55.17-.5,0-1.01,0-1.51,0-.04,0-.09,0-.15,0Z"/>
      </g>
    </g>
  </g>
</svg>