<?xml version="1.0" encoding="UTF-8"?>
<svg id="Layer_2" data-name="Layer 2" xmlns="http://www.w3.org/2000/svg" viewBox="0 0 67.13 67.13">
  <defs>
    <style>
      .cls-1 {
        fill: #fd8458;
      }

      .cls-2 {
        fill: #fefdfd;
      }

      .cls-3 {
        fill: #ff6b37;
      }

      .cls-4 {
        fill: #fd8a60;
      }

      .cls-5 {
        fill: #fe6a33;
      }

      .cls-6 {
        fill: #fe8456;
      }

      .cls-7 {
        fill: none;
      }

      .cls-8 {
        fill: #fe8a60;
      }

      .cls-9 {
        fill: #fefaf9;
      }

      .cls-10 {
        fill: #fefefd;
      }

      .cls-11 {
        fill: #ff6234;
      }

      .cls-12 {
        fill: #fefefe;
      }

      .cls-13 {
        fill: #fc814c;
      }
    </style>
  </defs>
  <g id="Layer_3" data-name="Layer 3">
    <g>
      <rect class="cls-7" x="0" width="67.13" height="67.13"/>
      <g>
        <path class="cls-11" d="m66.93,32.39c-.03-.31-.01-.64-.01-.97,0-.24.01-.48.01-.72-.08-.76-.12-1.52-.25-2.28-.26-1.41-.51-2.82-.9-4.2-1.1-3.91-2.9-7.49-5.34-10.72-.63-.84-1.33-1.63-2.01-2.44-.12-.05-.27-.07-.37-.16-.6-.59-1.2-1.18-1.78-1.78-.13-.13-.18-.33-.26-.48-1.2-1.11-2.49-2.1-3.84-3-2.67-1.77-5.52-3.14-8.57-4.08-.89-.28-1.81-.51-2.72-.72-.83-.2-1.67-.35-2.5-.49-.37-.06-.75-.08-1.12-.13-.36,0-.71,0-1.07-.01-.27.01-.55.01-.83.01-.17,0-.33,0-.49.01-.16,0-.24-.06-.24-.22h-2.18c.01.17-.08.22-.24.22-.22-.01-.44-.01-.66-.01h-.88c-.26,0-.52.01-.79.01-.4.05-.8.12-1.2.17-1.8.23-3.55.65-5.28,1.2-2.36.76-4.61,1.76-6.74,3.01-2.76,1.61-5.25,3.58-7.44,5.9-2.89,3.03-5.1,6.5-6.69,10.37-.79,1.93-1.41,3.92-1.8,5.97-.2,1.06-.36,2.13-.48,3.2-.09.73-.14,1.47-.18,2.2-.03.51-.07,1.03-.06,1.53.03.82.09,1.64.17,2.47.06.78.14,1.55.23,2.34.05.45.12.91.23,1.36.36,1.41.7,2.82,1.14,4.21.94,2.95,2.34,5.69,4.08,8.25,1.86,2.72,4.05,5.13,6.61,7.2,3.47,2.8,7.35,4.84,11.63,6.09,1.12.33,2.27.6,3.41.84.79.17,1.59.25,2.38.35,1.68.2,3.36.22,5.04.17,1.47-.05,2.93-.21,4.38-.46,2.64-.48,5.19-1.23,7.64-2.3,2.18-.96,4.26-2.13,6.19-3.54.06-.05.12-.09.17-.15.15-.1.29-.21.44-.31.05-.42.44-.72.85-.67.44-.37.89-.75,1.33-1.12-.06-.15-.03-.26.13-.35.2-.1.4-.21.6-.33.6-.61,1.21-1.22,1.81-1.84.65-.78,1.32-1.53,1.93-2.34,2.44-3.23,4.22-6.79,5.33-10.68.32-1.1.54-2.24.78-3.36.14-.65.23-1.32.33-1.98.05-.39.05-.78.07-1.17,0-.31.01-.63.01-.94,0-.21,0-.41-.01-.61.03-.19-.16-.47.21-.51v-1.8c-.07-.07-.2-.14-.2-.22Zm-14.54-18.09c.05.05.13.1.18.18.63.86.98,1.81.99,2.9.01,1.61-.62,2.86-1.81,3.88-.17.15-.26.15-.43-.02-.96-.97-1.92-1.92-2.89-2.89-.01-.02-.02-.04-.03-.05,1.32-1.33,2.65-2.66,3.99-4Zm-3.38,47.86s-.01-.01-.02-.01c.01-.01.01-.02.01-.02.01,0,.02,0,.02.01s0,.02-.01.02Zm-21.15-31.03c2.5-2.47,5.01-4.91,7.71-7.18,1.51-1.27,3.07-2.48,4.87-3.34,1.09-.52,2.14-.4,3.15.3-.1.03-.22.06-.33.09-.44.14-.8.39-1.12.71-3.96,3.94-7.92,7.87-11.87,11.81-.13.13-.24.25-.38.39-.69-.69-1.36-1.36-2.05-2.05q-.37-.37.02-.75Zm3.13,5.36s.06.1.09.18c-.93.12-1.85.23-2.75.34-.02-.04-.04-.07-.06-.12.15-.13.3-.25.45-.4.33-.32.65-.64.96-.97.11-.1.19-.15.3-.03.34.34.67.66,1.01,1Zm-7-1.51c.84-.84,1.69-1.68,2.53-2.52.18-.18.28-.2.47-.01.5.54,1.04,1.04,1.57,1.55.06.06.16.08.24.14-.02.04-.05.08-.08.13-1.66.36-3.32.72-5.07,1.1.15-.18.23-.28.34-.39Zm-5.26,17.33c-1.8-.12-3.59-.22-5.42-.34.68-.7,1.32-1.35,1.97-2.01q.51-.52,1.05-.02c.76.71,1.52,1.43,2.29,2.13.05.05.08.1.14.16-.01.03-.02.05-.03.07Zm14.94-12.59c-1.92,1.55-3.91,3.02-5.97,4.38-2.45,1.61-4.99,3.06-7.62,4.34-.54.26-.67.55-.54,1.12.17.72.34,1.44.5,2.16.02.11-.01.22-.02.34-.09-.05-.22-.08-.3-.16-.9-.9-1.81-1.83-2.71-2.74-.15-.14-.28-.27-.5-.49.49-.46.98-.89,1.44-1.35,2.82-2.87,5.65-5.72,8.45-8.6.27-.28.59-.35.93-.4,1.42-.22,2.85-.44,4.26-.67.27-.04.47.02.67.22.46.49.93.97,1.43,1.43.2.19.17.27-.02.43Zm11.81-13.71c-.54,1.48-1.39,2.78-2.34,4.01-2.3,2.96-4.93,5.61-7.67,8.15-.21.2-.43.41-.59.56-.69-.67-1.36-1.32-2.06-1.98,4.23-3.72,8.45-7.41,12.67-11.12.02.01.05.02.07.03-.03.13-.04.24-.08.36Zm-.4-1.46c-1.17,1.02-2.33,2.04-3.5,3.06-1.69,1.47-3.38,2.94-5.06,4.41-1.49,1.29-2.97,2.58-4.45,3.87-.02.02-.06.04-.11.07-.07-.05-.15-.12-.21-.18-.34-.34-.68-.69-1.03-1.02-.14-.14-.16-.22-.01-.37,2.06-2.02,4.1-4.04,6.15-6.07,1.96-1.95,3.94-3.88,5.89-5.86.5-.51,1.09-.69,1.74-.5,1.18.34,1.42,1.85.58,2.58Zm-1.25-6.25c-.48-2.5,1.15-5.04,3.63-5.64,1.43-.34,2.75-.07,3.99.72.19.13.16.21.01.36-1.35,1.34-2.7,2.7-4.04,4.05-.08.08-.19.16-.22.25-.03.15-.05.31,0,.44.05.14.18.23.28.34.98.98,1.94,1.94,2.92,2.91.04.05.08.11.18.22-.39.1-.72.23-1.08.28-2.73.47-5.17-1.32-5.67-3.94Z"/>
        <path class="cls-4" d="m67.13,31.55v1.06c-.07-.07-.2-.14-.2-.22-.03-.31-.01-.64-.01-.97.07.04.15.08.21.13Z"/>
        <path class="cls-8" d="m32.44,0c.01.17-.08.22-.24.22-.22-.01-.44-.01-.66-.01.01-.07.01-.15.01-.21h.89Z"/>
        <path class="cls-1" d="m35.36,0v.21c-.17,0-.33,0-.49.01-.16,0-.24-.06-.24-.22h.73Z"/>
        <path class="cls-6" d="m67.13,34.41v.39c-.06.04-.14.08-.21.13.03-.19-.16-.47.21-.51Z"/>
        <path class="cls-12" d="m33.66,39.73c-1.92,1.55-3.91,3.02-5.97,4.38-2.45,1.61-4.99,3.06-7.62,4.34-.54.26-.67.55-.54,1.12.17.72.34,1.44.5,2.16.02.11-.01.22-.02.34-.09-.05-.22-.08-.3-.16-.9-.9-1.81-1.83-2.71-2.74-.15-.14-.28-.27-.5-.49.49-.46.98-.89,1.44-1.35,2.82-2.87,5.65-5.72,8.45-8.6.27-.28.59-.35.93-.4,1.42-.22,2.85-.44,4.26-.67.27-.04.47.02.67.22.46.49.93.97,1.43,1.43.2.19.17.27-.02.43Z"/>
        <path class="cls-10" d="m43.58,20.92c-.1.03-.22.06-.33.09-.44.14-.8.39-1.12.71-3.96,3.94-7.92,7.87-11.87,11.81-.13.13-.24.25-.38.39-.69-.69-1.36-1.36-2.05-2.05q-.37-.37.02-.75c2.5-2.47,5.01-4.91,7.71-7.18,1.51-1.27,3.07-2.48,4.87-3.34,1.09-.52,2.14-.4,3.15.3Z"/>
        <path class="cls-10" d="m45.07,24.56c-1.17,1.02-2.33,2.04-3.5,3.06-1.69,1.47-3.38,2.94-5.06,4.41-1.49,1.29-2.97,2.58-4.45,3.87-.02.02-.06.04-.11.07-.07-.05-.15-.12-.21-.18-.34-.34-.68-.69-1.03-1.02-.14-.14-.16-.22-.01-.37,2.06-2.02,4.1-4.04,6.15-6.07,1.96-1.95,3.94-3.88,5.89-5.86.5-.51,1.09-.69,1.74-.5,1.18.34,1.42,1.85.58,2.58Z"/>
        <path class="cls-12" d="m47.19,18.06c-.03.15-.05.31,0,.44.05.14.18.23.28.34.98.98,1.94,1.94,2.92,2.91.04.05.08.11.18.22-.39.1-.72.23-1.08.28-2.73.47-5.17-1.32-5.67-3.94-.48-2.5,1.15-5.04,3.63-5.64,1.43-.34,2.75-.07,3.99.72.19.13.16.21.01.36-1.35,1.34-2.7,2.7-4.04,4.05-.08.08-.19.16-.22.25Z"/>
        <path class="cls-2" d="m45.55,25.66c-.03.13-.04.24-.08.36-.54,1.48-1.39,2.78-2.34,4.01-2.3,2.96-4.93,5.61-7.67,8.15-.21.2-.43.41-.59.56-.69-.67-1.36-1.32-2.06-1.98,4.23-3.72,8.45-7.41,12.67-11.12.02.01.05.02.07.03Z"/>
        <path class="cls-2" d="m52.57,14.48c-.05-.07-.13-.13-.18-.18-1.34,1.34-2.67,2.67-3.99,4,.01.01.02.03.03.05.97.97,1.93,1.92,2.89,2.89.17.17.26.17.43.02,1.19-1.03,1.82-2.28,1.81-3.88-.01-1.09-.36-2.04-.99-2.9Zm-.77,4.54c-.22,0-.3-.28-.14-.54.17-.26.3-.54.25-.86-.02-.16-.05-.33-.12-.47-.1-.24.01-.38.18-.48.2-.12.41-.07.5.14.12.26.19.55.28.82-.05.43-.19.79-.39,1.13-.14.22-.36.26-.58.26Z"/>
        <path class="cls-10" d="m18.75,52.25s-.02.05-.03.07c-1.8-.12-3.59-.22-5.42-.34.68-.7,1.32-1.35,1.97-2.01q.51-.52,1.05-.02c.76.71,1.52,1.43,2.29,2.13.05.05.08.1.14.16Z"/>
        <path class="cls-2" d="m28.8,34.15s-.05.08-.08.13c-1.66.36-3.32.72-5.07,1.1.15-.18.23-.28.34-.39.84-.84,1.69-1.68,2.53-2.52.18-.18.28-.2.47-.01.5.54,1.04,1.04,1.57,1.55.06.06.16.08.24.14Z"/>
        <path class="cls-9" d="m31.08,36.68c-.93.12-1.85.23-2.75.34-.02-.04-.04-.07-.06-.12.15-.13.3-.25.45-.4.33-.32.65-.64.96-.97.11-.1.19-.15.3-.03.34.34.67.66,1.01,1,.04.04.06.1.09.18Z"/>
        <path class="cls-13" d="m58.43,11.07c-.12-.05-.27-.07-.37-.16-.6-.59-1.2-1.18-1.78-1.78-.13-.13-.18-.33-.26-.48.81.81,1.62,1.62,2.41,2.43Z"/>
        <path class="cls-3" d="m54.61,59.64c-.28.23-.57.45-.85.67.05-.42.44-.72.85-.67Z"/>
        <path class="cls-3" d="m56.67,57.84c-.24.23-.48.45-.72.67-.06-.15-.03-.26.13-.35.2-.1.4-.21.6-.33Z"/>
        <path class="cls-3" d="m49.02,62.15s0,.02-.01.02c0,0-.01-.01-.02-.01.01-.01.01-.02.01-.02.01,0,.02,0,.02.01Z"/>
        <path class="cls-5" d="m52.77,17.63c-.05.42-.18.78-.39,1.12-.14.22-.35.26-.57.26-.22,0-.3-.28-.14-.53.17-.27.31-.54.26-.86-.03-.16-.05-.33-.12-.48-.11-.24,0-.38.19-.48.2-.12.4-.07.5.14.12.26.19.55.28.83Z"/>
      </g>
    </g>
  </g>
</svg>