<?xml version="1.0" encoding="UTF-8"?>
<svg id="Layer_2" data-name="Layer 2" xmlns="http://www.w3.org/2000/svg" viewBox="0 0 67.13 67.13">
  <defs>
    <style>
      .cls-1 {
        fill: none;
      }

      .cls-2 {
        fill: #56a0d7;
      }

      .cls-3 {
        fill: #082035;
      }

      .cls-4 {
        fill: #082036;
      }
    </style>
  </defs>
  <g id="Layer_3" data-name="Layer 3">
    <g>
      <rect class="cls-1" width="67.13" height="67.13"/>
      <g id="Layer_1-2" data-name="Layer 1-2">
        <g>
          <path class="cls-3" d="m56.17,66.29H10.85c-.24-.1-.5-.08-.75-.12-2.54-.42-4.75-1.5-6.58-3.32-1.74-1.72-2.84-3.79-3.31-6.19-.08-.4-.08-.82-.21-1.22V11.75c.1-.26.08-.54.12-.81.42-2.53,1.48-4.73,3.29-6.54C5.7,2.1,8.47.89,11.71.85c3.66-.04,7.33,0,10.99,0h32.41c1.05,0,2.08.11,3.09.37,5.3,1.39,8.92,6.06,8.92,11.54,0,13.88,0,27.76,0,41.64,0,.89-.1,1.77-.29,2.63-1.02,4.67-4.93,8.36-9.62,9.11-.35.06-.71.05-1.06.16h0ZM15.11,32.35v14.29c0,.38.08.46.45.46h5.06c.48,0,.56-.09.56-.57,0-2.84,0-5.67,0-8.5,0-.24.06-.29.29-.29,1,.01,1.99.07,2.99.04,1.72-.05,3.42-.22,5.05-.75,2.7-.87,4.76-2.51,5.91-5.15.89-2.05,1.03-4.21.63-6.4-.31-1.7-1.01-3.22-2.19-4.5-1.2-1.31-2.67-2.17-4.34-2.73-1.79-.6-3.63-.75-5.5-.76-2.84-.01-5.68.14-8.53.16-.33,0-.4.08-.4.45v14.26h0Zm24.13,11.15c0,.77,0,1.55,0,2.32,0,.32.13.54.42.65.39.16.77.33,1.17.45,1.83.57,3.71.78,5.61.76,1.43-.01,2.84-.18,4.2-.64,1.68-.57,3.06-1.53,3.98-3.07.68-1.14.94-2.39.89-3.72-.05-1.41-.51-2.65-1.46-3.7-.87-.97-2-1.56-3.13-2.15-1.11-.59-2.33-.93-3.46-1.46-.65-.3-1.32-.57-1.85-1.07-.36-.35-.55-.75-.43-1.25.13-.53.48-.83,1-.98.88-.25,1.78-.25,2.68-.17,1.66.15,3.27.47,4.77,1.22.43.22.75.1.74-.45-.02-1.39,0-2.78,0-4.17,0-.11-.02-.22-.03-.33-.01-.24-.15-.37-.36-.45-.55-.22-1.12-.4-1.7-.51-1.38-.27-2.77-.37-4.17-.37s-2.72.11-4.01.6c-2.87,1.08-4.63,3.04-4.79,6.2-.1,2.02.72,3.66,2.23,4.95,1.11.94,2.4,1.59,3.73,2.14.95.39,1.93.72,2.85,1.2.38.2.74.43,1.02.77.42.5.41,1.13-.03,1.62-.25.29-.59.42-.95.5-1.03.26-2.07.23-3.11.12-1.88-.19-3.66-.7-5.31-1.63-.39-.22-.51-.15-.52.29,0,.77,0,1.55,0,2.32h0Z"/>
          <path class="cls-2" d="m15.11,32.35v-14.26c0-.37.06-.45.4-.45,2.84-.03,5.68-.17,8.53-.16,1.87,0,3.71.16,5.5.76,1.67.56,3.15,1.42,4.34,2.73,1.17,1.28,1.88,2.81,2.19,4.5.39,2.19.26,4.35-.63,6.4-1.15,2.63-3.21,4.28-5.91,5.15-1.64.53-3.34.71-5.05.75-1,.03-2-.03-2.99-.04-.23,0-.29.06-.29.29,0,2.83,0,5.67,0,8.5,0,.48-.09.57-.56.57h-5.06c-.38,0-.45-.08-.45-.46v-14.29h0Zm8.25-9.32c-.64,0-1.28,0-1.92,0-.19,0-.23.07-.23.24,0,2.98,0,5.96,0,8.94,0,.19.06.22.23.23.75.07,1.49.04,2.23.04,1.2.01,2.38-.16,3.5-.57,1.27-.45,2.27-1.23,2.73-2.56.14-.39.19-.79.23-1.2.11-1.18-.08-2.28-.78-3.26-.65-.91-1.59-1.36-2.64-1.65-1.1-.3-2.23-.29-3.35-.23h0Z"/>
          <path class="cls-2" d="m39.23,43.51v-2.32c0-.44.13-.51.52-.29,1.65.93,3.43,1.44,5.31,1.63,1.04.11,2.08.14,3.11-.12.35-.09.69-.22.95-.5.44-.49.45-1.13.03-1.62-.28-.33-.64-.57-1.02-.77-.92-.47-1.89-.8-2.85-1.2-1.34-.55-2.63-1.2-3.73-2.14-1.51-1.29-2.34-2.93-2.23-4.95.16-3.17,1.92-5.13,4.79-6.2,1.29-.48,2.65-.59,4.01-.6,1.4,0,2.79.1,4.17.37.58.11,1.15.29,1.7.51.21.08.34.22.36.45,0,.11.03.22.03.33,0,1.39-.01,2.78,0,4.17,0,.55-.32.67-.74.45-1.51-.76-3.12-1.07-4.77-1.22-.9-.08-1.8-.08-2.68.17-.52.14-.88.45-1,.98-.12.5.07.9.43,1.25.53.51,1.2.77,1.85,1.07,1.13.53,2.35.87,3.46,1.46,1.13.6,2.26,1.18,3.13,2.15.95,1.06,1.41,2.3,1.46,3.7.05,1.32-.21,2.57-.89,3.72-.92,1.54-2.3,2.5-3.98,3.07-1.36.46-2.77.63-4.2.64-1.91.02-3.79-.19-5.61-.76-.4-.12-.78-.29-1.17-.45-.29-.12-.42-.33-.42-.65,0-.77,0-1.55,0-2.32h0Z"/>
          <path class="cls-4" d="m23.35,23.04c1.13-.06,2.25-.07,3.35.23,1.05.28,1.99.74,2.64,1.65.7.98.89,2.08.78,3.26-.04.41-.09.81-.23,1.2-.46,1.33-1.46,2.1-2.73,2.56-1.13.4-2.3.58-3.5.57-.75,0-1.49.03-2.23-.04-.17-.02-.24-.04-.23-.23,0-2.98,0-5.96,0-8.94,0-.18.04-.24.23-.24.64,0,1.28,0,1.92,0h0Z"/>
        </g>
      </g>
    </g>
  </g>
</svg>