<?xml version="1.0" encoding="UTF-8"?>
<svg id="Layer_2" data-name="Layer 2" xmlns="http://www.w3.org/2000/svg" viewBox="0 0 67.13 67.13">
  <defs>
    <style>
      .cls-1 {
        fill: #61dafb;
      }

      .cls-2 {
        fill: #62dafb;
      }

      .cls-3 {
        fill: none;
      }
    </style>
  </defs>
  <g id="Layer_3" data-name="Layer 3">
    <g>
      <rect class="cls-3" width="67.13" height="67.13"/>
      <g>
        <path class="cls-2" d="m21.46,63.42h-2.51c-.13-.04-.26-.09-.39-.12-.57-.13-1.11-.33-1.62-.61-1.35-.74-2.29-1.85-2.94-3.23-.65-1.39-.95-2.86-1.07-4.38-.09-1.03-.09-2.06-.02-3.1.08-1.22.19-2.43.42-3.63.21-1.07.44-2.14.66-3.21.02-.1.04-.21.07-.33-.12-.04-.21-.07-.3-.1-1.74-.51-3.45-1.1-5.11-1.84-1.65-.73-3.23-1.59-4.67-2.68-1.25-.95-2.36-2.05-3.12-3.45-.97-1.79-1.13-3.64-.39-5.55.55-1.43,1.5-2.56,2.63-3.57,1.17-1.04,2.48-1.87,3.86-2.59,2.15-1.12,4.42-1.95,6.74-2.63.11-.03.22-.07.35-.11-.01-.09-.02-.16-.03-.22-.34-1.37-.62-2.75-.82-4.15-.17-1.17-.28-2.35-.32-3.53-.03-.93,0-1.87.1-2.8.14-1.27.4-2.51.91-3.69.45-1.04,1.06-1.96,1.92-2.7.93-.8,2-1.28,3.21-1.49.8,0,1.6,0,2.39,0,.71.11,1.4.28,2.08.5,1.85.62,3.52,1.57,5.11,2.68,1.66,1.15,3.2,2.46,4.66,3.86.1.09.2.18.31.27.08-.07.13-.11.18-.15.5-.46.99-.93,1.49-1.37,1.65-1.46,3.39-2.79,5.32-3.88,1.61-.91,3.3-1.62,5.15-1.91.8,0,1.6,0,2.4,0,.89.15,1.73.44,2.5.94,1.14.73,1.94,1.75,2.52,2.96.74,1.55,1.04,3.21,1.11,4.91.05,1.02.01,2.05-.04,3.07-.04.83-.15,1.66-.26,2.49-.18,1.32-.46,2.62-.78,3.92-.02.09-.03.19-.05.31.12.04.22.07.33.1,1.26.37,2.51.78,3.73,1.26,2.02.8,3.97,1.75,5.74,3.03,1.24.9,2.34,1.94,3.16,3.25.64,1.02,1.03,2.13,1.08,3.34.05,1.21-.25,2.35-.82,3.41-.66,1.23-1.59,2.23-2.66,3.11-1.29,1.06-2.72,1.9-4.22,2.63-1.9.92-3.88,1.64-5.91,2.23-.14.04-.28.09-.43.15.02.12.04.22.06.31.12.54.27,1.08.37,1.63.19,1.05.38,2.11.53,3.17.1.66.16,1.32.18,1.99.07,1.57.06,3.14-.22,4.7-.22,1.21-.57,2.38-1.19,3.45-.98,1.71-2.41,2.83-4.35,3.26-.1.02-.21.06-.31.09h-2.51c-.06-.02-.13-.05-.19-.07-.46-.11-.93-.2-1.39-.34-1.74-.51-3.33-1.36-4.84-2.35-1.91-1.24-3.65-2.7-5.29-4.27-.11-.11-.23-.22-.35-.33-.06.05-.11.09-.15.13-.49.45-.97.91-1.47,1.35-1.75,1.55-3.6,2.96-5.65,4.08-1.44.79-2.94,1.41-4.56,1.7-.1.02-.19.05-.28.08Zm8.3-43.49c.64-.02,1.29-.06,1.93-.07,1.91-.04,3.81,0,5.72.07h.02s0-.02,0-.02c-.21-.28-.4-.57-.62-.84-.99-1.19-1.99-2.38-3-3.56-.07-.09-.16-.16-.25-.24-.08.07-.13.12-.18.17-.72.84-1.45,1.66-2.16,2.51-.53.63-1.02,1.3-1.52,1.95.02.01.04.02.06.03Zm7.58,27.26c-.43.02-.85.04-1.28.04-2.1.03-4.2.04-6.3-.05-.08.03-.07.08,0,.12,1.2,1.56,2.45,3.09,3.86,4.6.06-.1.09-.18.14-.24.51-.58,1.03-1.15,1.53-1.75.71-.86,1.39-1.74,2.08-2.61.02-.04.04-.07.06-.11-.03,0-.05-.01-.08-.02Zm6.12-23.78c.32.52.64,1.03.95,1.55.94,1.54,1.83,3.1,2.66,4.7.07.13.14.25.22.39.36-.48,2.09-5.22,2.08-5.65-.56-.21-3.29-.69-5.81-1.02-.03.01-.07.02-.1.03Zm-9.86-.67c-1.22.03-2.46.05-3.71.09-.7.02-1.39.08-2.08.12-.23.01-.4.09-.54.3-2.15,3.2-4.07,6.53-5.77,9.99-.11.22-.11.39,0,.61,1.03,2.09,2.12,4.15,3.33,6.13.8,1.32,1.65,2.6,2.47,3.91.11.17.23.24.43.25.5.02.99.08,1.49.09,1.67.04,3.34.08,5.01.09,1.7.01,3.4-.06,5.1-.18.23-.02.38-.08.51-.28,2.17-3.22,4.11-6.58,5.81-10.07.09-.18.09-.32,0-.5-.77-1.46-1.51-2.93-2.31-4.38-1.07-1.95-2.26-3.84-3.5-5.69-.13-.19-.28-.26-.49-.28-.69-.04-1.37-.09-2.06-.12-1.22-.04-2.45-.06-3.69-.1Zm-16.71-1.17c.11-.02.18-.03.25-.05,1.02-.2,2.05-.42,3.07-.6,1.78-.31,3.58-.53,5.38-.71.19-.02.3-.08.41-.24,1.56-2.19,3.22-4.3,5.03-6.29.16-.18.31-.36.48-.55-.08-.09-.15-.16-.22-.23-.32-.3-.64-.6-.96-.9-1.37-1.24-2.81-2.38-4.37-3.37-1.09-.69-2.22-1.28-3.45-1.68-.94-.31-1.9-.51-2.9-.39-.91.11-1.67.5-2.26,1.2-.43.51-.73,1.09-.95,1.71-.4,1.12-.55,2.28-.6,3.46-.05,1.09,0,2.19.12,3.28.05.52.09,1.05.18,1.56.15.84.33,1.68.5,2.51.09.42.19.83.3,1.27Zm.01,23.97c-.04.13-.07.21-.09.3-.37,1.57-.69,3.14-.87,4.74-.13,1.19-.2,2.38-.16,3.57.01.4,0,.8.06,1.19.07.5.18,1,.3,1.49.22.88.55,1.7,1.12,2.42.59.75,1.39,1.17,2.31,1.29.76.1,1.52,0,2.27-.21,1.17-.31,2.27-.8,3.31-1.4,2.29-1.31,4.31-3,6.21-4.82.05-.04.08-.11.12-.16-.06-.07-.1-.12-.14-.17-1.08-1.17-2.11-2.38-3.09-3.64-.77-.99-1.51-2-2.26-3.01-.13-.17-.26-.25-.47-.25-.23,0-.45-.03-.68-.06-.93-.11-1.85-.21-2.78-.35-1.43-.23-2.86-.49-4.29-.75-.29-.05-.58-.12-.9-.18Zm35.36-20.4c-.04.12-.08.21-.11.31-.84,2.65-1.86,5.23-3.01,7.76-.11.25-.12.45,0,.7,1.16,2.54,2.19,5.14,3.03,7.81.03.09.07.18.1.27.11-.03.19-.04.26-.06,1.82-.53,3.6-1.15,5.31-1.96,1.54-.72,3-1.56,4.28-2.7.72-.64,1.34-1.36,1.74-2.25.38-.85.44-1.72.13-2.61-.25-.71-.66-1.31-1.16-1.86-.88-.97-1.92-1.72-3.04-2.38-2.29-1.34-4.76-2.25-7.3-2.99-.06-.02-.13-.02-.23-.04Zm-2.06-3.57c.03-.1.06-.18.08-.25.57-2.33.98-4.69,1.04-7.09.03-1.18-.03-2.34-.26-3.5-.18-.9-.47-1.77-.98-2.54-.46-.69-1.07-1.2-1.87-1.45-.83-.26-1.67-.22-2.51-.05-1.3.26-2.5.79-3.65,1.44-2.32,1.31-4.35,3-6.27,4.83-.06.05-.1.12-.16.19.08.09.14.18.21.26,1.2,1.3,2.34,2.66,3.42,4.06.64.83,1.25,1.67,1.87,2.51.1.14.2.23.38.23.21,0,.42.03.62.06,1.23.16,2.46.3,3.69.48.84.12,1.67.28,2.5.43.62.12,1.24.25,1.9.39Zm0,23.99c-.11.01-.19.01-.28.03-1.4.26-2.79.55-4.19.77-1.39.22-2.8.36-4.2.53-.19.02-.32.07-.42.24-.03.05-.07.1-.1.15-1.54,2.14-3.17,4.21-4.94,6.17-.15.17-.3.34-.45.51.02.04.03.08.04.1.06.07.12.13.19.19,1.16,1.11,2.37,2.16,3.66,3.11,1.39,1.02,2.84,1.94,4.46,2.57,1.02.4,2.06.69,3.16.64,1.07-.04,1.97-.43,2.66-1.27.53-.64.85-1.39,1.08-2.18.36-1.23.46-2.5.45-3.78,0-.92-.07-1.85-.17-2.77-.17-1.59-.48-3.16-.87-4.72-.02-.09-.06-.19-.09-.29ZM14.85,25.13c-.1.02-.2.04-.29.07-1.65.48-3.28,1.04-4.85,1.75-1.5.68-2.94,1.46-4.23,2.49-.81.65-1.54,1.38-2.05,2.31-.61,1.11-.66,2.25-.11,3.4.3.63.72,1.16,1.21,1.66,1.06,1.09,2.32,1.9,3.66,2.6,2.07,1.09,4.25,1.89,6.49,2.53.06.02.11.02.18.03.03-.08.07-.15.09-.23.86-2.71,1.89-5.34,3.07-7.92.09-.19.09-.34,0-.53-1.18-2.58-2.22-5.22-3.07-7.92-.02-.07-.06-.14-.1-.24Zm2.85,17.57c1.87.45,3.74.71,5.6,1.01.11.02.23,0,.4,0-1.4-2.2-2.67-4.41-3.89-6.73-.8,1.9-1.5,3.77-2.11,5.72Zm25.79,1c2-.21,3.96-.54,5.94-.99-.6-1.95-1.3-3.82-2.11-5.72-1.21,2.33-2.49,4.53-3.83,6.72Zm-19.77-20.34c-2.06.26-4.03.59-6.01,1.04.61,1.94,1.3,3.82,2.11,5.72,1.21-2.32,2.49-4.54,3.9-6.76Z"/>
        <path class="cls-1" d="m27.59,33.66c-.08-3.34,2.66-6.03,5.88-6.09,3.16-.05,6.01,2.44,6.08,5.85.07,3.37-2.59,6.04-5.85,6.11-1.65.03-3.09-.53-4.27-1.67-1.18-1.14-1.79-2.55-1.83-4.2Z"/>
      </g>
    </g>
  </g>
</svg>