<?xml version="1.0" encoding="UTF-8"?>
<svg id="Layer_2" data-name="Layer 2" xmlns="http://www.w3.org/2000/svg" viewBox="0 0 67.13 67.13">
  <defs>
    <style>
      .cls-1 {
        fill: none;
      }

      .cls-2 {
        fill: #764bbc;
      }
    </style>
  </defs>
  <g id="Layer_3" data-name="Layer 3">
    <g>
      <rect class="cls-1" width="67.13" height="67.13"/>
      <g>
        <path class="cls-2" d="m67.13,51.4c-.15.63-.31,1.25-.44,1.88-.85,3.98-3.32,6.78-6.62,8.94-2.37,1.55-4.99,2.53-7.79,2.9-1.57.2-3.18.35-4.76.24-2.61-.19-5.16-.78-7.59-1.83-.58-.25-1.17-.49-1.85-.76.78-.63,1.47-1.19,2.17-1.74.35-.28.77-.51,1.05-.85.37-.44.72-.47,1.23-.26,2.06.85,4.21,1.31,6.44,1.51,3.4.3,6.53-.43,9.25-2.48,2.58-1.95,4.27-4.54,4.79-7.8.4-2.5-.12-4.86-1.04-7.16-1.2-2.98-3.01-5.55-5.35-7.74-2.32-2.16-4.97-3.84-7.84-5.19-2.7-1.26-5.51-2.16-8.46-2.64-2.17-.35-4.34-.48-6.53-.49-.33,0-.5.1-.65.4-1.18,2.36-4.7,3.46-7.14,1.41-1.16-.98-1.83-2.23-1.81-3.68.04-2.45,1.88-4.69,4.55-4.75,1.87-.04,3.31.67,4.31,2.26.08.13.33.23.51.23,1.32.06,2.65.03,3.97.14,2.4.21,4.79.55,7.13,1.19,2.68.72,5.29,1.65,7.68,3.06,1.7,1,3.33,2.13,4.91,3.31,2.26,1.7,4.17,3.77,5.83,6.06,1.95,2.68,3.17,5.68,3.78,8.93.08.43.17.87.26,1.3v3.62Z"/>
        <path class="cls-2" d="m50.64,22.65c-1.37-.38-2.68-.75-3.99-1.13-.11-.03-.23-.23-.25-.36-.42-3.5-1.57-6.75-3.5-9.68-1.7-2.57-3.87-4.57-6.98-5.35-2.12-.53-4.2-.3-6.27.26-1.96.53-3.84,1.3-5.34,2.69-1.08,1-2.05,2.15-2.87,3.38-1.55,2.32-2.67,4.87-3.16,7.64-.19,1.07-.39,2.14-.46,3.22-.1,1.47-.14,2.94-.13,4.41,0,2.87.59,5.65,1.45,8.37.69,2.2,1.72,4.23,2.79,6.26.23.43.53.46.91.43,1.85-.14,3.2.68,4.21,2.18,1.07,1.59.78,4.31-.56,5.69-1.03,1.07-2.27,1.68-3.73,1.6-2.46-.13-4.48-2.1-4.58-4.64-.03-.77.04-1.51.41-2.22.09-.17.02-.48-.07-.68-.86-1.87-1.78-3.72-2.6-5.6-.95-2.19-1.53-4.49-1.97-6.83-.47-2.53-.66-5.09-.5-7.65.2-3.14.83-6.2,1.9-9.17,1.31-3.65,3.34-6.83,6.26-9.38,2.41-2.1,5.19-3.6,8.36-4.1,3.34-.53,6.66-.24,9.73,1.37,1.97,1.03,3.68,2.38,5.17,4.07,2.76,3.14,4.34,6.8,5.16,10.84.25,1.22.42,2.46.62,3.69.03.22,0,.45,0,.7Z"/>
        <path class="cls-2" d="m9.95,31.41c.37,1.45.73,2.84,1.07,4.17-1.02,1.01-2.09,1.96-3.05,3.01-2.12,2.35-3.62,5.07-4.14,8.21-.57,3.49.43,6.63,2.52,9.43,1.86,2.5,4.43,3.88,7.47,4.39,1.39.23,2.83.41,4.23.36,2.95-.09,5.8-.75,8.52-1.93,2.91-1.26,5.59-2.9,8.1-4.82,3.23-2.47,5.81-5.5,7.7-9.11.2-.38.06-.58-.15-.87-1.01-1.35-1.36-2.85-.76-4.45.62-1.68,1.85-2.85,3.62-3.12,2.4-.36,4.44.65,5.37,2.99,1.04,2.62-.45,5.72-3.39,6.36-.28.06-.62.28-.74.52-1.32,2.58-2.9,4.97-4.8,7.16-2.06,2.38-4.42,4.39-7.07,6.07-3.41,2.16-7.11,3.56-11.03,4.47-2.39.56-4.78.86-7.23.74-2.21-.11-4.34-.57-6.39-1.39-2.66-1.06-4.97-2.61-6.72-4.92-1.35-1.78-2.13-3.82-2.64-5.99-.43-1.83-.52-3.7-.35-5.55.37-3.96,1.9-7.49,4.37-10.62,1.48-1.88,3.23-3.48,5.11-4.95.11-.08.25-.13.39-.2Z"/>
      </g>
    </g>
  </g>
</svg>