<?xml version="1.0" encoding="UTF-8"?>
<svg id="Layer_2" data-name="Layer 2" xmlns="http://www.w3.org/2000/svg" viewBox="0 0 67.13 67.13">
  <defs>
    <style>
      .cls-1 {
        fill: #8bedce;
      }

      .cls-2 {
        fill: #cbf2de;
      }

      .cls-3 {
        fill: #aceeda;
      }

      .cls-4 {
        fill: #7fe5c9;
      }

      .cls-5 {
        fill: #ecfff3;
      }

      .cls-6 {
        fill: #45e2b6;
      }

      .cls-7 {
        fill: #ebf2ef;
      }

      .cls-8 {
        fill: #c7f2e1;
      }

      .cls-9 {
        fill: #a9f3dd;
      }

      .cls-10 {
        fill: none;
      }

      .cls-11 {
        fill: #3be1b3;
      }

      .cls-12 {
        fill: #bceedc;
      }

      .cls-13 {
        fill: #f0f3f2;
      }

      .cls-14 {
        fill: #2fe1b1;
      }

      .cls-15 {
        fill: #2fe0b1;
      }

      .cls-16 {
        fill: #edfeee;
      }

      .cls-17 {
        fill: #45e3b6;
      }

      .cls-18 {
        fill: #54d7bc;
      }

      .cls-19 {
        fill: #45e3b7;
      }
    </style>
  </defs>
  <g id="Layer_3" data-name="Layer 3">
    <g>
      <rect class="cls-10" width="67.13" height="67.13"/>
      <g>
        <path class="cls-19" d="m37.99,7.29c0,.1,0,.2,0,.29,0,.04,0,.08,0,.11,0,.1,0,.2,0,.3,0,.07,0,.14,0,.21,0,.07,0,.13,0,.2,0,.07,0,.14,0,.21-.17.1-.34.28-.52.29-.45.04-.91,0-1.37,0-.18-.03-.36-.08-.54-.08-4.64,0-9.28,0-13.92,0-.18,0-.36.05-.54.08-3.23.18-6.07,1.29-8.38,3.58-1.4,1.39-2.53,2.98-3.13,4.91-.35,1.14-.65,2.28-.75,3.47-.46.25-.4.7-.4,1.11,0,9.76,0,19.51,0,29.27,0,.48.02.92-.58,1.04-.06.01-.09.13-.14.19-.61.01-1.23.02-1.84.04-1.73,0-3.46,0-5.2,0-.28-.05-.69.1-.65-.44,0-.03,0-.07,0-.1,0-1.82.02-3.64.02-5.46,0-8.96-.02-17.92.03-26.87,0-1.18.29-2.37.54-3.53.72-3.39,2.39-6.3,4.63-8.91C7.86,4.22,11.09,2.21,14.8.98c1.44-.48,2.92-.83,4.46-.84,6-.03,11.99-.07,17.99-.11.1,0,.2-.01.3-.02,0,0,.05,0,.05,0h.05c.4-.02.34.27.34.52,0,2.13-.01,4.25-.02,6.38,0,.08,0,.17.01.25,0,.04,0,.08,0,.11Z"/>
        <path class="cls-6" d="m67.09,14.95c0,2.71.02,5.43.03,8.14-.03.11-.05.21-.08.32-.14.03-.28.1-.42.1-2.56-.03-5.12-.06-7.67-.09-.19,0-.39.07-.64.11v-8.97c.13,0,.27-.03.42-.03,2.6,0,5.2,0,7.8,0,.19,0,.38.12.57.18,0,.08,0,.15,0,.23Z"/>
        <path class="cls-6" d="m65.51,52.51c-.07,0-.14,0-.21,0-.03,0-.07,0-.1,0-.41,0-.82,0-1.23,0-1.36,0-2.72,0-4.07,0-.07,0-.14,0-.21,0-.07,0-.13,0-.2,0h-1.19c-.02-.17-.04-.3-.04-.43,0-2.66,0-5.32,0-7.98,0-.21-.12-.53.3-.48.1,0,.21,0,.31,0,2.36,0,4.71,0,7.07,0,.22,0,.44.03.66.05.14.02.28.03.42.05.03.07.06.14.09.2,0,2.75,0,5.49,0,8.24-.02.08-.04.15-.06.23-.35.04-.7.07-1.04.11-.17,0-.34,0-.5,0Z"/>
        <path class="cls-6" d="m67.06,37.7c-.04.07-.08.14-.11.21-.04,0-.08.01-.12.02-.09,0-.19,0-.28,0-.04,0-.08,0-.13,0h-8.12v-8.84c2.85,0,5.7,0,8.54,0,.03,0,.07,0,.1.01.05.17.15.33.16.5.02,2.62.02,5.25.03,7.87-.02.07-.04.15-.06.22Z"/>
        <path class="cls-17" d="m22.75,58.22h.75c0,2.87,0,5.71,0,8.55,0,.04,0,.08,0,.12,0,0-.01.02-.01.02-.03.03-.06.06-.09.08-.04.02-.08.03-.12.05-.04,0-.08,0-.12,0-.1,0-.19-.02-.29-.03-.04,0-.08,0-.12,0-2.41,0-4.82,0-7.23,0-.07,0-.15,0-.22,0q-.71.06-.71-.63c0-2.59.01-5.18.02-7.77.36,0,.73,0,1.09,0,2.22,0,4.44,0,6.65,0,.27,0,.42-.11.4-.39Z"/>
        <path class="cls-17" d="m44.49,8.8c-.24,0-.47,0-.71,0-.03-.06-.06-.13-.09-.19,0-.07,0-.13,0-.2,0-.24,0-.48,0-.72,0-2.39,0-4.77,0-7.16,0-.13.04-.27.07-.4.04-.03.08-.06.12-.1l-.02-.04c1.9.01,3.79.03,5.69.03.93,0,1.86-.01,2.8-.02,0,0,.05.02.05.02,0,0,.05,0,.05,0,.04.11.1.22.1.32,0,2.69,0,5.38-.01,8.07-2.46,0-4.92,0-7.39,0-.3,0-.59,0-.66.39Z"/>
        <path class="cls-17" d="m43.7,66.77c0-2.72,0-5.44,0-8.16,2.94,0,5.88,0,8.82,0,0,2.69,0,5.37.02,8.06,0,.4-.21.43-.52.42-2.17-.03-4.35-.06-6.52-.08-.2,0-.41,0-.61.01-.07,0-.15,0-.22,0-.27,0-.54-.01-.82-.02-.04-.03-.07-.07-.11-.1,0,0,0,0,0,0-.02-.04-.03-.08-.05-.12Z"/>
        <path class="cls-17" d="m59.07,67.07h-.79v-8.05c.27-.14.54-.39.81-.39,2.66-.03,5.31-.01,7.97,0v8.34c-.2.02-.36.03-.52.05-.04,0-.08,0-.12,0-2.41,0-4.82,0-7.23,0-.04.02-.08.04-.12.06Z"/>
        <path class="cls-17" d="m37.97,58.62c0,2.17,0,4.34.01,6.52,0,.04,0,.08,0,.11,0,.37,0,.74,0,1.11,0,.04,0,.08,0,.11-.05.18-.09.37-.14.55-.14,0-.28,0-.42,0-.37,0-.74,0-1.11-.01-.04,0-.08,0-.12,0-2,0-4,0-6,0-.14,0-.28,0-.42,0-.1,0-.19,0-.29,0-.04,0-.08,0-.12,0-.06-.12-.18-.25-.19-.37,0-2.65,0-5.29,0-7.94.2-.03.4-.1.6-.1,2.73,0,5.46,0,8.18,0Z"/>
        <path class="cls-6" d="m58.37.02c2.76,0,5.51,0,8.27,0,.07,0,.13,0,.2-.01.06.02.13.04.19.06.03.07.07.13.1.2-.02,2.72-.05,5.43-.07,8.15-.37,0-.73,0-1.1,0-1.98,0-3.97,0-5.95,0-.6,0-1.24.14-1.72-.4,0-2.65,0-5.3,0-7.94.03,0,.06-.02.09-.04Z"/>
        <path class="cls-19" d="m0,58.71s0-.06.01-.1c2.61,0,5.22.01,7.83,0,.48,0,.63.11.63.61-.02,2.59,0,5.19,0,7.78-.19.03-.39.08-.58.08-2.22-.02-4.44-.04-6.67-.07-.14,0-.28,0-.42,0-.21-.01-.42-.02-.63-.03-.03-.04-.06-.07-.09-.11-.01-.04-.02-.08-.04-.11.02-.03.02-.06,0-.1,0-2.55,0-5.11,0-7.66-.02-.1-.05-.21-.07-.31Z"/>
        <path class="cls-11" d="m7.75,52.47c.04-.07.08-.18.14-.19.6-.13.58-.56.58-1.04,0-9.76,0-19.51,0-29.27,0-.41-.06-.86.4-1.11.01.37.02.75.04,1.12,0,.1,0,.21,0,.31,0,.17,0,.34,0,.5,0,.07,0,.14,0,.21,0,.07,0,.13,0,.2,0,.07,0,.14,0,.21,0,.07,0,.13,0,.2,0,.07,0,.14,0,.21,0,.07,0,.13,0,.2,0,.07,0,.14,0,.21,0,.07,0,.13,0,.2,0,.07,0,.14,0,.21,0,.07,0,.13,0,.2,0,.07,0,.14,0,.21,0,.07,0,.13,0,.2,0,.07,0,.14,0,.21,0,.07,0,.13,0,.2,0,.07,0,.14,0,.21,0,.07,0,.13,0,.2,0,.07,0,.14,0,.21,0,.07,0,.13,0,.2,0,.07,0,.14,0,.21,0,.07,0,.13,0,.2,0,.07,0,.14,0,.21,0,.07,0,.13,0,.2,0,.07,0,.14,0,.21,0,.07,0,.13,0,.2,0,.07,0,.14,0,.21,0,.07,0,.13,0,.2,0,.07,0,.14,0,.21,0,.07,0,.13,0,.2,0,.07,0,.14,0,.21,0,.07,0,.13,0,.2,0,.07,0,.14,0,.21,0,.07,0,.13,0,.2,0,.07,0,.14,0,.21,0,.07,0,.13,0,.2,0,.07,0,.14,0,.21,0,.07,0,.13,0,.2,0,.07,0,.14,0,.21,0,.07,0,.13,0,.2,0,.07,0,.14,0,.21,0,.07,0,.13,0,.2,0,.07,0,.14,0,.21,0,.07,0,.13,0,.2,0,.07,0,.14,0,.21,0,.07,0,.13,0,.2,0,.07,0,.14,0,.21,0,.07,0,.13,0,.2,0,.07,0,.14,0,.21,0,.07,0,.13,0,.2,0,.07,0,.14,0,.21,0,.07,0,.13,0,.2,0,.07,0,.14,0,.21,0,.07,0,.13,0,.2,0,.07,0,.14,0,.21,0,.07,0,.13,0,.2,0,.07,0,.14,0,.21,0,.07,0,.13,0,.2,0,.07,0,.14,0,.21,0,.07,0,.13,0,.2,0,.07,0,.14,0,.21,0,.07,0,.13,0,.2,0,.07,0,.14,0,.21,0,.07,0,.13,0,.2,0,.61,0,1.23,0,1.84,0,.07,0,.13,0,.2,0,.04,0,.08,0,.11,0,.1,0,.2,0,.3,0,.07,0,.14,0,.21,0,.07,0,.13,0,.2,0,.07,0,.14,0,.21,0,.07,0,.13,0,.2,0,.07,0,.14,0,.21,0,.07,0,.13,0,.2,0,.07,0,.14,0,.21,0,.07,0,.13,0,.2,0,.07,0,.14,0,.21,0,.07,0,.13,0,.2,0,.07,0,.14,0,.21,0,.07,0,.13,0,.2,0,.07,0,.14,0,.21,0,.07,0,.13,0,.2,0,.07,0,.14,0,.21,0,.07,0,.13,0,.2,0,.07,0,.14,0,.21,0,.07,0,.13,0,.2,0,.07,0,.14,0,.21,0,.07,0,.13,0,.2,0,.07,0,.14,0,.21,0,.07,0,.13,0,.2,0,.07,0,.14,0,.21,0,.07,0,.13,0,.2,0,.07,0,.14,0,.21,0,.07,0,.13,0,.2,0,.07,0,.14,0,.21,0,.07,0,.13,0,.2,0,.07,0,.14,0,.21,0,.07,0,.13,0,.2,0,.07,0,.14,0,.21,0,.07,0,.13,0,.2,0,.07,0,.14,0,.21,0,.07,0,.13,0,.2,0,.07,0,.14,0,.21,0,.07,0,.13,0,.2,0,.07,0,.14,0,.21,0,.07,0,.13,0,.2,0,.07,0,.14,0,.21,0,.07,0,.13,0,.2,0,.07,0,.14,0,.21,0,.07,0,.13,0,.2,0,.07,0,.14,0,.21,0,.07,0,.13,0,.2,0,.07,0,.14,0,.21,0,.07,0,.13,0,.2,0,.07,0,.14,0,.21,0,.07,0,.13,0,.2,0,.07,0,.14,0,.21,0,.07,0,.13,0,.2,0,.07,0,.14,0,.21,0,.07,0,.13,0,.2,0,.07,0,.14,0,.21,0,.07,0,.13,0,.2,0,.07,0,.14,0,.21,0,.07,0,.13,0,.2,0,.07,0,.14,0,.21,0,.07,0,.13,0,.2,0,.89,0,1.77-.01,2.66-.38.03-.76.06-1.14.08Z"/>
        <path class="cls-14" d="m8.47,67c0-2.59-.02-5.19,0-7.78,0-.5-.15-.61-.63-.61-2.61.02-5.22,0-7.83,0,0-.12,0-.23,0-.38h8.84v8.71c-.13.02-.25.04-.38.06Z"/>
        <path class="cls-15" d="m67.06,58.62c-2.66,0-5.31-.02-7.97,0-.27,0-.54.25-.81.39v-.78c.1-.01.2-.03.3-.03,2.67,0,5.33,0,8,0,.16,0,.32.06.48.09,0,.11.02.21.03.32h-.03Z"/>
        <path class="cls-15" d="m58.28,8c.47.55,1.12.4,1.72.4,1.98,0,3.97,0,5.95,0,.37,0,.73,0,1.1,0,0,0,.03,0,.03,0,0,.05.02.09.03.14,0,.05,0,.11.01.16-.03.04-.06.08-.09.11h-8.75v-.8Z"/>
        <path class="cls-15" d="m52.53,58.61c-2.94,0-5.88,0-8.82,0,0-.12-.02-.23-.03-.38h8.85v.38Z"/>
        <path class="cls-15" d="m37.97,58.62c-2.73,0-5.46,0-8.18,0-.2,0-.4.06-.6.1,0-.15,0-.3,0-.51h8.66s.08.05.11.07c.01.04.03.09.04.13,0,.07,0,.14,0,.21h-.04Z"/>
        <path class="cls-14" d="m22.75,58.22c.02.28-.12.39-.4.39-2.22,0-4.44,0-6.65,0-.36,0-.73,0-1.09,0,0-.12,0-.24,0-.39h8.14Z"/>
        <path class="cls-14" d="m44.49,8.8c.07-.39.35-.39.66-.39,2.46,0,4.92,0,7.39,0,0,.12,0,.24,0,.39h-8.04Z"/>
        <path class="cls-18" d="m21.12,8.9c.18-.03.36-.08.54-.08,4.64,0,9.28,0,13.92,0,.18,0,.36.05.54.08-2.94,0-5.88.02-8.82.02-2.06,0-4.11,0-6.17-.01Z"/>
        <path class="cls-7" d="m.72,52.52c1.73,0,3.46,0,5.2,0-.08.03-.15.08-.23.08-1.58,0-3.15,0-4.73,0-.08,0-.16-.05-.24-.07Z"/>
        <path class="cls-13" d="m59.9,52.51c1.36,0,2.72,0,4.07,0-.21.03-.43.08-.64.08-.98,0-1.97,0-2.95,0-.16,0-.33-.05-.49-.07Z"/>
        <path class="cls-2" d="m8.89,52.39c0-.89,0-1.77.01-2.66,0,.89,0,1.77-.01,2.66Z"/>
        <path class="cls-2" d="m8.9,37.29c0-.61,0-1.23,0-1.84,0,.61,0,1.23,0,1.84Z"/>
        <path class="cls-4" d="m43.7,7.69c0,.24,0,.48,0,.72,0-.24,0-.48,0-.72Z"/>
        <path class="cls-13" d="m65.51,52.51c.17,0,.34,0,.5,0-.17,0-.34,0-.5,0Z"/>
        <path class="cls-12" d="m.81,67.02c.14,0,.28,0,.42,0-.14,0-.28,0-.42,0Z"/>
        <path class="cls-1" d="m67.03,43.73c-.14-.02-.28-.03-.42-.05.14-.02.28-.03.42-.05,0,.03,0,.06,0,.1Z"/>
        <path class="cls-12" d="m29.79,67.02c.14,0,.28,0,.42,0-.14,0-.28,0-.42,0Z"/>
        <path class="cls-12" d="m37.45,67.02c.14,0,.28,0,.42,0-.14,0-.28,0-.42,0Z"/>
        <path class="cls-3" d="m67.09,58.62c0-.11-.02-.21-.03-.32,0,.11.02.21.03.32Z"/>
        <path class="cls-16" d="m0,58.71c.02.1.05.21.07.31-.02-.1-.05-.21-.07-.31Z"/>
        <path class="cls-2" d="m8.91,22.29c0-.1,0-.21,0-.31,0,.1,0,.21,0,.31Z"/>
        <path class="cls-3" d="m67.04,23.41c.03-.11.05-.21.08-.32-.03.11-.05.21-.08.32Z"/>
        <path class="cls-3" d="m67.03,43.73s0-.06,0-.1c.03.1.06.2.09.3-.03-.07-.06-.14-.09-.2Z"/>
        <path class="cls-1" d="m58.88,43.63c-.1,0-.21,0-.31,0,.1,0,.21,0,.31,0Z"/>
        <path class="cls-2" d="m8.9,40.15c0-.07,0-.14,0-.21,0,.07,0,.14,0,.21Z"/>
        <path class="cls-4" d="m43.69,8.61c.03.06.06.13.09.19-.03-.06-.06-.13-.09-.19Z"/>
        <path class="cls-2" d="m8.9,28.31c0-.07,0-.14,0-.21,0,.07,0,.14,0,.21Z"/>
        <path class="cls-2" d="m8.9,28.72c0-.07,0-.14,0-.21,0,.07,0,.14,0,.21Z"/>
        <path class="cls-2" d="m8.9,29.12c0-.07,0-.14,0-.21,0,.07,0,.14,0,.21Z"/>
        <path class="cls-12" d="m44.69,67.02c.07,0,.15,0,.22,0-.07,0-.15,0-.22,0Z"/>
        <path class="cls-2" d="m8.9,27.49c0-.07,0-.14,0-.21,0,.07,0,.14,0,.21Z"/>
        <path class="cls-2" d="m8.9,29.53c0-.07,0-.14,0-.21,0,.07,0,.14,0,.21Z"/>
        <path class="cls-2" d="m8.9,29.94c0-.07,0-.14,0-.21,0,.07,0,.14,0,.21Z"/>
        <path class="cls-2" d="m8.9,30.35c0-.07,0-.14,0-.21,0,.07,0,.14,0,.21Z"/>
        <path class="cls-2" d="m8.9,30.76c0-.07,0-.14,0-.21,0,.07,0,.14,0,.21Z"/>
        <path class="cls-2" d="m8.9,31.17c0-.07,0-.14,0-.21,0,.07,0,.14,0,.21Z"/>
        <path class="cls-2" d="m8.9,31.57c0-.07,0-.14,0-.21,0,.07,0,.14,0,.21Z"/>
        <path class="cls-2" d="m8.9,31.98c0-.07,0-.14,0-.21,0,.07,0,.14,0,.21Z"/>
        <path class="cls-2" d="m8.9,32.39c0-.07,0-.14,0-.21,0,.07,0,.14,0,.21Z"/>
        <path class="cls-2" d="m8.9,32.8c0-.07,0-.14,0-.21,0,.07,0,.14,0,.21Z"/>
        <path class="cls-2" d="m8.9,33.21c0-.07,0-.14,0-.21,0,.07,0,.14,0,.21Z"/>
        <path class="cls-2" d="m8.9,33.61c0-.07,0-.14,0-.21,0,.07,0,.14,0,.21Z"/>
        <path class="cls-2" d="m8.9,34.02c0-.07,0-.14,0-.21,0,.07,0,.14,0,.21Z"/>
        <path class="cls-2" d="m8.9,34.43c0-.07,0-.14,0-.21,0,.07,0,.14,0,.21Z"/>
        <path class="cls-2" d="m8.9,34.84c0-.07,0-.14,0-.21,0,.07,0,.14,0,.21Z"/>
        <path class="cls-2" d="m8.9,35.25c0-.07,0-.14,0-.21,0,.07,0,.14,0,.21Z"/>
        <path class="cls-2" d="m8.9,27.08c0-.07,0-.14,0-.21,0,.07,0,.14,0,.21Z"/>
        <path class="cls-2" d="m8.9,40.55c0-.07,0-.14,0-.21,0,.07,0,.14,0,.21Z"/>
        <path class="cls-3" d="m67.06,37.7c.02-.07.04-.15.06-.22-.02.07-.04.15-.06.22Z"/>
        <path class="cls-2" d="m8.9,38.1c0-.07,0-.14,0-.21,0,.07,0,.14,0,.21Z"/>
        <path class="cls-12" d="m15.3,67.02c.07,0,.15,0,.22,0-.07,0-.15,0-.22,0Z"/>
        <path class="cls-5" d="m66.83,0c-.07,0-.13,0-.2.01.07,0,.13,0,.2-.01Z"/>
        <path class="cls-2" d="m8.9,38.51c0-.07,0-.14,0-.21,0,.07,0,.14,0,.21Z"/>
        <path class="cls-2" d="m8.9,38.92c0-.07,0-.14,0-.21,0,.07,0,.14,0,.21Z"/>
        <path class="cls-2" d="m8.9,39.33c0-.07,0-.14,0-.21,0,.07,0,.14,0,.21Z"/>
        <path class="cls-2" d="m8.9,39.74c0-.07,0-.14,0-.21,0,.07,0,.14,0,.21Z"/>
        <path class="cls-2" d="m8.9,26.68c0-.07,0-.14,0-.21,0,.07,0,.14,0,.21Z"/>
        <path class="cls-3" d="m67.12.25c-.03-.07-.07-.13-.1-.2.03.07.07.13.1.2Z"/>
        <path class="cls-2" d="m8.9,40.96c0-.07,0-.14,0-.21,0,.07,0,.14,0,.21Z"/>
        <path class="cls-2" d="m8.9,41.37c0-.07,0-.14,0-.21,0,.07,0,.14,0,.21Z"/>
        <path class="cls-2" d="m8.9,41.78c0-.07,0-.14,0-.21,0,.07,0,.14,0,.21Z"/>
        <path class="cls-2" d="m8.9,42.19c0-.07,0-.14,0-.21,0,.07,0,.14,0,.21Z"/>
        <path class="cls-2" d="m8.9,42.59c0-.07,0-.14,0-.21,0,.07,0,.14,0,.21Z"/>
        <path class="cls-2" d="m8.9,43c0-.07,0-.14,0-.21,0,.07,0,.14,0,.21Z"/>
        <path class="cls-2" d="m8.9,43.41c0-.07,0-.14,0-.21,0,.07,0,.14,0,.21Z"/>
        <path class="cls-2" d="m8.9,43.82c0-.07,0-.14,0-.21,0,.07,0,.14,0,.21Z"/>
        <path class="cls-2" d="m8.9,26.27c0-.07,0-.14,0-.21,0,.07,0,.14,0,.21Z"/>
        <path class="cls-2" d="m8.9,25.86c0-.07,0-.14,0-.21,0,.07,0,.14,0,.21Z"/>
        <path class="cls-2" d="m8.9,25.45c0-.07,0-.14,0-.21,0,.07,0,.14,0,.21Z"/>
        <path class="cls-2" d="m8.9,25.04c0-.07,0-.14,0-.21,0,.07,0,.14,0,.21Z"/>
        <path class="cls-2" d="m8.9,44.23c0-.07,0-.14,0-.21,0,.07,0,.14,0,.21Z"/>
        <path class="cls-2" d="m8.9,44.64c0-.07,0-.14,0-.21,0,.07,0,.14,0,.21Z"/>
        <path class="cls-2" d="m8.9,45.04c0-.07,0-.14,0-.21,0,.07,0,.14,0,.21Z"/>
        <path class="cls-2" d="m8.9,45.45c0-.07,0-.14,0-.21,0,.07,0,.14,0,.21Z"/>
        <path class="cls-2" d="m8.9,45.86c0-.07,0-.14,0-.21,0,.07,0,.14,0,.21Z"/>
        <path class="cls-2" d="m8.9,46.27c0-.07,0-.14,0-.21,0,.07,0,.14,0,.21Z"/>
        <path class="cls-2" d="m8.9,46.68c0-.07,0-.14,0-.21,0,.07,0,.14,0,.21Z"/>
        <path class="cls-2" d="m8.9,47.08c0-.07,0-.14,0-.21,0,.07,0,.14,0,.21Z"/>
        <path class="cls-2" d="m8.9,47.49c0-.07,0-.14,0-.21,0,.07,0,.14,0,.21Z"/>
        <path class="cls-2" d="m8.9,47.9c0-.07,0-.14,0-.21,0,.07,0,.14,0,.21Z"/>
        <path class="cls-2" d="m8.9,48.31c0-.07,0-.14,0-.21,0,.07,0,.14,0,.21Z"/>
        <path class="cls-2" d="m8.9,48.72c0-.07,0-.14,0-.21,0,.07,0,.14,0,.21Z"/>
        <path class="cls-2" d="m8.9,49.13c0-.07,0-.14,0-.21,0,.07,0,.14,0,.21Z"/>
        <path class="cls-2" d="m8.91,49.53c0-.07,0-.14,0-.21,0,.07,0,.14,0,.21Z"/>
        <path class="cls-2" d="m8.9,24.63c0-.07,0-.14,0-.21,0,.07,0,.14,0,.21Z"/>
        <path class="cls-8" d="m38.02,58.62c0-.07,0-.14,0-.21,0,.07,0,.14,0,.21Z"/>
        <path class="cls-3" d="m67.06,52.4c.02-.08.04-.15.06-.23-.02.08-.04.15-.06.23Z"/>
        <path class="cls-2" d="m8.9,24.23c0-.07,0-.14,0-.21,0,.07,0,.14,0,.21Z"/>
        <path class="cls-13" d="m59.49,52.51c.07,0,.13,0,.2,0-.07,0-.13,0-.2,0Z"/>
        <path class="cls-2" d="m8.9,23.82c0-.07,0-.14,0-.21,0,.07,0,.14,0,.21Z"/>
        <path class="cls-8" d="m38,8.2c0-.07,0-.14,0-.21,0,.07,0,.14,0,.21Z"/>
        <path class="cls-2" d="m8.9,23.41c0-.07,0-.14,0-.21,0,.07,0,.14,0,.21Z"/>
        <path class="cls-2" d="m8.91,23c0-.07,0-.14,0-.21,0,.07,0,.14,0,.21Z"/>
        <path class="cls-3" d="m67.09,14.95c0-.08,0-.15,0-.23,0,.08,0,.15,0,.23Z"/>
        <path class="cls-8" d="m38.01,8.61c0-.07,0-.14,0-.21,0,.07,0,.14,0,.21Z"/>
        <path class="cls-2" d="m8.9,27.9c0-.07,0-.14,0-.21,0,.07,0,.14,0,.21Z"/>
        <path class="cls-8" d="m37.97,58.28s-.08-.05-.11-.07c.04.02.08.05.11.07Z"/>
        <path class="cls-5" d="m52.45.02h-.05s-.05,0-.05,0c.03,0,.06,0,.1,0Z"/>
        <path class="cls-3" d="m67.03,8.8s.06-.08.09-.11c-.03.04-.06.08-.09.11Z"/>
        <path class="cls-13" d="m65.21,52.51s.07,0,.1,0c-.03,0-.07,0-.1,0Z"/>
        <path class="cls-16" d="m.08,51.98s0,.07,0,.1c0-.02-.02-.05-.03-.07,0,0,.02-.02.03-.03Z"/>
        <path class="cls-8" d="m37.99,7.7s0-.08,0-.11c.01.03.03.05.03.08,0,0-.02.02-.03.04Z"/>
        <path class="cls-8" d="m37.99,7.29s0-.08,0-.11c.01.03.03.05.03.08,0,0-.02.02-.03.03Z"/>
        <path class="cls-5" d="m43.77.03s.06-.02.09-.03c0,0,.02.04.02.04-.04,0-.07,0-.11-.01Z"/>
        <path class="cls-3" d="m67.11,8.53s-.02-.09-.03-.14c.01.03.03.06.04.09,0,.01,0,.03-.01.05Z"/>
        <path class="cls-9" d="m66.82,37.93s.08-.01.12-.02c-.04,0-.08.01-.12.02Z"/>
        <path class="cls-8" d="m37.99,65.25s0-.08,0-.11c.01.03.03.05.03.08,0,0-.02.02-.03.03Z"/>
        <path class="cls-8" d="m38,66.47s0-.08,0-.11c.01.03.02.05.03.08,0,0-.02.02-.02.04Z"/>
        <path class="cls-16" d="m.07,66.68s.01.06,0,.1c0-.02-.02-.05-.02-.07,0,0,.02-.02.03-.03Z"/>
        <path class="cls-12" d="m23.5,66.89s0-.08,0-.12c0,.03.02.06.03.09,0,0-.02.02-.03.03Z"/>
        <path class="cls-4" d="m43.7,66.77s.03.08.05.12c-.02-.04-.03-.08-.05-.12Z"/>
        <path class="cls-12" d="m.1,66.88s.06.07.09.11c-.03-.04-.06-.07-.09-.11Z"/>
        <path class="cls-12" d="m23.39,66.99s.06-.06.09-.08c-.03.03-.06.06-.09.08Z"/>
        <path class="cls-4" d="m43.76,66.9s.07.07.11.1c-.04-.03-.07-.07-.11-.1Z"/>
        <path class="cls-5" d="m58.37.02s-.06.03-.09.04c.03-.01.06-.03.09-.04Z"/>
        <path class="cls-9" d="m66.42,37.93s.08,0,.13,0c-.04,0-.08,0-.13,0Z"/>
        <path class="cls-12" d="m22.74,67.02s.08,0,.12,0c-.04,0-.08,0-.12,0Z"/>
        <path class="cls-12" d="m23.16,67.04s.08,0,.12,0c-.04,0-.08,0-.12,0Z"/>
        <path class="cls-12" d="m29.38,67.02s.08,0,.12,0c-.04,0-.08,0-.12,0Z"/>
        <path class="cls-12" d="m66.42,67.02s.08,0,.12,0c-.04,0-.08,0-.12,0Z"/>
        <path class="cls-12" d="m36.21,67.01s.08,0,.12,0c-.04,0-.08,0-.12,0Z"/>
        <path class="cls-2" d="m8.91,37.6s0-.08,0-.11c.01.03.02.05.03.08,0,0-.02.02-.03.03Z"/>
        <path class="cls-5" d="m66.94,29.11s-.07,0-.1-.01c.03,0,.07,0,.1.01Z"/>
        <path class="cls-12" d="m59.07,67.07s.08-.04.12-.06c-.04.02-.08.04-.12.06Z"/>
        <path class="cls-5" d="m37.65,0h-.05s-.05,0-.05,0c.03,0,.07,0,.1,0Z"/>
        <path class="cls-4" d="m43.77.03s.07,0,.11.01c-.04.03-.08.06-.12.1,0-.04,0-.07,0-.11Z"/>
      </g>
    </g>
  </g>
</svg>