<?xml version="1.0" encoding="UTF-8"?>
<svg id="Layer_2" data-name="Layer 2" xmlns="http://www.w3.org/2000/svg" viewBox="0 0 67.13 67.13">
  <defs>
    <style>
      .cls-1 {
        fill: #ababaa;
      }

      .cls-2 {
        fill: #707151;
      }

      .cls-3 {
        fill: #40a240;
      }

      .cls-4 {
        fill: #196822;
      }

      .cls-5 {
        fill: #ccd1c9;
      }

      .cls-6 {
        fill: #196622;
      }

      .cls-7 {
        fill: #6f6f50;
      }

      .cls-8 {
        fill: #20822c;
      }

      .cls-9 {
        fill: #318c3b;
      }

      .cls-10 {
        fill: #727353;
      }

      .cls-11 {
        fill: #1d7c28;
      }

      .cls-12 {
        fill: #c2e6c9;
      }

      .cls-13 {
        fill: #258430;
      }

      .cls-14 {
        fill: #186521;
      }

      .cls-15 {
        fill: #308b3a;
      }

      .cls-16 {
        fill: #92936a;
      }

      .cls-17 {
        fill: #21822d;
      }

      .cls-18 {
        fill: none;
      }

      .cls-19 {
        fill: #737454;
      }

      .cls-20 {
        fill: #6cc07a;
      }

      .cls-21 {
        fill: #d0eeda;
      }

      .cls-22 {
        fill: #1c7026;
      }

      .cls-23 {
        fill: #898960;
      }

      .cls-24 {
        fill: #9fe3c2;
      }
    </style>
  </defs>
  <g id="Layer_3" data-name="Layer 3">
    <g>
      <rect class="cls-18" width="67.13" height="67.13"/>
      <g>
        <path class="cls-3" d="m49.68,24.7v.02s-.01,0-.01,0c.01.16.02.32.04.48.17,1.24.44,2.48.48,3.72.05,1.35-.05,2.72-.2,4.07-.18,1.61-.59,3.18-1.15,4.71-.74,2.04-1.74,3.93-3.04,5.66-.2.27-.36.56-.53.85,0,0,0,0,0,0-.13.1-.28.18-.4.29-.63.62-1.23,1.27-1.88,1.86-1.35,1.23-2.89,2.16-4.57,2.88-1.7.73-3.48,1.15-5.31,1.21-1.11.04-2.25-.04-3.35-.21-2.32-.37-4.43-1.3-6.35-2.64-1.32-.92-2.49-2-3.54-3.22-1.15-1.35-2.14-2.81-2.88-4.41-.57-1.26-1.09-2.55-1.48-3.87-.35-1.18-.52-2.43-.73-3.65-.1-.57-.14-1.16-.15-1.74-.01-1.06-.01-2.12.05-3.18.05-.78.2-1.56.31-2.34.04-.06.1-.12.12-.19.17-.63.31-1.27.5-1.89.94-2.93,2.33-5.65,3.99-8.23,1.52-2.37,3.21-4.62,5.07-6.73,1.08-1.23,2.17-2.45,3.3-3.63,1.18-1.22,2.42-2.39,3.63-3.57.2-.19.4-.39.62-.54.09-.06.3-.05.38.01.87.74,1.77,1.45,2.59,2.25,1.23,1.2,2.44,2.43,3.58,3.72,1.25,1.41,2.45,2.87,3.6,4.36,1.74,2.24,3.24,4.63,4.54,7.15,1.08,2.1,1.97,4.28,2.57,6.58.02.09.11.17.17.25Zm-14.56,18.19c.15-.03.31-.06.46-.1v-3.88h-1.27v4.17c.24-.07.46-.12.68-.18.04,0,.09,0,.13,0Zm-2.44-7.17c4.3.04,7.79-3.5,7.82-7.7.04-4.38-3.53-7.84-7.73-7.88-4.33-.03-7.84,3.51-7.86,7.74-.02,4.34,3.53,7.84,7.76,7.84Zm-1.97,7.38c0-1.38,0-2.69-.01-4.01,0-.07-.14-.19-.23-.2-.3-.02-.6,0-.89-.01-.21,0-.25.09-.25.27,0,1.13,0,2.27.01,3.4,0,.09.12.24.21.26.36.11.73.18,1.16.28Zm1.14-4.19v4.43h1.25v-4.43h-1.25Zm6.03.02h-1.21v3c.38-.16.73-.3,1.07-.47.07-.03.14-.16.14-.24.01-.76,0-1.51,0-2.3Zm-10.89-.02c0,.77,0,1.52,0,2.26,0,.05.03.13.06.15.37.21.75.4,1.14.61v-3.02h-1.21Z"/>
        <path class="cls-17" d="m15.01,25.18c-.11.78-.26,1.55-.31,2.34-.06,1.06-.06,2.12-.05,3.18,0,.58.05,1.17.15,1.74.21,1.22.38,2.47.73,3.65.39,1.32.9,2.62,1.48,3.87.73,1.61,1.73,3.06,2.88,4.41,1.05,1.23,2.22,2.31,3.54,3.22,1.92,1.34,4.03,2.27,6.35,2.64,1.1.17,2.23.25,3.35.21,1.84-.06,3.61-.48,5.31-1.21,1.67-.72,3.22-1.65,4.57-2.88.65-.59,1.25-1.24,1.88-1.86.12-.11.27-.2.4-.29-.37.43-.71.9-1.13,1.28-.68.63-1.22,1.31-1.61,2.18-.32.71-.88,1.31-1.39,1.92-.91,1.09-2.06,1.91-3.26,2.64-.08.05-.14.11-.21.17-.04.02-.09.04-.13.06-.71.29-1.4.61-2.13.86-2.23.77-4.45.69-6.64-.14-.58-.22-1.14-.48-1.7-.72-.04-.02-.09-.04-.13-.07-.51-.34-1.03-.67-1.52-1.03-1.38-1.01-2.56-2.2-3.39-3.71-.19-.34-.3-.72-.46-1.08-.08-.19-.16-.4-.3-.54-1.63-1.53-2.94-3.29-4.01-5.25-.74-1.36-1.32-2.78-1.77-4.26-.2-.68-.36-1.37-.55-2.05-.02-.09-.08-.18-.15-.23-.36-.27-.73-.53-1.1-.79-.04-.03-.09-.05-.13-.08-.06-.09-.14-.18-.19-.28-.31-.54-.67-1.06-.91-1.63-.34-.79-.35-1.64-.21-2.49.02-.11.05-.22.07-.34.29-1.02.82-1.88,1.63-2.57.19-.16.37-.35.59-.44.23-.1.33-.24.4-.45.02,0,.05,0,.07,0Z"/>
        <path class="cls-1" d="m28.71,67.09c-.52,0-1.03.01-1.55-.02-1.43-.08-2.86-.15-4.28-.27-1.15-.1-2.29-.26-3.43-.43-.3-.04-.58-.2-.91-.32.23-.38.55-.43.82-.47,1.06-.17,2.13-.34,3.2-.43,1.51-.12,3.02-.15,4.53-.22.67-.03,1.35-.06,2.02-.07,2.1-.02,4.2-.04,6.29-.06.03,0,.05,0,.08,0,1.84.08,3.68.13,5.52.26,1.43.1,2.86.3,4.29.49.3.04.59.19.88.3,0,.05,0,.09.01.14-.14.08-.26.21-.41.24-.73.15-1.45.34-2.19.41-1.85.17-3.71.29-5.57.41-.53.03-1.05.02-1.58.03-2.34.02-4.67.03-7.01.05-.03,0-.05,0-.08,0-.18-.01-.36-.03-.54-.04-.03,0-.06,0-.09,0Z"/>
        <path class="cls-3" d="m18.39,47.85s.04,0,.06.01c.09.08.17.17.27.23.59.37,1.22.68,1.51,1.39.26.65-.03,1.76-.91,1.91-.57.09-1.07.03-1.51-.34-.52-.44-1.08-.71-1.8-.65-1.53.14-2.41,1.87-1.56,3.21.52.83,1.34.99,2.22,1.07,0,0,0,0,0,0,.05.05.1.13.17.16.6.27.78.75.73,1.37-.06.82-.8,1.47-1.59,1.37-1.36-.18-2.53-.71-3.43-1.79-.72-.86-1.13-1.84-1.17-2.94-.08-1.94.71-3.49,2.35-4.55,1-.64,2.11-.92,3.31-.71.46.08.91.18,1.37.28Z"/>
        <path class="cls-17" d="m45.26,44.21c.18-.28.33-.58.53-.85,1.31-1.73,2.3-3.62,3.04-5.66.56-1.53.97-3.1,1.15-4.71.15-1.35.25-2.71.2-4.07-.04-1.24-.31-2.48-.48-3.72-.02-.16-.03-.32-.04-.48.01,0,.03,0,.03.02.06.54.35.89.81,1.2.44.3.77.77,1.15,1.17.02.05.05.09.07.14.69,1.25.91,2.56.49,3.96-.06.19-.1.39-.15.59h0s-.04.04-.06.07c-.02.08-.04.15-.07.23-.33.75-.83,1.38-1.52,1.78-.49.28-.56.7-.69,1.14-.24.87-.44,1.76-.75,2.6-.41,1.09-.84,2.18-1.4,3.2-.61,1.1-1.38,2.12-2.08,3.17-.06.09-.16.16-.24.24Z"/>
        <path class="cls-15" d="m15.01,25.18s-.05,0-.07,0c.11-.51.19-1.04.35-1.54.54-1.72,1.2-3.39,2.01-5,1.64-3.28,3.71-6.27,6.02-9.1,2.73-3.36,5.75-6.43,8.92-9.36.05-.05.1-.09.21-.17.98.87,2,1.71,2.95,2.62,3.52,3.34,6.64,7.01,9.29,11.07,1.65,2.53,3.09,5.17,4.11,8.02.35.98.6,1.99.89,2.99-.06-.08-.15-.16-.17-.25-.6-2.29-1.49-4.47-2.57-6.58-1.3-2.52-2.8-4.91-4.54-7.15-1.15-1.49-2.35-2.95-3.6-4.36-1.14-1.29-2.35-2.51-3.58-3.72-.82-.8-1.71-1.51-2.59-2.25-.08-.07-.29-.07-.38-.01-.23.15-.43.35-.62.54-1.21,1.19-2.45,2.35-3.63,3.57-1.13,1.18-2.22,2.41-3.3,3.63-1.86,2.11-3.55,4.36-5.07,6.73-1.66,2.58-3.05,5.3-3.99,8.23-.2.62-.33,1.26-.5,1.89-.02.07-.08.13-.12.19Z"/>
        <path class="cls-13" d="m18.39,47.85c-.46-.09-.91-.2-1.37-.28-1.19-.2-2.3.07-3.31.71-1.65,1.05-2.43,2.61-2.35,4.55.04,1.1.45,2.08,1.17,2.94.9,1.08,2.07,1.61,3.43,1.79.79.1,1.52-.55,1.59-1.37.05-.62-.13-1.1-.73-1.37-.07-.03-.11-.1-.17-.16.75.12,1.12.74,1.03,1.55-.08.7-.45,1.29-1.17,1.43-.48.09-1.03.04-1.5-.11-2.03-.64-3.34-1.99-3.72-4.13-.09-.52-.02-1.08-.03-1.62,0-.07-.01-.16-.05-.22-.37-.51-.59-1.07-.56-1.71,0-.09,0-.19,0-.28.3-1.52,1.31-2.41,2.82-2.49.07,0,.13,0,.2,0,.44.15.87.35,1.33.43.29.05.61-.1.92-.12.86-.06,1.69.03,2.47.45Z"/>
        <path class="cls-8" d="m54.71,13.87c-.43-.27-.85-.57-1.3-.8-.19-.1-.47-.03-.71-.04,0-.06,0-.13,0-.19.97.17,1.89-.05,2.76-.46,1.17-.55,1.96-1.47,2.48-2.65.02.03.05.05.07.08.19.62.22,1.26.23,1.91-.03.07-.06.15-.09.22-.17.29-.3.62-.51.88-.68.84-1.59,1.14-2.65,1.03-.09,0-.18,0-.28.01Z"/>
        <path class="cls-9" d="m58,9.82s-.05-.05-.07-.08c.01-.07.01-.14.04-.2.32-.83.39-1.69.22-2.56-.34-1.77-1.37-3.01-3.01-3.74-.54-.24-1.08-.37-1.65.01-.77.51-.94,1.56-.27,2.18.27.25.62.42.96.58.81.37,1.25,1,1.3,1.86.06.97-.56,1.82-1.47,2.13-.86.29-1.8-.05-2.4-.82-.21-.27-.51-.5-.81-.66-.42-.22-.9-.26-1.32-.01-.7.41-.9,1.39-.45,2.09.85,1.32,2.09,2.04,3.64,2.25,0,.06,0,.13,0,.19-1.71-.26-3.07-1.08-3.91-2.62-.37-.67-.2-1.15.37-1.82.36-.42,1.08-.48,1.63-.27.48.18.79.5,1.1.88.46.57,1.08.87,1.8.72.68-.14,1.24-.51,1.5-1.23.4-1.12-.17-2.25-1.13-2.56-.6-.19-1.13-.57-1.37-1.24-.13-.36-.03-.69.11-.97.25-.51.63-.91,1.22-1.05.48-.11.89.1,1.29.27,1,.41,1.79,1.09,2.35,2.02.41.68.61,1.44.7,2.24.09.8-.02,1.54-.28,2.28-.02.05-.05.09-.08.14Z"/>
        <path class="cls-7" d="m10.66,49.57c0,.09,0,.19,0,.28-.48-.86-1-1.71-1.44-2.6-.65-1.31-.99-2.73-1.24-4.17-.2-1.15-.23-2.31-.2-3.47.03-1.42.27-2.81.66-4.17.74-2.59,2.01-4.87,3.88-6.81-.02.11-.05.22-.07.34-.2.21-.4.41-.58.62-1.08,1.27-1.89,2.69-2.51,4.23-.69,1.72-1.07,3.5-1.2,5.36-.08,1.14-.02,2.26.11,3.38.15,1.29.47,2.56.94,3.78.44,1.13.95,2.23,1.66,3.23Z"/>
        <path class="cls-19" d="m58.14,11.95c.03-.07.06-.15.09-.22.42,1.03.77,2.07.88,3.18.1,1.06.25,2.12.25,3.18,0,1.61-.24,3.2-.71,4.76-.74,2.45-1.9,4.66-3.61,6.57-.87.97-1.82,1.87-2.95,2.55-.06.03-.1.08-.15.13.02-.08.04-.15.07-.23.02-.02.04-.05.06-.07,0,0,0,0,0,0,.34-.24.68-.46,1-.71.9-.71,1.71-1.52,2.41-2.42.88-1.12,1.62-2.32,2.21-3.62.91-2.01,1.4-4.13,1.53-6.32.08-1.31.02-2.64-.28-3.92-.22-.96-.54-1.9-.81-2.85Z"/>
        <path class="cls-10" d="m54.71,13.87c.09,0,.18,0,.28-.01-.02.07-.06.15-.05.21.15.9.32,1.79.45,2.69.18,1.24.04,2.46-.18,3.68-.26,1.44-.78,2.79-1.48,4.07-.55.99-1.19,1.92-1.99,2.73-.02-.05-.05-.09-.07-.14.85-.92,1.56-1.94,2.12-3.05.6-1.19,1.01-2.43,1.27-3.74.23-1.18.25-2.37.17-3.54-.06-.97-.33-1.93-.51-2.9Z"/>
        <path class="cls-2" d="m37.53,52.45s.09-.04.13-.06c-.3,1.99-1.45,3.31-3.26,4.08-1.24.53-2.54.59-3.8.17-1.6-.53-2.8-1.56-3.42-3.18-.13-.34-.18-.71-.26-1.07.04.02.09.04.13.07.14.91.53,1.7,1.12,2.4,1.74,2.06,4.87,2.48,7.13.97,1.21-.81,1.97-1.93,2.22-3.37Z"/>
        <path class="cls-13" d="m16.67,54.67c-.88-.07-1.7-.24-2.22-1.07-.85-1.35.03-3.07,1.56-3.21.72-.07,1.28.2,1.8.65.44.37.94.44,1.51.34.88-.14,1.17-1.25.91-1.91-.28-.7-.92-1.02-1.51-1.39-.1-.06-.18-.15-.27-.23.86.15,1.95,1.22,2,2,.03.58-.07,1.17-.64,1.48-.67.37-1.34.34-1.99-.1-.37-.25-.75-.55-1.17-.65-1.52-.38-2.63,1.08-2.35,2.28.17.75.92,1.56,1.87,1.61.17,0,.34.13.51.2Z"/>
        <path class="cls-2" d="m13.68,47.09c-.07,0-.13,0-.2,0-.23-.49-.48-.96-.69-1.46-.68-1.64-1.05-3.35-1.09-5.12-.03-1.4.17-2.78.57-4.12.31-1.05.7-2.08,1.3-3.02.04.03.09.05.13.08-.67,1.12-1.13,2.32-1.45,3.59-.31,1.23-.46,2.48-.4,3.74.04,1.04.21,2.07.49,3.08.32,1.13.77,2.21,1.34,3.24Z"/>
        <path class="cls-5" d="m35.47,64.82s-.05,0-.08,0c.03,0,.05,0,.08,0Z"/>
        <path class="cls-5" d="m28.71,67.09s.06,0,.09,0c-.03,0-.06,0-.09,0Z"/>
        <path class="cls-5" d="m29.33,67.13s.05,0,.08,0c-.03,0-.05,0-.08,0Z"/>
        <path class="cls-6" d="m32.68,35.72c-4.23,0-7.78-3.5-7.76-7.84.02-4.23,3.53-7.78,7.86-7.74,4.19.03,7.76,3.5,7.73,7.88-.04,4.21-3.52,7.74-7.82,7.7Zm-6.73-7.85c-.03,3.8,3.28,6.99,7.25,6.68,3.32-.26,6.2-2.99,6.2-6.68,0-3.7-3.01-6.69-6.73-6.69-3.66,0-6.74,2.99-6.72,6.7Z"/>
        <path class="cls-11" d="m35.12,42.89s-.09,0-.13,0c-.18,0-.36,0-.56,0v-3.14c0-.77,0-.77.79-.73.17,0,.25.06.25.24,0,1.07,0,2.14-.01,3.2,0,.1-.14.19-.21.28-.04.05-.08.09-.13.14Z"/>
        <path class="cls-22" d="m30.71,43.1c-.43-.1-.8-.17-1.16-.28-.09-.03-.21-.17-.21-.26-.01-1.13,0-2.27-.01-3.4,0-.18.04-.28.25-.27.3.01.6-.01.89.01.08,0,.23.13.23.2.01,1.31.01,2.63.01,4.01Zm-.2-.27c0-1.06,0-2.12,0-3.17,0-.73.12-.61-.63-.64-.29-.01-.34.11-.34.36.01.81,0,1.63,0,2.44q0,.9.89,1.03s.02,0,.08-.02Z"/>
        <path class="cls-14" d="m31.85,38.91h1.25v4.43h-1.25v-4.43Zm1.16,4.32c0-1.36,0-2.65,0-3.95,0-.08-.07-.23-.11-.24-.27-.02-.55-.01-.82,0-.04,0-.1.12-.1.18,0,1.26,0,2.52,0,3.79,0,.07.12.2.19.2.27.02.55,0,.85,0Z"/>
        <path class="cls-14" d="m35.12,42.89s.09-.09.13-.14c.08-.09.21-.19.21-.28.02-1.07,0-2.13.01-3.2,0-.18-.07-.23-.25-.24-.79-.04-.79-.05-.79.73v3.14c.2,0,.38,0,.56,0-.22.06-.43.12-.68.18v-4.17h1.27v3.88c-.15.03-.31.06-.46.1Z"/>
        <path class="cls-4" d="m37.88,38.92c0,.79,0,1.54,0,2.3,0,.08-.07.21-.14.24-.34.16-.69.3-1.07.47v-3h1.21Zm-1.1,2.78c.26-.11.47-.21.68-.29.23-.08.3-.23.29-.47-.02-.41,0-.82,0-1.24,0-.73,0-.73-.73-.68-.18.01-.24.07-.24.25,0,.79,0,1.58,0,2.43Z"/>
        <path class="cls-4" d="m26.99,38.91h1.21v3.02c-.4-.21-.77-.41-1.14-.61-.04-.02-.06-.1-.06-.15,0-.74,0-1.48,0-2.26Zm1.1,2.77c0-.71,0-1.35,0-1.98-.01-.77.17-.65-.7-.67-.19,0-.27.06-.26.26,0,.55,0,1.1,0,1.65,0,.11.06.27.14.32.23.15.5.26.82.43Z"/>
        <path class="cls-23" d="m13.57,33.37c-.59.94-.98,1.96-1.3,3.02-.4,1.34-.6,2.72-.57,4.12.04,1.77.41,3.48,1.09,5.12.21.5.46.97.69,1.46-1.51.07-2.53.97-2.82,2.49-.7-1-1.22-2.09-1.66-3.23-.47-1.22-.79-2.49-.94-3.78-.13-1.12-.19-2.24-.11-3.38.13-1.85.51-3.64,1.2-5.36.62-1.54,1.43-2.97,2.51-4.23.18-.22.39-.42.58-.62-.13.85-.13,1.7.21,2.49.24.57.6,1.09.91,1.63.06.1.13.18.19.28Z"/>
        <path class="cls-16" d="m37.53,52.45c-.25,1.45-1.02,2.56-2.22,3.37-2.26,1.51-5.39,1.09-7.13-.97-.59-.69-.97-1.49-1.12-2.4.57.24,1.13.5,1.7.72,2.19.83,4.41.91,6.64.14.72-.25,1.42-.57,2.13-.86Z"/>
        <path class="cls-23" d="m51.73,27.24c.79-.82,1.44-1.74,1.99-2.73.71-1.28,1.23-2.63,1.48-4.07.22-1.22.36-2.44.18-3.68-.13-.9-.3-1.79-.45-2.69-.01-.07.03-.14.05-.21,1.06.11,1.97-.19,2.65-1.03.21-.26.34-.58.51-.88.27.95.59,1.89.81,2.85.3,1.29.36,2.61.28,3.92-.14,2.19-.63,4.31-1.53,6.32-.59,1.3-1.33,2.5-2.21,3.62-.71.9-1.51,1.71-2.41,2.42-.32.25-.67.47-1,.71.05-.2.09-.4.15-.59.42-1.39.2-2.7-.49-3.96Z"/>
        <path class="cls-23" d="m52.07,31.79s-.04.05-.06.07c.02-.02.04-.05.06-.07Z"/>
        <path class="cls-3" d="m52.7,12.85c-1.55-.21-2.78-.93-3.64-2.25-.45-.7-.24-1.68.45-2.09.41-.24.9-.21,1.32.01.3.16.6.39.81.66.6.77,1.54,1.11,2.4.82.91-.31,1.53-1.16,1.47-2.13-.05-.87-.49-1.49-1.3-1.86-.34-.15-.69-.33-.96-.58-.67-.61-.5-1.66.27-2.18.57-.38,1.11-.26,1.65-.01,1.64.73,2.66,1.98,3.01,3.74.17.86.1,1.73-.22,2.56-.02.06-.02.13-.04.2-.51,1.17-1.3,2.1-2.48,2.65-.87.41-1.78.63-2.76.46Z"/>
        <path class="cls-24" d="m25.95,27.87c-.02-3.71,3.06-6.7,6.72-6.7,3.73,0,6.74,3,6.73,6.69,0,3.7-2.88,6.43-6.2,6.68-3.97.31-7.28-2.88-7.25-6.68Zm6.35-2.62c-.02-.11-.03-.23-.07-.33-.29-.67-1.05-1.09-1.72-.96-.77.15-1.33.75-1.37,1.49-.05.76.42,1.42,1.16,1.65.02.02.05.04.07.06-.29.37-.22.78-.15,1.2.22,1.33,1.42,2.24,2.74,2.12,1.4-.13,2.34-1.15,2.36-2.54.02-1.53-1.21-2.75-2.95-2.61-.02-.03-.05-.05-.07-.08Z"/>
        <path class="cls-11" d="m30.51,42.83c-.06.02-.07.02-.08.02q-.89-.13-.89-1.03c0-.81,0-1.63,0-2.44,0-.25.04-.37.34-.36.75.03.63-.09.63.64,0,1.05,0,2.1,0,3.17Z"/>
        <path class="cls-11" d="m33.01,43.23c-.31,0-.58.01-.85,0-.07,0-.19-.13-.19-.2-.01-1.26,0-2.52,0-3.79,0-.06.06-.18.1-.18.27-.02.55-.02.82,0,.05,0,.11.15.11.24,0,1.3,0,2.6,0,3.95Z"/>
        <path class="cls-11" d="m36.78,41.7c0-.85,0-1.64,0-2.43,0-.17.06-.24.24-.25.73-.04.73-.05.73.68,0,.41-.02.83,0,1.24.01.24-.06.39-.29.47-.21.08-.42.18-.68.29Z"/>
        <path class="cls-11" d="m28.1,41.68c-.32-.16-.58-.27-.82-.43-.08-.05-.14-.21-.14-.32-.01-.55,0-1.1,0-1.65,0-.2.07-.26.26-.26.87.02.69-.1.7.67.01.64,0,1.27,0,1.98Z"/>
        <path class="cls-20" d="m32.37,25.32c1.74-.14,2.97,1.08,2.95,2.61-.02,1.39-.97,2.41-2.36,2.54-1.32.13-2.52-.79-2.74-2.12-.07-.42-.14-.83.15-1.2,1.11.16,2.08-.59,2-1.83Z"/>
        <path class="cls-21" d="m30.3,27.09c-.74-.23-1.21-.89-1.16-1.65.05-.74.6-1.35,1.37-1.49.67-.13,1.43.29,1.72.96.04.1.05.22.07.33-.09.06-.18.14-.28.17-.85.28-1.42.85-1.73,1.68Z"/>
        <path class="cls-12" d="m30.3,27.09c.31-.83.87-1.4,1.73-1.68.1-.03.19-.11.28-.17.02.03.05.05.07.08.07,1.25-.89,2-2,1.83-.02-.02-.05-.04-.07-.06Z"/>
      </g>
    </g>
  </g>
</svg>