<?xml version="1.0" encoding="UTF-8"?>
<svg id="Layer_2" data-name="Layer 2" xmlns="http://www.w3.org/2000/svg" viewBox="0 0 322.06 192.79">
  <defs>
    <style>
      .cls-1 {
        fill: #fff;
      }

      .cls-2 {
        fill: none;
        opacity: .5;
      }
    </style>
  </defs>
  <g id="Layer_1-2" data-name="Layer 1">
    <g id="Layer_2-2" data-name="Layer 2" class="cls-2">
      <g id="Layer_1-2" data-name="Layer 1-2">
        <path class="cls-1" d="m29.83,158.11c-4.24,0-8.32-1.68-11.32-4.68l-13.83-13.84c-6.24-6.25-6.24-16.37,0-22.62l27-26.62L117.3,4.68c6.25-6.24,16.37-6.24,22.62,0l13.83,13.84c3.51,3.51,9.21,3.51,12.72,0l13.84-13.84c6.25-6.24,16.37-6.24,22.62,0l13.84,13.84c6.24,6.25,6.24,16.37,0,22.62l-45.35,45.34c-6.25,6.24-16.36,6.24-22.61,0l-13.81-13.83c-3.51-3.51-9.21-3.51-12.72,0l-54.21,54.17-26.95,26.62c-2.99,3-7.06,4.68-11.29,4.67ZM128.61,7c-2.38,0-4.67.95-6.36,2.63L36.56,95.32l-26.95,26.62c-3.5,3.51-3.5,9.19,0,12.7l13.83,13.84c3.51,3.51,9.21,3.51,12.72,0l27-26.62,54.14-54.16c6.25-6.24,16.37-6.24,22.62,0l13.83,13.83c3.51,3.51,9.21,3.51,12.72,0l45.35-45.34c3.51-3.51,3.51-9.21,0-12.72l-13.82-13.84c-3.51-3.51-9.21-3.51-12.72,0l-13.86,13.84c-6.25,6.24-16.36,6.24-22.61,0l-13.81-13.84c-1.7-1.69-3.99-2.64-6.39-2.63Z"/>
        <path class="cls-1" d="m159.64,192.79l-68-68,36.46-36.46,31.51,31.51,79.24-79.25,83.21,83.22-36.42,36.49-46.76-46.75-79.24,79.24Zm-58.07-68l58.07,58.06,79.24-79.24,46.76,46.75,26.55-26.55-73.31-73.28-79.24,79.25-31.51-31.51-26.56,26.52Z"/>
      </g>
    </g>
  </g>
</svg>