<?xml version="1.0" encoding="UTF-8"?>
<svg id="Layer_2" data-name="Layer 2" xmlns="http://www.w3.org/2000/svg" viewBox="0 0 67.25 67.13">
  <defs>
    <style>
      .cls-1 {
        fill: #fff;
      }

      .cls-2 {
        fill: #6bbde3;
      }

      .cls-3 {
        fill: #c0b8e1;
      }

      .cls-4 {
        fill: #cbffff;
      }

      .cls-5 {
        fill: #feffff;
      }

      .cls-6 {
        fill: #d3c6e7;
      }

      .cls-7 {
        fill: #3178c6;
      }

      .cls-8 {
        fill: #c8bfe4;
      }

      .cls-9 {
        fill: #a9a6d9;
      }

      .cls-10 {
        fill: #d7e6f4;
      }

      .cls-11 {
        fill: #dfeaf6;
      }

      .cls-12 {
        fill: #5978c6;
      }

      .cls-13 {
        fill: #4585cb;
      }

      .cls-14 {
        fill: #6478c6;
      }

      .cls-15 {
        fill: #b6f1f9;
      }

      .cls-16 {
        fill: none;
      }

      .cls-17 {
        fill: #ccddf1;
      }

      .cls-18 {
        fill: #7dcbe9;
      }

      .cls-19 {
        fill: #bad2ec;
      }

      .cls-20 {
        fill: #878ecf;
      }

      .cls-21 {
        fill: #9dbee4;
      }
    </style>
  </defs>
  <g id="Layer_3" data-name="Layer 3">
    <g>
      <rect class="cls-16" width="67.13" height="67.13"/>
      <g>
        <path class="cls-7" d="m67.25,6.24v54.91s-.06.07-.06.1c-.05.69-.29,1.32-.59,1.93-.77,1.56-1.99,2.65-3.62,3.25-.38.14-.79.21-1.18.31-.17.02-.35.04-.52.06,0,0,0,0,0,0-.18,0-.37,0-.55,0-17.82,0-35.64,0-53.46,0-.17,0-.35,0-.52,0-.7-.05-1.37-.21-2.01-.49-.73-.32-1.4-.73-1.98-1.29-1.18-1.13-1.85-2.52-2.01-4.14-.01-.09-.02-.18-.03-.27,0-.14.02-.28.02-.42,0-17.76,0-35.52,0-53.28,0-.21,0-.41-.01-.62.04-.25.07-.49.12-.74.09-.48.21-.95.42-1.41C2.23,2.1,3.82.82,6.07.37c.12-.02.24-.07.36-.11,18.37,0,36.74,0,55.11,0,.06.02.11.06.17.07.65.09,1.27.3,1.87.57.88.4,1.62.99,2.23,1.74.43.54.78,1.12,1.02,1.79.19.51.34,1.02.38,1.56,0,.08.03.16.05.25Zm-19.36,55.03c.11,0,.22,0,.33,0,0,0,0,0,0,0,.35.03.69.06,1.04.09.5.02,1.01.03,1.51.04.13,0,.25-.03.38-.05.13,0,.26-.02.39-.02.22-.02.43-.04.65-.06h0c.2-.02.4-.04.59-.06.08,0,.15.01.23,0,.59-.1,1.19-.2,1.77-.33,1.36-.29,2.65-.79,3.8-1.58,1.22-.84,2.13-1.95,2.68-3.33.27-.67.42-1.37.49-2.09.09-.9.11-1.8-.06-2.71-.11-.58-.23-1.15-.45-1.7-.29-.74-.7-1.39-1.2-1.98-.79-.92-1.76-1.63-2.8-2.24-1.1-.64-2.26-1.15-3.42-1.65-.72-.3-1.44-.6-2.12-.98-.55-.3-1.09-.62-1.6-.99-.34-.25-.64-.58-.91-.91-.43-.53-.52-1.16-.42-1.81.03-.22.11-.44.22-.63.38-.7,1-1.12,1.72-1.41.75-.31,1.53-.4,2.33-.48.39,0,.79,0,1.18,0,.02,0,.04,0,.05,0,.24.02.49.04.73.06,1.95.24,3.79.81,5.45,1.89.02,0,.04,0,.06,0,.01-.07.03-.15.03-.22,0-1.92,0-3.83,0-5.75l-.04-.07c-.39-.12-.77-.23-1.15-.36-.82-.29-1.68-.41-2.54-.51-.07-.02-.13-.04-.2-.05h0c-.2-.02-.39-.04-.59-.06-.02,0-.03,0-.05,0-.26-.02-.53-.04-.79-.06-.04,0-.08,0-.12,0-.22-.02-.44-.03-.66-.05h-1.94c-.2.02-.4.03-.6.05-.02,0-.04,0-.05,0-.24.02-.48.04-.72.06,0,0,0,0,0,0-.09.02-.18.04-.27.05-.57.09-1.14.17-1.71.28-1.49.31-2.87.86-4.11,1.76-1.44,1.05-2.46,2.4-2.92,4.15-.09.34-.19.69-.22,1.04-.05.71-.09,1.42-.02,2.14.06.68.19,1.35.42,1.98.3.8.73,1.54,1.29,2.2,1.39,1.62,3.2,2.61,5.11,3.44.33.14.67.27,1.01.41.41.18.81.39,1.22.56.85.34,1.64.78,2.39,1.3.45.31.84.68,1.15,1.13.8,1.14.57,2.61-.54,3.44-.85.63-1.84.86-2.88.96h-2.09c-.36-.04-.72-.07-1.08-.14-.52-.1-1.03-.22-1.54-.36-.61-.17-1.18-.43-1.75-.7-.9-.43-1.72-.99-2.51-1.6-.04-.02-.07-.04-.11-.07,0,.03-.01.05-.02.08,0,2.06,0,4.11,0,6.17,0,.01,0,.02,0,.03,0,.11.02.19.13.23.17.07.32.16.49.23.54.21,1.08.43,1.63.6.44.14.9.24,1.35.32.48.09.97.14,1.46.21.16.02.31.04.47.06h.03s.03,0,.03,0c.13.02.26.04.39.05Zm-23.52-.31c.11.02.23.07.34.07,1.98,0,3.95,0,5.93,0,.11,0,.23-.05.34-.07,0-.15,0-.3,0-.45,0-7.61,0-15.22,0-22.83,0-.14,0-.28.01-.42,2.62,0,5.25,0,7.87,0,.15,0,.29-.04.44-.06,0-.12.01-.24.01-.36,0-1.52,0-3.03,0-4.55,0-.12,0-.24-.01-.36-.13-.02-.26-.06-.39-.06-7.47,0-14.95,0-22.42,0-.13,0-.26,0-.39.01-.01.02-.03.04-.04.06,0,1.75,0,3.5,0,5.25.14.03.29.07.43.07,2.44,0,4.88,0,7.32,0,.16,0,.32,0,.49,0,.02.02.04.04.06.06,0,.14.01.28.01.42,0,7.58,0,15.16,0,22.75,0,.14,0,.28,0,.42-.01.02-.01.04,0,.06Z"/>
        <path class="cls-19" d="m61.27,66.81s0,.04,0,.06H6.75s0-.04,0-.05c.17,0,.35,0,.52,0,17.82,0,35.64,0,53.46,0,.18,0,.37,0,.55,0Z"/>
        <path class="cls-19" d="m.64,6.3s.05,0,.07,0c0,.21.01.41.01.62,0,17.76,0,35.52,0,53.28,0,.14-.01.28-.02.42-.02,0-.04,0-.07,0,0-18.11,0-36.22,0-54.33Z"/>
        <path class="cls-17" d="m.64,60.63s.04,0,.07,0c.01.09.02.18.03.27-.03,0-.07,0-.1,0,0-.09,0-.17,0-.26Z"/>
        <path class="cls-5" d="m60.52,32.38c0,1.92,0,3.83,0,5.75,0,.07-.02.15-.03.22-.02,0-.04-.01-.06,0-1.66-1.08-3.5-1.65-5.46-1.89-.24-.02-.49-.04-.73-.06-.02,0-.04,0-.05,0-.39-.09-.79-.09-1.18,0-.79.07-1.58.17-2.33.48-.72.29-1.34.71-1.72,1.41-.1.19-.18.41-.22.63-.1.66-.01,1.29.42,1.81.27.33.57.66.91.91.5.37,1.05.68,1.6.99.68.38,1.4.68,2.12.98,1.17.49,2.33,1,3.42,1.65,1.04.61,2.01,1.32,2.8,2.24.51.59.92,1.25,1.2,1.98.22.56.34,1.12.45,1.7.17.91.15,1.81.06,2.71-.07.71-.22,1.42-.49,2.09-.56,1.38-1.46,2.49-2.68,3.33-1.15.8-2.44,1.29-3.8,1.58-.59.13-1.18.22-1.77.33-.07.01-.15,0-.23,0-.2.02-.4.04-.59.06,0,0,0,0,0,0-.22,0-.43.01-.65.02-.15.01-.31.03-.46.04h-1.75c-.37-.02-.74-.04-1.11-.06h0c-.11-.02-.22-.04-.33-.06-.13,0-.26,0-.39,0h-.03s-.03,0-.03,0c-.16-.02-.31-.04-.47-.06-.49-.07-.97-.12-1.46-.21-.46-.08-.91-.18-1.35-.32-.55-.17-1.09-.39-1.63-.6-.17-.06-.33-.15-.49-.23-.11-.05-.14-.13-.13-.23,0-.01,0-.02,0-.03,0-2.06,0-4.11,0-6.17.04,0,.08,0,.12-.01.79.61,1.61,1.17,2.51,1.6.57.27,1.14.54,1.75.7.51.14,1.02.26,1.54.36.35.07.72.1,1.08.14.7.11,1.39.11,2.09,0,1.03-.1,2.03-.33,2.88-.96,1.11-.83,1.34-2.3.54-3.44-.31-.45-.71-.82-1.15-1.13-.75-.52-1.54-.96-2.39-1.3-.41-.17-.81-.38-1.22-.56-.33-.15-.67-.27-1.01-.41-1.92-.83-3.73-1.82-5.11-3.44-.56-.66-.99-1.4-1.29-2.2-.24-.63-.36-1.3-.42-1.98-.07-.72-.03-1.43.02-2.14.03-.35.13-.69.22-1.04.45-1.75,1.47-3.1,2.92-4.15,1.23-.89,2.62-1.45,4.11-1.76.56-.12,1.14-.19,1.71-.28.09-.02.18-.04.27-.05,0,0,0,0,0,0,.24-.02.48-.04.72-.06.02,0,.04,0,.05,0,.19,0,.39,0,.58,0h1.97c.22,0,.43,0,.65,0,.04,0,.08,0,.12,0,.26.02.53.04.79.06.02,0,.03,0,.05,0,.2.02.39.04.59.06,0,0,0,0,0,0,.07.02.13.04.2.05.86.1,1.71.22,2.54.51.38.13.77.24,1.15.36.01.02.02.04.04.07Z"/>
        <path class="cls-1" d="m39.3,31.91c0,.12.01.24.01.36,0,1.52,0,3.03,0,4.55,0,.12,0,.24-.01.36-.7,0-1.41,0-2.11,0-1.95,0-3.89,0-5.84,0-.12,0-.24.04-.36.06,0,.14-.01.28-.01.42,0,7.61,0,15.22,0,22.83,0,.15,0,.3,0,.45-.13,0-.26.01-.39.01-1.81,0-3.61,0-5.42,0-.25,0-.5,0-.75-.01-.02-.02-.04-.04-.05-.06,0-.14,0-.28,0-.42,0-7.58,0-15.16,0-22.75,0-.14,0-.28-.01-.42,0-.02,0-.04,0-.06-.12-.02-.24-.06-.36-.06-2.49,0-4.98,0-7.48,0-.15,0-.3,0-.45-.01,0-1.75,0-3.5,0-5.25,0,0,.02,0,.02,0h.02c.13,0,.26-.01.39-.01,7.6,0,15.2,0,22.8,0Z"/>
        <path class="cls-4" d="m39.3,31.91c-7.6,0-15.2,0-22.8,0-.13,0-.26,0-.39,0,0-.02,0-.04-.01-.06.13,0,.26-.01.39-.01,7.47,0,14.95,0,22.42,0,.13,0,.26.04.39.06Z"/>
        <path class="cls-20" d="m16.06,37.16c.15,0,.3.01.45.01,2.49,0,4.98,0,7.48,0,.12,0,.24.04.36.06-.02,0-.04,0-.06,0-.16,0-.32,0-.49,0-2.44,0-4.88,0-7.32,0-.14,0-.29-.05-.43-.07Z"/>
        <path class="cls-20" d="m30.99,37.24c.12-.02.24-.06.36-.06,1.95,0,3.89,0,5.84,0,.7,0,1.41,0,2.11,0-.15.02-.29.06-.44.06-2.62,0-5.25,0-7.87,0Z"/>
        <path class="cls-14" d="m24.43,60.94c.25,0,.5.01.75.01,1.81,0,3.61,0,5.42,0,.13,0,.26,0,.39-.01-.11.03-.23.07-.34.07-1.98,0-3.95,0-5.93,0-.11,0-.23-.04-.34-.07,0,0,.03,0,.03,0h.03Z"/>
        <path class="cls-18" d="m51.01,56.14c-.7.11-1.39.11-2.09,0,.7,0,1.39,0,2.09,0Z"/>
        <path class="cls-15" d="m54.39,31.25c-.66,0-1.31,0-1.97,0,0-.01.01-.03.02-.04.65,0,1.29,0,1.94,0,0,.01.01.03.02.04Z"/>
        <path class="cls-12" d="m49.32,61.34c.58,0,1.16,0,1.75,0,.02,0,.05.02.07.03-.13.02-.25.05-.38.05-.5,0-1.01-.03-1.51-.04.02,0,.05-.02.07-.03Z"/>
        <path class="cls-6" d="m53.01,36.38c.39-.09.79-.09,1.18,0-.39,0-.79,0-1.18,0Z"/>
        <path class="cls-9" d="m49.32,61.34s-.05.02-.07.03c-.35-.03-.69-.06-1.04-.09.37.02.74.04,1.11.06Z"/>
        <path class="cls-18" d="m55.95,31.32c-.26-.02-.53-.04-.79-.06.26.02.53.04.79.06Z"/>
        <path class="cls-9" d="m54.25,36.39c.24.02.49.04.73.06-.24-.02-.49-.04-.73-.06Z"/>
        <path class="cls-18" d="m51.79,31.25c-.24.02-.48.04-.72.06.24-.02.48-.04.72-.06Z"/>
        <path class="cls-2" d="m54.39,31.25s-.01-.03-.02-.04c.22.02.44.03.67.05-.22,0-.43,0-.65,0Z"/>
        <path class="cls-9" d="m51.53,61.29c.22,0,.43-.01.65-.02-.22.02-.43.04-.65.06,0-.01,0-.03,0-.04Z"/>
        <path class="cls-18" d="m56.59,31.38c-.2-.02-.39-.04-.59-.06.2.02.39.04.59.06Z"/>
        <path class="cls-2" d="m52.44,31.2s-.01.03-.02.04c-.19,0-.39,0-.58,0,.2-.02.4-.03.6-.05Z"/>
        <path class="cls-9" d="m52.17,61.28c.2-.02.4-.04.59-.06-.2.02-.4.04-.59.06Z"/>
        <path class="cls-2" d="m61.79,66.73c-.17.02-.35.04-.52.06.17-.02.35-.04.52-.06Z"/>
        <path class="cls-3" d="m51.53,61.29s0,.03,0,.04c-.13,0-.26.02-.39.02-.02,0-.05-.02-.07-.03.15-.01.31-.03.46-.04Z"/>
        <path class="cls-3" d="m46.97,61.15c.16.02.31.04.47.06-.16-.02-.31-.04-.47-.06Z"/>
        <path class="cls-3" d="m47.49,61.21c.13,0,.26,0,.39,0,0,.02,0,.03,0,.05-.13-.02-.26-.04-.39-.05Z"/>
        <path class="cls-8" d="m47.89,61.26s0-.03,0-.05c.11.02.22.04.33.05-.11,0-.22,0-.33,0Z"/>
        <path class="cls-18" d="m51.07,31.32c-.09.02-.18.04-.27.05.09-.02.18-.04.27-.05Z"/>
        <path class="cls-18" d="m56.79,31.44c-.07-.02-.13-.04-.2-.05.07.02.13.04.2.05Z"/>
        <path class="cls-10" d="m42.04,53.34s-.08,0-.12.01c0-.03.01-.05.02-.08.04.02.07.04.11.07Z"/>
        <path class="cls-11" d="m24.43,60.94h-.03s-.03,0-.03,0c0-.02,0-.04,0-.06.02.02.04.04.05.06Z"/>
        <path class="cls-21" d="m60.43,38.34s.04,0,.06,0c-.02,0-.04,0-.06,0Z"/>
        <path class="cls-13" d="m24.29,37.25s.04,0,.06,0c0,.02,0,.04,0,.06-.02-.02-.04-.04-.06-.06Z"/>
        <path class="cls-21" d="m60.52,32.38s-.02-.04-.04-.07c.01.02.02.04.04.07Z"/>
        <path class="cls-17" d="m16.1,31.86s0,.04.01.06c0,0-.02,0-.02,0,0,0-.02,0-.02,0,.01-.02.03-.04.04-.06Z"/>
      </g>
    </g>
  </g>
</svg>