<?xml version="1.0" encoding="UTF-8"?>
<svg id="Layer_2" data-name="Layer 2" xmlns="http://www.w3.org/2000/svg" viewBox="0 0 67.13 67.13">
  <defs>
    <style>
      .cls-1 {
        fill: #fff;
      }

      .cls-2 {
        fill: none;
      }
    </style>
  </defs>
  <g id="Layer_3" data-name="Layer 3">
    <g>
      <rect class="cls-2" width="67.13" height="67.13"/>
      <g>
        <path d="m67.03,30.64c-.67-6.87-3.12-12.96-7.32-18.17-1.36-1.69-4.21-4.46-5.84-5.68-4.64-3.48-9.91-5.67-15.65-6.53-1.59-.24-6.39-.34-7.94-.17-6.59.72-12.78,3.27-17.78,7.29-1.69,1.36-4.46,4.21-5.68,5.84C3.35,17.86,1.13,23.16.29,28.87c-.29,1.93-.38,5.62-.2,7.54.55,5.68,2.36,10.93,5.31,15.4,5.43,8.25,13.74,13.54,23.5,14.98,1.93.29,5.62.38,7.54.2,5.68-.55,10.93-2.36,15.4-5.31,8.25-5.43,13.54-13.74,14.98-23.5.29-1.93.38-5.62.2-7.54Zm-33.14,14.83c-9.13,0-16.6-.03-16.6-.07,0-.1,16.57-29.07,16.61-29.02.01.01,3.77,6.55,8.3,14.51,4.55,7.96,8.28,14.5,8.28,14.52s-7.47.05-16.6.05Z"/>
        <path class="cls-1" d="m50.49,45.41s-7.47.05-16.6.05-16.6-.03-16.6-.07c0-.1,16.57-29.07,16.61-29.02.01.01,3.77,6.55,8.3,14.51,4.55,7.96,8.28,14.5,8.28,14.52Z"/>
      </g>
    </g>
  </g>
</svg>