<?xml version="1.0" encoding="UTF-8"?>
<svg id="Layer_2" data-name="Layer 2" xmlns="http://www.w3.org/2000/svg" viewBox="0 0 67.13 67.13">
  <defs>
    <style>
      .cls-1 {
        fill: #6e2a88;
      }

      .cls-2 {
        fill: #d161f6;
      }

      .cls-3 {
        fill: #753195;
      }

      .cls-4 {
        fill: #8639a6;
      }

      .cls-5 {
        fill: #d03195;
      }

      .cls-6 {
        fill: #ff61f6;
      }

      .cls-7 {
        fill: #d939a8;
      }

      .cls-8 {
        fill: #b42279;
      }

      .cls-9 {
        fill: #fe61f5;
      }

      .cls-10 {
        fill: #a54ac8;
      }

      .cls-11 {
        fill: none;
      }

      .cls-12 {
        fill: #470137;
      }

      .cls-13 {
        fill: #88567a;
      }

      .cls-14 {
        fill: #e445be;
      }

      .cls-15 {
        fill: #9642b9;
      }
    </style>
  </defs>
  <g id="Layer_3" data-name="Layer 3">
    <g>
      <rect class="cls-11" width="67.13" height="67.13"/>
      <g>
        <path class="cls-12" d="m0,54.69V12.18c.13-.18.12-.38.11-.59.03-.24.04-.48.09-.72.11-.54.19-1.1.35-1.63.26-.8.59-1.58,1.01-2.31.71-1.23,1.59-2.31,2.67-3.23.67-.57,1.39-1.06,2.17-1.47,1.27-.66,2.6-1.11,4.03-1.24.12-.01.24-.08.37-.12,15.16,0,30.32,0,45.48,0,.14.04.28.1.43.12.43.07.87.1,1.29.2,1.26.32,2.47.77,3.57,1.48.58.38,1.14.8,1.66,1.26.55.49,1.04,1.02,1.48,1.6.83,1.09,1.45,2.29,1.86,3.6.2.65.38,1.3.44,1.98.02.2.08.4.12.6v.19c-.13.17-.06.34,0,.51v42.26c-.02.15-.04.3-.06.45v.38c-.03.18-.04.35-.07.53-.07.4-.11.81-.22,1.21-.14.53-.31,1.06-.52,1.57-.2.5-.43.99-.69,1.45-.42.72-.91,1.4-1.47,2.03-.47.52-.98,1-1.52,1.43-1.02.8-2.14,1.42-3.37,1.84-.97.33-1.96.6-2.99.61-.17.02-.35.03-.52.05-.26,0-.51.01-.77.01-13.99,0-27.97,0-41.96,0-.49,0-.98,0-1.47,0-.28-.02-.56-.04-.84-.06-.47-.07-.96-.09-1.42-.21-1.05-.26-2.05-.64-3-1.16-.91-.51-1.75-1.11-2.5-1.83-.56-.53-1.06-1.11-1.51-1.74-.63-.87-1.1-1.83-1.5-2.82-.14-.35-.23-.73-.32-1.1-.09-.35-.15-.71-.21-1.07-.05-.31-.08-.62-.12-.93.11-.23.08-.44-.07-.64Zm47.33-7.16c.15,0,.3,0,.44,0,.19,0,.38,0,.57,0,.25,0,.51,0,.76,0,.28-.02.56-.04.84-.06,0,0,0,0,0,0,.22-.02.43-.04.65-.06.17-.02.33-.05.5-.06.67-.05,1.33-.18,1.99-.32,1.32-.27,2.61-.66,3.86-1.17.41-.17.47-.25.43-.7-.16-1.95-.15-3.91-.15-5.87,0-7.84,0-15.68,0-23.52,0-.1,0-.19,0-.29,0-.13-.05-.22-.18-.28-.09-.02-.18-.05-.27-.05-1.77,0-3.54,0-5.31,0-.1,0-.2.04-.3.05-.21.1-.17.3-.17.47,0,2.53,0,5.06,0,7.58,0,.34,0,.68,0,1.02-.26,0-.51,0-.77,0-.02,0-.04,0-.05,0-.11-.02-.22-.06-.34-.06-.35,0-.69,0-1.04,0-.12,0-.25.03-.37.05-.04,0-.08,0-.12,0-.24.02-.47.04-.71.06-.48.07-.96.12-1.43.21-.92.18-1.82.43-2.67.82-3.34,1.51-5.58,4-6.59,7.54-.19.68-.33,1.37-.37,2.08-.08,1.54-.04,3.06.33,4.57.18.73.41,1.45.74,2.13,1.11,2.23,2.84,3.81,5.11,4.8.66.29,1.36.48,2.06.65.67.16,1.35.32,2.04.33.17.02.35.03.52.05Zm-30.85-.56c.21-.03.29-.19.38-.35,1.85-3.46,3.69-6.92,5.54-10.38.04-.07.09-.13.15-.23.07.1.12.16.16.23.99,1.78,1.99,3.56,2.96,5.36.86,1.61,1.69,3.24,2.52,4.87.12.23.27.41.54.44.13.02.27.06.4.06,2.17,0,4.34,0,6.51,0,.07,0,.15,0,.22-.01.04-.01.06-.07.08-.11-.03-.23-.15-.43-.27-.63-2.85-4.66-5.69-9.33-8.54-14-.07-.11-.13-.22-.19-.32.05-.09.09-.17.14-.24,2.11-3.48,4.22-6.96,6.33-10.45.62-1.03,1.25-2.05,1.87-3.08.08-.13.17-.25.02-.39-.12-.02-.24-.07-.36-.07-1.91,0-3.83,0-5.74,0-.1,0-.2.04-.3.05-.04.02-.09.03-.11.06-.08.13-.15.27-.22.41-.48.91-.96,1.83-1.45,2.73-1.36,2.5-2.73,5-3.97,7.57-.02.05-.06.1-.12.17-.07-.14-.13-.24-.18-.34-.71-1.31-1.4-2.63-2.13-3.92-1.15-2.04-2.31-4.07-3.27-6.2-.13-.28-.29-.48-.6-.54-.1-.02-.2-.05-.31-.05-2.01,0-4.03,0-6.04,0-.1,0-.2.04-.3.05-.22.13-.23.18-.1.38.04.06.08.13.12.19,2.73,4.62,5.46,9.24,8.2,13.86.05.09.1.18.15.27-.06.1-.11.2-.17.29-2.08,3.4-4.15,6.81-6.23,10.21-.73,1.2-1.46,2.4-2.19,3.59-.09.15-.2.31-.14.5.08.02.17.07.25.07,2.02,0,4.03,0,6.05,0,.11,0,.23-.04.34-.06Z"/>
        <path class="cls-13" d="m67.13,12.43c-.06-.17-.13-.34,0-.51v.51Z"/>
        <path class="cls-6" d="m46.81,47.48c-.7,0-1.37-.17-2.04-.33-.7-.16-1.4-.36-2.06-.65-2.27-.99-4-2.57-5.11-4.8-.34-.68-.56-1.4-.74-2.13-.37-1.5-.42-3.03-.33-4.57.04-.71.18-1.4.37-2.08,1.02-3.54,3.25-6.03,6.59-7.54.85-.39,1.75-.64,2.67-.82.47-.09.95-.14,1.43-.21.24-.02.47-.04.71-.06.04,0,.08,0,.12,0,.58,0,1.16,0,1.74,0,.02,0,.04,0,.05,0,.26.06.51.12.77,0,0-.34,0-.68,0-1.02,0-2.53,0-5.06,0-7.58,0-.18-.04-.37.17-.47,1.93,0,3.86,0,5.8,0,.03,0,.06,0,.09-.01.12.05.18.14.18.28,0,.1,0,.19,0,.29,0,7.84,0,15.68,0,23.52,0,1.96-.01,3.91.15,5.87.04.45-.02.53-.43.7-1.25.51-2.53.9-3.86,1.17-.66.13-1.32.27-1.99.32-.17.01-.33.04-.5.06-.22.02-.43.04-.65.06,0,0,0,0,0,0-.27,0-.55,0-.82.01-.26.01-.52.03-.78.04-.19,0-.38,0-.57,0-.15-.01-.31-.03-.46-.04-.17,0-.34,0-.51,0Zm1.34-5.36c.47.1.94.09,1.42,0h.12c.3-.03.6-.05.9-.07.05-.02.1-.04.15-.04.21-.01.26-.14.25-.32,0-.04,0-.08,0-.13v-11.87c-.23-.05-.43-.1-.64-.15-.22-.02-.43-.04-.65-.06-.04,0-.08,0-.12-.01-.17-.08-.35-.08-.52,0-.45.05-.91.05-1.35.16-1.12.27-2.15.77-3,1.57-.79.74-1.38,1.6-1.63,2.67-.22.93-.27,1.87-.19,2.82.07.89.28,1.75.68,2.55.44.86,1.04,1.58,1.88,2.08.84.5,1.75.74,2.72.81Z"/>
        <path class="cls-9" d="m28.73,46.91c-.27-.03-.42-.21-.54-.44-.84-1.63-1.66-3.26-2.52-4.87-.96-1.8-1.97-3.57-2.96-5.36-.04-.07-.09-.13-.16-.23-.06.1-.11.16-.15.23-1.85,3.46-3.69,6.92-5.54,10.38-.09.16-.17.33-.38.35-.36,0-.72,0-1.09,0-1.85,0-3.7,0-5.56,0-.07-.2.04-.35.14-.5.73-1.2,1.46-2.4,2.19-3.59,2.08-3.4,4.15-6.81,6.23-10.21.06-.09.11-.18.17-.29-.05-.09-.1-.18-.15-.27-2.73-4.62-5.46-9.24-8.2-13.86-.04-.06-.08-.13-.12-.19-.13-.2-.12-.25.1-.38,1.63,0,3.27,0,4.9,0,.58,0,1.17,0,1.75,0,.31.06.48.26.6.54.96,2.14,2.12,4.17,3.27,6.2.73,1.3,1.42,2.62,2.13,3.92.05.1.11.2.18.34.05-.08.09-.12.12-.17,1.23-2.57,2.61-5.07,3.97-7.57.49-.91.97-1.82,1.45-2.73.07-.14.14-.28.22-.41.02-.03.07-.04.11-.06.21,0,.42,0,.64,0,1.92,0,3.85,0,5.77,0,.15.14.06.26-.02.39-.62,1.03-1.25,2.05-1.87,3.08-2.11,3.48-4.22,6.96-6.33,10.45-.04.07-.09.15-.14.24.06.1.13.21.19.32,2.85,4.67,5.69,9.33,8.54,14,.12.2.24.4.27.63-.13.02-.27.06-.4.06-1.45,0-2.91,0-4.36,0-.82,0-1.63,0-2.45,0Z"/>
        <path class="cls-7" d="m28.73,46.91c.82,0,1.63,0,2.45,0,1.45,0,2.91,0,4.36,0,.13,0,.27-.04.4-.06-.03.04-.05.1-.08.11-.07.02-.15.01-.22.01-2.17,0-4.34,0-6.51,0-.13,0-.27-.04-.4-.06Z"/>
        <path class="cls-1" d="m16.87,17.66c-.58,0-1.17,0-1.75,0-1.63,0-3.27,0-4.9,0,.1-.02.2-.05.3-.05,2.01,0,4.03,0,6.04,0,.1,0,.2.03.31.05Z"/>
        <path class="cls-5" d="m9.85,46.96c1.85,0,3.7,0,5.56,0,.36,0,.72,0,1.09,0-.11.02-.23.06-.34.06-2.02,0-4.03,0-6.05,0-.08,0-.17-.04-.25-.07Z"/>
        <path class="cls-2" d="m35.31,17.74c-1.92,0-3.85,0-5.77,0-.21,0-.42,0-.64,0,.1-.02.2-.05.3-.05,1.91,0,3.83,0,5.74,0,.12,0,.24.04.36.07Z"/>
        <path class="cls-3" d="m57.05,15.23s-.06.01-.09.01c-1.93,0-3.86,0-5.8,0,.1-.02.2-.05.3-.05,1.77,0,3.54,0,5.31,0,.09,0,.18.03.27.05Z"/>
        <path class="cls-4" d="m50.15,24.3c-.58,0-1.16,0-1.74,0,.12-.02.25-.05.37-.05.35,0,.69-.01,1.04,0,.11,0,.22.04.34.06Z"/>
        <path class="cls-8" d="m49.13,47.49c.27,0,.55,0,.82-.01-.28.02-.56.04-.84.06,0-.01.01-.03.02-.04Z"/>
        <path class="cls-14" d="m49.13,47.49s-.01.03-.02.04c-.25,0-.51,0-.76,0,.26-.01.52-.03.78-.04Z"/>
        <path class="cls-15" d="m50.97,24.31c-.26.12-.52.05-.77,0,.26,0,.51,0,.77,0Z"/>
        <path class="cls-4" d="m48.29,24.31c-.24.02-.47.04-.71.06.24-.02.47-.04.71-.06Z"/>
        <path class="cls-8" d="m49.94,47.48c.22-.02.43-.04.65-.06-.22.02-.43.04-.65.06Z"/>
        <path class="cls-8" d="m46.81,47.48c.17,0,.34,0,.51,0,0,.01.01.03.02.04-.17-.02-.35-.03-.52-.05Z"/>
        <path class="cls-14" d="m47.33,47.53s-.01-.03-.02-.04c.15.01.31.03.46.04-.15,0-.3,0-.44,0Z"/>
        <path class="cls-12" d="m49.68,42.11s-.08,0-.12.01c-.47,0-.94,0-1.42,0-.97-.07-1.88-.31-2.72-.81-.84-.5-1.44-1.22-1.88-2.08-.41-.8-.61-1.66-.68-2.55-.08-.95-.03-1.89.19-2.82.25-1.07.84-1.94,1.63-2.67.86-.8,1.88-1.29,3-1.57.44-.11.9-.11,1.35-.16.17,0,.35,0,.52,0,.04,0,.08,0,.12.01.22.02.43.04.65.06.21.05.42.1.64.15v11.87s0,.09,0,.13c.02.19-.03.31-.25.32-.05,0-.1.03-.15.04-.3.02-.6.04-.9.06Z"/>
        <path class="cls-10" d="m48.15,42.12c.47,0,.94,0,1.42,0-.47.09-.94.1-1.42,0Z"/>
        <path class="cls-3" d="m49.68,42.11c.3-.02.6-.04.9-.06-.3.02-.6.04-.9.06Z"/>
        <path class="cls-8" d="m50.34,29.54c-.22-.02-.43-.04-.65-.06.22.02.43.04.65.06Z"/>
        <path class="cls-14" d="m49.57,29.47c-.17,0-.35,0-.52,0,.17-.08.35-.08.52,0Z"/>
      </g>
    </g>
  </g>
</svg>