<?xml version="1.0" encoding="UTF-8"?>
<svg id="Layer_2" data-name="Layer 2" xmlns="http://www.w3.org/2000/svg" viewBox="0 0 659.41 476.21">
  <defs>
    <style>
      .cls-1 {
        fill: #56a3b1;
      }

      .cls-2 {
        fill: #6cccdd;
      }

      .cls-3 {
        fill: #3d3e4c;
      }

      .cls-4 {
        fill: #0f0f20;
      }
    </style>
  </defs>
  <g id="Layer_1-2" data-name="Layer 1">
    <g>
      <path class="cls-3" d="m372.67,335.8c1.54-1.17,3.25-2.18,4.61-3.53,44.34-44.2,88.58-88.5,133.01-132.61,12.85-12.75,28.45-20.29,46.51-22.85,30.69-4.36,56.58,4.84,78.16,26.85,7.66,7.8,15.46,15.47,24.44,24.44-1.57.94-3.21,1.52-4.33,2.64-72.51,72.32-145.04,144.62-217.4,217.09-15.49,15.51-33.68,25.62-55.39,27.86-27.11,2.81-50.82-5.75-70.38-24.89-15.38-15.05-30.5-30.36-45.72-45.58-.32-.32-.42-.87-.62-1.32,1.86.58,3.69,1.31,5.59,1.71,5.28,1.13,10.63,3.2,15.87,2.97,10.63-.46,19.3-5.6,26.81-13.28,18.24-18.65,36.82-36.95,55.25-55.41,1.28-1.28,2.39-2.72,3.59-4.09Z"/>
      <path class="cls-2" d="m285.54,139.96c-7.85,7.49-15.84,14.83-23.53,22.48-38.86,38.63-77.43,77.55-116.57,115.89-13.93,13.65-31.56,20.32-51.08,21.71-30.21,2.15-54.42-9.73-74.64-31.42-6.21-6.67-13.02-12.78-19.72-19.3,1.07-1.32,1.61-2.13,2.29-2.8C76.75,172.11,151.11,97.61,225.78,23.41c13.4-13.31,30.1-20.65,49.12-22.78,29.12-3.26,53.42,6.25,73.88,26.67,13.53,13.51,27.05,27.03,40.54,40.58,1.02,1.02,1.73,2.35,2.58,3.53-1.69-.49-3.36-1.1-5.08-1.45-5.3-1.06-10.68-3.08-15.93-2.8-9.85.52-18.24,4.89-25.33,12.14-17.69,18.08-35.72,35.83-53.59,53.74-2.22,2.23-4.3,4.61-6.44,6.92Z"/>
      <path class="cls-4" d="m372.67,335.8c-1.19,1.37-2.31,2.81-3.59,4.09-18.43,18.46-37.01,36.76-55.25,55.41-7.51,7.68-16.19,12.82-26.81,13.28-5.24.23-10.59-1.83-15.87-2.97-1.9-.41-3.73-1.13-5.59-1.71-8.85-6.92-15.45-15.71-20.86-25.44-7.38-13.28-11.47-27.6-10.94-42.72.78-22.28,8.66-42.04,24.09-58.34,9.02-9.52,18.6-18.51,27.75-27.55,10.05,9.78,20.07,19.43,29.97,29.19,18.06,17.79,36.05,35.65,54.07,53.49,1.05,1.04,2.02,2.18,3.03,3.27Z"/>
      <path class="cls-1" d="m285.54,139.96c2.14-2.31,4.22-4.69,6.44-6.92,17.87-17.91,35.9-35.66,53.59-53.74,7.09-7.25,15.48-11.62,25.33-12.14,5.25-.28,10.63,1.74,15.93,2.8,1.72.35,3.39.96,5.08,1.45,0,0,.04.11.03.12.63.41,1.26.82,1.89,1.23,16.88,14.89,27.3,33.46,29.57,55.83,2.84,27.95-5.39,52.47-25.54,72.54-8.32,8.29-16.73,16.51-25.48,25.14-2.15-1.98-4.38-3.88-6.44-5.94-26.81-26.78-53.61-53.58-80.4-80.37Z"/>
      <path class="cls-2" d="m393.84,72.76c-.63-.41-1.26-.82-1.89-1.23.63.41,1.26.82,1.89,1.23Z"/>
    </g>
  </g>
</svg>